<?xml version="1.0" encoding="utf-8"?>
<!-- Generator: Adobe Illustrator 18.1.1, SVG Export Plug-In . SVG Version: 6.00 Build 0)  -->
<svg version="1.1" id="Layer_1" xmlns="http://www.w3.org/2000/svg" xmlns:xlink="http://www.w3.org/1999/xlink" x="0px" y="0px"
	 viewBox="0 0 112.1 73.4" enable-background="new 0 0 112.1 73.4" xml:space="preserve">
<g>
	<g>
		<path fill="#FFFFFF" d="M7.9,3c1.6,0.4,3.1,0.8,4.6,1.3c1.5,0.6,2.8,1.4,3.8,2.5c1,1.1,1.7,2.5,1.6,4c-0.1,0.7-0.4,1.3-0.9,1.8
			c-0.5,0.4-1.2,0.6-1.9,0.6c-0.7,0-1.5-0.2-2.2-0.4c-0.7-0.3-1.3-0.7-1.9-1.2c-1.2-1-2.3-2.2-3.3-3.4l-5-6.4L7.9,3L8.2,2L0,0l7,8.9
			c1,1.3,2.1,2.6,3.4,3.6c1.3,1.1,3,1.9,4.8,1.9c0.9,0,1.9-0.3,2.6-0.9c0.7-0.6,1.2-1.6,1.2-2.5c0.2-1.8-0.7-3.6-1.9-4.8
			C16,4.9,14.5,4,12.9,3.4c-1.6-0.6-3.2-1-4.7-1.4L7.9,3z"/>
		<path fill-rule="evenodd" clip-rule="evenodd" fill="#FFFFFF" d="M2.5,3.1C2.5,3.1,2.5,3,2.5,3.1C2.5,3,2.5,3.1,2.5,3.1z"/>
		<path fill-rule="evenodd" clip-rule="evenodd" fill="#FFFFFF" d="M2.3,1.6C2.3,1.6,2.2,1.5,2.3,1.6C2.3,1.6,2.3,1.6,2.3,1.6z"/>
		<path fill-rule="evenodd" clip-rule="evenodd" fill="#FFFFFF" d="M2.3,1.5C2.3,1.5,2.3,1.5,2.3,1.5C2.3,1.5,2.3,1.5,2.3,1.5z"/>
		<path fill-rule="evenodd" clip-rule="evenodd" fill="#FFFFFF" d="M2,1.2C2,1.2,2,1.2,2,1.2C2.1,1.3,2,1.2,2,1.2z"/>
		<path fill-rule="evenodd" clip-rule="evenodd" fill="#FFFFFF" d="M2.3,1.4C2.4,1.4,2.4,1.4,2.3,1.4C2.4,1.5,2.4,1.4,2.3,1.4z"/>
		<path fill-rule="evenodd" clip-rule="evenodd" fill="#FFFFFF" d="M2.3,0.8C2.5,0.9,2.8,0.9,3,1C2.5,0.9,2.7,0.9,2.3,0.8z"/>
		<path fill-rule="evenodd" clip-rule="evenodd" fill="#FFFFFF" d="M2.8,1.2c0.2,0,0.4,0.1,0.6,0.1c0,0-0.3-0.1-0.3-0.1
			c0,0-0.1,0-0.1,0C2.9,1.2,2.8,1.2,2.8,1.2z"/>
		<path fill-rule="evenodd" clip-rule="evenodd" fill="#FFFFFF" d="M4.6,1.7C4.6,1.7,4.6,1.7,4.6,1.7C4.7,1.7,4.7,1.7,4.6,1.7
			L4.6,1.7z"/>
		<path fill-rule="evenodd" clip-rule="evenodd" fill="#FFFFFF" d="M5.4,1.8c0.1,0,0.4,0.1,0.5,0.1c0,0,0,0,0.1,0
			c0.1,0,0.3,0.1,0.1,0C5.7,1.8,5.7,1.8,5.4,1.8z"/>
		<path fill-rule="evenodd" clip-rule="evenodd" fill="#FFFFFF" d="M5.4,1.9c0,0,0.1,0,0.1,0C5.5,2,5.4,1.9,5.4,1.9z"/>
		<path fill-rule="evenodd" clip-rule="evenodd" fill="#FFFFFF" d="M5.7,1.6c0,0,0.1,0,0.2,0C5.8,1.7,5.7,1.6,5.7,1.6z"/>
		<path fill-rule="evenodd" clip-rule="evenodd" fill="#FFFFFF" d="M5.6,1.9c0.1,0,0.1,0,0.2,0C5.8,2,5.6,1.9,5.6,1.9z"/>
		<path fill-rule="evenodd" clip-rule="evenodd" fill="#FFFFFF" d="M5.6,2c0,0,0.2,0,0.2,0C5.8,2,5.7,2,5.6,2z"/>
		<path fill-rule="evenodd" clip-rule="evenodd" fill="#FFFFFF" d="M5.9,1.6c0,0,0.1,0,0.1,0C6,1.6,5.9,1.6,5.9,1.6z"/>
		<path fill-rule="evenodd" clip-rule="evenodd" fill="#FFFFFF" d="M5.9,1.7c0.1,0,0.3,0.1,0.4,0.1C6.1,1.7,6.1,1.7,5.9,1.7z"/>
		<path fill-rule="evenodd" clip-rule="evenodd" fill="#FFFFFF" d="M5.9,2C6,2,6.2,2.1,6.3,2.1C6,2.1,6.1,2.1,5.9,2z"/>
		<path fill-rule="evenodd" clip-rule="evenodd" fill="#FFFFFF" d="M6.2,2c0.1,0,0.1,0,0.2,0C6.4,2,6.3,2,6.2,2z"/>
		<path fill-rule="evenodd" clip-rule="evenodd" fill="#FFFFFF" d="M6.4,2c0,0,0.1,0,0.2,0C6.5,2.1,6.4,2,6.4,2z"/>
		<path fill-rule="evenodd" clip-rule="evenodd" fill="#FFFFFF" d="M6.5,2.1c0,0,0.2,0,0.1,0C6.6,2.1,6.6,2.1,6.5,2.1
			C6.6,2.1,6.6,2.1,6.5,2.1z"/>
		<path fill-rule="evenodd" clip-rule="evenodd" fill="#FFFFFF" d="M7,2C6.9,2,6.7,1.9,7,2L7,2z"/>
		<path fill-rule="evenodd" clip-rule="evenodd" fill="#FFFFFF" d="M7.2,2C7.3,2,7.4,2,7.5,2C7.3,2,7.3,2,7.2,2z"/>
		<path fill-rule="evenodd" clip-rule="evenodd" fill="#FFFFFF" d="M7.3,2C7.3,1.9,7.4,2,7.3,2L7.3,2z"/>
		<path fill-rule="evenodd" clip-rule="evenodd" fill="#FFFFFF" d="M7.5,1.9c0,0,0.1,0,0.1,0C7.6,1.9,7.5,1.9,7.5,1.9z"/>
		<path fill-rule="evenodd" clip-rule="evenodd" fill="#FFFFFF" d="M8,2C8.2,2,8.3,2.1,8,2L8,2z"/>
		<path fill-rule="evenodd" clip-rule="evenodd" fill="#FFFFFF" d="M3.7,1c0,0,0.1,0,0.1,0C3.8,1,4,1,4,1C3.9,1,3.8,1,3.7,1z"/>
		<path fill-rule="evenodd" clip-rule="evenodd" fill="#FFFFFF" d="M5.8,1.7C5.8,1.7,5.8,1.7,5.8,1.7C5.9,1.7,5.9,1.7,5.8,1.7
			C6,1.8,6,1.8,6.1,1.8c0,0,0,0,0,0c0.1,0,0.2,0.1,0.5,0.1c-0.2,0-0.7-0.2-0.9-0.2C5.7,1.7,5.8,1.7,5.8,1.7C5.9,1.7,5.8,1.7,5.8,1.7
			z"/>
		<path fill-rule="evenodd" clip-rule="evenodd" fill="#FFFFFF" d="M5.9,2C6,2,5.9,2,5.9,2C5.9,2,6,2,5.9,2C6,2,5.8,2,5.9,2z"/>
		<path fill-rule="evenodd" clip-rule="evenodd" fill="#FFFFFF" d="M7.4,2.3L7.4,2.3c0.1,0,0.3,0.1,0.4,0.1c-0.1,0-0.5-0.1-0.6-0.1
			c0,0,0,0-0.1,0C6.8,2.2,6.4,2.1,6.1,2c0.2,0,0.5,0.1,0.7,0.1c0,0,0,0,0,0C6.9,2.2,7.2,2.3,7.4,2.3z"/>
		<path fill-rule="evenodd" clip-rule="evenodd" fill="#FFFFFF" d="M7.3,2c0.1,0,0.1,0,0.1,0C7.5,2,7.4,2,7.3,2z"/>
		<path fill-rule="evenodd" clip-rule="evenodd" fill="#FFFFFF" d="M13.1,3.4c0,0-0.2-0.1-0.3-0.1c-0.2-0.1-0.4-0.2-0.6-0.2
			c-0.1,0-0.5-0.1-0.6-0.2c-0.1,0-0.2-0.1-0.3-0.1c-0.3-0.1-0.5-0.2-0.7-0.2c-0.3-0.1-0.4-0.1-0.6-0.1c-0.1,0-0.1,0-0.1,0
			C9.5,2.4,9.2,2.4,8.7,2.3c0,0-0.1,0-0.2,0c-0.1,0-0.1,0-0.2,0c-0.1,0,0,0.1-0.2,0c0,0,0,0,0,0c0,0.1,0,0.1,0,0.2
			c0.1,0.1,0.1,0.1,0.2,0.1c0.1,0,0.2,0.1,0.3,0.1c0.1,0,0.2,0.1,0.3,0.1C8.8,3,9,3,9,3c0.1,0,0.3,0.1,0.4,0.1c0,0,0,0,0,0
			c0.3,0.1,0.6,0.2,1,0.4c0,0,0.1,0,0.2,0.1c0.3,0.1,0.8,0.3,1,0.3c0.1,0,0.1,0,0.1,0c0,0,0.2,0.1,0.3,0.2c0,0,0.2,0.1,0.2,0.1
			c0.2,0.1,0.3,0.1,0.4,0.2c0,0,0.2,0.1,0.2,0.1c0.2,0.1,0.5,0.2,0.7,0.3c0.1,0,0.2,0.1,0.2,0.1C13.9,5,14,5,14,5
			C14.2,5,14.7,5.4,15,5.6c0.2,0.2,0.4,0.3,0.6,0.5c0,0,0.1,0.1,0.1,0.1c0,0,0.2,0.1,0.2,0.2c0.2,0.2,0.2,0.2,0.4,0.4
			c0.2,0.2,0.3,0.3,0.4,0.5c0,0,0.1,0.2,0.1,0.2c0,0,0.1,0.1,0.1,0.2c0,0.1,0.1,0.1,0.1,0.2c0,0,0.1,0.1,0.1,0.1
			c0,0,0.1,0.1,0.1,0.1c0,0,0.1,0.1,0.1,0.2c0.1,0.2,0.2,0.5,0.3,0.7c0.1,0.4,0.2,0.8,0.2,1.3c0,0.1,0,0.2,0,0.3c0,0,0,0,0,0.1
			c0,0.3,0,0.5-0.1,0.8c0,0,0,0,0,0c-0.1,0.3-0.3,0.7-0.5,0.9c-0.2,0.1-0.3,0.3-0.5,0.5c-0.1,0.1-0.2,0.1-0.3,0.2
			c-0.2,0.1-0.5,0.2-0.7,0.2c-0.1,0-0.1,0-0.2,0c-0.1,0-0.2,0-0.4,0c-0.5,0-1.1,0-1.5-0.2c-0.1,0-0.3-0.1-0.4-0.1
			c-0.2-0.1-0.5-0.2-0.7-0.3c0,0-0.1-0.1-0.2-0.1c-0.1-0.1-0.3-0.1-0.4-0.2c-0.4-0.2-0.7-0.4-1-0.7c-0.4-0.3-0.9-0.8-1.4-1.2
			c-0.1-0.1-0.2-0.2-0.3-0.3c-0.3-0.3-0.7-0.7-0.9-1c-1.2-1.4-2.4-3-3.6-4.4C4.9,4.8,4.7,4.6,4.6,4.5c0,0-0.1-0.1-0.1-0.1
			C4.4,4.2,4.2,4,4,3.7C4,3.7,3.9,3.5,3.8,3.5c0,0,0,0,0,0C3.6,3.3,3.3,2.8,3.1,2.6c0,0,0,0,0,0C3,2.5,3,2.5,2.9,2.4
			C2.8,2.3,2.7,2.1,2.5,1.9C2.4,1.8,2.3,1.7,2.3,1.6c0,0,0-0.1-0.1-0.1c0,0,0.1,0.1,0,0.1c0-0.1-0.1-0.1-0.2-0.2
			C2,1.3,2,1.3,1.9,1.2l0,0c0,0-0.1,0,0,0c0.2,0.1,0.2,0,0.4,0.1c0,0,0.2,0,0.2,0c0,0-0.1,0,0,0c0.1,0,0.3,0.1,0.4,0.1
			c0,0,0.1,0,0.1,0c0,0,0,0,0.1,0c0.1,0,0,0,0,0c0.1,0,0.1,0,0.1,0c0.1,0,0.2,0,0.3,0.1c0.2,0,0.2,0,0.4,0.1c0.1,0,0.2,0,0.3,0
			c0.1,0,0.2,0.1,0.3,0.1c0.1,0,0,0,0,0c0.4,0.1,0.7,0.2,1,0.2C4.7,1.7,5,1.8,4.3,1.7c-0.1,0-0.2,0-0.2-0.1c0,0,0.1,0,0,0
			c0,0,0,0-0.1,0c0.1,0,0,0,0,0C3.7,1.5,3.4,1.4,3.2,1.4c0,0,0,0,0,0C3,1.4,3,1.4,2.9,1.3c0,0-0.1,0-0.1,0c0.3,0.1,0.9,0.2,1.2,0.3
			c0.1,0,0.3,0.1,0.3,0.1c-0.2,0-0.3-0.1-0.5-0.1c-0.2,0-0.5-0.1-0.6-0.1c0,0-0.1,0-0.1,0c0,0-0.1,0-0.2,0c0,0-0.1,0-0.1,0
			c-0.1,0-0.2,0-0.2,0c-0.1,0-0.3-0.1-0.5-0.1c0,0,0,0,0,0c0.2,0.1,0.2,0.1,0.5,0.1c0,0,0,0,0,0c0.1,0,0.1,0,0.1,0
			c-0.2,0-0.2-0.1-0.1-0.1C3,1.2,3.4,1.3,3.8,1.4c0,0,0.1,0,0.1,0c0.5,0.1,0.7,0.2,1.2,0.3C4.7,1.6,4.2,1.5,3.7,1.4c0,0,0,0-0.1,0
			C3.3,1.3,3.1,1.2,3,1.2c-0.1,0-0.2-0.1-0.3-0.1C2.1,1,1.6,0.8,1,0.7c0,0.1,0.1,0.1,0.1,0.1c0,0,0,0,0,0c0,0-0.1-0.1-0.1-0.2
			c0,0,0-0.1-0.1-0.1c0.1,0,0.1,0,0.2,0.1c0.5,0.1,0.7,0.2,1,0.2C2.5,1,2.8,1,3.2,1.1c0.1,0,0,0,0,0C3,1,2.6,0.9,2.2,0.8
			c-0.2-0.1,0-0.1,0.3,0C2.9,1,3.5,1.1,3.9,1.2c1.3,0.3,2,0.5,3.2,0.7c-0.6-0.2-1-0.2-1.7-0.4c0,0,0,0-0.1,0c-0.5-0.1-1-0.2-1.6-0.4
			C3.5,1.1,3.2,1,2.9,0.9c0.1,0,0.2,0,0.4,0.1C3.2,0.9,2.9,0.9,2.7,0.8C2.5,0.8,2.3,0.7,1.9,0.6c0,0,0,0,0,0c0.1,0-0.2,0-0.2,0
			c-0.2,0-0.2,0-0.3-0.1c-0.1,0-0.1,0-0.3-0.1C0.8,0.4,0.6,0.3,0.4,0.3C0.7,0.6,0.9,1,1.3,1.4c0.1,0.1,0.1,0.2,0.1,0.2
			c0,0.1,0,0,0.1,0.1c0,0,0.1,0.1,0.1,0.1C1.8,2,1.9,2.2,2.1,2.4c0.3,0.3,0.6,0.7,0.8,1c0,0.1,0,0,0,0.1c0.4,0.5,0.7,1,1.1,1.4
			c0,0,0,0,0,0.1c0.1,0.1,0,0,0.1,0.1c0,0,0.1,0.1,0.1,0.1c0.5,0.6,0.9,1.1,1.3,1.7C6,7.4,6.4,7.9,6.8,8.5c0.3,0.4,0.6,0.7,0.9,1.1
			c0.4,0.5,0.8,0.9,1.2,1.3c0.3,0.3,0.6,0.6,0.9,0.9c0,0,0.1,0.1,0.2,0.1c0,0,0.2,0.2,0.2,0.2c0.2,0.2,0.5,0.4,0.7,0.5
			c0.3,0.2,0.5,0.4,0.8,0.5c0.2,0.1,0.3,0.2,0.5,0.3c0.1,0,0.3,0.1,0.3,0.2c0.3,0.1,0.7,0.3,1,0.3c0.4,0.1,0.9,0.2,1.4,0.2
			c0.5,0,1.2,0,1.6-0.2c0.4-0.1,0.8-0.3,1.2-0.6c0,0,0.1-0.1,0.1-0.1c0.6-0.5,0.9-1.2,1-1.8c0-0.2,0.1-0.4,0.1-0.6
			c0-0.2,0-0.4,0-0.6c0,0,0-0.2,0-0.2c0-0.2-0.1-0.4-0.1-0.6c-0.1-0.3-0.1-0.7-0.3-1c-0.1-0.3-0.3-0.7-0.5-1c-0.3-0.5-0.6-0.9-1-1.4
			c-0.1-0.1-0.2-0.3-0.4-0.4c-0.1-0.1-0.3-0.3-0.5-0.5c-0.2-0.2-0.4-0.3-0.6-0.5c-0.3-0.2-0.7-0.4-0.9-0.6c-0.1-0.1-0.3-0.2-0.6-0.3
			c-0.1-0.1-0.1-0.1-0.2-0.1c-0.1-0.1-0.2-0.1-0.4-0.2C13.4,3.6,13.3,3.5,13.1,3.4z M2.5,1.3C2.5,1.3,2.5,1.3,2.5,1.3
			C2.5,1.3,2.4,1.2,2.5,1.3z M2.5,1.3c0.1,0,0.3,0.1,0.4,0.1c0,0,0,0,0,0c0.1,0,0.1,0,0.3,0.1c0,0-0.2,0-0.2,0c-0.1,0-0.1,0-0.2,0
			C2.6,1.3,2.7,1.3,2.5,1.3C2.5,1.3,2.5,1.3,2.5,1.3z"/>
	</g>
	<g>
		<path fill="#FFFFFF" d="M18.2,10.7l7.8,5.1l0.1,0.1h0.2h0L26,15.7L69.5,44l21.7,14.1l10.9,7.1c1.8,1.2,3.6,2.3,5.3,3.6
			c0.8,0.6,1.6,1.3,2.4,2.1c0.4,0.4,0.7,0.8,1,1.2l0.1,0.1l-1.5-0.4c-0.6-0.1-1.1-0.3-1.7-0.4c-1.1-0.3-2.2-0.7-3.3-1
			c-2.2-0.7-4.3-1.6-6.5-2.6c-4.2-1.9-8.3-4.1-12.3-6.5c-8-4.8-15.8-9.8-23.6-15C46.5,36,31.5,24.8,17,13.1l-0.7,0.8
			c14.5,11.8,29.5,22.9,45,33.4c7.8,5.2,15.6,10.3,23.6,15c4,2.4,8.2,4.6,12.4,6.5c2.1,0.9,4.3,1.9,6.5,2.6c1.1,0.4,2.2,0.7,3.4,1
			c0.6,0.2,1.1,0.3,1.7,0.5l1.9,0.4c0.5,0.1,1-0.2,1.1-0.7c0.1-0.2,0.1-0.5,0-0.7c-0.1-0.1-0.1-0.2-0.2-0.3l-0.1-0.2
			c-0.3-0.5-0.7-0.9-1.1-1.3c-0.8-0.8-1.6-1.5-2.5-2.2c-1.8-1.3-3.6-2.5-5.4-3.7l-10.9-7.1L70.1,43.1L26.6,14.8l-0.1-0.1h-0.2h0
			l0.3,0.1l-7.8-5.1L18.2,10.7z"/>
		<path fill-rule="evenodd" clip-rule="evenodd" fill="#FFFFFF" d="M53,41.4c-0.2-0.1-0.3-0.2-0.5-0.3C52.5,41.1,52.8,41.3,53,41.4z
			"/>
		<path fill-rule="evenodd" clip-rule="evenodd" fill="#FFFFFF" d="M46.1,35.6c-0.1-0.1-0.6-0.4-0.6-0.4
			C45.8,35.4,45.9,35.5,46.1,35.6z"/>
		<path fill-rule="evenodd" clip-rule="evenodd" fill="#FFFFFF" d="M45.3,35c-0.2-0.1-0.4-0.3-0.6-0.4c0,0,0.1,0.1,0.2,0.2
			C45.1,34.9,45.2,35,45.3,35z"/>
		<path fill-rule="evenodd" clip-rule="evenodd" fill="#FFFFFF" d="M43,33.5c-0.2-0.1-0.4-0.3-0.6-0.4C42.7,33.3,42.9,33.4,43,33.5z
			"/>
		<path fill-rule="evenodd" clip-rule="evenodd" fill="#FFFFFF" d="M42.1,32.7c-0.3-0.2-0.5-0.4-1-0.7
			C41.4,32.2,41.8,32.5,42.1,32.7z"/>
		<path fill-rule="evenodd" clip-rule="evenodd" fill="#FFFFFF" d="M39,31.1c-0.5-0.3-1.3-0.9-1.8-1.3C37.8,30.3,38.4,30.7,39,31.1z
			"/>
		<path fill-rule="evenodd" clip-rule="evenodd" fill="#FFFFFF" d="M37.8,30c-0.6-0.4-1.7-1.3-2.4-1.8c-0.1-0.1,1.1,0.8,1.3,1
			c0.2,0.1,0.3,0.2,0.5,0.4C37.4,29.6,37.5,29.7,37.8,30z"/>
		<path fill-rule="evenodd" clip-rule="evenodd" fill="#FFFFFF" d="M30.6,24.4c0,0,0,0-0.2-0.2c-0.1,0-0.1-0.1-0.1-0.1L30.6,24.4z"
			/>
		<path fill-rule="evenodd" clip-rule="evenodd" fill="#FFFFFF" d="M27.5,22.1c-0.6-0.5-1.5-1.2-2.2-1.7c-0.1-0.1-0.1-0.1-0.2-0.2
			c-0.4-0.3-1.2-0.9-0.4-0.3C25.7,20.8,26.4,21.3,27.5,22.1z"/>
		<path fill-rule="evenodd" clip-rule="evenodd" fill="#FFFFFF" d="M27.2,21.8c-0.2-0.1-0.3-0.3-0.5-0.4
			C26.9,21.5,27.1,21.7,27.2,21.8z"/>
		<path fill-rule="evenodd" clip-rule="evenodd" fill="#FFFFFF" d="M26.3,21.5c-0.2-0.2-0.5-0.4-0.7-0.5
			C25.7,21.1,26,21.3,26.3,21.5z"/>
		<path fill-rule="evenodd" clip-rule="evenodd" fill="#FFFFFF" d="M26.6,21.3c-0.3-0.2-0.6-0.5-0.9-0.7
			C25.5,20.5,26.3,21.1,26.6,21.3z"/>
		<path fill-rule="evenodd" clip-rule="evenodd" fill="#FFFFFF" d="M26.3,21c-0.3-0.2-0.6-0.5-0.9-0.7C25.6,20.5,26,20.8,26.3,21z"
			/>
		<path fill-rule="evenodd" clip-rule="evenodd" fill="#FFFFFF" d="M25.5,20.9c0,0-0.3-0.3-0.6-0.4C25,20.5,25.3,20.8,25.5,20.9z"/>
		<path fill-rule="evenodd" clip-rule="evenodd" fill="#FFFFFF" d="M25.2,20.6c-0.4-0.3-1.1-0.9-1.5-1.2
			C24.2,19.9,24.6,20.2,25.2,20.6z"/>
		<path fill-rule="evenodd" clip-rule="evenodd" fill="#FFFFFF" d="M25.2,20.2c-0.6-0.4-1-0.8-1.3-1C24.3,19.5,24.7,19.8,25.2,20.2z
			"/>
		<path fill-rule="evenodd" clip-rule="evenodd" fill="#FFFFFF" d="M24.1,19.5c-0.2-0.2-0.4-0.3-0.6-0.5
			C23.4,19,23.8,19.3,24.1,19.5z"/>
		<path fill-rule="evenodd" clip-rule="evenodd" fill="#FFFFFF" d="M23.4,18.9c-0.3-0.2-0.4-0.3-0.6-0.5
			C23,18.6,23.3,18.8,23.4,18.9z"/>
		<path fill-rule="evenodd" clip-rule="evenodd" fill="#FFFFFF" d="M22.8,18.4c-0.1-0.1-0.7-0.5-0.5-0.4c0.2,0.1,0.1,0.1,0.1,0.1
			C22.6,18.2,22.6,18.2,22.8,18.4z"/>
		<path fill-rule="evenodd" clip-rule="evenodd" fill="#FFFFFF" d="M21.1,17.2C21.4,17.5,22.1,18.1,21.1,17.2L21.1,17.2z"/>
		<path fill-rule="evenodd" clip-rule="evenodd" fill="#FFFFFF" d="M20.2,16.6c-0.4-0.3-0.6-0.5-1-0.8C19.4,16.1,20,16.5,20.2,16.6z
			"/>
		<path fill-rule="evenodd" clip-rule="evenodd" fill="#FFFFFF" d="M19.9,16.5c0.1,0.1-0.5-0.4-0.4-0.3L19.9,16.5z"/>
		<path fill-rule="evenodd" clip-rule="evenodd" fill="#FFFFFF" d="M19.1,16c-0.2-0.2-0.4-0.3-0.5-0.4C18.8,15.7,19,15.9,19.1,16z"
			/>
		<path fill-rule="evenodd" clip-rule="evenodd" fill="#FFFFFF" d="M17,14.3C16.3,13.8,16.1,13.6,17,14.3L17,14.3z"/>
		<path fill-rule="evenodd" clip-rule="evenodd" fill="#FFFFFF" d="M34.3,27.9c-0.1-0.1-0.3-0.2-0.4-0.3c-0.4-0.3-0.7-0.5-1-0.8
			C33.5,27.2,33.7,27.4,34.3,27.9z"/>
		<path fill-rule="evenodd" clip-rule="evenodd" fill="#FFFFFF" d="M25.8,21c-0.2-0.1-0.2-0.1-0.4-0.3c0,0,0.1,0.1,0.1,0.1
			c-0.4-0.3-0.6-0.5-0.9-0.7c0,0,0.1,0.1,0.1,0.1c-0.4-0.3-0.9-0.7-1.8-1.5c1,0.8,2.8,2.2,3.5,2.8c-0.3-0.2-0.5-0.4-0.9-0.7
			C25.5,20.8,25.9,21.1,25.8,21z"/>
		<path fill-rule="evenodd" clip-rule="evenodd" fill="#FFFFFF" d="M25.1,20.2C25,20.1,25.1,20.2,25.1,20.2c0,0-0.3-0.3-0.4-0.3
			C24.8,20,25.9,20.8,25.1,20.2z"/>
		<path fill-rule="evenodd" clip-rule="evenodd" fill="#FFFFFF" d="M19.4,15.7L19.4,15.7c-0.5-0.4-1.1-0.9-1.6-1.3
			c0.6,0.5,1.5,1.2,2.2,1.8c0.1,0.1,0.3,0.2,0.4,0.3c1.4,1.1,2.8,2.3,4.2,3.4c-0.7-0.5-2.1-1.6-2.8-2.2c-0.1-0.1,0,0,0.1,0.1
			C21.4,17.2,20.4,16.5,19.4,15.7z"/>
		<path fill-rule="evenodd" clip-rule="evenodd" fill="#FFFFFF" d="M19.7,16.3c-0.2-0.1-0.3-0.2-0.5-0.4
			C19.2,15.9,19.6,16.2,19.7,16.3z"/>
		<path fill-rule="evenodd" clip-rule="evenodd" fill="#FFFFFF" d="M39.6,23.3c-0.4-0.2-0.8-0.5-1.2-0.7c-0.9-0.6-1.7-1.1-2.6-1.7
			c-0.8-0.5-1.6-1-2.4-1.5c-0.6-0.4-0.8-0.5-1.2-0.8c-1.2-0.8-2.2-1.4-2.8-1.8c-0.9-0.6-1.9-1.2-2.7-1.7c-0.1,0-0.1-0.1-0.2-0.1
			l-0.1-0.1h-0.1l0,0l0.2,0.1c-0.1-0.1-0.2-0.1-0.2-0.1c-1.8-1.1-3.6-2.2-5.4-3.3c-0.2-0.1-0.3-0.2-0.7-0.4
			c-0.2-0.1-0.5-0.3-0.7-0.4c-0.5-0.3-0.1,0-1-0.5c-0.1,0,0.1,0.1,0.1,0.1c-0.1,0,0.2,0.3,0,0.2c0.6,0.4,0.4,0.4,0.9,0.7
			c0.4,0.3,0.8,0.6,1.2,0.8c0.4,0.3,0.8,0.5,1.2,0.8c0,0,0.5,0.4,0.6,0.4c0.6,0.4,1.2,0.8,1.7,1.2c0.1,0,0.2,0.1,0.2,0.2
			c0.5,0.4,1.1,0.7,1.6,1.1l0.1,0.1l0.1,0l0,0l-0.2-0.1c1,0.7,2,1.3,3,2c0.2,0.1,0.5,0.3,0.7,0.5c1.4,0.9,3.5,2.3,4.2,2.8
			c0.3,0.2,0.2,0.2,0.5,0.3c0.2,0.1,0.9,0.6,1.5,1c0.2,0.1,0.7,0.4,1.1,0.7c0.7,0.5,1.4,0.9,2,1.3c0.2,0.1,0.7,0.4,0.9,0.6
			c0.9,0.6,2.4,1.6,3.1,2c0.5,0.3,0.8,0.5,1.1,0.8c0.4,0.2,0.7,0.4,0.6,0.4c1.1,0.6,3.8,2.4,5.4,3.5c1.3,0.8,2.3,1.5,3.5,2.2
			c0.2,0.1,0.5,0.3,0.7,0.5c0.4,0.2,0.9,0.6,1.4,0.9c0.9,0.6,1.6,1,2.3,1.5c1.1,0.7,1.9,1.2,2.8,1.8c0.3,0.2,0.7,0.5,1.1,0.7
			c0.3,0.2,0.7,0.4,1,0.6c0.3,0.2,0.7,0.5,1.1,0.7c0.2,0.2,0.5,0.3,0.7,0.4c0.3,0.2,0.5,0.3,0.7,0.5c0.3,0.2,0.6,0.4,0.9,0.6
			c1.1,0.7,2.1,1.4,3.4,2.2c2,1.3,3.5,2.3,5.8,3.8c0.6,0.4,1,0.6,1.6,1c0.1,0.1,0.2,0.1,0.3,0.2c1.2,0.8,2.4,1.5,3.6,2.3
			c0.1,0,0.1,0.1,0.2,0.1c1.7,1.1,3.7,2.4,5.1,3.3c1.1,0.7,2.2,1.4,3.5,2.2c0.6,0.4,1.2,0.8,1.7,1.1c1.1,0.7,2.5,1.6,3.5,2.3
			c0.3,0.2,0.6,0.4,0.9,0.6c0.6,0.4,1.1,0.7,1.7,1.1c2.3,1.5,4.9,3.2,6.8,4.4c0.6,0.4,1.1,0.7,1.8,1.2c1.1,0.8,2.2,1.6,3.1,2.5
			c0.2,0.2,0.5,0.5,0.7,0.7c0.3,0.3,0.5,0.6,0.7,0.9l0.1,0.2c0,0,0,0,0,0.1c0,0.1,0,0.1-0.1,0.1c0,0-0.1,0-0.1,0l-1.3-0.3
			c-0.5-0.1-0.9-0.2-1.4-0.4c-0.9-0.2-1.8-0.5-2.7-0.8c-2.4-0.7-5.8-2.1-8.4-3.3c-0.6-0.3-1.2-0.5-1.8-0.8c-1.9-0.9-4.3-2.1-6.2-3.2
			c-4-2.2-8-4.7-12-7.2c-4-2.5-7.9-5-11.7-7.5c-0.7-0.5-1.5-1-2-1.4c-0.2-0.2-0.5-0.3-0.7-0.5c-1.1-0.8-2.2-1.4-3.3-2.2
			c-0.6-0.4-0.9-0.6-1.5-1c-0.2-0.1,0.3,0.2-0.1-0.1c-0.8-0.5-3.4-2.3-4.5-3.1c0.1,0.1,0.1,0.1,0,0c-0.3-0.2-0.5-0.3-0.7-0.5
			c-2-1.4-3.7-2.6-5.4-3.8c-0.2-0.2-0.8-0.6-1-0.7c0.3,0.2,0.7,0.5,0.7,0.5c-0.5-0.4-1.1-0.8-1.6-1.1c-0.6-0.5-0.9-0.7-1.6-1.1
			c-0.1-0.1,0.1,0.1-0.2-0.1c-0.9-0.7-1.4-1-2.2-1.6c-0.2-0.2-1.2-0.9-1.5-1.1c-0.3-0.2,0.3,0.2,0.1,0.1c-0.7-0.6-1.4-1-2.1-1.6
			c-0.2-0.1-0.4-0.3-0.6-0.4c-0.2-0.1,0.1,0-0.2-0.2c-0.3-0.2,0.2,0.2,0.1,0.1c-0.4-0.3-0.3-0.2-0.5-0.3c-0.5-0.4-0.9-0.7-1.3-1
			c-0.5-0.4-1-0.8-1.5-1.1c-0.4-0.3-0.6-0.5-1-0.8c-0.3-0.3-0.7-0.5-1.1-0.8c-0.2-0.2,0.1,0.1-0.2-0.1c-1.4-1.1-2.7-2.1-3.9-3
			c1.7,1.3,2.7,2.1,4.2,3.2c0.2,0.2,0.6,0.5,0.8,0.7c0.1,0.1-0.2-0.2,0.1,0.1c0.1,0.1,0.2,0.1,0.3,0.2c-0.2-0.1,0.1,0.1,0.2,0.2
			c1.2,0.9,2.2,1.6,3.2,2.4c0.2,0.1-0.1-0.1,0.1,0.1c0.4,0.3,0.7,0.5,1.2,0.9c0.1,0.1,0.5,0.4,0.3,0.2c-1.4-1-3.4-2.5-5-3.8
			c-0.5-0.4-1-0.8-1.3-1c0.7,0.6,1.4,1.1,2,1.5c0.8,0.6,1.8,1.3,2.6,1.9c0.2,0.2,0.3,0.3,0.5,0.4c0.2,0.1,0.5,0.3,0.6,0.5
			c0.2,0.1,0.2,0.2,0.4,0.3c0.3,0.2,0.7,0.5,1,0.8c0.7,0.5,1.3,1,2,1.5c0.1,0.1,0.1,0.1-0.1-0.1c-0.9-0.6-1-0.7-1.9-1.4
			c0.1,0.1,0.2,0.1,0.1,0.1c-0.3-0.2-0.3-0.2-0.6-0.4c0.7,0.5,0.6,0.5,0.4,0.3c-1.6-1.2-3.6-2.7-4.9-3.7c-0.2-0.1-0.3-0.2-0.5-0.4
			c-1.5-1.2-3.1-2.4-4.7-3.6c1.8,1.4,3.7,2.9,5.8,4.5c0.1,0.1,0,0,0.2,0.2c0.9,0.7,2,1.5,2.7,2c0.3,0.2,0.6,0.5,0.9,0.7
			c2.2,1.6,4,2.9,6,4.5c0,0,0.2,0.1,0.2,0.2c-0.2-0.1-0.3-0.2-0.5-0.3c-0.3-0.3-0.7-0.5-1-0.8c-1.8-1.3-4.4-3.2-6.6-4.9
			c-0.3-0.2-0.1,0,0.1,0.1c1.1,0.8,1.9,1.5,3.2,2.4c0.4,0.3-0.1,0-0.9-0.6c-1.5-1.1-4-3-4.9-3.7c-4.3-3.2-8.5-6.5-12.8-9.9
			c2.4,1.9,4.6,3.7,6.8,5.4c0,0,0.1,0,0.2,0.2c2.1,1.7,4.5,3.5,6.4,4.9c1,0.8,2.1,1.6,3.1,2.4c-0.2-0.1-0.9-0.6-1.7-1.2
			c0.8,0.6,1.6,1.2,2.3,1.8c0.6,0.4,1.5,1.1,1.9,1.4c0.1,0.1-0.1,0,0.1,0.1c-0.2-0.2,0.4,0.3,0.5,0.4c0.3,0.2,0.3,0.2,0.6,0.5
			c0.4,0.3,0.4,0.3,0.8,0.6c1.7,1.2,3.3,2.4,5,3.6c0.2,0.1,0.5,0.4,0.6,0.4c0.1,0.1,0.1,0.1,0.2,0.2c0.1,0.1,0.1,0.1,0.2,0.2
			c0.7,0.5,1.4,1,2.1,1.5c1.7,1.2,3.6,2.5,5,3.5c0.3,0.2-0.1-0.1,0.3,0.2c2.3,1.6,4.8,3.3,7.4,5c0.2,0.1,0,0,0.3,0.2
			c0.3,0.2,0.3,0.2,0.6,0.4c0.2,0.1,0.3,0.2,0.5,0.3c2.9,1.9,5.9,3.9,9,5.8c2.8,1.8,5.7,3.6,8.4,5.3c2.1,1.3,4.2,2.5,6.2,3.6
			c2.6,1.5,4.9,2.7,7.5,3.9c1.8,0.9,3.9,1.8,5.5,2.5c0.3,0.1,0.6,0.2,0.9,0.4c0.5,0.2,1,0.4,1.5,0.6c1.3,0.5,2.7,0.9,4,1.3
			c0.7,0.2,1.4,0.4,2.1,0.6c0.7,0.2,1.4,0.3,2.2,0.5c0.2,0,0.4,0,0.6-0.1c0.3-0.1,0.5-0.5,0.5-0.8c0-0.3-0.4-0.7-0.4-0.8
			c-0.3-0.4-0.5-0.7-0.8-1c-0.4-0.4-0.8-0.9-1.3-1.3c-1.3-1.1-2.7-2.1-4-3c-1.7-1.1-3.5-2.3-5.3-3.5c-2-1.3-4.3-2.8-6.2-4.1
			c-1.7-1.1-3.1-2-4.8-3.2c-0.2-0.1-0.3-0.2-0.5-0.3c-2.7-1.7-5.5-3.6-7.6-5c-0.9-0.6-1.5-1-2.2-1.4c-0.8-0.5-1.5-1-2.3-1.5
			c-0.2-0.2-0.5-0.3-0.7-0.5c-0.8-0.5-1.5-1-2.4-1.5c-1.3-0.8-2.6-1.7-4.1-2.7c-1.2-0.8-2.7-1.8-4.1-2.7c-2.3-1.5-4.4-2.9-6.6-4.3
			c-0.7-0.5-1.3-0.9-2.2-1.4c-0.9-0.6-1.8-1.1-2.7-1.8c-0.9-0.6-1.9-1.3-2.9-1.9c-1.4-0.9-3.2-2.1-4.2-2.8c-0.5-0.4-1.4-0.9-2.6-1.6
			c-0.6-0.4-0.5-0.4-0.8-0.5c-0.6-0.4-1-0.7-1.6-1C40.9,24.2,40.3,23.7,39.6,23.3z M39.4,31C39.4,31,39.4,31,39.4,31
			C39.5,31,39.9,31.3,39.4,31z M39.3,30.9c-0.6-0.5-1.5-1.1-2-1.5c-0.1-0.1,0.1,0.1-0.1-0.1c-0.3-0.3-0.6-0.5-1.1-0.8
			c0,0,0.9,0.7,1,0.7c0.4,0.3,0.5,0.4,0.7,0.5C38.5,30.3,38.6,30.4,39.3,30.9C39.1,30.7,39.3,30.9,39.3,30.9z"/>
	</g>
	<g>
		<path fill="#FFFFFF" d="M26.3,14.7l-0.2,0c0,0,0,0,0,0c0,0,0,0,0,0c0,0-0.1,0-0.2,0.1c-0.1,0.1-0.4,0.1-0.6,0.3
			c-0.5,0.3-1,0.7-1.4,1.4c-0.4,0.6-0.6,1.3-0.6,1.9c0,0.5,0,0.9,0,0.9l1.1-0.1c0,0,0-0.3,0-0.7c0-0.4,0.2-0.9,0.4-1.4
			c0.3-0.5,0.7-0.8,1-1c0.2-0.1,0.3-0.2,0.4-0.2c0.1,0,0.1,0,0.1,0c0,0,0,0,0,0l0,0l0,0l0,0l0,0l-0.2,0h0h0L26.3,14.7z"/>
		<path fill-rule="evenodd" clip-rule="evenodd" fill="#FFFFFF" d="M24.3,18.3L24.3,18.3C24.3,18.3,24.3,18.3,24.3,18.3z"/>
		<path fill-rule="evenodd" clip-rule="evenodd" fill="#FFFFFF" d="M23.6,18.4C23.6,18.4,23.6,18.4,23.6,18.4
			C23.5,18.4,23.5,18.4,23.6,18.4z"/>
		<path fill-rule="evenodd" clip-rule="evenodd" fill="#FFFFFF" d="M23.5,18.4C23.5,18.4,23.5,18.4,23.5,18.4
			C23.5,18.4,23.5,18.4,23.5,18.4z"/>
		<path fill-rule="evenodd" clip-rule="evenodd" fill="#FFFFFF" d="M23.6,18.5C23.6,18.5,23.6,18.5,23.6,18.5
			C23.6,18.5,23.6,18.5,23.6,18.5z"/>
		<path fill-rule="evenodd" clip-rule="evenodd" fill="#FFFFFF" d="M23.5,18.5C23.5,18.5,23.5,18.5,23.5,18.5
			C23.5,18.5,23.5,18.5,23.5,18.5z"/>
		<path fill-rule="evenodd" clip-rule="evenodd" fill="#FFFFFF" d="M24.1,18.6C24.1,18.6,24.1,18.6,24.1,18.6
			C24.1,18.6,24.1,18.6,24.1,18.6z"/>
		<path fill-rule="evenodd" clip-rule="evenodd" fill="#FFFFFF" d="M23.8,18.6C23.9,18.6,23.8,18.7,23.8,18.6
			C23.8,18.7,23.8,18.7,23.8,18.6C23.8,18.6,23.8,18.6,23.8,18.6C23.8,18.6,23.8,18.6,23.8,18.6z"/>
		<path fill-rule="evenodd" clip-rule="evenodd" fill="#FFFFFF" d="M23.8,18.8C23.8,18.8,23.8,18.8,23.8,18.8L23.8,18.8L23.8,18.8z"
			/>
		<path fill-rule="evenodd" clip-rule="evenodd" fill="#FFFFFF" d="M23.9,18.9C23.9,18.9,23.9,18.9,23.9,18.9L23.9,18.9
			C23.9,19,23.9,19,23.9,18.9C23.9,19,23.9,18.9,23.9,18.9z"/>
		<path fill-rule="evenodd" clip-rule="evenodd" fill="#FFFFFF" d="M23.8,18.9C23.8,18.9,23.8,18.9,23.8,18.9
			C23.8,18.9,23.8,18.9,23.8,18.9z"/>
		<path fill-rule="evenodd" clip-rule="evenodd" fill="#FFFFFF" d="M24.1,18.9C24.1,18.9,24.1,18.9,24.1,18.9
			C24.1,18.9,24.1,18.9,24.1,18.9z"/>
		<path fill-rule="evenodd" clip-rule="evenodd" fill="#FFFFFF" d="M23.8,18.9C23.8,18.9,23.8,18.9,23.8,18.9
			C23.8,19,23.8,18.9,23.8,18.9z"/>
		<path fill-rule="evenodd" clip-rule="evenodd" fill="#FFFFFF" d="M23.8,18.9C23.8,18.9,23.8,19,23.8,18.9
			C23.8,19,23.8,19,23.8,18.9z"/>
		<path fill-rule="evenodd" clip-rule="evenodd" fill="#FFFFFF" d="M24.2,18.9C24.2,18.9,24.2,18.9,24.2,18.9
			C24.2,18.9,24.2,18.9,24.2,18.9z"/>
		<path fill-rule="evenodd" clip-rule="evenodd" fill="#FFFFFF" d="M24.1,18.9C24.1,19,24.1,19,24.1,18.9C24.1,19,24.1,19,24.1,18.9
			z"/>
		<path fill-rule="evenodd" clip-rule="evenodd" fill="#FFFFFF" d="M23.8,19C23.8,19,23.8,19,23.8,19C23.8,19,23.8,19,23.8,19z"/>
		<path fill-rule="evenodd" clip-rule="evenodd" fill="#FFFFFF" d="M23.9,19C23.9,19,23.9,19,23.9,19C23.9,19,23.9,19,23.9,19z"/>
		<path fill-rule="evenodd" clip-rule="evenodd" fill="#FFFFFF" d="M23.9,19C23.9,19,23.9,19,23.9,19C23.9,19,23.9,19,23.9,19z"/>
		<path fill-rule="evenodd" clip-rule="evenodd" fill="#FFFFFF" d="M23.8,19C23.9,19,23.9,19.1,23.8,19L23.8,19
			C23.8,19,23.8,19,23.8,19z"/>
		<path fill-rule="evenodd" clip-rule="evenodd" fill="#FFFFFF" d="M24.1,19.1C24,19.1,24.1,19,24.1,19.1L24.1,19.1z"/>
		<path fill-rule="evenodd" clip-rule="evenodd" fill="#FFFFFF" d="M24.1,19.1C24.2,19.1,24.2,19.1,24.1,19.1
			C24.2,19.1,24.1,19.1,24.1,19.1z"/>
		<path fill-rule="evenodd" clip-rule="evenodd" fill="#FFFFFF" d="M24.2,19.1C24.2,19.1,24.2,19.1,24.2,19.1L24.2,19.1z"/>
		<path fill-rule="evenodd" clip-rule="evenodd" fill="#FFFFFF" d="M24.3,19.1C24.3,19.1,24.3,19.1,24.3,19.1
			C24.3,19.1,24.3,19.1,24.3,19.1z"/>
		<path fill-rule="evenodd" clip-rule="evenodd" fill="#FFFFFF" d="M24.3,19.1C24.3,19.2,24.3,19.2,24.3,19.1L24.3,19.1z"/>
		<path fill-rule="evenodd" clip-rule="evenodd" fill="#FFFFFF" d="M24.3,18.7C24.3,18.7,24.3,18.7,24.3,18.7
			C24.3,18.7,24.3,18.7,24.3,18.7C24.3,18.7,24.3,18.7,24.3,18.7z"/>
		<path fill-rule="evenodd" clip-rule="evenodd" fill="#FFFFFF" d="M24.1,18.9C24.1,18.9,24.1,18.9,24.1,18.9L24.1,18.9
			C24,19,24.1,19,24.1,18.9L24.1,18.9C24.1,19,24,19,24.1,18.9C24,19,24,18.9,24.1,18.9C24,18.9,24,18.9,24.1,18.9
			C24.1,18.9,24,18.9,24.1,18.9z"/>
		<path fill-rule="evenodd" clip-rule="evenodd" fill="#FFFFFF" d="M23.8,19L23.8,19C23.8,19,23.8,19,23.8,19
			C23.8,19,23.8,19,23.8,19z"/>
		<path fill-rule="evenodd" clip-rule="evenodd" fill="#FFFFFF" d="M23.9,19.1L23.9,19.1C23.8,19.1,23.8,19.2,23.9,19.1
			C23.8,19.2,23.8,19.1,23.9,19.1C23.8,19.1,23.8,19.1,23.9,19.1c0-0.1,0-0.1,0-0.1C23.8,19,23.8,19,23.9,19.1L23.9,19.1
			C23.8,19.1,23.8,19.1,23.9,19.1z"/>
		<path fill-rule="evenodd" clip-rule="evenodd" fill="#FFFFFF" d="M24.2,19.1L24.2,19.1C24.2,19.1,24.2,19.1,24.2,19.1z"/>
		<path fill-rule="evenodd" clip-rule="evenodd" fill="#FFFFFF" d="M26,16C26,16,26,16,26,16C26.1,16,26.1,16,26,16
			c0.1-0.1,0.1-0.1,0.1-0.1c0,0,0,0,0,0c0,0,0,0,0-0.1c0,0,0,0,0-0.1l0,0c0-0.1,0-0.1,0.1-0.2c0,0,0,0,0-0.1c0,0,0,0,0,0
			c0,0,0-0.1,0-0.1l0,0l0,0c0.1,0,0,0,0,0l0,0c0-0.1,0-0.1-0.1-0.2c0,0,0-0.1-0.1-0.1c0,0,0,0,0,0l0,0c0,0,0,0,0,0c0,0,0,0-0.1,0
			c0,0,0,0,0,0c0,0-0.1,0-0.2,0c0,0,0,0,0,0c0,0-0.1,0-0.1,0c0,0,0,0,0,0c0,0,0,0-0.1,0c0,0,0,0,0,0c0,0,0,0-0.1,0c0,0,0,0,0,0
			c0,0-0.1,0-0.1,0c0,0,0,0,0,0c0,0,0,0,0,0c0,0.1-0.1,0.1-0.1,0.1c0,0-0.1,0-0.1,0.1l0,0c0,0,0,0,0,0c0,0,0,0-0.1,0c0,0,0,0-0.1,0
			c0,0,0,0,0,0c0,0,0,0,0,0c0,0,0,0,0,0c0,0,0,0,0,0c0,0,0,0,0,0c0,0,0,0,0,0c0,0-0.1,0-0.1,0.1c-0.1,0-0.1,0.1-0.1,0.1c0,0,0,0,0,0
			c0,0,0,0,0,0c0,0,0,0.1-0.1,0.1l0,0c0,0-0.1,0.1-0.1,0.1c0,0,0,0-0.1,0.1c0,0,0,0,0,0c-0.1,0.1,0,0-0.1,0.1l0,0c0,0,0,0,0,0
			c0,0.1-0.1,0.1-0.1,0.2c0,0,0,0,0,0.1c0,0,0,0.1-0.1,0.1l0,0c0,0,0,0,0,0.1c0,0,0,0.1-0.1,0.1c0,0.1-0.1,0.1-0.1,0.2c0,0,0,0,0,0
			c0,0,0,0.1-0.1,0.2c-0.1,0.2-0.1,0.4-0.2,0.7c0,0,0,0,0,0.1c0,0,0,0,0,0c0,0,0,0.1,0,0.1c0,0,0,0,0,0c0,0,0,0,0,0c0,0,0,0.1,0,0.1
			l0,0c0,0,0,0,0,0c0,0.1,0,0.1,0,0.2c0,0,0,0,0,0c0,0,0,0,0,0c0,0,0,0,0,0c0,0,0,0,0,0c0,0,0,0,0,0c0,0,0,0,0,0.1c0,0,0,0,0,0
			c0,0,0,0,0,0c0,0,0,0,0,0.1c0,0,0,0,0,0c0,0,0,0,0,0c0,0,0,0,0,0c0,0,0,0,0,0c0,0,0,0,0,0c0,0,0,0,0,0c0,0,0,0,0,0c0,0,0,0,0,0
			c0,0,0,0,0,0c0,0,0,0.1,0,0.1c0,0,0-0.1,0-0.1c0,0,0,0,0,0c0,0,0,0,0,0l0,0c0,0,0,0,0,0c0,0,0-0.1,0-0.1c0,0,0,0,0,0c0,0,0,0,0,0
			c0,0,0,0,0,0c0,0,0,0.1,0,0.1c0,0,0,0,0,0c0,0,0,0,0-0.1c0,0,0,0,0-0.1c0,0,0,0,0,0c0,0,0,0,0,0c0,0,0,0,0,0c0,0,0,0,0,0
			c0,0,0,0,0-0.1c0,0,0,0,0,0c0,0,0,0,0,0.1l0,0c0,0,0,0,0,0c0,0,0,0,0,0c0,0,0,0.1,0,0.1c0,0,0,0,0,0c0,0,0,0.1,0,0.1
			c0-0.1,0-0.1,0-0.2c0,0,0,0,0,0c0,0,0-0.1,0-0.1l0,0c0-0.1,0-0.1,0-0.2c0,0,0,0,0,0l0,0c0,0,0,0,0,0c0,0,0,0.1,0,0.2c0,0,0,0,0,0
			c0,0,0-0.1,0-0.1c0,0,0.1,0,0.1,0c0,0,0,0.1,0,0.1c0,0.1,0,0.2,0,0.3c0-0.1,0-0.1,0-0.2c0,0,0,0,0,0c0-0.1,0-0.1,0-0.2
			c0,0,0-0.1,0-0.1c0,0,0,0,0.1,0c0,0,0,0,0-0.1c0,0,0,0,0,0l0,0c0,0,0,0,0,0c0,0,0,0,0,0c0,0,0,0,0,0c0,0,0-0.1,0-0.1c0,0,0,0,0,0
			c0,0,0,0,0,0l0,0c0,0,0,0,0-0.1c0,0,0-0.1,0-0.1c0,0,0,0,0,0c0-0.1,0-0.1,0-0.2c0,0,0,0,0,0c0,0,0,0,0,0c0,0,0,0,0,0
			c0-0.1,0-0.1,0-0.2c0-0.1,0-0.1,0.1-0.2c0,0,0-0.1,0-0.1c0-0.1,0-0.1,0.1-0.2c0,0,0-0.1,0.1-0.1c0,0,0,0,0,0c0,0,0,0,0,0
			c0,0,0-0.1,0-0.1c0,0,0-0.1,0-0.1c0,0,0,0,0,0l0,0c0,0,0-0.1,0-0.1c0,0,0.1-0.1,0.1-0.1c0,0,0.1-0.1,0.1-0.1c0,0,0-0.1,0.1-0.1
			l0,0c0.1,0,0.1-0.1,0.1-0.1c0,0,0,0,0,0c0,0,0,0,0,0l0,0c0,0,0,0,0,0c0,0,0.1,0,0.1-0.1c0,0,0.1,0,0.1-0.1c0.1,0,0.1-0.1,0.1-0.1
			c0,0,0,0,0,0c0,0,0,0,0.1,0c0,0,0,0,0.1,0c0,0,0.1,0,0.1,0c0,0,0,0,0,0C25.9,16,25.9,16,26,16C26,16,26,16,26,16
			C26,16,26,16,26,16z M23.7,18.6L23.7,18.6C23.7,18.6,23.7,18.6,23.7,18.6z M23.7,18.6C23.7,18.6,23.7,18.6,23.7,18.6
			C23.7,18.6,23.7,18.6,23.7,18.6C23.7,18.6,23.7,18.7,23.7,18.6C23.7,18.7,23.7,18.6,23.7,18.6C23.7,18.6,23.7,18.6,23.7,18.6
			C23.7,18.6,23.7,18.6,23.7,18.6C23.7,18.6,23.7,18.6,23.7,18.6z"/>
	</g>
	<g>
		<path fill="#FFFFFF" d="M31.1,17.9c0,0-0.4,0-1,0.3c-0.6,0.2-1.3,0.8-1.7,1.5c-0.5,0.7-0.7,1.4-0.8,2.1c0,0.3,0,0.6,0,0.8
			c0,0.2,0.1,0.3,0.1,0.3l1-0.4c0,0-0.1-0.2-0.1-0.7c0-0.4,0.3-1,0.6-1.6c0.3-0.5,0.8-0.9,1.2-1.1C31,19,31.2,19,31.2,19L31.1,17.9z
			"/>
		<path fill-rule="evenodd" clip-rule="evenodd" fill="#FFFFFF" d="M28.6,21.6C28.6,21.6,28.6,21.6,28.6,21.6
			C28.6,21.6,28.6,21.6,28.6,21.6z"/>
		<path fill-rule="evenodd" clip-rule="evenodd" fill="#FFFFFF" d="M27.9,21.7C27.9,21.7,27.9,21.7,27.9,21.7
			C27.9,21.7,27.9,21.7,27.9,21.7z"/>
		<path fill-rule="evenodd" clip-rule="evenodd" fill="#FFFFFF" d="M27.9,21.7C27.9,21.7,27.9,21.8,27.9,21.7
			C27.8,21.8,27.9,21.7,27.9,21.7z"/>
		<path fill-rule="evenodd" clip-rule="evenodd" fill="#FFFFFF" d="M28,21.8C28,21.8,28,21.8,28,21.8C28,21.8,28,21.8,28,21.8z"/>
		<path fill-rule="evenodd" clip-rule="evenodd" fill="#FFFFFF" d="M27.8,21.9C27.8,21.9,27.8,21.9,27.8,21.9
			C27.8,21.9,27.8,21.9,27.8,21.9z"/>
		<path fill-rule="evenodd" clip-rule="evenodd" fill="#FFFFFF" d="M28.4,22C28.4,22,28.4,22,28.4,22C28.4,22,28.4,22,28.4,22z"/>
		<path fill-rule="evenodd" clip-rule="evenodd" fill="#FFFFFF" d="M28.2,22C28.2,22,28.2,22,28.2,22C28.2,22.1,28.2,22,28.2,22
			L28.2,22C28.2,22,28.2,22,28.2,22z"/>
		<path fill-rule="evenodd" clip-rule="evenodd" fill="#FFFFFF" d="M28.1,22.2C28.1,22.2,28.1,22.2,28.1,22.2L28.1,22.2L28.1,22.2z"
			/>
		<path fill-rule="evenodd" clip-rule="evenodd" fill="#FFFFFF" d="M28.2,22.3C28.3,22.3,28.3,22.4,28.2,22.3L28.2,22.3
			C28.3,22.4,28.3,22.4,28.2,22.3C28.2,22.4,28.3,22.3,28.2,22.3z"/>
		<path fill-rule="evenodd" clip-rule="evenodd" fill="#FFFFFF" d="M28.1,22.3C28.1,22.4,28.1,22.4,28.1,22.3
			C28.1,22.4,28.1,22.3,28.1,22.3z"/>
		<path fill-rule="evenodd" clip-rule="evenodd" fill="#FFFFFF" d="M28.5,22.3C28.5,22.3,28.5,22.3,28.5,22.3
			C28.5,22.3,28.5,22.3,28.5,22.3z"/>
		<path fill-rule="evenodd" clip-rule="evenodd" fill="#FFFFFF" d="M28.2,22.4C28.2,22.4,28.2,22.4,28.2,22.4
			C28.2,22.4,28.2,22.4,28.2,22.4z"/>
		<path fill-rule="evenodd" clip-rule="evenodd" fill="#FFFFFF" d="M28.1,22.4C28.1,22.4,28.1,22.4,28.1,22.4
			C28.1,22.4,28.1,22.4,28.1,22.4z"/>
		<path fill-rule="evenodd" clip-rule="evenodd" fill="#FFFFFF" d="M28.5,22.3C28.5,22.3,28.5,22.3,28.5,22.3
			C28.5,22.3,28.5,22.3,28.5,22.3z"/>
		<path fill-rule="evenodd" clip-rule="evenodd" fill="#FFFFFF" d="M28.5,22.3C28.5,22.3,28.5,22.4,28.5,22.3
			C28.5,22.4,28.5,22.4,28.5,22.3z"/>
		<path fill-rule="evenodd" clip-rule="evenodd" fill="#FFFFFF" d="M28.1,22.4C28.2,22.4,28.1,22.4,28.1,22.4
			C28.1,22.4,28.1,22.4,28.1,22.4z"/>
		<path fill-rule="evenodd" clip-rule="evenodd" fill="#FFFFFF" d="M28.3,22.4C28.3,22.4,28.3,22.4,28.3,22.4
			C28.3,22.4,28.3,22.4,28.3,22.4z"/>
		<path fill-rule="evenodd" clip-rule="evenodd" fill="#FFFFFF" d="M28.2,22.4C28.3,22.4,28.2,22.5,28.2,22.4
			C28.2,22.5,28.2,22.5,28.2,22.4z"/>
		<path fill-rule="evenodd" clip-rule="evenodd" fill="#FFFFFF" d="M28.2,22.5C28.2,22.5,28.2,22.5,28.2,22.5
			C28.2,22.5,28.2,22.5,28.2,22.5C28.2,22.5,28.2,22.5,28.2,22.5z"/>
		<path fill-rule="evenodd" clip-rule="evenodd" fill="#FFFFFF" d="M28.4,22.5C28.4,22.5,28.4,22.4,28.4,22.5L28.4,22.5z"/>
		<path fill-rule="evenodd" clip-rule="evenodd" fill="#FFFFFF" d="M28.5,22.5C28.5,22.5,28.5,22.5,28.5,22.5
			C28.5,22.5,28.5,22.5,28.5,22.5z"/>
		<path fill-rule="evenodd" clip-rule="evenodd" fill="#FFFFFF" d="M28.5,22.5C28.6,22.5,28.6,22.5,28.5,22.5L28.5,22.5z"/>
		<path fill-rule="evenodd" clip-rule="evenodd" fill="#FFFFFF" d="M28.7,22.4C28.7,22.5,28.7,22.5,28.7,22.4
			C28.7,22.5,28.7,22.4,28.7,22.4z"/>
		<path fill-rule="evenodd" clip-rule="evenodd" fill="#FFFFFF" d="M28.7,22.5C28.7,22.5,28.7,22.5,28.7,22.5L28.7,22.5z"/>
		<path fill-rule="evenodd" clip-rule="evenodd" fill="#FFFFFF" d="M28.6,22.1C28.6,22.1,28.6,22.1,28.6,22.1
			C28.6,22.1,28.6,22.1,28.6,22.1C28.6,22.1,28.6,22.1,28.6,22.1z"/>
		<path fill-rule="evenodd" clip-rule="evenodd" fill="#FFFFFF" d="M28.4,22.3C28.4,22.3,28.4,22.3,28.4,22.3L28.4,22.3
			C28.4,22.4,28.4,22.4,28.4,22.3L28.4,22.3C28.4,22.4,28.4,22.4,28.4,22.3C28.4,22.4,28.4,22.3,28.4,22.3
			C28.4,22.3,28.4,22.3,28.4,22.3C28.4,22.3,28.4,22.3,28.4,22.3z"/>
		<path fill-rule="evenodd" clip-rule="evenodd" fill="#FFFFFF" d="M28.2,22.4L28.2,22.4C28.2,22.4,28.2,22.4,28.2,22.4
			C28.2,22.4,28.2,22.4,28.2,22.4z"/>
		<path fill-rule="evenodd" clip-rule="evenodd" fill="#FFFFFF" d="M28.2,22.6L28.2,22.6C28.2,22.6,28.3,22.6,28.2,22.6
			C28.2,22.6,28.2,22.6,28.2,22.6C28.2,22.6,28.2,22.6,28.2,22.6c-0.1-0.1-0.1-0.1-0.1-0.2C28.2,22.4,28.2,22.5,28.2,22.6L28.2,22.6
			C28.2,22.5,28.2,22.6,28.2,22.6z"/>
		<path fill-rule="evenodd" clip-rule="evenodd" fill="#FFFFFF" d="M28.6,22.5C28.6,22.5,28.6,22.5,28.6,22.5
			C28.6,22.5,28.6,22.5,28.6,22.5z"/>
		<path fill-rule="evenodd" clip-rule="evenodd" fill="#FFFFFF" d="M30.8,19.1C30.8,19.1,30.8,19.1,30.8,19.1
			C30.8,19.1,30.8,19.1,30.8,19.1c0.1,0,0.1-0.1,0.1-0.1c0,0,0,0,0,0c0,0,0.1,0,0.1,0c0,0,0,0,0.1-0.1l0,0c0-0.1,0.1-0.1,0.1-0.2
			c0,0,0,0,0-0.1c0,0,0,0,0,0c0,0,0-0.1,0-0.1c0,0,0,0,0,0c0-0.1,0-0.1,0-0.2c0,0,0-0.1,0-0.1c0,0,0,0,0,0l0,0c0,0,0,0,0,0
			c0,0,0,0-0.1,0c0,0,0,0,0,0c-0.1,0-0.1-0.1-0.2-0.1c0,0,0,0,0,0c0,0-0.1,0-0.2,0c0,0,0,0,0,0c0,0,0,0-0.1,0c0,0,0,0,0,0
			c0,0-0.1,0-0.1,0c0,0,0,0,0,0c0,0-0.1,0-0.1,0c0,0,0,0,0,0c0,0,0,0,0,0c0,0.1-0.1,0.1-0.2,0.1c0,0-0.1,0-0.1,0.1l0,0c0,0,0,0,0,0
			c0,0,0,0-0.1,0c0,0-0.1,0-0.1,0.1c0,0,0,0,0,0c0,0,0,0,0,0c0,0,0,0,0,0l0,0c0,0,0,0,0,0c0,0,0,0,0,0c0,0-0.1,0-0.1,0.1
			c-0.1,0-0.1,0.1-0.2,0.1c0,0,0,0,0,0c0,0,0,0,0,0c0,0-0.1,0.1-0.1,0.1l0,0c0,0-0.1,0.1-0.1,0.1c0,0-0.1,0.1-0.1,0.1c0,0,0,0,0,0
			c0,0-0.1,0.1-0.1,0.1l0,0c0,0,0,0,0,0c0,0.1-0.1,0.1-0.1,0.2c0,0,0,0,0,0.1c0,0-0.1,0.1-0.1,0.1l0,0c0,0,0,0,0,0.1
			c0,0-0.1,0.1-0.1,0.1c0,0.1-0.1,0.2-0.1,0.2c0,0,0,0,0,0c0,0.1,0,0.1-0.1,0.2c-0.1,0.2-0.2,0.5-0.2,0.7c0,0,0,0,0,0.1c0,0,0,0,0,0
			c0,0,0,0.1,0,0.1c0,0,0,0,0,0.1c0,0,0,0,0,0c0,0,0,0.1,0,0.2l0,0c0,0,0,0,0,0c0,0.1,0,0.1,0,0.2c0,0,0,0,0,0c0,0,0,0,0,0
			c0,0,0,0,0,0.1c0,0,0,0,0,0.1c0,0,0,0,0,0c0,0,0,0,0,0.1c0,0,0,0,0,0.1c0,0,0,0,0,0c0,0,0,0,0,0.1c0,0,0,0,0,0c0,0,0,0,0,0
			c0,0,0,0,0,0c0,0,0,0,0,0c0,0,0,0,0,0c0,0,0,0,0,0c0,0,0,0,0,0c0,0,0,0,0,0c0,0,0,0,0,0c0,0,0,0.1,0,0.1c0,0,0-0.1,0-0.1
			c0,0,0,0,0,0c0,0,0,0,0,0c0,0,0,0,0,0c0,0,0,0,0,0c0,0,0-0.1,0-0.1c0,0,0,0,0,0c0,0,0,0,0,0c0,0,0,0,0,0c0,0,0,0.1,0,0.2
			c0,0,0,0,0,0c0,0,0,0,0-0.1c0,0,0-0.1,0-0.1c0,0,0,0,0,0c0,0,0,0,0,0c0,0,0,0,0,0c0,0,0,0,0,0c0,0,0,0,0-0.1c0,0,0,0,0,0
			c0,0,0,0,0,0.1l0,0c0,0,0,0,0,0c0,0,0,0,0,0c0,0.1,0,0.1,0,0.2c0,0,0,0,0,0c0,0,0,0.1,0,0.1c0-0.1,0-0.1,0-0.2c0,0,0,0,0,0
			c0,0,0-0.1,0-0.1l0,0c0-0.1,0-0.1,0-0.2c0,0,0,0,0,0l0,0c0,0,0,0,0,0c0,0.1,0,0.1,0,0.2c0,0,0,0,0,0c0,0,0-0.1,0-0.1
			c0,0,0.1,0,0.1,0c0,0,0,0.1,0,0.1c0,0.1,0,0.2,0.1,0.3c0-0.1,0-0.1,0-0.2c0,0,0,0,0,0c0-0.1,0-0.1,0-0.2c0,0,0-0.1,0-0.1
			c0,0,0,0,0.1,0c0,0,0,0,0-0.1c0,0,0,0,0-0.1l0,0c0,0,0,0,0,0c0,0,0,0,0,0c0,0,0,0,0,0c0,0,0-0.1,0-0.1c0,0,0,0,0,0c0,0,0,0,0,0
			l0,0c0,0,0,0,0-0.1c0,0,0-0.1,0-0.1c0,0,0,0,0,0c0-0.1,0-0.1,0.1-0.2c0,0,0,0,0,0c0,0,0,0,0,0c0,0,0,0,0,0c0-0.1,0-0.2,0.1-0.2
			c0-0.1,0.1-0.1,0.1-0.2c0-0.1,0-0.1,0.1-0.2c0-0.1,0.1-0.1,0.1-0.2c0,0,0.1-0.1,0.1-0.1c0,0,0,0,0,0c0,0,0,0,0,0c0,0,0-0.1,0-0.1
			c0,0,0-0.1,0.1-0.1c0,0,0,0,0-0.1l0,0c0,0,0-0.1,0.1-0.1c0,0,0.1-0.1,0.1-0.1c0,0,0.1-0.1,0.1-0.1c0,0,0.1-0.1,0.1-0.1l0,0
			c0.1,0,0.1-0.1,0.2-0.1c0,0,0,0,0,0c0,0,0,0,0,0c0,0,0,0,0,0c0,0,0,0,0,0c0,0,0.1,0,0.1-0.1c0,0,0.1,0,0.1-0.1
			c0.1,0,0.1-0.1,0.2-0.1c0,0,0,0,0.1,0c0,0,0,0,0.1,0c0,0,0.1,0,0.1,0c0,0,0.1,0,0.1,0c0,0.1,0,0,0.1,0
			C30.6,19.1,30.6,19.1,30.8,19.1C30.7,19.1,30.7,19.1,30.8,19.1C30.7,19.1,30.7,19.1,30.8,19.1z M28,21.9L28,21.9
			C28,21.9,28,21.9,28,21.9z M28,22C28,22,28.1,22,28,22C28,22,28.1,22,28,22c0,0.1,0,0.1,0,0.1C28,22.1,28,22,28,22
			C28,22,28,22,28,22C28,22,28,22,28,22C28,22,28,22,28,22z"/>
	</g>
</g>
</svg>
