<?xml version="1.0" encoding="utf-8"?>
<!-- Generator: Adobe Illustrator 18.1.1, SVG Export Plug-In . SVG Version: 6.00 Build 0)  -->
<svg version="1.1" id="Layer_1" xmlns="http://www.w3.org/2000/svg" xmlns:xlink="http://www.w3.org/1999/xlink" x="0px" y="0px"
	 viewBox="0 0 87.1 19.1" enable-background="new 0 0 87.1 19.1" xml:space="preserve">
<g>
	<g>
		<path fill="#FFFFFF" d="M23.5,10.3c0,0,0.3-0.2,0.3-0.8c0-0.5-0.2-1.2-0.8-1.8c-0.5-0.6-1.3-1-2.2-1.4c-0.9-0.4-2-0.7-3.1-0.9
			c-2.3-0.4-5.1-0.4-8,0.2C8.3,5.9,6.8,6.3,5.4,6.8C3.9,7.3,2.5,7.8,1,8.4C0.6,8.7,0.1,9.1,0,9.7c0,0.3,0.1,0.7,0.3,0.9
			c0.2,0.2,0.4,0.4,0.6,0.5c0.8,0.4,1.5,0.6,2.3,0.7c1.6,0.3,3.1,0.3,4.5,0.2c2.9,0,5.6-0.1,7.9-0.3c2.3-0.2,4.2-0.4,5.6-0.7
			c0.7-0.1,1.2-0.2,1.6-0.3c0.2-0.1,0.4-0.2,0.5-0.3C23.4,10.4,23.5,10.3,23.5,10.3l-0.8-0.7c0.6,0-2.6,0.8-7.1,1.1
			c-2.3,0.2-4.9,0.3-7.8,0.3c-1.4,0-2.9,0-4.3-0.2c-0.7-0.1-1.4-0.3-2-0.6C1.2,10,1.1,9.9,1.1,9.8c0-0.1,0.1-0.3,0.4-0.4
			c2.7-1.1,5.7-2.2,8.4-2.7c2.8-0.6,5.4-0.6,7.6-0.2c2.2,0.4,4,1.1,4.8,2c0.4,0.4,0.5,0.8,0.5,1c0,0.2-0.1,0.2-0.1,0.2L23.5,10.3z"
			/>
		<path fill-rule="evenodd" clip-rule="evenodd" fill="#FFFFFF" d="M13.3,11c0,0,0.1,0,0.1,0C13.4,11,13.3,11,13.3,11z"/>
		<path fill-rule="evenodd" clip-rule="evenodd" fill="#FFFFFF" d="M15.3,11.6c0,0,0.2,0,0.1,0C15.4,11.6,15.3,11.6,15.3,11.6z"/>
		<path fill-rule="evenodd" clip-rule="evenodd" fill="#FFFFFF" d="M15.5,11.6c0,0,0.1,0,0.1,0C15.6,11.6,15.5,11.6,15.5,11.6z"/>
		<path fill-rule="evenodd" clip-rule="evenodd" fill="#FFFFFF" d="M16.1,11.4c0,0,0.1,0,0.1,0C16.2,11.4,16.1,11.4,16.1,11.4z"/>
		<path fill-rule="evenodd" clip-rule="evenodd" fill="#FFFFFF" d="M16.4,11.5c0.1,0,0.1,0,0.3,0C16.6,11.5,16.4,11.5,16.4,11.5z"/>
		<path fill-rule="evenodd" clip-rule="evenodd" fill="#FFFFFF" d="M17,10.9c0.1,0,0.4-0.1,0.5,0C17.2,10.9,17.3,10.8,17,10.9z"/>
		<path fill-rule="evenodd" clip-rule="evenodd" fill="#FFFFFF" d="M17.4,11.1c0.2,0,0.5,0,0.7-0.1c0,0-0.3,0-0.4,0.1
			c0,0-0.1,0-0.1,0C17.5,11.1,17.5,11.1,17.4,11.1z"/>
		<path fill-rule="evenodd" clip-rule="evenodd" fill="#FFFFFF" d="M19.4,10.9C19.4,10.9,19.4,10.9,19.4,10.9
			C19.5,10.9,19.5,10.9,19.4,10.9L19.4,10.9z"/>
		<path fill-rule="evenodd" clip-rule="evenodd" fill="#FFFFFF" d="M20.2,10.7c0.1,0,0.4-0.1,0.6-0.1c0,0,0,0,0.1,0
			c0.1,0,0.3,0,0.1,0C20.6,10.6,20.5,10.6,20.2,10.7z"/>
		<path fill-rule="evenodd" clip-rule="evenodd" fill="#FFFFFF" d="M20.3,10.8c0.1,0,0.1,0,0.1,0C20.5,10.8,20.3,10.8,20.3,10.8z"/>
		<path fill-rule="evenodd" clip-rule="evenodd" fill="#FFFFFF" d="M20.5,10.4c0,0,0.1,0,0.2,0C20.6,10.4,20.5,10.4,20.5,10.4z"/>
		<path fill-rule="evenodd" clip-rule="evenodd" fill="#FFFFFF" d="M20.5,10.7c0.1,0,0.1,0,0.2,0C20.8,10.7,20.6,10.7,20.5,10.7z"/>
		<path fill-rule="evenodd" clip-rule="evenodd" fill="#FFFFFF" d="M20.6,10.7c0,0,0.2,0,0.3-0.1C20.8,10.7,20.7,10.7,20.6,10.7z"/>
		<path fill-rule="evenodd" clip-rule="evenodd" fill="#FFFFFF" d="M20.7,10.3c0,0,0.1,0,0.1,0C20.8,10.3,20.7,10.3,20.7,10.3z"/>
		<path fill-rule="evenodd" clip-rule="evenodd" fill="#FFFFFF" d="M20.8,10.4c0.1,0,0.3-0.1,0.4-0.1C20.9,10.3,20.9,10.3,20.8,10.4
			z"/>
		<path fill-rule="evenodd" clip-rule="evenodd" fill="#FFFFFF" d="M20.9,10.7c0.1,0,0.3,0,0.4-0.1C21,10.7,21.1,10.6,20.9,10.7z"/>
		<path fill-rule="evenodd" clip-rule="evenodd" fill="#FFFFFF" d="M21.1,10.5c0.1,0,0.1,0,0.2,0C21.3,10.5,21.2,10.5,21.1,10.5z"/>
		<path fill-rule="evenodd" clip-rule="evenodd" fill="#FFFFFF" d="M21.3,10.5c0,0,0.1,0,0.2,0C21.5,10.5,21.4,10.5,21.3,10.5z"/>
		<path fill-rule="evenodd" clip-rule="evenodd" fill="#FFFFFF" d="M21.5,10.5c0,0,0.2,0,0.1,0c0,0,0,0,0,0
			C21.6,10.5,21.6,10.5,21.5,10.5z"/>
		<path fill-rule="evenodd" clip-rule="evenodd" fill="#FFFFFF" d="M21.9,10.2C21.8,10.3,21.6,10.3,21.9,10.2L21.9,10.2z"/>
		<path fill-rule="evenodd" clip-rule="evenodd" fill="#FFFFFF" d="M22.1,10.1c0.2,0,0.2,0,0.2-0.1C22.3,10,22.2,10.1,22.1,10.1z"/>
		<path fill-rule="evenodd" clip-rule="evenodd" fill="#FFFFFF" d="M22.2,10.1C22.1,10.1,22.3,10,22.2,10.1L22.2,10.1z"/>
		<path fill-rule="evenodd" clip-rule="evenodd" fill="#FFFFFF" d="M22.3,9.9c0,0,0.1,0,0.1,0C22.4,9.9,22.3,9.9,22.3,9.9z"/>
		<path fill-rule="evenodd" clip-rule="evenodd" fill="#FFFFFF" d="M22.7,9.7C22.7,9.7,22.8,9.7,22.7,9.7L22.7,9.7z"/>
		<path fill-rule="evenodd" clip-rule="evenodd" fill="#FFFFFF" d="M18.2,10.5c0,0,0.1,0,0.1,0c0.1,0,0.2,0,0.3,0
			C18.5,10.5,18.4,10.5,18.2,10.5z"/>
		<path fill-rule="evenodd" clip-rule="evenodd" fill="#FFFFFF" d="M20.6,10.4c0,0,0,0,0.1,0C20.7,10.4,20.7,10.4,20.6,10.4
			c0.2,0,0.3,0,0.3,0c0,0,0,0,0,0c0.1,0,0.3,0,0.5-0.1c-0.2,0.1-0.8,0.1-1,0.2C20.5,10.5,20.7,10.5,20.6,10.4
			C20.7,10.4,20.6,10.5,20.6,10.4z"/>
		<path fill-rule="evenodd" clip-rule="evenodd" fill="#FFFFFF" d="M20.9,10.6C20.9,10.6,20.9,10.6,20.9,10.6c0,0,0.1,0,0.1,0
			C21,10.6,20.7,10.7,20.9,10.6z"/>
		<path fill-rule="evenodd" clip-rule="evenodd" fill="#FFFFFF" d="M22.4,10.3L22.4,10.3c0.1,0,0.3-0.1,0.4-0.1
			c-0.1,0.1-0.5,0.2-0.6,0.2c0,0-0.1,0-0.1,0c-0.4,0.1-0.8,0.1-1.2,0.2c0.2-0.1,0.6-0.1,0.8-0.2c0,0,0,0,0,0
			C21.9,10.4,22.2,10.4,22.4,10.3z"/>
		<path fill-rule="evenodd" clip-rule="evenodd" fill="#FFFFFF" d="M22.2,10c0.1,0,0.1,0,0.1,0C22.3,10,22.3,10,22.2,10z"/>
		<path fill-rule="evenodd" clip-rule="evenodd" fill="#FFFFFF" d="M19.6,7c0.1,0,0.2,0.1,0.3,0.1c0.2,0.1,0.3,0.1,0.6,0.2
			c0.2,0.1,0.4,0.1,0.5,0.2c0.1,0,0.2,0.1,0.3,0.1C21.6,7.9,21.8,8,21.9,8c0.2,0.1,0.4,0.3,0.5,0.4c0.1,0.1,0,0,0.1,0.1
			C22.7,8.8,22.9,9,23,9.4c0,0,0,0.1,0,0.1c0,0,0,0.1,0,0.1c0,0.1,0.1,0,0,0.2c0,0,0,0,0,0c0,0,0.1,0,0.2,0.1
			c0.1-0.1,0.1-0.1,0.2-0.2c0-0.1,0.1-0.2,0.1-0.4c0-0.1,0-0.3,0-0.4c0,0,0-0.2,0-0.2c-0.1-0.2-0.1-0.3-0.2-0.5c0,0,0-0.1,0-0.1
			c-0.2-0.4-0.5-0.7-0.9-1c0,0-0.1-0.1-0.2-0.1c-0.3-0.2-0.9-0.5-1-0.6c-0.1,0-0.1,0-0.1-0.1c0,0-0.2-0.1-0.4-0.2
			c0,0-0.2-0.1-0.3-0.1c-0.2-0.1-0.3-0.1-0.5-0.2c0,0-0.2,0-0.2-0.1c-0.4-0.1-0.6-0.2-0.8-0.2c-0.1,0-0.2-0.1-0.3-0.1
			c-0.1,0-0.2,0-0.2,0c-0.3,0-1-0.2-1.4-0.2c-0.3-0.1-0.6-0.1-0.9-0.1c0,0-0.2,0-0.2,0c-0.1,0-0.2,0-0.4,0c-0.2,0-0.4,0-0.6,0
			c-0.3,0-0.5,0-0.7,0c-0.1,0-0.2,0-0.3,0c-0.1,0-0.2,0-0.3,0c-0.1,0-0.2,0-0.3,0c0,0-0.1,0-0.2,0c0,0-0.1,0-0.2,0c0,0-0.2,0-0.2,0
			c-0.3,0-0.6,0-0.9,0.1c-0.5,0-0.9,0.1-1.5,0.2c-0.1,0-0.3,0.1-0.4,0.1c0,0,0,0-0.1,0C9.5,5.8,9.2,5.9,8.9,5.9c0,0,0,0,0,0
			C8.4,6,7.9,6.2,7.6,6.3C7.3,6.3,7,6.4,6.7,6.5c-0.1,0-0.3,0.1-0.4,0.1C5.9,6.8,5.7,6.9,5.4,6.9C5.3,7,5.2,7,5.2,7
			C5,7.1,4.9,7.1,4.7,7.2C3.9,7.5,3.5,7.6,3.1,7.8C3,7.8,2.8,7.9,2.6,8C2.3,8.1,2.1,8.2,1.8,8.3c0,0-0.2,0.1-0.2,0.1
			C1.4,8.4,1.2,8.5,1,8.6c-0.5,0.2-1,0.8-0.8,1.5c0.1,0.4,0.5,0.8,0.8,0.9c0.4,0.2,0.7,0.3,1,0.4c0.1,0,0.3,0.1,0.4,0.1
			C3,11.6,3.6,11.7,4,11.8c2.1,0.2,4.1,0.1,6.1,0c0.2,0,0.4,0,0.5,0c0,0,0.1,0,0.2,0c0.2,0,0.6,0,0.9,0c0.1,0,0.3,0,0.4,0
			c0.1,0-0.1,0,0,0c0.2,0,0.9-0.1,1.2-0.1c0,0,0,0,0,0c0.1,0,0.1,0,0.2,0c0.6,0,1-0.1,1.4-0.1c0.1,0,0.2,0,0.3,0c-0.1,0-0.2,0-0.2,0
			c0.1,0,0.3,0,0.4,0c0.2,0,0.3,0,0.4,0c0,0,0,0,0,0c0.4,0,0.3,0,0.6,0c0.1,0,0.3,0,0.4,0c0.1,0-0.1,0,0,0c0.2,0,0.4,0,0.6-0.1
			c0,0,0.1,0,0.2,0c0.1,0,0,0,0.1,0c0.1,0-0.1,0,0,0c0.1,0,0.1,0,0.1,0c0.1,0,0.2,0,0.4-0.1c0.2,0,0.2,0,0.4-0.1c0.1,0,0.2,0,0.3,0
			c0.1,0,0.2,0,0.3,0c0.1,0,0,0,0,0c0.4-0.1,0.8-0.1,1.1-0.2c-0.4,0.1-0.8,0.1-1.1,0.2c-0.1,0-0.2,0-0.2,0c0,0,0.1,0,0,0
			c0,0-0.1,0-0.1,0c0.1,0,0,0-0.1,0c-0.3,0-0.6,0.1-0.9,0.1c-0.1,0,0,0,0,0c-0.1,0-0.1,0-0.3,0c0,0-0.1,0-0.1,0
			c0.4,0,0.9-0.1,1.4-0.2c0.1,0,0.3,0,0.4-0.1c-0.2,0-0.4,0-0.5,0.1c-0.2,0-0.5,0.1-0.7,0.1c0,0-0.1,0-0.1,0c0,0-0.1,0-0.2,0
			c0,0-0.1,0-0.1,0c-0.1,0-0.2,0-0.3,0c-0.1,0-0.3,0-0.6,0c0,0,0,0,0,0c0.2,0,0.3,0,0.5-0.1c0,0,0,0,0,0c0.1,0,0.1,0,0.1,0
			c-0.2,0-0.2,0-0.1,0c0.5,0,0.9-0.1,1.3-0.1c0,0,0.1,0,0.1,0c0.5-0.1,0.8-0.1,1.3-0.2c-0.8,0.1-1,0.1-1.6,0.2c0,0,0,0-0.1,0
			C18,11,17.8,11,17.6,11c-0.1,0-0.2,0-0.3,0c-0.6,0.1-1,0.1-1.6,0.1c0,0,0,0-0.1,0c0,0,0.1,0,0.1,0c0.1,0,0.1,0,0.3,0
			c1-0.1,1.1-0.1,1.8-0.2c0.1,0,0,0,0,0c-0.3,0-0.6,0.1-0.9,0.1c-0.1,0,0-0.1,0.2-0.1c0.4,0,1-0.1,1.3-0.1c1.2-0.2,2.3-0.3,3.5-0.6
			c-0.6,0.1-1.2,0.2-1.8,0.3c0,0,0,0-0.1,0c-0.6,0.1-1.1,0.2-1.7,0.2c-0.2,0-0.6,0.1-0.8,0.1c0.1,0,0.2-0.1,0.4-0.1
			c-0.2,0-0.5,0-0.6,0.1c-0.1,0-0.2,0-0.5,0.1c0,0,0,0,0,0c0.1,0-0.1,0-0.1,0c-0.1,0-0.1,0-0.2,0c-0.1,0-0.1,0-0.2,0
			c-0.5,0-0.8,0.1-1.3,0.1c-0.1,0-0.1,0-0.1,0c0,0,0,0-0.1,0c0,0,0,0-0.1,0c-0.2,0-0.4,0-0.5,0c-0.4,0-1,0-1.3,0.1c-0.1,0,0,0-0.1,0
			c-0.6,0-1.3,0-1.9,0.1c0,0,0,0-0.1,0c-0.1,0-0.1,0-0.2,0c-0.1,0-0.1,0-0.1,0c-0.8,0-1.5,0-2.3,0c-0.7,0-1.5,0-2.1,0
			c-0.5,0-1,0-1.5-0.1c-0.6-0.1-1.2-0.1-1.8-0.3c-0.4-0.1-0.9-0.3-1.2-0.4c-0.1,0-0.1,0-0.2-0.1c-0.1,0-0.2-0.1-0.2-0.1
			C1,10,1,9.9,1,9.8c0-0.2,0.2-0.3,0.4-0.5c0.1-0.1,0.3-0.1,0.5-0.2C2,9,2.2,9,2.2,9c0.3-0.1,0.7-0.3,1-0.4c0.4-0.1,0.7-0.2,1.3-0.5
			c0.5-0.2,1-0.3,1.5-0.5c0.8-0.2,0.8-0.2,1.2-0.4c0,0,0.1,0,0.1,0C8,7,8.7,6.8,9.3,6.7c0.2-0.1,0.4-0.1,0.6-0.1
			c0.2,0,0.4-0.1,0.6-0.1c0,0,0.1,0,0.2,0c0.2,0,0.4-0.1,0.6-0.1c0.3,0,0.5-0.1,1-0.1c0.4,0,0.6,0,1-0.1c0.6,0,1.1,0,1.7,0
			c0.2,0,0.4,0,0.6,0c0.5,0,0.5,0,0.7,0.1c0.2,0,0.5,0.1,0.7,0.1c0.4,0.1,0.8,0.1,1.1,0.2c0.1,0.1,0.4,0.1,0.6,0.1
			c0.1,0,0.1,0.1,0.2,0.1c0.1,0,0.3,0.1,0.4,0.1C19.3,6.9,19.4,7,19.6,7z M17,11.2C17,11.3,17,11.3,17,11.2
			C17,11.3,16.9,11.3,17,11.2z M17.1,11.2c0.2,0,0.4-0.1,0.6-0.1c0,0,0,0,0,0c0.1,0,0.2,0,0.3,0c0,0-0.2,0-0.3,0.1
			c-0.1,0-0.1,0-0.2,0C17.2,11.2,17.3,11.2,17.1,11.2C17.1,11.2,17,11.3,17.1,11.2z"/>
	</g>
	<g>
		<path fill="#FFFFFF" d="M45.8,10.9c-1.4,0.9-3.4,1.1-5.2,1.3c-1.9,0.2-3.7,0.2-5.6,0.2c-1.9-0.1-3.7-0.3-5.6-0.5
			c-0.9-0.1-1.8-0.3-2.8-0.5c-0.5-0.1-0.9-0.2-1.3-0.3c-0.4-0.1-0.7-0.3-0.7-0.5l0,0.2v0l-0.1-0.2c0.1,0,0.1,0,0.1,0l0,0l0,0l0,0
			l0,0l0,0c0,0,0-0.1,0-0.1c0-0.1,0-0.1,0-0.2c0.1-0.2,0.2-0.3,0.3-0.4c0.3-0.3,0.8-0.5,1.2-0.7c0.9-0.5,1.9-0.8,2.9-1.1
			c2-0.6,4.1-0.9,6.2-0.9c2.1,0,4.2,0.3,6.3,0.8c1,0.3,2.1,0.5,3,0.9c0.5,0.2,0.9,0.4,1.2,0.7c0.3,0.3,0.5,0.7,0.6,1.1l1.1-0.1
			c-0.1-0.7-0.4-1.3-0.9-1.8c-0.5-0.5-1-0.7-1.5-0.9c-1.1-0.4-2.1-0.7-3.2-1c-2.1-0.5-4.3-0.8-6.5-0.8c-2.2,0-4.4,0.3-6.5,0.9
			c-1.1,0.3-2.1,0.7-3.1,1.2c-0.5,0.3-1,0.5-1.5,0.9c-0.5,0.5-0.9,1.2-0.6,2.1l0-0.2v0v0.1l0,0.1c0.3,0.7,0.9,1,1.4,1.2
			c0.5,0.2,1,0.2,1.4,0.4c0.9,0.2,1.9,0.4,2.8,0.5c1.9,0.3,3.8,0.5,5.7,0.6c1.9,0.1,3.8,0,5.7-0.2c1-0.1,1.9-0.2,2.9-0.4
			c1-0.2,1.9-0.5,2.8-1.1L45.8,10.9z"/>
		<path fill-rule="evenodd" clip-rule="evenodd" fill="#FFFFFF" d="M38.4,6c0,0,0.1,0,0.1,0C38.5,6,38.5,6,38.4,6z"/>
		<path fill-rule="evenodd" clip-rule="evenodd" fill="#FFFFFF" d="M40.2,7c0,0,0.2,0,0.1,0C40.3,7,40.3,7,40.2,7z"/>
		<path fill-rule="evenodd" clip-rule="evenodd" fill="#FFFFFF" d="M40.4,7.1c0,0,0.1,0,0.1,0C40.6,7.1,40.5,7.1,40.4,7.1z"/>
		<path fill-rule="evenodd" clip-rule="evenodd" fill="#FFFFFF" d="M41,7.1c0,0,0.1,0,0.1,0C41.2,7.1,41.1,7.1,41,7.1z"/>
		<path fill-rule="evenodd" clip-rule="evenodd" fill="#FFFFFF" d="M41.3,7.3c0.1,0,0.1,0,0.2,0C41.5,7.3,41.4,7.3,41.3,7.3z"/>
		<path fill-rule="evenodd" clip-rule="evenodd" fill="#FFFFFF" d="M42.1,6.9c0.1,0,0.4,0.1,0.5,0.1C42.4,7,42.3,6.9,42.1,6.9z"/>
		<path fill-rule="evenodd" clip-rule="evenodd" fill="#FFFFFF" d="M42.4,7.2c0.2,0,0.4,0.1,0.6,0.2c0,0-0.3-0.1-0.4-0.1
			c0,0-0.1,0-0.1,0C42.5,7.2,42.4,7.2,42.4,7.2z"/>
		<path fill-rule="evenodd" clip-rule="evenodd" fill="#FFFFFF" d="M44.3,7.8C44.3,7.8,44.3,7.8,44.3,7.8
			C44.4,7.8,44.4,7.8,44.3,7.8L44.3,7.8z"/>
		<path fill-rule="evenodd" clip-rule="evenodd" fill="#FFFFFF" d="M45.1,8c0.1,0,0.4,0.2,0.5,0.3c0,0,0,0,0.1,0
			c0.1,0,0.3,0.2,0.1,0.1C45.5,8.2,45.3,8.1,45.1,8z"/>
		<path fill-rule="evenodd" clip-rule="evenodd" fill="#FFFFFF" d="M45.1,8.2c0,0,0.1,0,0.1,0.1C45.2,8.2,45.1,8.2,45.1,8.2z"/>
		<path fill-rule="evenodd" clip-rule="evenodd" fill="#FFFFFF" d="M45.4,8c0,0,0.1,0.1,0.2,0.1C45.6,8,45.5,8,45.4,8z"/>
		<path fill-rule="evenodd" clip-rule="evenodd" fill="#FFFFFF" d="M45.3,8.2c0,0,0.2,0.1,0.2,0.1C45.5,8.3,45.3,8.2,45.3,8.2z"/>
		<path fill-rule="evenodd" clip-rule="evenodd" fill="#FFFFFF" d="M45.3,8.3c0,0,0.1,0.1,0.2,0.1C45.4,8.3,45.4,8.3,45.3,8.3z"/>
		<path fill-rule="evenodd" clip-rule="evenodd" fill="#FFFFFF" d="M45.7,8c0,0,0.1,0,0.1,0.1C45.8,8.1,45.7,8,45.7,8z"/>
		<path fill-rule="evenodd" clip-rule="evenodd" fill="#FFFFFF" d="M45.7,8.1c0.1,0,0.3,0.2,0.4,0.3C46,8.3,45.9,8.2,45.7,8.1z"/>
		<path fill-rule="evenodd" clip-rule="evenodd" fill="#FFFFFF" d="M45.6,8.4c0.1,0,0.2,0.1,0.3,0.2C45.8,8.6,45.7,8.5,45.6,8.4z"/>
		<path fill-rule="evenodd" clip-rule="evenodd" fill="#FFFFFF" d="M45.9,8.5c0,0,0.1,0.1,0.1,0.1C46,8.6,46,8.5,45.9,8.5z"/>
		<path fill-rule="evenodd" clip-rule="evenodd" fill="#FFFFFF" d="M46,8.6c0,0,0.1,0.1,0.1,0.1C46.1,8.7,46.1,8.6,46,8.6z"/>
		<path fill-rule="evenodd" clip-rule="evenodd" fill="#FFFFFF" d="M46.2,8.8c0,0,0.1,0.1,0.1,0.1C46.2,8.8,46.2,8.8,46.2,8.8
			C46.2,8.8,46.2,8.8,46.2,8.8z"/>
		<path fill-rule="evenodd" clip-rule="evenodd" fill="#FFFFFF" d="M46.6,9C46.5,8.9,46.4,8.7,46.6,9L46.6,9z"/>
		<path fill-rule="evenodd" clip-rule="evenodd" fill="#FFFFFF" d="M46.8,9.1c0.1,0.1,0.1,0.2,0.2,0.3C46.9,9.3,46.9,9.2,46.8,9.1z"
			/>
		<path fill-rule="evenodd" clip-rule="evenodd" fill="#FFFFFF" d="M46.9,9.2c0,0,0.1,0.1,0.1,0.1L46.9,9.2z"/>
		<path fill-rule="evenodd" clip-rule="evenodd" fill="#FFFFFF" d="M47.1,9.3c0,0,0.1,0.1,0.1,0.2C47.2,9.5,47.1,9.3,47.1,9.3z"/>
		<path fill-rule="evenodd" clip-rule="evenodd" fill="#FFFFFF" d="M47.3,10C47.4,10.2,47.4,10.3,47.3,10L47.3,10z"/>
		<path fill-rule="evenodd" clip-rule="evenodd" fill="#FFFFFF" d="M43.4,7c0,0,0.1,0,0.1,0c0.1,0,0.2,0.1,0.3,0.1
			C43.6,7.1,43.5,7.1,43.4,7z"/>
		<path fill-rule="evenodd" clip-rule="evenodd" fill="#FFFFFF" d="M45.6,8.1C45.6,8.1,45.6,8.1,45.6,8.1
			C45.7,8.1,45.6,8.1,45.6,8.1c0.2,0.1,0.2,0.1,0.3,0.2c0,0,0,0,0,0c0.1,0.1,0.2,0.2,0.4,0.3c-0.2-0.2-0.7-0.5-0.9-0.6
			C45.4,8,45.6,8.1,45.6,8.1C45.6,8.1,45.5,8.1,45.6,8.1z"/>
		<path fill-rule="evenodd" clip-rule="evenodd" fill="#FFFFFF" d="M45.6,8.4C45.6,8.4,45.6,8.4,45.6,8.4
			C45.6,8.4,45.7,8.4,45.6,8.4C45.7,8.4,45.5,8.3,45.6,8.4z"/>
		<path fill-rule="evenodd" clip-rule="evenodd" fill="#FFFFFF" d="M46.7,9.5L46.7,9.5c0.1,0.1,0.1,0.3,0.1,0.4
			c0-0.2-0.2-0.5-0.2-0.6c0,0,0,0,0-0.1c-0.2-0.3-0.5-0.6-0.8-0.8c0.2,0.1,0.4,0.3,0.6,0.5c0,0,0,0,0,0C46.4,9.1,46.6,9.3,46.7,9.5z
			"/>
		<path fill-rule="evenodd" clip-rule="evenodd" fill="#FFFFFF" d="M46.9,9.2c0,0.1,0,0.1,0.1,0.1C47,9.4,47,9.3,46.9,9.2z"/>
		<path fill-rule="evenodd" clip-rule="evenodd" fill="#FFFFFF" d="M41,13.2c0.1,0,0.2,0,0.3,0c0.2,0,0.4,0,0.7-0.1
			c0.2,0,0.5-0.1,0.6-0.1c0.1,0,0.2,0,0.3-0.1c0.3-0.1,0.6-0.1,0.7-0.2c0.2-0.1,0.5-0.1,0.7-0.2c0.1,0,0.1,0,0.1,0
			c0.5-0.2,0.8-0.3,1.3-0.6c0,0,0.1-0.1,0.1-0.1c0.1,0,0.1-0.1,0.1-0.1c0.1-0.1,0-0.1,0.2-0.2c0,0,0,0,0,0c0-0.1-0.1-0.1-0.1-0.1
			c-0.1,0.1-0.1,0-0.2,0c-0.1,0-0.2,0.1-0.3,0.1c-0.1,0-0.2,0.1-0.3,0.1c0,0-0.1,0-0.2,0c-0.1,0-0.3,0.1-0.4,0.1c0,0-0.1,0-0.1,0
			c-0.3,0.1-0.7,0.1-1.1,0.2c-0.1,0-0.1,0-0.2,0C42.9,12,42.4,12,42.2,12c-0.1,0-0.1,0-0.1,0c0,0-0.2,0-0.4,0c0,0-0.2,0-0.3,0.1
			c-0.2,0-0.4,0-0.5,0c0,0-0.2,0-0.2,0c-0.2,0-0.6,0.1-0.8,0.1c-0.1,0-0.2,0-0.3,0c-0.1,0-0.2,0-0.2,0c-0.3,0.1-1,0.1-1.4,0.1
			c-0.3,0-0.6,0-0.9,0c0,0-0.2,0-0.2,0c-0.1,0-0.3,0-0.4,0c-0.2,0-0.3,0-0.6,0c-0.3,0-0.5,0-0.7,0c0,0-0.2,0-0.3,0c0,0-0.2,0-0.3,0
			c-0.1,0-0.2,0-0.3,0c0,0-0.1,0-0.2,0c0,0-0.1,0-0.2,0c0,0-0.2,0-0.2,0c-0.3,0-0.6,0-0.9,0c-0.5-0.1-0.9-0.1-1.5-0.2
			c-0.1,0-0.2,0-0.4,0c0,0,0,0-0.1,0c-0.3,0-0.6-0.1-0.9-0.1c0,0,0,0,0,0c-0.4-0.1-0.9-0.2-1.3-0.2c-0.3-0.1-0.6-0.1-0.9-0.2
			c-0.1,0-0.3-0.1-0.4-0.1c-0.4-0.1-0.6-0.1-0.9-0.2c0,0-0.2,0-0.2,0c-0.2,0-0.2-0.1-0.4-0.1c-0.6-0.1-1.2-0.3-1.4-0.6
			c-0.1-0.1-0.1-0.1-0.2-0.3c-0.1-0.1,0-0.4,0-0.6c0-0.1,0-0.1,0.1-0.1c0.1-0.1,0.1-0.2,0.3-0.3c0.3-0.3,0.7-0.5,1-0.6
			c0.5-0.3,1.2-0.6,1.8-0.8c0.1-0.1,0.3-0.1,0.4-0.1c0.4-0.2,1-0.3,1.4-0.5c1.9-0.5,3.9-0.8,5.9-0.8c0.2,0,0.4,0,0.5,0
			c0,0,0.1,0,0.2,0c0.2,0,0.5,0,0.9,0c0.1,0,0.3,0,0.4,0c0,0-0.1,0,0,0c0.2,0,0.9,0.1,1.2,0.1c0,0,0,0,0,0c0.1,0,0.1,0,0.2,0
			c0.5,0.1,0.9,0.1,1.4,0.2c0.1,0,0.2,0.1,0.3,0.1c-0.1,0-0.2,0-0.2,0C40.2,7,40.4,7,40.5,7c0.2,0,0.3,0.1,0.4,0.1c0,0,0,0,0,0
			c0.3,0.1,0.3,0.1,0.6,0.1c0.1,0,0.3,0.1,0.4,0.1c0.1,0-0.1,0,0,0c0.2,0,0.4,0.1,0.5,0.1c0,0,0.1,0,0.1,0c0,0,0,0,0.1,0
			c0.1,0,0,0,0,0c0.1,0,0.1,0,0.1,0c0.1,0,0.2,0.1,0.3,0.1c0.2,0.1,0.2,0.1,0.4,0.1c0.1,0,0.2,0.1,0.3,0.1c0.1,0,0.2,0.1,0.3,0.1
			c0.1,0,0,0,0,0c0.4,0.1,0.7,0.2,1,0.4C44.7,8,44.4,7.9,44,7.8c-0.1,0-0.2,0-0.2-0.1c0,0,0.1,0,0,0c0,0-0.1,0-0.1,0c0.1,0,0,0,0,0
			c-0.3-0.1-0.6-0.2-0.8-0.2c-0.1,0,0,0,0,0c-0.1,0-0.1,0-0.3-0.1c0,0-0.1,0-0.1,0c0.4,0.1,0.9,0.2,1.3,0.4c0.1,0,0.3,0.1,0.3,0.1
			c-0.2-0.1-0.3-0.1-0.5-0.2c-0.2-0.1-0.5-0.1-0.7-0.2c0,0-0.1,0-0.1,0c0,0-0.1,0-0.2,0c0,0-0.1,0-0.1,0c-0.1,0-0.2,0-0.3-0.1
			c-0.1,0-0.3-0.1-0.5-0.1c0,0,0,0,0,0c0.2,0.1,0.3,0.1,0.5,0.1c0,0,0,0,0,0c0.1,0,0.1,0,0.1,0c-0.2,0-0.2-0.1-0.1-0.1
			c0.4,0.1,0.9,0.2,1.3,0.4c0,0,0.1,0,0.1,0c0.4,0.1,0.8,0.3,1.2,0.4c-0.5-0.2-1-0.3-1.5-0.5c0,0,0,0-0.1,0
			c-0.4-0.1-0.5-0.1-0.7-0.2c-0.1,0-0.2-0.1-0.2-0.1c-0.6-0.1-1-0.3-1.6-0.4c0,0,0,0-0.1,0c0,0,0.1,0,0.1,0c0.1,0,0.2,0,0.3,0.1
			c0.5,0.1,1.2,0.3,1.7,0.4c0.1,0,0,0,0,0C42.5,7,42.6,7.1,42,6.9c-0.1-0.1,0-0.1,0.3,0c0.4,0.1,1,0.3,1.3,0.4
			c1.1,0.3,2.3,0.6,3.2,1.7c-0.4-0.6-1-0.9-1.6-1.2c0,0,0,0-0.1,0c-0.6-0.2-1.2-0.4-1.7-0.6C43.2,7.1,42.8,7,42.6,7
			c0.1,0,0.2,0,0.5,0.1c-0.2-0.1-0.5-0.1-0.6-0.2c-0.1,0-0.2-0.1-0.5-0.1c0,0,0,0,0,0c0.1,0-0.1,0-0.1,0c-0.1,0-0.1,0-0.2,0
			c-0.1,0-0.1,0-0.2-0.1c-0.4-0.1-0.9-0.2-1.3-0.3c-0.1,0-0.1,0-0.1,0c0,0,0,0-0.1,0c0,0,0,0-0.1,0c-0.2,0-0.4-0.1-0.5-0.1
			C38.8,6.1,38.3,6,38,6c-0.1,0,0,0-0.1,0c-0.6-0.1-1.3-0.1-1.9-0.1c-0.1,0,0,0-0.1,0c-0.1,0-0.1,0-0.2,0c-0.1,0-0.1,0-0.1,0
			c-0.8,0-1.6,0-2.3,0.1c-0.7,0.1-1.5,0.2-2.2,0.3c-0.5,0.1-1.1,0.2-1.5,0.3c-0.6,0.2-1.2,0.3-1.8,0.6c-0.4,0.1-0.9,0.3-1.2,0.5
			c0,0-0.2,0.1-0.2,0.1c-0.1,0-0.2,0.1-0.3,0.1c-0.3,0.1-0.6,0.3-0.8,0.4c-0.3,0.2-0.6,0.3-0.9,0.6C24.1,9,24,9.2,23.9,9.4
			c-0.1,0.1-0.1,0.3-0.2,0.4c-0.1,0.3-0.1,0.6,0.1,0.9l0-0.2l0,0l0,0.1l0,0.1c0.1,0.2,0.2,0.3,0.3,0.4c0.4,0.5,0.9,0.6,1.4,0.8
			c0.5,0.1,1.1,0.3,1.6,0.4c0.4,0.1,0.8,0.2,1.2,0.2c0,0,0.1,0,0.1,0c0.7,0.1,1.4,0.2,2,0.3c0.2,0,0.4,0.1,0.6,0.1
			c0.2,0,0.4,0,0.6,0.1c0,0,0.1,0,0.2,0c0.2,0,0.4,0,0.6,0.1c0.3,0,0.7,0.1,1.1,0.1c0.3,0,0.7,0.1,1.1,0.1c0.6,0.1,1.1,0,1.7,0.1
			c0.2,0,0.4,0,0.6,0c0.2,0,0.5,0,0.7,0c0.2,0,0.5,0,0.8,0c0.4,0,0.8,0,1.1,0c0.1,0.1,0.4-0.1,0.7-0.1c0.2,0,0.1,0,0.2,0
			c0.1,0,0.3,0,0.4,0C40.7,13.2,40.8,13.2,41,13.2z M42,7.2C42,7.2,42,7.2,42,7.2C41.9,7.2,41.8,7.2,42,7.2z M42,7.2
			c0.2,0,0.4,0.1,0.5,0.1c0,0,0,0,0,0c0.1,0,0.2,0.1,0.3,0.1c0,0-0.2-0.1-0.3,0c-0.1,0-0.1,0-0.2,0C42.2,7.3,42.2,7.3,42,7.2
			C42.1,7.3,42,7.2,42,7.2z"/>
	</g>
	<g>
		<path fill="#FFFFFF" d="M72,8.6c0,0-0.1-0.3-0.3-0.7c-0.3-0.4-0.8-1-1.6-1.4c-0.8-0.4-1.8-0.7-2.9-0.9c-1.1-0.3-2.4-0.5-3.9-0.6
			c-2.9-0.3-6.3-0.1-9.7,1.1c-1.7,0.6-3.4,1.4-5,2.4c-0.8,0.5-1.6,1.1-2.3,1.9c-0.7,0.8-1.2,1.9-0.9,3.1c0.1,0.6,0.5,1.1,0.9,1.5
			c0.4,0.4,0.9,0.6,1.3,0.8c0.9,0.4,1.8,0.6,2.8,0.8c1.9,0.4,3.7,0.6,5.5,0.5c3.6-0.1,6.9-0.9,9.6-1.9c1.3-0.5,2.5-1,3.6-1.5
			c1.1-0.5,2-1.2,2.5-2c0.5-0.8,0.7-1.6,0.7-2.1c0-0.3,0-0.5-0.1-0.6C72,8.6,72,8.6,72,8.6l-1,0.3c0,0,0.1,0.2,0.1,0.5
			c0,0.3-0.1,0.9-0.5,1.5c-0.7,1.2-3,2.1-5.6,3.1c-2.6,0.9-5.8,1.7-9.2,1.8c-1.7,0-3.5-0.1-5.3-0.5c-0.9-0.2-1.8-0.4-2.6-0.8
			c-0.8-0.3-1.4-0.9-1.6-1.5c-0.1-0.7,0.2-1.5,0.7-2.1c0.5-0.6,1.3-1.2,2-1.7c1.5-1,3.1-1.7,4.7-2.3c3.3-1.1,6.5-1.3,9.3-1
			c1.4,0.1,2.6,0.3,3.7,0.6c1.1,0.3,2,0.5,2.7,0.9c0.7,0.3,1,0.7,1.2,1c0.2,0.3,0.2,0.5,0.2,0.5L72,8.6z"/>
		<path fill-rule="evenodd" clip-rule="evenodd" fill="#FFFFFF" d="M62.3,14.9c0.1,0,0.1,0,0.1,0C62.5,14.9,62.4,14.9,62.3,14.9z"/>
		<path fill-rule="evenodd" clip-rule="evenodd" fill="#FFFFFF" d="M64.8,14.9c0,0,0.2-0.1,0.2-0.1C64.9,14.9,64.9,14.9,64.8,14.9z"
			/>
		<path fill-rule="evenodd" clip-rule="evenodd" fill="#FFFFFF" d="M65.1,14.8c0,0,0.1,0,0.2-0.1C65.3,14.8,65.1,14.8,65.1,14.8z"/>
		<path fill-rule="evenodd" clip-rule="evenodd" fill="#FFFFFF" d="M65.7,14.5c0,0,0.1-0.1,0.2-0.1C65.9,14.4,65.8,14.4,65.7,14.5z"
			/>
		<path fill-rule="evenodd" clip-rule="evenodd" fill="#FFFFFF" d="M66.1,14.5c0.1,0,0.2-0.1,0.3-0.1C66.3,14.4,66.2,14.4,66.1,14.5
			z"/>
		<path fill-rule="evenodd" clip-rule="evenodd" fill="#FFFFFF" d="M66.7,13.6c0.1-0.1,0.4-0.2,0.5-0.2C67,13.5,67,13.5,66.7,13.6z"
			/>
		<path fill-rule="evenodd" clip-rule="evenodd" fill="#FFFFFF" d="M67.2,13.6c0.5-0.2,0.4-0.2,0.7-0.3c0,0-0.3,0.2-0.4,0.2
			c0,0-0.1,0-0.1,0.1C67.3,13.6,67.3,13.6,67.2,13.6z"/>
		<path fill-rule="evenodd" clip-rule="evenodd" fill="#FFFFFF" d="M69.4,12.6C69.4,12.6,69.4,12.6,69.4,12.6
			C69.5,12.5,69.5,12.5,69.4,12.6L69.4,12.6z"/>
		<path fill-rule="evenodd" clip-rule="evenodd" fill="#FFFFFF" d="M70.2,11.9c0.1-0.1,0.4-0.4,0.5-0.5c0,0,0,0,0-0.1
			c0.1-0.1,0.2-0.3,0.1-0.1C70.6,11.5,70.5,11.7,70.2,11.9z"/>
		<path fill-rule="evenodd" clip-rule="evenodd" fill="#FFFFFF" d="M70.4,12c0.1-0.1,0.1-0.1,0.1-0.1C70.5,11.8,70.4,11.9,70.4,12z"
			/>
		<path fill-rule="evenodd" clip-rule="evenodd" fill="#FFFFFF" d="M70.3,11.5c0.1-0.1,0.1-0.1,0.1-0.2
			C70.4,11.4,70.4,11.5,70.3,11.5z"/>
		<path fill-rule="evenodd" clip-rule="evenodd" fill="#FFFFFF" d="M70.5,11.8c0-0.1,0.1-0.2,0.2-0.2C70.7,11.5,70.6,11.7,70.5,11.8
			z"/>
		<path fill-rule="evenodd" clip-rule="evenodd" fill="#FFFFFF" d="M70.6,11.7c0.2-0.2,0.2-0.2,0.2-0.2
			C70.8,11.5,70.7,11.6,70.6,11.7z"/>
		<path fill-rule="evenodd" clip-rule="evenodd" fill="#FFFFFF" d="M70.4,11.3c0,0,0.1-0.1,0.1-0.1C70.5,11.2,70.5,11.3,70.4,11.3z"
			/>
		<path fill-rule="evenodd" clip-rule="evenodd" fill="#FFFFFF" d="M70.5,11.3c0-0.1,0.2-0.3,0.3-0.4C70.7,11,70.7,11.1,70.5,11.3z"
			/>
		<path fill-rule="evenodd" clip-rule="evenodd" fill="#FFFFFF" d="M70.8,11.4c0.2-0.3,0.2-0.3,0.3-0.4C71,11.2,70.9,11.3,70.8,11.4
			z"/>
		<path fill-rule="evenodd" clip-rule="evenodd" fill="#FFFFFF" d="M70.9,11.1C71,11,71,11,71,10.9C71.1,10.9,71,11,70.9,11.1z"/>
		<path fill-rule="evenodd" clip-rule="evenodd" fill="#FFFFFF" d="M71.1,10.9c0-0.1,0.1-0.1,0.1-0.2C71.2,10.7,71.1,10.9,71.1,10.9
			z"/>
		<path fill-rule="evenodd" clip-rule="evenodd" fill="#FFFFFF" d="M71.2,10.7c0,0,0.1-0.2,0.1-0.2c0,0.1,0,0,0,0
			C71.2,10.7,71.2,10.7,71.2,10.7z"/>
		<path fill-rule="evenodd" clip-rule="evenodd" fill="#FFFFFF" d="M71.2,10.2C71.2,10.3,71.1,10.5,71.2,10.2L71.2,10.2z"/>
		<path fill-rule="evenodd" clip-rule="evenodd" fill="#FFFFFF" d="M71.2,9.9c0-0.1,0-0.2,0-0.3C71.2,9.7,71.2,9.8,71.2,9.9z"/>
		<path fill-rule="evenodd" clip-rule="evenodd" fill="#FFFFFF" d="M71.2,9.8c0,0,0-0.2,0-0.1L71.2,9.8z"/>
		<path fill-rule="evenodd" clip-rule="evenodd" fill="#FFFFFF" d="M71.1,9.6c0,0,0-0.1,0-0.2C71.1,9.4,71.1,9.6,71.1,9.6z"/>
		<path fill-rule="evenodd" clip-rule="evenodd" fill="#FFFFFF" d="M71.1,9C71,8.8,71,8.8,71.1,9L71.1,9z"/>
		<path fill-rule="evenodd" clip-rule="evenodd" fill="#FFFFFF" d="M68,12.8c0,0,0.1,0,0.1-0.1c0.1,0,0.2-0.1,0.3-0.1
			C68.3,12.7,68.2,12.7,68,12.8z"/>
		<path fill-rule="evenodd" clip-rule="evenodd" fill="#FFFFFF" d="M70.5,11.4C70.5,11.4,70.5,11.4,70.5,11.4
			C70.5,11.4,70.5,11.4,70.5,11.4c0.2-0.2,0.2-0.2,0.3-0.3c0,0,0,0,0,0c0.1-0.1,0.2-0.2,0.3-0.5c-0.1,0.3-0.5,0.8-0.7,0.9
			C70.4,11.6,70.5,11.4,70.5,11.4C70.5,11.4,70.4,11.5,70.5,11.4z"/>
		<path fill-rule="evenodd" clip-rule="evenodd" fill="#FFFFFF" d="M70.8,11.4C70.8,11.4,70.8,11.4,70.8,11.4c0,0,0.1-0.1,0.1-0.1
			C70.9,11.3,70.7,11.6,70.8,11.4z"/>
		<path fill-rule="evenodd" clip-rule="evenodd" fill="#FFFFFF" d="M71.5,9.6L71.5,9.6c0-0.2,0-0.4,0-0.5c0,0.2,0,0.6,0,0.8
			c0,0.1,0,0.1,0,0.1c-0.1,0.5-0.3,0.9-0.6,1.3c0.1-0.2,0.4-0.6,0.4-0.8c0,0,0,0,0,0C71.4,10.3,71.5,9.9,71.5,9.6z"/>
		<path fill-rule="evenodd" clip-rule="evenodd" fill="#FFFFFF" d="M71.2,9.8c0,0,0-0.1,0-0.1C71.2,9.6,71.2,9.7,71.2,9.8z"/>
		<path fill-rule="evenodd" clip-rule="evenodd" fill="#FFFFFF" d="M65.8,6.3c0.1,0,0.3,0,0.4,0.1c0.3,0.1,0.5,0.1,0.8,0.2
			c0.2,0.1,0.5,0.1,0.7,0.2c0.1,0,0.2,0.1,0.4,0.1C68.4,6.9,68.7,7,68.9,7c0.2,0.1,0.5,0.2,0.7,0.3c0.1,0,0.1,0,0.1,0.1
			c0.5,0.2,0.8,0.4,1.2,0.9c0,0,0.1,0.1,0.2,0.1c0,0,0.1,0.1,0.1,0.2c0.1,0.1,0.1,0,0.2,0.2c0,0,0,0,0,0c0.1,0,0.1-0.1,0.2-0.1
			c0-0.2,0-0.2,0-0.3c0-0.1-0.1-0.3-0.2-0.4c-0.1-0.1-0.1-0.3-0.2-0.4c0,0-0.1-0.2-0.1-0.2c-0.1-0.2-0.3-0.3-0.4-0.4
			c0,0-0.1-0.1-0.1-0.1c-0.4-0.3-0.8-0.6-1.4-0.8C69.1,6.1,69,6,68.9,6c-0.4-0.1-1.1-0.3-1.3-0.4c-0.1,0-0.1,0-0.2,0
			c0,0-0.3-0.1-0.5-0.1c0,0-0.3,0-0.3-0.1c-0.2,0-0.4-0.1-0.6-0.1c0,0-0.2,0-0.3,0c-0.4-0.1-0.7-0.1-1-0.2c-0.2,0-0.2,0-0.4-0.1
			c-0.1,0-0.2,0-0.2,0c-0.3,0-1.2-0.1-1.7-0.1c-0.4,0-0.8,0-1.1,0c-0.1,0-0.2,0-0.2,0c-0.1,0-0.3,0-0.5,0c-0.3,0-0.5,0-0.7,0
			c-0.4,0-0.6,0-0.9,0.1c-0.1,0-0.3,0-0.3,0c-0.1,0-0.2,0-0.3,0c-0.1,0-0.3,0-0.3,0c-0.1,0-0.2,0-0.2,0c-0.1,0-0.2,0-0.2,0
			c-0.1,0-0.2,0-0.3,0.1c-0.4,0.1-0.7,0.1-1.1,0.2c-0.6,0.1-1.1,0.3-1.8,0.5c-0.2,0.1-0.3,0.1-0.5,0.2c0,0,0,0-0.1,0
			c-0.4,0.1-0.7,0.3-1.1,0.4c0,0,0,0,0,0C52,6.6,51.4,6.8,51,7c-0.3,0.1-0.6,0.3-1,0.5c-0.2,0.1-0.3,0.2-0.5,0.3
			c-0.3,0.2-0.7,0.4-1,0.6c0,0-0.2,0.1-0.2,0.2c-0.2,0.1-0.3,0.2-0.5,0.3c-0.6,0.4-1.3,1-1.7,1.5c-0.1,0.2-0.2,0.3-0.3,0.5
			c-0.2,0.4-0.3,0.7-0.4,1.2c0,0.1,0,0.2,0,0.3c0,0.2,0,0.5,0.1,0.8c0.2,0.7,0.6,1.2,1,1.5c0.6,0.5,1.6,0.8,2.3,1
			c0.5,0.1,0.4,0.1,0.5,0.1c0.5,0.1,1.3,0.3,1.8,0.4c2.5,0.4,5.1,0.4,7.5,0.1c0.2,0,0.5-0.1,0.7-0.1c0,0,0.1,0,0.2,0
			c0.7-0.1,0.7-0.1,1.1-0.2c0.1,0,0.3-0.1,0.5-0.1c0.1,0-0.1,0,0,0c0.2-0.1,1.1-0.3,1.4-0.4c0,0,0,0,0,0c0.1,0,0.1,0,0.2-0.1
			c0.7-0.2,1.1-0.4,1.7-0.6c0.1,0,0.3-0.1,0.3-0.1c-0.1,0-0.2,0.1-0.2,0.1c0.2-0.1,0.4-0.1,0.5-0.2c0.2-0.1,0.3-0.1,0.5-0.2
			c0,0,0,0,0,0c0.4-0.1,0.3-0.1,0.7-0.3c0.1,0,0.4-0.2,0.5-0.2c0.1,0-0.1,0,0,0c0.2-0.1,0.4-0.2,0.7-0.3c0,0,0.1-0.1,0.2-0.1
			c0.1,0,0,0,0.1,0c0.1,0-0.1,0-0.1,0c0.1-0.1,0.1-0.1,0.1-0.1c0.2-0.1,0.3-0.1,0.4-0.2c0.2-0.1,0.3-0.1,0.4-0.2
			c0.1-0.1,0.2-0.1,0.3-0.2c0.1,0,0.2-0.1,0.3-0.2c0.1,0,0,0,0,0c0.4-0.2,0.8-0.5,1.1-0.8c-0.4,0.4-0.8,0.6-1.2,0.8
			c-0.1,0-0.2,0.1-0.3,0.1c0,0,0.1,0,0,0c0,0-0.1,0-0.1,0c0.1,0,0,0-0.1,0c-0.4,0.2-0.6,0.3-1,0.5c-0.1,0,0,0,0,0
			c-0.1,0.1-0.2,0.1-0.4,0.2c0,0-0.1,0-0.1,0c0.4-0.2,1-0.5,1.5-0.7c0.2-0.1,0.3-0.2,0.4-0.2c-0.2,0.1-0.4,0.2-0.6,0.3
			c-0.3,0.1-0.5,0.3-0.8,0.4c0,0-0.1,0.1-0.2,0.1c0,0-0.2,0.1-0.2,0.1c0,0-0.1,0-0.1,0c-0.1,0-0.2,0.1-0.3,0.1
			c-0.2,0.1-0.4,0.2-0.6,0.3c0,0,0,0,0,0c0.3-0.1,0.3-0.1,0.6-0.2c0,0,0,0,0,0c0.1,0,0.1,0,0.2-0.1c-0.2,0.1-0.2,0.1-0.1,0
			c0.5-0.2,1.1-0.5,1.5-0.7c0,0,0.1,0,0.1-0.1c0.4-0.2,0.9-0.5,1.3-0.8c-0.5,0.4-1,0.7-1.7,1c0,0,0,0-0.1,0
			c-0.3,0.1-0.6,0.3-0.8,0.4c-0.1,0-0.2,0.1-0.3,0.1c-0.7,0.3-1.2,0.5-1.9,0.7c0,0-0.1,0-0.1,0c0,0,0.1-0.1,0.1-0.1
			c0.1,0,0.1,0,0.3-0.1c0.6-0.2,1.3-0.5,2-0.9c0.1,0,0,0-0.1,0c-0.3,0.1-0.6,0.3-1,0.4c-0.1,0,0,0,0.3-0.2c0.4-0.2,1.2-0.5,1.5-0.7
			c1.2-0.6,2.4-1.5,2.8-2.8c-0.2,0.7-0.6,1.3-1.1,1.7c0,0,0,0-0.1,0.1c-0.5,0.4-1.2,0.8-1.8,1.1c-0.2,0.1-0.7,0.3-0.9,0.4
			c0-0.1,0.2-0.2,0.5-0.3c-0.2,0.1-0.5,0.2-0.7,0.3c-0.2,0.1-0.5,0.2-0.6,0.2c0,0,0,0,0,0c0.1,0-0.1,0.1-0.1,0.1
			c-0.1,0-0.1,0.1-0.2,0.1c-0.1,0.1-0.1,0.1-0.2,0.1c-0.5,0.2-1,0.4-1.5,0.6c-0.1,0-0.2,0.1-0.2,0.1c0,0,0,0-0.1,0c0,0,0,0-0.1,0
			c-0.2,0.1-0.4,0.1-0.6,0.2c-0.5,0.2-1.1,0.3-1.5,0.4c-0.1,0,0,0-0.1,0c-0.7,0.2-1.5,0.3-2.3,0.5c-0.1,0,0,0-0.1,0
			c-0.1,0-0.1,0-0.2,0c-0.1,0-0.1,0-0.2,0c-0.9,0.1-1.8,0.2-2.8,0.3c-0.9,0-1.8,0-2.6,0c-0.7,0-1.3-0.1-1.9-0.2
			c-0.8-0.1-1.4-0.3-2.2-0.4c-0.5-0.1-1.1-0.3-1.5-0.5c-0.1,0-0.2-0.1-0.2-0.1c-0.1-0.1-0.2-0.1-0.3-0.2c-0.3-0.2-0.6-0.3-0.8-0.6
			c-0.2-0.3-0.4-0.5-0.5-0.9c0-0.2-0.1-0.4-0.1-0.6c0-0.1,0-0.3,0.1-0.4c0.1-0.4,0.3-0.7,0.5-1c0.3-0.4,0.7-0.8,1.1-1.1
			c0.5-0.4,1.1-0.8,1.6-1.1c0.4-0.2,0.8-0.5,1.3-0.7c0,0,0.1,0,0.1-0.1c0.7-0.4,1.6-0.7,2.2-1c0.2-0.1,0.4-0.2,0.7-0.2
			c0.3-0.1,0.5-0.2,0.7-0.2c0,0,0.2,0,0.2-0.1c0.2-0.1,0.5-0.1,0.7-0.2c0.4-0.1,0.8-0.2,1.3-0.3C57,6,57.3,6,57.9,5.9
			c0.7-0.1,1.4-0.2,2.1-0.2c0.2,0,0.5,0,0.7,0c0.6,0,0.6,0,0.8,0c0.3,0,0.6,0,0.9,0c0.4,0,1,0.1,1.3,0.1c0.1,0.1,0.4,0,0.8,0.1
			c0.2,0,0.2,0.1,0.2,0.1c0.2,0,0.3,0.1,0.5,0.1C65.4,6.2,65.5,6.2,65.8,6.3z M66.8,14C66.8,14,66.8,14,66.8,14
			C66.8,14,66.7,14,66.8,14z M66.8,13.9c0.2-0.1,0.5-0.2,0.6-0.3c0,0,0,0,0,0c0.1,0,0.2-0.1,0.3-0.1c0,0-0.3,0.1-0.3,0.2
			c-0.1,0-0.2,0.1-0.2,0.1C67,13.9,67.2,13.8,66.8,13.9C66.9,13.9,66.8,13.9,66.8,13.9z"/>
	</g>
	<g>
		<path fill="#FFFFFF" d="M70.9,15.4c0,0,2,0,4.9-0.1c1.5-0.1,3.2-0.2,5.1-0.3c0.9-0.1,1.9-0.2,2.8-0.2c0.5,0,1-0.1,1.5-0.1
			c0.3,0,0.6-0.1,0.9-0.2c0.3-0.1,0.6-0.4,0.8-0.7c0.2-0.4,0.2-0.9,0-1.2c-0.2-0.4-0.5-0.5-0.8-0.7c-0.5-0.3-1-0.4-1.4-0.6
			c-0.9-0.3-1.8-0.6-2.7-0.9c-1.8-0.5-3.5-0.9-4.9-1.2c-1.5-0.3-2.7-0.5-3.6-0.6c-0.9-0.1-1.4-0.2-1.4-0.2L72,9.4
			c0,0,0.5,0.1,1.3,0.2c0.8,0.1,2.1,0.3,3.5,0.6c1.4,0.3,3.1,0.7,4.8,1.2c0.9,0.3,1.8,0.6,2.7,0.9c0.4,0.2,0.9,0.3,1.3,0.5
			c0.2,0.1,0.3,0.2,0.3,0.3c0,0.1,0,0.1,0,0.2c-0.1,0.4-1.4,0.4-2.3,0.5c-1,0.1-1.9,0.2-2.8,0.2c-1.8,0.1-3.6,0.2-5,0.3
			c-2.9,0.1-4.9,0.1-4.9,0.1L70.9,15.4z"/>
		<path fill-rule="evenodd" clip-rule="evenodd" fill="#FFFFFF" d="M78.3,10.4C78.3,10.4,78.2,10.4,78.3,10.4
			C78.2,10.4,78.3,10.4,78.3,10.4z"/>
		<path fill-rule="evenodd" clip-rule="evenodd" fill="#FFFFFF" d="M77.2,9.4C77.2,9.4,77.1,9.4,77.2,9.4
			C77.2,9.4,77.2,9.4,77.2,9.4z"/>
		<path fill-rule="evenodd" clip-rule="evenodd" fill="#FFFFFF" d="M77.1,9.4C77.1,9.4,77,9.3,77.1,9.4C77,9.3,77.1,9.3,77.1,9.4z"
			/>
		<path fill-rule="evenodd" clip-rule="evenodd" fill="#FFFFFF" d="M76.7,9.4C76.7,9.4,76.6,9.4,76.7,9.4
			C76.6,9.4,76.7,9.4,76.7,9.4z"/>
		<path fill-rule="evenodd" clip-rule="evenodd" fill="#FFFFFF" d="M76.5,9.2c0,0-0.1,0-0.2,0C76.4,9.2,76.5,9.2,76.5,9.2z"/>
		<path fill-rule="evenodd" clip-rule="evenodd" fill="#FFFFFF" d="M76,9.7c-0.1,0-0.3,0-0.3-0.1C75.9,9.7,75.8,9.7,76,9.7z"/>
		<path fill-rule="evenodd" clip-rule="evenodd" fill="#FFFFFF" d="M75.8,9.4c-0.1,0-0.3-0.1-0.4-0.1c0,0,0.2,0,0.2,0c0,0,0,0,0.1,0
			C75.7,9.4,75.8,9.4,75.8,9.4z"/>
		<path fill-rule="evenodd" clip-rule="evenodd" fill="#FFFFFF" d="M74.5,9.2C74.5,9.2,74.5,9.2,74.5,9.2
			C74.5,9.2,74.5,9.2,74.5,9.2L74.5,9.2z"/>
		<path fill-rule="evenodd" clip-rule="evenodd" fill="#FFFFFF" d="M74,9.2c-0.1,0-0.3,0-0.4-0.1c0,0,0,0,0,0c-0.1,0-0.2,0-0.1,0
			C73.7,9.1,73.8,9.2,74,9.2z"/>
		<path fill-rule="evenodd" clip-rule="evenodd" fill="#FFFFFF" d="M73.9,9C73.9,9,73.9,9,73.9,9C73.9,9,73.9,9,73.9,9z"/>
		<path fill-rule="evenodd" clip-rule="evenodd" fill="#FFFFFF" d="M73.8,9.4c0,0-0.1,0-0.1,0C73.7,9.4,73.7,9.4,73.8,9.4z"/>
		<path fill-rule="evenodd" clip-rule="evenodd" fill="#FFFFFF" d="M73.8,9.1c-0.1,0-0.1,0-0.2,0C73.6,9.1,73.8,9.1,73.8,9.1z"/>
		<path fill-rule="evenodd" clip-rule="evenodd" fill="#FFFFFF" d="M73.8,9c0,0-0.1,0-0.2,0C73.6,9,73.7,9,73.8,9z"/>
		<path fill-rule="evenodd" clip-rule="evenodd" fill="#FFFFFF" d="M73.6,9.4C73.6,9.4,73.6,9.4,73.6,9.4
			C73.5,9.4,73.6,9.4,73.6,9.4z"/>
		<path fill-rule="evenodd" clip-rule="evenodd" fill="#FFFFFF" d="M73.6,9.3c0,0-0.2,0-0.3,0C73.4,9.3,73.5,9.3,73.6,9.3z"/>
		<path fill-rule="evenodd" clip-rule="evenodd" fill="#FFFFFF" d="M73.6,9c-0.1,0-0.2,0-0.2,0C73.5,9,73.4,9,73.6,9z"/>
		<path fill-rule="evenodd" clip-rule="evenodd" fill="#FFFFFF" d="M73.4,9.1c-0.1,0-0.1,0-0.1,0C73.3,9.1,73.3,9.1,73.4,9.1z"/>
		<path fill-rule="evenodd" clip-rule="evenodd" fill="#FFFFFF" d="M73.3,9.1c0,0-0.1,0-0.1,0C73.2,9.1,73.2,9.1,73.3,9.1z"/>
		<path fill-rule="evenodd" clip-rule="evenodd" fill="#FFFFFF" d="M73.2,9C73.1,9,73,9,73.2,9C73.1,9,73.1,9,73.2,9
			C73.1,9,73.1,9,73.2,9z"/>
		<path fill-rule="evenodd" clip-rule="evenodd" fill="#FFFFFF" d="M72.8,9.2C72.9,9.2,73,9.2,72.8,9.2L72.8,9.2z"/>
		<path fill-rule="evenodd" clip-rule="evenodd" fill="#FFFFFF" d="M72.7,9.3c-0.1,0-0.1,0-0.2,0C72.6,9.2,72.7,9.3,72.7,9.3z"/>
		<path fill-rule="evenodd" clip-rule="evenodd" fill="#FFFFFF" d="M72.6,9.3C72.7,9.3,72.6,9.3,72.6,9.3L72.6,9.3z"/>
		<path fill-rule="evenodd" clip-rule="evenodd" fill="#FFFFFF" d="M72.5,9.4C72.5,9.4,72.4,9.4,72.5,9.4
			C72.4,9.4,72.5,9.4,72.5,9.4z"/>
		<path fill-rule="evenodd" clip-rule="evenodd" fill="#FFFFFF" d="M72.1,9.3C72,9.3,72,9.3,72.1,9.3L72.1,9.3z"/>
		<path fill-rule="evenodd" clip-rule="evenodd" fill="#FFFFFF" d="M75.2,9.8C75.1,9.8,75.1,9.8,75.2,9.8c-0.1,0-0.2,0-0.2,0
			C75,9.7,75.1,9.8,75.2,9.8z"/>
		<path fill-rule="evenodd" clip-rule="evenodd" fill="#FFFFFF" d="M73.7,9.3C73.6,9.3,73.7,9.3,73.7,9.3
			C73.6,9.3,73.6,9.3,73.7,9.3c-0.1,0-0.2,0-0.2,0c0,0,0,0,0,0c-0.1,0-0.2,0-0.3,0c0.2,0,0.5,0.1,0.6,0.1
			C73.8,9.3,73.6,9.3,73.7,9.3C73.6,9.3,73.7,9.3,73.7,9.3z"/>
		<path fill-rule="evenodd" clip-rule="evenodd" fill="#FFFFFF" d="M73.6,9C73.6,9,73.6,9,73.6,9C73.6,9.1,73.5,9,73.6,9
			C73.5,9,73.7,9.1,73.6,9z"/>
		<path fill-rule="evenodd" clip-rule="evenodd" fill="#FFFFFF" d="M72.6,8.9L72.6,8.9c-0.1,0-0.2,0-0.3-0.1c0.1,0,0.3,0,0.4,0
			c0,0,0,0,0.1,0C73,9,73.2,9,73.5,9c-0.1,0-0.4-0.1-0.5,0c0,0,0,0,0,0C72.9,9,72.7,8.9,72.6,8.9z"/>
		<path fill-rule="evenodd" clip-rule="evenodd" fill="#FFFFFF" d="M72.6,9.3C72.6,9.3,72.6,9.3,72.6,9.3
			C72.5,9.3,72.6,9.3,72.6,9.3z"/>
		<path fill-rule="evenodd" clip-rule="evenodd" fill="#FFFFFF" d="M74.4,14.3c0,0-0.2,0-0.2,0c-0.1,0-0.2,0-0.4,0
			c-0.1,0-0.3,0-0.4,0c-0.1,0-0.1,0-0.2,0c-0.2,0-0.4,0-0.5,0c-0.2,0-0.3,0-0.4,0c-0.1,0,0,0-0.1,0c-0.3,0-0.5,0.1-0.9,0.1
			c0,0-0.1,0-0.1,0.1c0,0-0.1,0-0.1,0c-0.1,0,0,0.1-0.2,0.1l0,0c0,0,0,0,0,0l0,0c0,0.1,0,0.1,0,0.2c0.1,0,0.1,0.1,0.2,0.1
			c0,0,0.1,0,0.2,0.1c0.1,0,0.1,0,0.2,0.1c0,0,0.1,0,0.1,0c0.1,0,0.2,0,0.3,0c0,0,0,0,0,0c0.2,0,0.5,0.1,0.8,0.1c0,0,0.1,0,0.1,0
			c0.2,0,0.6,0,0.7,0c0,0,0,0,0.1,0c0,0,0.2,0,0.3,0c0,0,0.2,0,0.2,0c0.1,0,0.2,0,0.3,0c0,0,0.1,0,0.2,0c0.1,0,0.4,0,0.5,0
			c0.1,0,0.1,0,0.2,0c0.1,0,0.1,0,0.1,0c0.2-0.1,0.6,0,0.9-0.1c0.2,0,0.4,0,0.6,0c0,0,0.1,0,0.1,0c0,0,0.2,0,0.2,0
			c0.2,0,0.2,0,0.4,0c0.2,0,0.3,0,0.5,0c0,0,0.2,0,0.2,0c0,0,0.1,0,0.2,0c0,0,0.2,0,0.2,0c0,0,0.1,0,0.1,0c0,0,0.1,0,0.1,0
			c0,0,0.1,0,0.2,0c0.2,0,0.4,0,0.6-0.1c0.3,0,0.6-0.1,1-0.1c0.1,0,0.2,0,0.3,0c0,0,0,0,0.1,0c0.2,0,0.4,0,0.6-0.1c0,0,0,0,0,0
			c0.3,0,0.6,0,0.8-0.1c0.2,0,0.4,0,0.6,0c0.1,0,0.2,0,0.3,0c0.3,0,0.4,0,0.6-0.1c0,0,0.1,0,0.2,0c0.1,0,0.1,0,0.3,0
			c0.7-0.1,0.9-0.1,1.2-0.1c0.1,0,0.2,0,0.3-0.1c0.2-0.1,0.5-0.1,0.7-0.3c0.1,0,0.1-0.1,0.1-0.1c0.1-0.1,0.2-0.2,0.3-0.4
			c0.2-0.4,0.1-0.9-0.2-1.2c-0.3-0.4-0.9-0.6-1.3-0.7c-0.1,0-0.2-0.1-0.3-0.1c-0.3-0.1-0.6-0.2-0.9-0.3c-1.2-0.4-2.5-0.8-3.8-1.1
			c-0.1,0-0.2-0.1-0.3-0.1c0,0-0.1,0-0.1,0c-0.2,0-0.4-0.1-0.6-0.1c-0.1,0-0.2,0-0.2,0c0,0,0,0,0,0c-0.1,0-0.6-0.1-0.8-0.2
			c0,0,0,0,0,0c0,0-0.1,0-0.1,0c-0.4-0.1-0.6-0.1-0.9-0.2c0,0-0.1,0-0.2,0c0.1,0,0.1,0,0.1,0c-0.1,0-0.2,0-0.3,0c-0.1,0-0.2,0-0.3,0
			c0,0,0,0,0,0c-0.3-0.1-0.1,0-0.4-0.1c0,0-0.2,0-0.3,0c0,0,0,0,0,0c-0.1,0-0.2,0-0.4-0.1c0,0-0.1,0-0.1,0c0,0,0,0,0,0c0,0,0,0,0,0
			c-0.1,0-0.1,0-0.1,0c-0.1,0-0.2,0-0.2,0c-0.2,0-0.1,0-0.3,0c-0.1,0-0.1,0-0.2,0c0,0-0.2,0-0.2,0c0,0,0,0,0,0
			c-0.2,0-0.5-0.1-0.7-0.1c0.3,0,0.5,0.1,0.7,0.1c0,0,0.1,0,0.1,0c0,0,0,0,0,0c0,0,0,0,0.1,0c0,0,0,0,0,0c0.2,0,0.4,0.1,0.6,0.1
			c0,0,0,0,0,0c0.1,0,0.1,0,0.2,0c0,0,0.1,0,0,0c-0.2,0-0.6-0.1-0.9-0.1c-0.1,0-0.2,0-0.2,0c0.1,0,0.2,0.1,0.3,0.1
			c0.1,0,0.3,0,0.5,0.1c0,0,0.1,0,0.1,0c0,0,0.1,0,0.1,0c0,0,0.1,0,0.1,0c0,0,0.2,0,0.2,0c0.1,0,0.2,0,0.3,0.1c0,0,0,0,0,0
			c-0.1,0-0.2,0-0.3-0.1c0,0,0,0,0,0c0,0-0.1,0-0.1,0c0.1,0,0.1,0,0.1,0c-0.3-0.1-0.5-0.1-0.9-0.1c0,0,0,0-0.1,0
			c-0.4-0.1-0.5-0.1-0.8-0.1c0.3,0.1,0.6,0.1,1,0.2c0,0,0,0,0,0c0.3,0,0.3,0.1,0.5,0.1l0.2,0.1c0.4,0.1,0.7,0.2,1,0.2c0,0,0,0,0,0
			c0,0-0.1,0-0.1,0c-0.1,0-0.1,0-0.2,0c-0.8-0.1-0.6-0.1-1.1-0.2c0,0,0,0,0,0c0.2,0,0.4,0.1,0.5,0.1c0.1,0,0,0.1-0.2,0
			c-0.3,0-0.6-0.1-0.8-0.2c-0.7-0.1-1.5-0.2-2.2-0.3c0.4,0.1,0.8,0.1,1.2,0.2c0,0,0,0,0,0c0.4,0.1,0.6,0.1,1.1,0.2
			c0.1,0,0.4,0.1,0.5,0.1c0,0-0.2,0-0.3,0c0.1,0,0.3,0.1,0.4,0.1c0.1,0,0.3,0,0.3,0.1c0,0,0,0,0,0c0,0,0.1,0,0.1,0c0.1,0,0,0,0.1,0
			c0.1,0,0.1,0,0.1,0c0.3,0.1,0.5,0.1,0.8,0.2c0,0,0.1,0,0.1,0c0,0,0,0,0,0c0,0,0,0,0,0c0.1,0,0.2,0.1,0.3,0.1
			c0.3,0.1,0.6,0.1,0.8,0.2c0,0,0,0,0,0c0.4,0.1,0.8,0.2,1.2,0.3c0,0,0,0,0,0c0.1,0,0,0,0.1,0c0,0,0.1,0,0.1,0
			c0.6,0.2,1,0.3,1.4,0.4c0.5,0.1,0.9,0.3,1.3,0.4c0.3,0.1,0.7,0.2,0.9,0.3c0.4,0.1,0.7,0.2,1.1,0.4c0.3,0.1,0.6,0.2,0.7,0.3
			c0,0,0.1,0,0.1,0c0.1,0,0.1,0.1,0.1,0.1c0.1,0.1,0.2,0.2,0.3,0.3c0,0.1,0,0.2,0,0.3c0,0.1-0.1,0.1-0.1,0.2c0,0-0.1,0.1-0.1,0.1
			c-0.1,0.1-0.3,0.1-0.5,0.2c-0.3,0-0.4,0-0.9,0.1c-0.4,0-0.7,0.1-1,0.1c-0.3,0-0.5,0-0.8,0.1c0,0-0.1,0-0.1,0
			C81.9,14,81.9,14,81.3,14c-0.1,0-0.2,0-0.4,0c-0.2,0-0.3,0-0.4,0c0,0-0.1,0-0.1,0c-0.1,0-0.3,0-0.4,0c-0.2,0-0.4,0-0.7,0
			c-0.2,0-0.5,0-0.7,0c-0.4,0-0.7,0.1-1.1,0.1c-0.1,0-0.2,0-0.4,0c-0.1,0-0.3,0-0.5,0c-0.1,0-0.4,0-0.5,0c-0.2,0-0.5,0-0.7,0
			c-0.1-0.1-0.2,0-0.4,0c-0.1,0-0.1,0-0.1,0c-0.1,0-0.2,0-0.3,0C74.6,14.3,74.5,14.3,74.4,14.3z M76.1,9.4
			C76.1,9.4,76.1,9.4,76.1,9.4C76.1,9.3,76.1,9.4,76.1,9.4z M76,9.4c-0.1,0-0.3,0-0.4-0.1c0,0,0,0,0,0c0,0-0.1,0-0.2,0
			c0,0,0.2,0,0.2,0c0.1,0,0.1,0,0.1,0C76,9.3,75.8,9.3,76,9.4C76,9.3,76.1,9.3,76,9.4z"/>
	</g>
	<g>
		<path fill="#FFFFFF" d="M0,9.9c0,0,0,0.5,0,1.2c0,0.4,0,0.9,0.3,1.7c0.4,0.8,1.2,1,1.9,1.2c2.6,0.9,6.3,1.5,10,1.4
			c3.7-0.1,7.3-0.7,10-1.6c0.7-0.2,1.4-0.8,1.7-1.5c0.3-0.6,0.3-1.2,0.3-1.7c0-0.5-0.1-0.8-0.2-1c-0.1-0.2-0.1-0.3-0.1-0.3l-1,0.3
			c0,0,0,0.1,0.1,0.3c0,0.2,0.1,0.5,0.1,0.8c0,0.3,0,0.7-0.2,1.1c-0.2,0.4-0.5,0.7-1.1,0.9c-2.5,0.8-6.1,1.5-9.6,1.5
			c-3.6,0.1-7.1-0.5-9.7-1.4c-0.7-0.2-1.1-0.4-1.2-0.7c-0.1-0.3-0.2-0.8-0.2-1.1c0-0.8,0-1.3,0-1.3L0,9.9z"/>
		<path fill-rule="evenodd" clip-rule="evenodd" fill="#FFFFFF" d="M20.5,13.2C20.5,13.2,20.6,13.2,20.5,13.2
			C20.6,13.2,20.5,13.2,20.5,13.2z"/>
		<path fill-rule="evenodd" clip-rule="evenodd" fill="#FFFFFF" d="M21.8,13.6C21.9,13.6,21.9,13.6,21.8,13.6
			C21.9,13.6,21.9,13.6,21.8,13.6z"/>
		<path fill-rule="evenodd" clip-rule="evenodd" fill="#FFFFFF" d="M22,13.6C22,13.6,22,13.6,22,13.6C22.1,13.6,22,13.6,22,13.6z"/>
		<path fill-rule="evenodd" clip-rule="evenodd" fill="#FFFFFF" d="M22.3,13.4C22.3,13.4,22.3,13.3,22.3,13.4
			C22.4,13.3,22.3,13.4,22.3,13.4z"/>
		<path fill-rule="evenodd" clip-rule="evenodd" fill="#FFFFFF" d="M22.5,13.4c0,0,0.1-0.1,0.1-0.1C22.6,13.3,22.5,13.4,22.5,13.4z"
			/>
		<path fill-rule="evenodd" clip-rule="evenodd" fill="#FFFFFF" d="M22.5,12.7c0.1,0,0.1-0.1,0.2-0.2C22.7,12.6,22.6,12.6,22.5,12.7
			z"/>
		<path fill-rule="evenodd" clip-rule="evenodd" fill="#FFFFFF" d="M22.9,12.7c0.1-0.1,0.2-0.2,0.2-0.3c0,0-0.1,0.1-0.1,0.2
			C23,12.6,22.9,12.6,22.9,12.7C22.9,12.7,22.9,12.7,22.9,12.7z"/>
		<path fill-rule="evenodd" clip-rule="evenodd" fill="#FFFFFF" d="M23.5,11.7C23.5,11.7,23.5,11.7,23.5,11.7
			C23.5,11.7,23.5,11.7,23.5,11.7L23.5,11.7z"/>
		<path fill-rule="evenodd" clip-rule="evenodd" fill="#FFFFFF" d="M23.5,11.2c0-0.1,0-0.2,0-0.3c0,0,0,0,0,0c0-0.1,0-0.2,0-0.1
			C23.5,11,23.5,11.1,23.5,11.2z"/>
		<path fill-rule="evenodd" clip-rule="evenodd" fill="#FFFFFF" d="M23.6,11.2C23.6,11.2,23.6,11.1,23.6,11.2
			C23.6,11.1,23.6,11.2,23.6,11.2z"/>
		<path fill-rule="evenodd" clip-rule="evenodd" fill="#FFFFFF" d="M23.3,11.1c0,0,0-0.1,0-0.1C23.3,11,23.3,11,23.3,11.1z"/>
		<path fill-rule="evenodd" clip-rule="evenodd" fill="#FFFFFF" d="M23.6,11.1c0-0.1,0-0.1,0-0.1C23.6,10.9,23.6,11,23.6,11.1z"/>
		<path fill-rule="evenodd" clip-rule="evenodd" fill="#FFFFFF" d="M23.6,11c0,0,0-0.1,0-0.2C23.6,10.9,23.6,11,23.6,11z"/>
		<path fill-rule="evenodd" clip-rule="evenodd" fill="#FFFFFF" d="M23.2,11C23.2,10.9,23.2,10.9,23.2,11
			C23.2,10.9,23.2,10.9,23.2,11z"/>
		<path fill-rule="evenodd" clip-rule="evenodd" fill="#FFFFFF" d="M23.3,10.9c0,0,0-0.2,0-0.2C23.3,10.7,23.3,10.8,23.3,10.9z"/>
		<path fill-rule="evenodd" clip-rule="evenodd" fill="#FFFFFF" d="M23.6,10.9c0-0.1,0-0.2,0-0.2C23.6,10.7,23.6,10.8,23.6,10.9z"/>
		<path fill-rule="evenodd" clip-rule="evenodd" fill="#FFFFFF" d="M23.5,10.7C23.5,10.6,23.4,10.6,23.5,10.7
			C23.5,10.6,23.5,10.7,23.5,10.7z"/>
		<path fill-rule="evenodd" clip-rule="evenodd" fill="#FFFFFF" d="M23.5,10.6C23.5,10.6,23.5,10.5,23.5,10.6
			C23.5,10.5,23.5,10.6,23.5,10.6z"/>
		<path fill-rule="evenodd" clip-rule="evenodd" fill="#FFFFFF" d="M23.5,10.5C23.5,10.5,23.5,10.4,23.5,10.5
			C23.5,10.4,23.5,10.4,23.5,10.5C23.5,10.4,23.5,10.4,23.5,10.5z"/>
		<path fill-rule="evenodd" clip-rule="evenodd" fill="#FFFFFF" d="M23.3,10.3C23.3,10.3,23.3,10.4,23.3,10.3L23.3,10.3z"/>
		<path fill-rule="evenodd" clip-rule="evenodd" fill="#FFFFFF" d="M23.1,10.1c0,0,0-0.1,0-0.2C23.1,10,23.1,10.1,23.1,10.1z"/>
		<path fill-rule="evenodd" clip-rule="evenodd" fill="#FFFFFF" d="M23.1,10.1C23.1,10.1,23.1,10,23.1,10.1L23.1,10.1z"/>
		<path fill-rule="evenodd" clip-rule="evenodd" fill="#FFFFFF" d="M22.9,10C22.9,10,22.9,10,22.9,10C22.9,10,22.9,10,22.9,10z"/>
		<path fill-rule="evenodd" clip-rule="evenodd" fill="#FFFFFF" d="M22.9,9.7C22.8,9.6,22.8,9.6,22.9,9.7L22.9,9.7z"/>
		<path fill-rule="evenodd" clip-rule="evenodd" fill="#FFFFFF" d="M22.8,12.1C22.8,12.1,22.8,12.1,22.8,12.1c0-0.1,0.1-0.1,0.1-0.2
			C22.9,12,22.8,12,22.8,12.1z"/>
		<path fill-rule="evenodd" clip-rule="evenodd" fill="#FFFFFF" d="M23.3,11C23.3,11,23.3,11,23.3,11C23.3,10.9,23.3,10.9,23.3,11
			c0-0.1,0-0.1,0-0.2c0,0,0,0,0,0c0-0.1,0-0.1,0-0.3C23.3,10.7,23.3,11,23.3,11C23.3,11.1,23.3,11,23.3,11
			C23.3,10.9,23.3,11,23.3,11z"/>
		<path fill-rule="evenodd" clip-rule="evenodd" fill="#FFFFFF" d="M23.6,10.9C23.6,10.8,23.6,10.8,23.6,10.9
			C23.6,10.9,23.6,10.8,23.6,10.9C23.6,10.8,23.6,11,23.6,10.9z"/>
		<path fill-rule="evenodd" clip-rule="evenodd" fill="#FFFFFF" d="M23.4,9.9L23.4,9.9c0-0.1,0-0.2-0.1-0.3
			C23.4,9.8,23.4,10,23.4,9.9c0.1,0.1,0.1,0.1,0.1,0.2c0.1,0.2,0.1,0.5,0.1,0.7c0-0.1,0-0.3-0.1-0.5c0,0,0,0,0,0
			C23.5,10.2,23.4,10.1,23.4,9.9z"/>
		<path fill-rule="evenodd" clip-rule="evenodd" fill="#FFFFFF" d="M23.1,10.1C23.1,10.1,23.1,10,23.1,10.1
			C23.1,10,23.1,10.1,23.1,10.1z"/>
		<path fill-rule="evenodd" clip-rule="evenodd" fill="#FFFFFF" d="M1.4,12.5C1.4,12.5,1.4,12.5,1.4,12.5c-0.1-0.1-0.2-0.2-0.2-0.3
			c0-0.1-0.1-0.1-0.1-0.2c0,0,0-0.1,0-0.2c0-0.2,0-0.3-0.1-0.4c0-0.1,0-0.3-0.1-0.4c0-0.1,0,0,0-0.1c0-0.3-0.1-0.5-0.1-0.8
			c0,0,0-0.1-0.1-0.1c0,0,0-0.1,0-0.1c0-0.1-0.1,0-0.1-0.1c0,0,0,0,0,0c-0.1,0-0.1,0-0.2,0c0,0.1-0.1,0.1-0.1,0.1c0,0,0,0.1-0.1,0.2
			c0,0.1,0,0.1-0.1,0.2c0,0,0,0.1,0,0.1c0,0.1,0,0.2,0,0.3c0,0,0,0,0,0c0,0.2-0.1,0.4-0.1,0.7c0,0,0,0.1,0,0.1
			c0,0.2,0.1,0.6,0.1,0.8c0,0,0,0,0,0.1c0,0,0,0.2,0.1,0.3c0,0,0.1,0.1,0.2,0.2c0.1,0.1,0.2,0.2,0.3,0.3c0,0,0.1,0.1,0.2,0.1
			c0.1,0.1,0.4,0.2,0.5,0.3c0.1,0,0.1,0.1,0.2,0.1c0.1,0,0.1,0,0.1,0c0.2,0,0.6,0.2,0.8,0.2c0.2,0.1,0.3,0.1,0.5,0.2
			c0,0,0.1,0,0.1,0c0,0,0.2,0,0.2,0c0.2,0,0.2,0,0.4,0.1c0.2,0.1,0.3,0.1,0.4,0.1c0.1,0,0.1,0,0.2,0c0,0,0.1,0,0.2,0
			c0,0,0.1,0,0.2,0c0,0,0.1,0,0.1,0c0,0,0.1,0,0.1,0c0,0,0.1,0,0.1,0c0.2,0,0.4,0.1,0.5,0.1c0.6,0.1,0.3,0,0.9,0.2
			c0.1,0,0.2,0,0.2,0c0,0,0,0,0.1,0c0.2,0,0.4,0,0.6,0.1c0,0,0,0,0,0c0.3,0,0.6,0.1,0.8,0.1c0.2,0,0.3,0,0.5,0c0.1,0,0.2,0,0.3,0
			c0.2,0,0.4,0,0.5,0c0,0,0.1,0,0.1,0c0.1,0,0.1,0,0.3,0c0.7,0,0.8,0,1.1,0c0,0,0.2,0,0.3,0c0.2,0,0.4,0,0.5,0c0,0,0.1,0,0.1,0
			c0.1,0,0.2,0,0.3,0c0.2,0,0.3,0,0.8,0c0.3,0,0.8-0.1,1.2-0.1c0.1,0,0.2,0,0.3,0c0.3,0,0.6-0.1,0.9-0.1c1.2-0.2,2.4-0.3,3.6-0.6
			c0.1,0,0.2,0,0.3-0.1c0,0,0.1,0,0.1,0c0.1-0.1,0.3-0.1,0.5-0.1c0,0,0.2,0,0.2-0.1c0,0,0,0,0,0c0.1-0.1,0.5-0.1,0.7-0.2
			c0,0,0,0,0,0c0,0,0.1,0,0.1,0c0.3-0.1,0.5-0.2,0.8-0.3c0,0,0.1,0,0.2,0c-0.1,0-0.1,0-0.1,0c0.1,0,0.2-0.1,0.2-0.1
			c0.1,0,0.2-0.1,0.2-0.1c0,0,0,0,0,0c0.1-0.1,0.2-0.1,0.3-0.2c0,0,0.2-0.1,0.2-0.2c0,0,0,0,0,0c0.1-0.1,0.2-0.2,0.3-0.2
			c0,0,0,0,0.1-0.1c0,0,0,0,0,0c0,0,0,0,0,0c0-0.1,0,0,0-0.1c0.1-0.1,0.1-0.1,0.1-0.2c0-0.1,0.1-0.1,0.1-0.2c0,0,0.1-0.1,0.1-0.2
			c0-0.1,0.1-0.1,0.1-0.2c0,0,0,0,0,0c0.1-0.2,0.1-0.5,0.1-0.6c0,0.3-0.1,0.5-0.1,0.7c0,0,0,0.1-0.1,0.1c0,0,0,0,0,0c0,0,0,0,0,0
			c0,0,0,0,0,0c-0.1,0.2-0.2,0.3-0.3,0.5c0,0,0,0,0,0c0,0.1-0.1,0.1-0.1,0.2c0,0-0.1,0-0.1,0c0.2-0.2,0.3-0.4,0.4-0.7
			c0-0.1,0.1-0.2,0.1-0.2c0,0.1-0.1,0.2-0.1,0.3c-0.1,0.1-0.1,0.3-0.2,0.4c0,0-0.1,0.1-0.1,0.1c0,0-0.1,0.1-0.1,0.1c0,0,0,0,0,0
			c0,0-0.1,0.1-0.1,0.1c-0.1,0.1-0.2,0.1-0.3,0.2c0,0,0,0,0,0c0.1-0.1,0.1-0.1,0.2-0.2c0,0,0,0,0,0c0,0,0,0,0.1-0.1
			c-0.1,0.1-0.1,0-0.1,0c0.2-0.2,0.4-0.4,0.5-0.6c0,0,0,0,0-0.1c0.1-0.2,0.2-0.5,0.2-0.7c-0.1,0.3-0.1,0.6-0.3,0.9c0,0,0,0,0,0
			c-0.1,0.1-0.2,0.3-0.2,0.3c0,0-0.1,0.1-0.1,0.1c-0.3,0.2-0.5,0.3-0.8,0.4c0,0,0,0,0,0c0,0,0,0,0.1,0c0,0,0.1,0,0.1-0.1
			c0.2-0.1,0.6-0.3,0.8-0.6c0,0,0,0,0,0c-0.1,0.1-0.2,0.2-0.3,0.3c-0.1,0,0,0,0.1-0.1c0.2-0.1,0.4-0.4,0.4-0.5
			c0.3-0.6,0.3-1.2,0.1-1.8c0.1,0.4,0.1,0.7,0.1,1c0,0,0,0,0,0c0,0.3-0.1,0.6-0.3,0.9c-0.1,0.1-0.2,0.3-0.3,0.3c0,0,0-0.1,0.1-0.2
			c-0.1,0.1-0.1,0.2-0.2,0.2c-0.1,0-0.2,0.1-0.2,0.2c0,0,0,0,0,0c0,0,0,0-0.1,0c0,0,0,0-0.1,0c-0.1,0-0.1,0-0.1,0
			C22,12.9,21.7,13,21.5,13c0,0-0.1,0-0.1,0c0,0,0,0,0,0c0,0,0,0,0,0c-0.1,0-0.2,0.1-0.3,0.1c-0.3,0.1-0.5,0.1-0.8,0.2c0,0,0,0,0,0
			c-0.4,0.1-0.7,0.2-1.1,0.2c0,0,0,0,0,0c-0.1,0,0,0-0.1,0c0,0-0.1,0-0.1,0c-0.6,0.1-0.9,0.2-1.3,0.3c-0.4,0.1-0.8,0.1-1.2,0.2
			c-0.3,0-0.5,0.1-0.9,0.1c-0.4,0.1-0.7,0.1-1.1,0.1c-0.2,0-0.4,0-0.8,0.1c0,0-0.1,0-0.1,0c0,0-0.2,0-0.2,0c-0.1,0-0.4,0-0.5,0
			l-0.6,0c-0.1,0-0.3,0-0.3,0c0,0-0.2,0-0.2,0c-0.2,0-0.4,0-0.6,0c-0.2,0-0.3,0-0.8,0c-0.4,0-0.6,0-0.9-0.1c-0.2,0-0.5,0-0.7-0.1
			c0,0-0.1,0-0.1,0c-0.4,0-0.8-0.1-1.2-0.1c-0.1,0-0.2,0-0.3,0c-0.1,0-0.3,0-0.3-0.1c0,0-0.1,0-0.1,0c-0.1,0-0.3,0-0.4-0.1
			c-0.1,0-0.2,0-0.6-0.1c-0.2,0-0.4-0.1-0.6-0.1c-0.3-0.1-0.7-0.1-1-0.2c-0.1,0-0.2-0.1-0.3-0.1c-0.1,0-0.3-0.1-0.4-0.1
			c-0.1,0-0.3-0.1-0.4-0.1c-0.2-0.1-0.5-0.1-0.6-0.2c0-0.1-0.2,0-0.3-0.1c-0.1,0-0.1-0.1-0.1-0.1c-0.1,0-0.1-0.1-0.2-0.1
			C1.5,12.6,1.5,12.6,1.4,12.5z M22.7,13C22.7,13,22.8,13,22.7,13C22.7,13,22.7,13,22.7,13z M22.8,13c0.1-0.1,0.2-0.2,0.3-0.2
			c0,0,0,0,0,0c0,0,0.1-0.1,0.1-0.1c0,0-0.1,0.1-0.1,0.1c0,0-0.1,0.1-0.1,0.1C22.9,12.9,22.9,12.9,22.8,13C22.8,13,22.8,13,22.8,13z
			"/>
	</g>
	<g>
		<path fill="#FFFFFF" d="M23.6,10.6c0,0,0,0.4,0,1.1c0,0.3,0,0.8,0,1.2c0,0.2,0,0.5,0.1,0.9c0.1,0.2,0.2,0.4,0.4,0.6
			c0.2,0.2,0.4,0.3,0.5,0.3c2.4,0.6,5.5,1.2,8.7,1.3c3.2,0.2,6.4-0.1,8.7-0.4c1.2-0.2,2.2-0.4,2.8-0.5c0.7-0.2,1.1-0.3,1.1-0.3
			l-0.3-1c0,0-0.4,0.1-1,0.2c-0.7,0.1-1.6,0.3-2.8,0.5c-2.3,0.3-5.4,0.6-8.5,0.4c-1.6-0.1-3.1-0.2-4.5-0.5C27.4,14.3,26,14,25,13.7
			c-0.2-0.1-0.2-0.1-0.3-0.2c0-0.1,0-0.3,0-0.6c0-0.5,0-0.9,0-1.2c0-0.7,0-1.1,0-1.1H23.6z"/>
		<path fill-rule="evenodd" clip-rule="evenodd" fill="#FFFFFF" d="M40.7,14.8C40.8,14.8,40.8,14.8,40.7,14.8
			C40.8,14.8,40.8,14.8,40.7,14.8z"/>
		<path fill-rule="evenodd" clip-rule="evenodd" fill="#FFFFFF" d="M41.8,15.4C41.8,15.4,41.9,15.4,41.8,15.4
			C41.9,15.4,41.9,15.4,41.8,15.4z"/>
		<path fill-rule="evenodd" clip-rule="evenodd" fill="#FFFFFF" d="M41.9,15.4C41.9,15.4,42,15.4,41.9,15.4
			C42,15.4,42,15.4,41.9,15.4z"/>
		<path fill-rule="evenodd" clip-rule="evenodd" fill="#FFFFFF" d="M42.2,15.3C42.2,15.3,42.3,15.3,42.2,15.3
			C42.3,15.3,42.3,15.3,42.2,15.3z"/>
		<path fill-rule="evenodd" clip-rule="evenodd" fill="#FFFFFF" d="M42.4,15.4c0,0,0.1,0,0.1,0C42.5,15.3,42.4,15.4,42.4,15.4z"/>
		<path fill-rule="evenodd" clip-rule="evenodd" fill="#FFFFFF" d="M42.7,14.7c0.1,0,0.2,0,0.2,0C42.8,14.7,42.7,14.7,42.7,14.7z"/>
		<path fill-rule="evenodd" clip-rule="evenodd" fill="#FFFFFF" d="M42.9,14.9c0.1,0,0.2,0,0.3-0.1c0,0-0.2,0-0.2,0
			C43,14.9,43,14.9,42.9,14.9C42.9,14.9,42.9,15,42.9,14.9z"/>
		<path fill-rule="evenodd" clip-rule="evenodd" fill="#FFFFFF" d="M43.9,14.8C43.9,14.8,43.9,14.8,43.9,14.8
			C43.9,14.8,44,14.8,43.9,14.8L43.9,14.8z"/>
		<path fill-rule="evenodd" clip-rule="evenodd" fill="#FFFFFF" d="M44.3,14.6c0.1,0,0.2-0.1,0.3-0.1c0,0,0,0,0,0c0.1,0,0.2,0,0.1,0
			C44.4,14.6,44.5,14.6,44.3,14.6z"/>
		<path fill-rule="evenodd" clip-rule="evenodd" fill="#FFFFFF" d="M44.4,14.8C44.4,14.7,44.4,14.7,44.4,14.8
			C44.5,14.7,44.4,14.8,44.4,14.8z"/>
		<path fill-rule="evenodd" clip-rule="evenodd" fill="#FFFFFF" d="M44.4,14.4C44.4,14.4,44.5,14.4,44.4,14.4
			C44.5,14.4,44.4,14.4,44.4,14.4z"/>
		<path fill-rule="evenodd" clip-rule="evenodd" fill="#FFFFFF" d="M44.5,14.7c0,0,0.1,0,0.1,0C44.6,14.7,44.5,14.7,44.5,14.7z"/>
		<path fill-rule="evenodd" clip-rule="evenodd" fill="#FFFFFF" d="M44.5,14.7c0,0,0.1,0,0.1,0C44.6,14.7,44.6,14.7,44.5,14.7z"/>
		<path fill-rule="evenodd" clip-rule="evenodd" fill="#FFFFFF" d="M44.5,14.3C44.5,14.3,44.6,14.3,44.5,14.3
			C44.6,14.3,44.5,14.3,44.5,14.3z"/>
		<path fill-rule="evenodd" clip-rule="evenodd" fill="#FFFFFF" d="M44.6,14.4c0,0,0.2,0,0.2-0.1C44.7,14.3,44.7,14.4,44.6,14.4z"/>
		<path fill-rule="evenodd" clip-rule="evenodd" fill="#FFFFFF" d="M44.7,14.7c0.1,0,0.1,0,0.2,0C44.8,14.7,44.7,14.7,44.7,14.7z"/>
		<path fill-rule="evenodd" clip-rule="evenodd" fill="#FFFFFF" d="M44.8,14.5C44.8,14.5,44.8,14.5,44.8,14.5
			C44.9,14.5,44.8,14.5,44.8,14.5z"/>
		<path fill-rule="evenodd" clip-rule="evenodd" fill="#FFFFFF" d="M44.9,14.5C44.9,14.5,44.9,14.5,44.9,14.5
			C45,14.5,44.9,14.5,44.9,14.5z"/>
		<path fill-rule="evenodd" clip-rule="evenodd" fill="#FFFFFF" d="M45,14.5C45,14.5,45.1,14.5,45,14.5C45,14.5,45,14.5,45,14.5
			C45,14.5,45,14.5,45,14.5z"/>
		<path fill-rule="evenodd" clip-rule="evenodd" fill="#FFFFFF" d="M45.2,14.3C45.1,14.3,45,14.3,45.2,14.3L45.2,14.3z"/>
		<path fill-rule="evenodd" clip-rule="evenodd" fill="#FFFFFF" d="M45.2,14.2c0,0,0.1,0,0.1,0C45.3,14.1,45.3,14.2,45.2,14.2z"/>
		<path fill-rule="evenodd" clip-rule="evenodd" fill="#FFFFFF" d="M45.3,14.1C45.3,14.1,45.3,14.1,45.3,14.1L45.3,14.1z"/>
		<path fill-rule="evenodd" clip-rule="evenodd" fill="#FFFFFF" d="M45.3,14C45.3,14,45.4,14,45.3,14C45.4,14,45.3,14,45.3,14z"/>
		<path fill-rule="evenodd" clip-rule="evenodd" fill="#FFFFFF" d="M45.6,13.9C45.7,13.9,45.7,13.9,45.6,13.9L45.6,13.9z"/>
		<path fill-rule="evenodd" clip-rule="evenodd" fill="#FFFFFF" d="M43.3,14.4C43.3,14.4,43.3,14.4,43.3,14.4c0.1,0,0.1,0,0.2,0
			C43.4,14.4,43.3,14.4,43.3,14.4z"/>
		<path fill-rule="evenodd" clip-rule="evenodd" fill="#FFFFFF" d="M44.5,14.4C44.5,14.4,44.5,14.4,44.5,14.4
			C44.6,14.4,44.5,14.4,44.5,14.4c0.1,0,0.1,0,0.2,0c0,0,0,0,0,0c0.1,0,0.1,0,0.3-0.1C44.8,14.4,44.5,14.4,44.5,14.4
			C44.4,14.5,44.5,14.4,44.5,14.4C44.5,14.4,44.5,14.4,44.5,14.4z"/>
		<path fill-rule="evenodd" clip-rule="evenodd" fill="#FFFFFF" d="M44.7,14.7C44.7,14.7,44.7,14.6,44.7,14.7
			C44.7,14.6,44.7,14.6,44.7,14.7C44.7,14.7,44.6,14.7,44.7,14.7z"/>
		<path fill-rule="evenodd" clip-rule="evenodd" fill="#FFFFFF" d="M45.4,14.4L45.4,14.4c0.1,0,0.2,0,0.2,0
			C45.6,14.4,45.4,14.4,45.4,14.4c-0.1,0-0.1,0-0.1,0.1c-0.2,0.1-0.4,0.1-0.6,0.2c0.1,0,0.3-0.1,0.4-0.1c0,0,0,0,0,0
			C45.2,14.5,45.3,14.5,45.4,14.4z"/>
		<path fill-rule="evenodd" clip-rule="evenodd" fill="#FFFFFF" d="M45.3,14.1C45.3,14.1,45.3,14.1,45.3,14.1
			C45.4,14.1,45.3,14.1,45.3,14.1z"/>
		<path fill-rule="evenodd" clip-rule="evenodd" fill="#FFFFFF" d="M24.7,13.3c0,0,0-0.1,0-0.1c0-0.1,0-0.2,0-0.3c0-0.1,0-0.3,0-0.3
			c0,0,0-0.1,0-0.2c0-0.2,0-0.3,0-0.4c0-0.1,0-0.2,0-0.4c0-0.1,0,0,0-0.1c0-0.3-0.1-0.4-0.1-0.7c0,0,0,0-0.1-0.1c0,0,0-0.1,0-0.1
			c0-0.1-0.1,0-0.1-0.1l0,0l0,0c-0.1,0-0.1,0-0.2,0c0,0.1-0.1,0.1-0.1,0.1c0,0,0,0.1-0.1,0.2c0,0.1,0,0.1-0.1,0.2c0,0,0,0.1,0,0.1
			c0,0.1,0,0.2,0,0.2c0,0,0,0,0,0c0,0.2-0.1,0.4-0.1,0.6c0,0,0,0.1,0,0.1c0,0.2,0,0.5,0,0.6c0,0,0,0,0,0.1c0,0,0,0.1,0,0.2
			c0,0,0,0.1,0,0.1c0,0.1,0,0.2,0,0.3c0,0,0,0.1,0,0.2c0,0.1,0.1,0.5,0.2,0.6c0.1,0.1,0.1,0.1,0.2,0.2c0.1,0.1,0.1,0.1,0.1,0.1
			c0.2,0.1,0.6,0.3,0.8,0.3c0.2,0.1,0.3,0.1,0.5,0.1c0,0,0.1,0,0.1,0c0,0,0.1,0,0.2,0c0.1,0,0.1,0,0.3,0.1c0.1,0.1,0.2,0.1,0.4,0.1
			c0,0,0.1,0,0.1,0c0,0,0.1,0,0.1,0c0,0,0.1,0,0.1,0c0,0,0.1,0,0.1,0c0,0,0.1,0,0.1,0c0,0,0.1,0,0.1,0c0.1,0,0.3,0.1,0.4,0.1
			c0.3,0.1,0.5,0.1,0.8,0.1c0.1,0,0.1,0,0.2,0c0,0,0,0,0,0c0.2,0,0.3,0,0.5,0.1c0,0,0,0,0,0c0.2,0,0.5,0.1,0.7,0.1
			c0.1,0,0.3,0,0.5,0.1c0.1,0,0.1,0,0.2,0c0.3,0,0.3,0,0.5,0.1c0,0,0.1,0,0.1,0c0.1,0,0.2,0,0.2,0c0.3,0,0.7,0,0.9,0.1
			c0,0,0.2,0,0.2,0c0.2,0,0.3,0,0.5,0c0,0,0.1,0,0.1,0c0.1,0,0.2,0,0.3,0c0.2,0,0.3,0,0.7,0c0.3,0,0.7,0,1,0c0.1,0,0.1,0,0.2,0
			c0.2,0,0.5,0,0.8,0c1,0,2.1-0.1,3.1-0.2c0.1,0,0.2,0,0.3,0c0,0,0.1,0,0.1,0c0.1,0,0.3,0,0.5,0c0,0,0.1,0,0.2,0c0,0,0,0,0,0
			c0.1,0,0.5-0.1,0.6-0.1c0,0,0,0,0,0c0,0,0.1,0,0.1,0c0.3,0,0.5-0.1,0.7-0.1c0,0,0.1,0,0.1,0c0,0-0.1,0-0.1,0c0.1,0,0.2,0,0.2,0
			c0.1,0,0.1,0,0.2,0c0,0,0,0,0,0c0.1,0,0.2,0,0.3,0c0,0,0.2,0,0.2,0c0,0,0,0,0,0c0.1,0,0.2,0,0.3,0c0,0,0,0,0.1,0c0,0,0,0,0,0
			c0,0,0,0,0,0c0.1,0,0,0,0.1,0c0.1,0,0.1,0,0.2,0c0.1,0,0.1,0,0.2,0c0.1,0,0.1,0,0.1,0c0,0,0.1,0,0.2,0c0,0,0,0,0,0
			c0.2,0,0.4-0.1,0.5-0.1c-0.2,0.1-0.4,0.1-0.6,0.1c0,0-0.1,0-0.1,0c0,0,0,0,0,0c0,0,0,0,0,0c0,0,0,0,0,0c-0.1,0-0.3,0.1-0.4,0.1
			c0,0,0,0,0,0c-0.1,0,0,0-0.2,0c0,0-0.1,0,0,0c0.1,0,0.5-0.1,0.7-0.1c0.1,0,0.1,0,0.2,0c-0.1,0-0.2,0-0.3,0c-0.1,0-0.3,0-0.4,0.1
			c0,0-0.1,0-0.1,0c0,0-0.1,0-0.1,0c0,0,0,0-0.1,0c0,0-0.1,0-0.1,0c-0.1,0-0.2,0-0.3,0c0,0,0,0,0,0c0.1,0,0.1,0,0.3,0c0,0,0,0,0,0
			c0,0,0.1,0,0.1,0c-0.1,0-0.1,0-0.1,0c0.3,0,0.3-0.1,0.7-0.1c0,0,0,0,0.1,0c0.3-0.1,0.3-0.1,0.7-0.1c-0.3,0-0.5,0.1-0.8,0.2
			c0,0,0,0,0,0c-0.2,0-0.3,0-0.4,0.1l-0.1,0c-0.3,0.1-0.5,0.1-0.8,0.1c0,0,0,0,0,0c0,0,0,0,0.1,0c0,0,0.1,0,0.1,0
			c0.2-0.1,0.6-0.1,0.9-0.2c0,0,0,0,0,0c-0.1,0-0.3,0.1-0.4,0.1c-0.1,0,0-0.1,0.1-0.1c0.2,0,0.5-0.1,0.7-0.1
			c0.6-0.1,1.2-0.2,1.7-0.4c-0.3,0.1-0.6,0.2-0.9,0.2c0,0,0,0,0,0c-0.3,0.1-0.4,0.1-0.9,0.2c-0.1,0-0.3,0.1-0.4,0.1
			c0,0,0.1-0.1,0.2-0.1c-0.1,0-0.2,0-0.3,0c-0.1,0-0.2,0-0.3,0c0,0,0,0,0,0c0,0-0.1,0-0.1,0c0,0,0,0-0.1,0c-0.1,0-0.1,0-0.1,0
			c-0.3,0-0.3,0-0.7,0.1c0,0-0.1,0-0.1,0c0,0,0,0,0,0c0,0,0,0,0,0c-0.1,0-0.2,0-0.3,0c-0.2,0-0.5,0.1-0.7,0.1c0,0,0,0,0,0
			c-0.4,0-0.7,0.1-1,0.1c0,0,0,0,0,0c0,0,0,0-0.1,0c0,0-0.1,0-0.1,0c-0.5,0-0.8,0.1-1.2,0.1c-0.4,0-0.7,0-1.1,0.1
			c-0.3,0-0.5,0-0.8,0c-0.5,0-0.7,0-0.9,0c-0.2,0-0.4,0-0.7,0c0,0-0.1,0-0.1,0c0,0-0.2,0-0.2,0c-0.1,0-0.4,0-0.5,0
			c-0.2,0-0.3,0-0.5,0c-0.1,0-0.2,0-0.3,0c0,0-0.2,0-0.2,0c-0.2,0-0.4,0-0.5,0c-0.2,0-0.5-0.1-0.7-0.1c-0.4,0-0.5-0.1-0.8-0.1
			c-0.2,0-0.4,0-0.6-0.1c0,0,0,0-0.1,0c-0.6-0.1-0.5-0.1-1-0.1c-0.1,0-0.2,0-0.3,0c-0.1,0-0.2,0-0.3,0c0,0-0.1,0-0.1,0
			c-0.1,0-0.2,0-0.3,0c-0.2,0-0.3-0.1-0.5-0.1c-0.1,0-0.4-0.1-0.5-0.1c-0.3-0.1-0.6-0.1-0.9-0.2c-0.1,0-0.2-0.1-0.3-0.1
			c-0.1,0-0.2-0.1-0.3-0.1c-0.1,0-0.3-0.1-0.4-0.1c-0.2,0-0.3-0.1-0.4-0.2c0-0.1-0.1,0-0.1-0.1c0,0,0,0,0-0.1c0,0,0-0.1,0-0.1
			C24.7,13.4,24.7,13.4,24.7,13.3z M42.7,15.1C42.7,15.1,42.7,15.1,42.7,15.1C42.7,15.1,42.6,15.1,42.7,15.1z M42.7,15.1
			c0.1,0,0.2,0,0.3-0.1c0,0,0,0,0,0c0,0,0.1,0,0.2,0c0,0-0.1,0-0.1,0.1c-0.1,0-0.1,0-0.1,0C42.8,15.1,42.8,15.1,42.7,15.1
			C42.8,15.1,42.7,15.1,42.7,15.1z"/>
	</g>
	<g>
		<path fill="#FFFFFF" d="M70.7,8.3c0,0,0.1,0.1,0.3,0.2c0.2,0.1,0.4,0.4,0.7,0.7c0.2,0.4,0.5,0.8,0.5,1.4c0.1,0.6,0,1.3-0.3,2
			c-0.3,0.7-0.8,1.4-1.5,1.9c-0.7,0.5-1.6,1-2.6,1.3c-2,0.7-4.2,1.3-6.5,1.7C59,18,56.7,18.1,54.6,18c-2.1-0.1-4.1-0.5-5.7-1
			c-0.8-0.3-1.6-0.5-2-0.9c-0.4-0.3-0.5-0.8-0.6-1.3c-0.1-0.4,0-0.8,0-1.1c0-0.3,0-0.5,0-0.5l-1.1,0v0v0l0-0.1l0,0l0,0l0,0
			c0,0,0,0,0,0c0,0,0,0,0,0.1c0,0.1,0,0.2,0,0.3c0,0.3-0.1,0.7,0,1.3c0.1,0.5,0.3,1.3,1,1.9c0.7,0.6,1.5,0.8,2.3,1.1
			c1.7,0.6,3.7,1,5.9,1.1c2.2,0.1,4.6,0,6.9-0.4c2.3-0.4,4.6-1,6.6-1.7c1-0.4,2.1-0.8,2.9-1.5c0.9-0.6,1.5-1.5,1.9-2.4
			c0.4-0.9,0.5-1.8,0.4-2.6c-0.1-0.8-0.4-1.5-0.7-1.9c-0.3-0.5-0.7-0.8-0.9-1c-0.2-0.2-0.4-0.3-0.4-0.3L70.7,8.3z"/>
		<path fill-rule="evenodd" clip-rule="evenodd" fill="#FFFFFF" d="M50.3,18.4C50.3,18.4,50.3,18.4,50.3,18.4
			C50.3,18.4,50.3,18.4,50.3,18.4z"/>
		<path fill-rule="evenodd" clip-rule="evenodd" fill="#FFFFFF" d="M49.1,17.3c0,0-0.1,0-0.1,0C49.1,17.3,49.1,17.3,49.1,17.3z"/>
		<path fill-rule="evenodd" clip-rule="evenodd" fill="#FFFFFF" d="M49,17.2c0,0-0.1,0-0.1,0C48.9,17.2,49,17.2,49,17.2z"/>
		<path fill-rule="evenodd" clip-rule="evenodd" fill="#FFFFFF" d="M48.5,17.2c0,0-0.1,0-0.1,0C48.4,17.2,48.5,17.2,48.5,17.2z"/>
		<path fill-rule="evenodd" clip-rule="evenodd" fill="#FFFFFF" d="M48.4,17c0,0-0.1,0-0.2-0.1C48.2,17,48.3,17,48.4,17z"/>
		<path fill-rule="evenodd" clip-rule="evenodd" fill="#FFFFFF" d="M47.6,17.4c-0.1,0-0.3-0.1-0.4-0.1
			C47.4,17.3,47.5,17.3,47.6,17.4z"/>
		<path fill-rule="evenodd" clip-rule="evenodd" fill="#FFFFFF" d="M47.5,17c-0.1,0-0.3-0.1-0.5-0.2c0,0,0.2,0.1,0.3,0.1
			c0,0,0.1,0,0.1,0C47.4,17,47.4,17,47.5,17z"/>
		<path fill-rule="evenodd" clip-rule="evenodd" fill="#FFFFFF" d="M46.3,16.1C46.3,16.1,46.3,16.1,46.3,16.1
			C46.3,16.1,46.3,16.1,46.3,16.1L46.3,16.1z"/>
		<path fill-rule="evenodd" clip-rule="evenodd" fill="#FFFFFF" d="M45.9,15.6c0-0.1-0.1-0.3-0.1-0.4c0,0,0,0,0,0c0-0.1,0-0.2,0-0.1
			C45.8,15.2,45.9,15.4,45.9,15.6z"/>
		<path fill-rule="evenodd" clip-rule="evenodd" fill="#FFFFFF" d="M46,15.5c0,0,0-0.1,0-0.1C46,15.4,46,15.5,46,15.5z"/>
		<path fill-rule="evenodd" clip-rule="evenodd" fill="#FFFFFF" d="M45.7,15.4c0,0,0-0.1,0-0.2C45.6,15.3,45.7,15.4,45.7,15.4z"/>
		<path fill-rule="evenodd" clip-rule="evenodd" fill="#FFFFFF" d="M46,15.4c0,0,0-0.1-0.1-0.2C45.9,15.2,46,15.3,46,15.4z"/>
		<path fill-rule="evenodd" clip-rule="evenodd" fill="#FFFFFF" d="M46,15.3c0,0,0-0.1,0-0.2C46,15.3,46,15.3,46,15.3z"/>
		<path fill-rule="evenodd" clip-rule="evenodd" fill="#FFFFFF" d="M45.6,15.3c0,0,0-0.1,0-0.1C45.5,15.2,45.6,15.3,45.6,15.3z"/>
		<path fill-rule="evenodd" clip-rule="evenodd" fill="#FFFFFF" d="M45.6,15.2c0-0.1,0-0.2-0.1-0.3C45.6,15.1,45.6,15.1,45.6,15.2z"
			/>
		<path fill-rule="evenodd" clip-rule="evenodd" fill="#FFFFFF" d="M45.9,15.1c0-0.1,0-0.2,0-0.3C45.9,14.9,45.9,15,45.9,15.1z"/>
		<path fill-rule="evenodd" clip-rule="evenodd" fill="#FFFFFF" d="M45.8,14.9c0-0.1,0-0.1,0-0.1C45.8,14.8,45.8,14.9,45.8,14.9z"/>
		<path fill-rule="evenodd" clip-rule="evenodd" fill="#FFFFFF" d="M45.8,14.8c0,0,0-0.1,0-0.1C45.8,14.7,45.8,14.7,45.8,14.8z"/>
		<path fill-rule="evenodd" clip-rule="evenodd" fill="#FFFFFF" d="M45.8,14.6c0,0,0-0.1,0-0.1C45.8,14.6,45.8,14.5,45.8,14.6
			C45.8,14.6,45.8,14.6,45.8,14.6z"/>
		<path fill-rule="evenodd" clip-rule="evenodd" fill="#FFFFFF" d="M45.6,14.3C45.6,14.4,45.6,14.5,45.6,14.3L45.6,14.3z"/>
		<path fill-rule="evenodd" clip-rule="evenodd" fill="#FFFFFF" d="M45.5,14.1c0-0.1,0-0.1,0-0.2C45.5,14,45.5,14,45.5,14.1z"/>
		<path fill-rule="evenodd" clip-rule="evenodd" fill="#FFFFFF" d="M45.5,14.1C45.5,14.1,45.5,13.9,45.5,14.1L45.5,14.1z"/>
		<path fill-rule="evenodd" clip-rule="evenodd" fill="#FFFFFF" d="M45.4,13.9c0,0,0-0.1,0-0.1C45.4,13.8,45.4,13.9,45.4,13.9z"/>
		<path fill-rule="evenodd" clip-rule="evenodd" fill="#FFFFFF" d="M45.4,13.4c0-0.1,0-0.1,0-0.1L45.4,13.4L45.4,13.4l0-0.1
			L45.4,13.4z"/>
		<path fill-rule="evenodd" clip-rule="evenodd" fill="#FFFFFF" d="M46.6,17.1C46.6,17.1,46.6,17.1,46.6,17.1
			c-0.1-0.1-0.2-0.1-0.3-0.2C46.4,17,46.5,17,46.6,17.1z"/>
		<path fill-rule="evenodd" clip-rule="evenodd" fill="#FFFFFF" d="M45.7,15.3C45.7,15.3,45.7,15.3,45.7,15.3
			C45.7,15.2,45.7,15.3,45.7,15.3c0-0.2,0-0.2,0-0.3c0,0,0,0,0,0c0-0.1,0-0.2,0-0.4c0,0.2,0.1,0.6,0.1,0.8
			C45.7,15.4,45.7,15.3,45.7,15.3C45.7,15.3,45.7,15.4,45.7,15.3z"/>
		<path fill-rule="evenodd" clip-rule="evenodd" fill="#FFFFFF" d="M45.9,15.1C45.9,15.1,45.9,15.1,45.9,15.1
			C45.9,15.1,45.9,15,45.9,15.1C45.9,15,45.9,15.3,45.9,15.1z"/>
		<path fill-rule="evenodd" clip-rule="evenodd" fill="#FFFFFF" d="M45.8,13.9L45.8,13.9c0-0.1,0-0.3,0-0.3c0,0.1,0,0.4,0,0.5
			c0,0,0,0,0,0.1c0,0.3,0,0.6,0,0.9c-0.1-0.1,0-0.4-0.1-0.6c0,0,0,0,0,0C45.8,14.3,45.9,14.1,45.8,13.9z"/>
		<path fill-rule="evenodd" clip-rule="evenodd" fill="#FFFFFF" d="M45.5,14c0,0,0-0.1,0-0.1C45.5,13.9,45.5,14,45.5,14z"/>
		<path fill-rule="evenodd" clip-rule="evenodd" fill="#FFFFFF" d="M73.3,11.3c0-0.1,0-0.2,0-0.3c0-0.2,0-0.4,0-0.6
			c0-0.2-0.1-0.3-0.1-0.5c0-0.1-0.1-0.2-0.1-0.3c-0.1-0.3-0.2-0.5-0.3-0.5c-0.1-0.2-0.2-0.4-0.3-0.5c0-0.1,0,0-0.1-0.1
			c-0.3-0.3-0.5-0.4-0.9-0.7c0,0-0.1,0-0.2,0c0,0-0.1-0.1-0.1-0.1c-0.1,0-0.1,0.1-0.2,0c0,0,0,0,0,0c0,0.1,0,0.1-0.1,0.2
			C71,8,71,8,71.1,8.1c0,0.1,0.1,0.1,0.1,0.2c0,0.1,0.1,0.1,0.1,0.2c0,0,0.1,0.1,0.1,0.1c0.1,0.1,0.1,0.2,0.2,0.3c0,0,0,0,0,0
			c0.1,0.2,0.2,0.4,0.4,0.7c0,0,0,0.1,0.1,0.1c0.1,0.2,0.2,0.6,0.2,0.7c0,0,0,0,0,0.1c0,0,0,0.2,0,0.3c0,0,0,0.2,0,0.2
			c0,0.1,0,0.2,0,0.3c0,0,0,0.1,0,0.2c0,0.1-0.1,0.4-0.1,0.5c0,0.1,0,0.1-0.1,0.2c0,0.1,0,0.1,0,0.1c0,0.2-0.2,0.6-0.3,0.9
			c-0.1,0.2-0.2,0.4-0.3,0.5c0,0-0.1,0.1-0.1,0.1c0,0-0.1,0.1-0.1,0.2c-0.1,0.1-0.2,0.2-0.3,0.3c-0.2,0.1-0.2,0.2-0.4,0.3
			c0,0-0.1,0.1-0.2,0.1c0,0-0.1,0.1-0.1,0.1c0,0-0.1,0.1-0.2,0.1c0,0-0.1,0.1-0.1,0.1c0,0-0.1,0-0.1,0.1c0,0-0.1,0.1-0.1,0.1
			c-0.2,0.1-0.1,0-0.6,0.3c-0.3,0.1-0.6,0.3-1,0.4c-0.1,0-0.2,0.1-0.3,0.1c0,0,0,0-0.1,0c-0.2,0.1-0.4,0.2-0.7,0.2c0,0,0,0,0,0
			c-0.3,0.1-0.7,0.2-0.9,0.3c-0.2,0-0.4,0.1-0.6,0.2c-0.1,0-0.2,0.1-0.3,0.1c-0.3,0.1-0.4,0.1-0.7,0.2c0,0-0.1,0-0.2,0.1
			c-0.1,0-0.2,0-0.3,0.1c-0.4,0.1-0.9,0.2-1.3,0.3c-0.1,0-0.2,0.1-0.3,0.1c-0.2,0.1-0.4,0.1-0.7,0.1c0,0-0.1,0-0.2,0
			c-0.2,0-0.3,0-0.4,0.1c-0.3,0.1-0.7,0.1-1,0.2c-0.4,0.1-1,0.1-1.5,0.2c-0.1,0-0.2,0-0.3,0c-0.3,0-0.8,0.1-1.1,0.1
			c-1.5,0.1-3.1,0-4.5-0.1c-0.1,0-0.3,0-0.4-0.1c0,0-0.1,0-0.1,0c-0.2,0-0.4-0.1-0.6-0.1c-0.1,0-0.2,0-0.3,0c0,0,0.1,0,0,0
			c-0.2,0-0.7-0.1-0.9-0.2c0,0,0,0,0,0c-0.1,0-0.1,0-0.1,0c-0.4-0.1-0.7-0.1-1-0.2c0,0-0.2-0.1-0.2-0.1c0.1,0,0.1,0,0.1,0.1
			c-0.1,0-0.2-0.1-0.3-0.1c-0.1,0-0.2-0.1-0.3-0.1c0,0,0,0,0,0c-0.3-0.1-0.2-0.1-0.4-0.1c0,0-0.2-0.1-0.3-0.1c-0.1,0,0.1,0,0,0
			c-0.1,0-0.3-0.1-0.4-0.2c0,0-0.1,0-0.1,0c0,0,0,0,0,0c-0.1,0,0,0,0,0c-0.1,0-0.1,0-0.1,0c-0.1-0.1-0.2-0.1-0.2-0.1
			c-0.1,0-0.2-0.1-0.2-0.2c-0.1,0-0.1-0.1-0.2-0.1c-0.1-0.1-0.1-0.1-0.1-0.2c0,0,0,0,0,0c-0.2-0.2-0.3-0.5-0.4-0.7
			c0.1,0.3,0.2,0.5,0.4,0.7c0,0,0.1,0.1,0.1,0.1c0,0,0,0,0,0c0,0,0,0,0,0c0,0,0,0,0,0c0.2,0.2,0.4,0.3,0.5,0.3c0,0,0,0,0,0
			c0.1,0,0.1,0,0.2,0.1c0,0,0.1,0.1,0,0.1c-0.3-0.1-0.6-0.3-0.9-0.5c-0.1-0.1-0.1-0.2-0.2-0.2c0.1,0.1,0.2,0.2,0.3,0.3
			c0.1,0.1,0.3,0.2,0.5,0.3c0,0,0.1,0,0.1,0.1c0,0,0.1,0,0.1,0c0,0,0.1,0,0.1,0c0,0,0.2,0.1,0.2,0.1c0.1,0.1,0.2,0.1,0.4,0.2
			c0,0,0,0,0,0c-0.2-0.1-0.2-0.1-0.4-0.1c0,0,0,0,0,0c-0.1,0-0.1,0-0.1,0c0.1,0,0.1,0.1,0.1,0.1c-0.3-0.1-0.7-0.3-0.9-0.5
			c0,0,0,0-0.1-0.1c-0.2-0.2-0.5-0.5-0.6-0.8c0.1,0.4,0.4,0.7,0.8,1c0,0,0,0,0,0c0.2,0.1,0.4,0.2,0.5,0.3l0.2,0.1
			c0.4,0.2,0.7,0.3,1.2,0.5c0,0,0,0,0,0c0,0-0.1,0-0.1,0c-0.1,0-0.1,0-0.2-0.1c-0.4-0.1-0.9-0.3-1.3-0.5c-0.1,0,0,0,0,0
			c0.2,0.1,0.4,0.2,0.6,0.3c0.1,0.1,0,0.1-0.2,0c-0.3-0.1-0.8-0.4-1-0.5c-0.9-0.6-1.1-1.7-1-2.6c0,0.5,0,1,0.2,1.5c0,0,0,0,0,0
			c0.2,0.5,0.5,0.9,0.9,1.2c0.1,0.1,0.5,0.3,0.6,0.3c-0.1,0-0.2,0-0.4-0.1c0.2,0.1,0.3,0.2,0.5,0.2c0.1,0,0.1,0.1,0.4,0.1
			c0,0,0,0,0,0c0,0,0.1,0,0.1,0c0.1,0,0.1,0,0.1,0c0.1,0,0.1,0,0.1,0.1c0.3,0.1,0.6,0.2,1,0.3c0,0,0.1,0,0.1,0c0,0,0,0,0,0
			c0,0,0,0,0,0c0.1,0,0.3,0.1,0.4,0.1c0.3,0.1,0.7,0.2,1,0.2c0.1,0,0,0,0.1,0c0.5,0.1,1,0.2,1.5,0.3c0,0,0,0,0.1,0
			c0.1,0,0.1,0,0.1,0c0,0,0.1,0,0.1,0c0.6,0.1,1.2,0.1,1.8,0.2c0.6,0,1.1,0.1,1.6,0.1c0.4,0,0.8,0,1.2,0c0.5,0,0.9-0.1,1.4-0.1
			c0.3,0,0.7-0.1,1-0.1c0,0,0.1,0,0.2,0c0,0,0.2,0,0.3,0c0.2,0,0.5-0.1,0.7-0.1l0.8-0.1c0.1,0,0.3-0.1,0.4-0.1c0.1,0,0.2,0,0.3,0
			c0.2,0,0.6-0.1,0.8-0.2c0.3-0.1,0.7-0.1,1-0.2c0.4-0.1,0.8-0.2,1.2-0.3c0.3-0.1,0.6-0.2,0.9-0.3c0,0,0.1,0,0.1,0
			c0.5-0.1,1-0.3,1.4-0.4c0.1-0.1,0.3-0.1,0.4-0.1c0.2,0,0.3-0.1,0.4-0.2c0,0,0.1,0,0.1,0c0.1-0.1,0.3-0.1,0.4-0.2
			c0.2-0.1,0.5-0.2,0.8-0.3c0.2-0.1,0.5-0.3,0.7-0.4c0.4-0.2,0.7-0.5,1.1-0.9c0.1-0.1,0.2-0.2,0.3-0.3c0.1-0.1,0.2-0.3,0.4-0.5
			c0.1-0.2,0.2-0.3,0.3-0.5c0.1-0.3,0.3-0.6,0.4-0.8c0.1-0.1,0.1-0.3,0.1-0.5c0-0.1,0.1-0.1,0.1-0.2c0-0.1,0-0.2,0.1-0.3
			C73.3,11.6,73.3,11.5,73.3,11.3z M47.8,17C47.8,17,47.8,17,47.8,17C47.8,17,47.9,17.1,47.8,17z M47.8,17c-0.1,0-0.3-0.1-0.4-0.2
			c0,0,0,0,0,0c-0.1-0.1-0.2-0.1-0.2-0.1c0,0,0.2,0.1,0.2,0.1c0.1,0,0.1,0,0.1,0.1C47.6,17,47.7,17,47.8,17C47.7,17,47.8,17,47.8,17
			z"/>
	</g>
	<g>
		<path fill="#FFFFFF" d="M66.3,17.4c0,0,0.3,0.1,1,0.4c0.6,0.2,1.5,0.5,2.6,0.7c2.2,0.5,5.2,0.7,8.2,0.3c1.5-0.2,2.9-0.5,4.3-0.8
			c0.7-0.2,1.3-0.3,1.9-0.5c0.3-0.1,0.6-0.2,0.9-0.2c0.3-0.1,0.5-0.1,0.9-0.2c0.3-0.1,0.8-0.4,0.9-0.8c0.1-0.4,0.1-0.7,0.1-0.9
			c0-0.4,0-0.8,0-1.2c0-0.6,0-1,0-1l-1.1,0c0,0,0,0.4,0,1c0,0.3,0,0.7,0,1.2c0,0.2,0,0.4,0,0.5c0,0.1,0,0.1-0.2,0.2
			c-0.2,0.1-0.5,0.1-0.8,0.2c-0.3,0.1-0.6,0.1-0.9,0.2c-0.6,0.1-1.2,0.3-1.9,0.5c-1.3,0.3-2.7,0.6-4.2,0.8c-2.9,0.4-5.7,0.2-7.8-0.3
			c-1-0.2-1.9-0.5-2.5-0.7c-0.6-0.2-0.9-0.3-0.9-0.3L66.3,17.4z"/>
		<path fill-rule="evenodd" clip-rule="evenodd" fill="#FFFFFF" d="M84.7,16.4C84.7,16.4,84.7,16.4,84.7,16.4
			C84.8,16.4,84.7,16.4,84.7,16.4z"/>
		<path fill-rule="evenodd" clip-rule="evenodd" fill="#FFFFFF" d="M85.8,16.9C85.8,16.9,85.9,16.9,85.8,16.9
			C85.8,16.9,85.8,16.9,85.8,16.9z"/>
		<path fill-rule="evenodd" clip-rule="evenodd" fill="#FFFFFF" d="M85.9,16.9C85.9,16.9,86,16.8,85.9,16.9
			C86,16.8,85.9,16.9,85.9,16.9z"/>
		<path fill-rule="evenodd" clip-rule="evenodd" fill="#FFFFFF" d="M86.2,16.6C86.2,16.6,86.2,16.6,86.2,16.6
			C86.2,16.6,86.2,16.6,86.2,16.6z"/>
		<path fill-rule="evenodd" clip-rule="evenodd" fill="#FFFFFF" d="M86.4,16.6c0.1-0.1,0.1-0.1,0.1-0.1
			C86.5,16.6,86.4,16.6,86.4,16.6z"/>
		<path fill-rule="evenodd" clip-rule="evenodd" fill="#FFFFFF" d="M86.2,16c0,0,0-0.1,0-0.2C86.2,15.9,86.2,16,86.2,16z"/>
		<path fill-rule="evenodd" clip-rule="evenodd" fill="#FFFFFF" d="M86.4,16c0-0.1,0-0.2,0-0.3c0,0,0,0.1,0,0.2
			C86.5,15.8,86.5,15.9,86.4,16C86.5,15.9,86.5,15.9,86.4,16z"/>
		<path fill-rule="evenodd" clip-rule="evenodd" fill="#FFFFFF" d="M86.5,15C86.5,15,86.5,15,86.5,15C86.5,15,86.5,15,86.5,15
			L86.5,15z"/>
		<path fill-rule="evenodd" clip-rule="evenodd" fill="#FFFFFF" d="M86.4,14.6c0-0.1,0-0.2,0-0.3c0,0,0,0,0,0c0,0,0-0.2,0-0.1
			C86.4,14.5,86.4,14.4,86.4,14.6z"/>
		<path fill-rule="evenodd" clip-rule="evenodd" fill="#FFFFFF" d="M86.6,14.6C86.5,14.6,86.5,14.5,86.6,14.6
			C86.6,14.5,86.6,14.6,86.6,14.6z"/>
		<path fill-rule="evenodd" clip-rule="evenodd" fill="#FFFFFF" d="M86.2,14.5C86.2,14.5,86.2,14.4,86.2,14.5
			C86.2,14.4,86.2,14.5,86.2,14.5z"/>
		<path fill-rule="evenodd" clip-rule="evenodd" fill="#FFFFFF" d="M86.5,14.5c0,0,0-0.1,0-0.1C86.5,14.4,86.5,14.5,86.5,14.5z"/>
		<path fill-rule="evenodd" clip-rule="evenodd" fill="#FFFFFF" d="M86.5,14.4c0,0,0-0.1,0-0.1C86.5,14.3,86.5,14.4,86.5,14.4z"/>
		<path fill-rule="evenodd" clip-rule="evenodd" fill="#FFFFFF" d="M86.1,14.4C86.1,14.4,86.1,14.3,86.1,14.4
			C86.1,14.3,86.1,14.4,86.1,14.4z"/>
		<path fill-rule="evenodd" clip-rule="evenodd" fill="#FFFFFF" d="M86.2,14.3c0,0,0-0.1,0-0.2C86.2,14.2,86.2,14.3,86.2,14.3z"/>
		<path fill-rule="evenodd" clip-rule="evenodd" fill="#FFFFFF" d="M86.5,14.3c0-0.1,0-0.1,0-0.2C86.5,14.2,86.5,14.2,86.5,14.3z"/>
		<path fill-rule="evenodd" clip-rule="evenodd" fill="#FFFFFF" d="M86.4,14.2C86.4,14.1,86.4,14.1,86.4,14.2
			C86.4,14.1,86.4,14.1,86.4,14.2z"/>
		<path fill-rule="evenodd" clip-rule="evenodd" fill="#FFFFFF" d="M86.4,14.1C86.4,14.1,86.4,14,86.4,14.1
			C86.4,14,86.4,14.1,86.4,14.1z"/>
		<path fill-rule="evenodd" clip-rule="evenodd" fill="#FFFFFF" d="M86.5,14C86.5,14,86.5,13.9,86.5,14C86.5,13.9,86.5,13.9,86.5,14
			C86.5,14,86.5,14,86.5,14z"/>
		<path fill-rule="evenodd" clip-rule="evenodd" fill="#FFFFFF" d="M86.3,13.8C86.3,13.8,86.3,13.9,86.3,13.8L86.3,13.8z"/>
		<path fill-rule="evenodd" clip-rule="evenodd" fill="#FFFFFF" d="M86.2,13.7c0,0,0-0.1,0-0.1C86.2,13.6,86.2,13.6,86.2,13.7z"/>
		<path fill-rule="evenodd" clip-rule="evenodd" fill="#FFFFFF" d="M86.1,13.6C86.1,13.7,86.1,13.6,86.1,13.6L86.1,13.6z"/>
		<path fill-rule="evenodd" clip-rule="evenodd" fill="#FFFFFF" d="M86,13.5C86,13.5,86,13.5,86,13.5C86,13.5,86,13.5,86,13.5z"/>
		<path fill-rule="evenodd" clip-rule="evenodd" fill="#FFFFFF" d="M86,13.3C86,13.2,86,13.1,86,13.3L86,13.3z"/>
		<path fill-rule="evenodd" clip-rule="evenodd" fill="#FFFFFF" d="M86,15.5C86,15.5,86,15.5,86,15.5c0-0.1,0-0.1,0-0.2
			C86,15.4,86,15.5,86,15.5z"/>
		<path fill-rule="evenodd" clip-rule="evenodd" fill="#FFFFFF" d="M86.3,14.4C86.2,14.4,86.3,14.4,86.3,14.4L86.3,14.4
			c0-0.1,0-0.1,0-0.2c0,0,0,0,0,0c0-0.1,0-0.1,0-0.2C86.3,14.1,86.3,14.4,86.3,14.4C86.3,14.5,86.3,14.4,86.3,14.4
			C86.3,14.4,86.3,14.4,86.3,14.4z"/>
		<path fill-rule="evenodd" clip-rule="evenodd" fill="#FFFFFF" d="M86.5,14.3C86.5,14.3,86.5,14.3,86.5,14.3
			C86.5,14.3,86.5,14.3,86.5,14.3C86.5,14.3,86.5,14.4,86.5,14.3z"/>
		<path fill-rule="evenodd" clip-rule="evenodd" fill="#FFFFFF" d="M86.5,13.5L86.5,13.5c0-0.1,0-0.2,0-0.2
			C86.5,13.4,86.5,13.6,86.5,13.5c0,0.1,0,0.1,0,0.1c0,0.2,0,0.4,0,0.6c0-0.1,0-0.3,0-0.4c0,0,0,0,0,0
			C86.5,13.8,86.5,13.6,86.5,13.5z"/>
		<path fill-rule="evenodd" clip-rule="evenodd" fill="#FFFFFF" d="M86.1,13.6C86.1,13.6,86.1,13.6,86.1,13.6
			C86.1,13.5,86.1,13.6,86.1,13.6z"/>
		<path fill-rule="evenodd" clip-rule="evenodd" fill="#FFFFFF" d="M69.1,17.2c0,0-0.1,0-0.1,0c-0.1,0-0.1,0-0.3-0.1
			c-0.1,0-0.2-0.1-0.3-0.1c0,0-0.1,0-0.1,0c-0.1,0-0.3-0.1-0.3-0.1c-0.1,0-0.2,0-0.3-0.1c0,0,0,0,0,0c-0.2,0-0.4,0-0.7-0.1
			c0,0-0.1,0-0.1,0c0,0-0.1,0-0.1,0c-0.1,0,0,0.1-0.1,0.1c0,0,0,0,0,0c0,0.1,0,0.1-0.1,0.2c0.1,0.1,0,0.1,0.1,0.1
			c0,0,0.1,0.1,0.1,0.1c0,0,0.1,0.1,0.1,0.1c0,0,0.1,0,0.1,0.1c0.1,0,0.1,0.1,0.2,0.1c0,0,0,0,0,0c0.2,0.1,0.3,0.2,0.5,0.3
			c0,0,0.1,0,0.1,0c0.2,0.1,0.4,0.1,0.5,0.2c0,0,0,0,0.1,0c0,0,0.1,0.1,0.2,0.1c0,0,0.1,0,0.1,0c0.1,0,0.2,0.1,0.2,0.1
			c0,0,0.1,0,0.1,0c0.1,0,0.3,0.1,0.4,0.1c0.1,0,0.1,0,0.1,0c0,0,0.1,0,0.1,0c0.1,0,0.5,0.1,0.7,0.1c0.1,0,0.3,0,0.4,0.1
			c0,0,0.1,0,0.1,0c0,0,0.1,0,0.2,0c0.1,0,0.2,0,0.3,0c0.1,0,0.2,0,0.4,0c0,0,0.1,0,0.1,0c0,0,0.1,0,0.1,0c0,0,0.1,0,0.1,0
			c0,0,0.1,0,0.1,0c0,0,0.1,0,0.1,0c0,0,0.1,0,0.1,0c0.1,0,0.3,0,0.4,0c0.2,0,0.5,0,0.7,0.1c0.1,0,0.1,0,0.2,0c0,0,0,0,0,0
			c0.1,0,0.3,0,0.5,0c0,0,0,0,0,0c0.2,0,0.5,0,0.6,0c0.1,0,0.3,0,0.4,0c0,0,0.1,0,0.2,0c0.3,0,0.3,0,0.4,0c0,0,0.1,0,0.1,0
			c0.1,0,0.1,0,0.2,0c0.6,0,0.7-0.1,0.9-0.1c0,0,0.2,0,0.2,0c0.2,0,0.3,0,0.4,0c0,0,0.1,0,0.1,0c0.1,0,0.2,0,0.3,0
			c0.2,0,0.4-0.1,0.6-0.1c0.6-0.1,0.7-0.1,0.9-0.2c0.1,0,0.1,0,0.2,0c0.2,0,0.5-0.1,0.7-0.1c0.9-0.2,1.9-0.4,2.8-0.7
			c0.1,0,0.2,0,0.2-0.1c0,0,0.1,0,0.1,0c0.1,0,0.3-0.1,0.4-0.1c0,0,0.1,0,0.2-0.1c0,0,0,0,0,0c0.1-0.1,0.4-0.1,0.6-0.2c0,0,0,0,0,0
			c0,0,0,0,0.1,0c0.3-0.1,0.4-0.1,0.7-0.2c0,0,0.1,0,0.1,0c0,0-0.1,0-0.1,0c0.1,0,0.2-0.1,0.2-0.1c0.1,0,0.1,0,0.2-0.1c0,0,0,0,0,0
			c0.1-0.1,0.2-0.1,0.3-0.2c0.1-0.1,0.1-0.1,0.1-0.2c0,0,0,0,0,0c0.1-0.1,0.1-0.2,0.1-0.3c0,0,0,0,0-0.1c0,0,0,0,0,0c0,0,0,0,0,0
			c0-0.1,0,0,0-0.1c0-0.1,0-0.1,0-0.2c0-0.1,0-0.1,0-0.2c0-0.1,0-0.1,0-0.1c0,0,0-0.1,0-0.1c0,0,0,0,0,0c0-0.2,0-0.4,0-0.5
			c0,0.2,0,0.4,0,0.6c0,0,0,0.1,0,0.1c0,0,0,0,0,0c0,0,0,0,0,0c0,0,0,0,0,0c0,0.2,0,0.3,0,0.4c0,0,0,0,0,0c0,0.1,0,0,0,0.2
			c0,0,0,0.1,0,0c0-0.2,0-0.4,0-0.7c0-0.1,0-0.1,0-0.2c0,0.1,0,0.2,0,0.3c0,0.1,0,0.2,0,0.3c0,0,0,0.1,0,0.1c0,0,0,0.1,0,0.1
			c0,0,0,0,0,0c0,0,0,0.1,0,0.1c0,0.1-0.1,0.2-0.1,0.2c0,0,0,0,0,0c0.1-0.1,0.1-0.1,0.1-0.2c0,0,0,0,0,0c0,0,0,0,0-0.1
			c0,0.1,0,0.1,0,0c0.1-0.2,0.1-0.4,0.1-0.6c0,0,0,0,0-0.1c0-0.3,0-0.3,0-0.6c0,0.2,0,0.5,0,0.8c0,0,0,0,0,0c0,0.1,0,0.3,0,0.3
			c0,0,0,0.1-0.1,0.1c-0.1,0.3-0.2,0.3-0.5,0.4c0,0,0,0,0,0c0,0,0,0,0,0c0,0,0,0,0.1-0.1c0.2-0.1,0.3-0.3,0.3-0.6c0,0,0,0,0,0
			c0,0.1,0,0.2-0.1,0.3c0,0,0,0,0-0.1c0-0.1,0.1-0.4,0.1-0.5c0-0.8,0-1,0-1.7c0,0.4,0,0.4,0,0.9c0,0,0,0,0,0c0,0.3,0,0.6,0,0.8
			c0,0.1,0,0.3,0,0.3c0,0,0-0.1,0-0.2c0,0.1,0,0.2,0,0.2c0,0,0,0.1,0,0.1c0,0,0,0,0,0c0,0,0,0,0,0c0,0,0,0,0,0c0,0,0,0,0,0
			c-0.1,0.1-0.3,0.1-0.5,0.2c0,0-0.1,0-0.1,0c0,0,0,0,0,0c0,0,0,0,0,0c-0.1,0-0.2,0-0.3,0.1c-0.2,0.1-0.4,0.1-0.6,0.2c0,0,0,0,0,0
			c-0.3,0.1-0.6,0.1-0.9,0.2c0,0,0,0,0,0c0,0,0,0-0.1,0c0,0,0,0-0.1,0c-0.5,0.1-0.7,0.2-1.1,0.3c-0.4,0.1-0.7,0.2-1,0.2
			c-0.3,0.1-0.5,0.1-0.7,0.2c-0.3,0.1-0.6,0.1-0.9,0.2c-0.2,0-0.3,0.1-0.6,0.1c0,0-0.1,0-0.1,0c0,0-0.1,0-0.2,0
			c-0.1,0-0.3,0.1-0.4,0.1c-0.2,0-0.3,0-0.5,0.1c0,0-0.2,0-0.3,0c0,0-0.1,0-0.2,0c-0.1,0-0.4,0-0.5,0.1c-0.2,0-0.4,0-0.7,0.1
			c-0.3,0-0.5,0-0.8,0c-0.2,0-0.4,0-0.6,0c0,0,0,0-0.1,0c-0.3,0-0.7,0-0.9,0c-0.1,0-0.2,0-0.3,0c-0.1,0-0.2,0-0.3,0c0,0-0.1,0-0.1,0
			c-0.1,0-0.2,0-0.3,0c-0.2,0-0.3,0-0.5-0.1c-0.1,0-0.3-0.1-0.5-0.1c-0.7-0.1-0.5-0.1-0.8-0.1c-0.1,0-0.2,0-0.3-0.1
			c-0.1,0-0.2,0-0.3-0.1c-0.1,0-0.3-0.1-0.3-0.1c-0.2,0-0.4-0.1-0.5-0.1c0-0.1-0.2,0-0.3-0.1c-0.1,0-0.1,0-0.1-0.1
			c-0.1,0-0.1,0-0.2,0C69.2,17.3,69.2,17.2,69.1,17.2z M86.5,16.2C86.5,16.2,86.5,16.2,86.5,16.2C86.5,16.2,86.5,16.3,86.5,16.2z
			 M86.5,16.2c0-0.1,0.1-0.2,0.1-0.3c0,0,0,0,0,0c0,0,0-0.1,0-0.1c0,0,0,0.1,0,0.1c0,0.1,0,0.1,0,0.1C86.6,16.1,86.6,16.1,86.5,16.2
			C86.5,16.2,86.5,16.2,86.5,16.2z"/>
	</g>
	<g>
		<path fill="#FFFFFF" d="M31.2,6.6c-0.3-1.1-1.2-2-2.1-2.4c-1-0.5-2-0.7-2.9-0.9c-1.9-0.3-3.9-0.5-5.8-0.7c-2-0.1-3.9-0.2-5.9,0
			c-1,0.1-2,0.1-3,0.5c-0.5,0.2-1,0.5-1.4,1C9.7,4.6,9.4,5.2,9.5,5.9c0,0.1,0,0.3,0.1,0.4l1-0.3l0-0.2l0,0c0-0.3,0.1-0.7,0.3-1
			c0.2-0.3,0.5-0.5,0.9-0.7c0.8-0.3,1.7-0.4,2.7-0.5c1.9-0.2,3.8-0.1,5.7,0c1.9,0.1,3.8,0.4,5.7,0.7c0.9,0.1,1.8,0.3,2.6,0.7
			c0.8,0.4,1.4,1.1,1.6,1.8L31.2,6.6z"/>
		<path fill-rule="evenodd" clip-rule="evenodd" fill="#FFFFFF" d="M13.2,3.7C13.2,3.7,13.2,3.7,13.2,3.7
			C13.1,3.7,13.2,3.7,13.2,3.7z"/>
		<path fill-rule="evenodd" clip-rule="evenodd" fill="#FFFFFF" d="M12.1,3.2C12.1,3.2,12.1,3.2,12.1,3.2
			C12.1,3.2,12.1,3.2,12.1,3.2z"/>
		<path fill-rule="evenodd" clip-rule="evenodd" fill="#FFFFFF" d="M12,3.2C12,3.2,12,3.2,12,3.2C12,3.2,12,3.2,12,3.2z"/>
		<path fill-rule="evenodd" clip-rule="evenodd" fill="#FFFFFF" d="M11.8,3.4C11.8,3.4,11.7,3.4,11.8,3.4
			C11.7,3.4,11.8,3.4,11.8,3.4z"/>
		<path fill-rule="evenodd" clip-rule="evenodd" fill="#FFFFFF" d="M11.6,3.3c0,0-0.1,0-0.1,0.1C11.5,3.3,11.6,3.3,11.6,3.3z"/>
		<path fill-rule="evenodd" clip-rule="evenodd" fill="#FFFFFF" d="M11.5,4c-0.1,0-0.2,0.1-0.2,0.1C11.4,4,11.4,4,11.5,4z"/>
		<path fill-rule="evenodd" clip-rule="evenodd" fill="#FFFFFF" d="M11.2,3.8C11.2,3.9,11.1,3.9,11,4c0,0,0.1-0.1,0.1-0.1
			C11.1,3.9,11.2,3.9,11.2,3.8C11.2,3.8,11.2,3.8,11.2,3.8z"/>
		<path fill-rule="evenodd" clip-rule="evenodd" fill="#FFFFFF" d="M10.5,4.4C10.5,4.4,10.5,4.4,10.5,4.4
			C10.5,4.4,10.5,4.4,10.5,4.4L10.5,4.4z"/>
		<path fill-rule="evenodd" clip-rule="evenodd" fill="#FFFFFF" d="M10.3,4.8c0,0.1-0.1,0.2-0.1,0.3c0,0,0,0,0,0c0,0-0.1,0.1,0,0
			C10.2,5,10.3,4.9,10.3,4.8z"/>
		<path fill-rule="evenodd" clip-rule="evenodd" fill="#FFFFFF" d="M10.2,4.7C10.2,4.8,10.2,4.8,10.2,4.7
			C10.2,4.8,10.2,4.8,10.2,4.7z"/>
		<path fill-rule="evenodd" clip-rule="evenodd" fill="#FFFFFF" d="M10.5,5C10.5,5,10.4,5,10.5,5C10.4,5,10.5,5,10.5,5z"/>
		<path fill-rule="evenodd" clip-rule="evenodd" fill="#FFFFFF" d="M10.2,4.8c0,0.1,0,0.1,0,0.1C10.1,5,10.2,4.9,10.2,4.8z"/>
		<path fill-rule="evenodd" clip-rule="evenodd" fill="#FFFFFF" d="M10.1,4.9c0,0,0,0.1,0,0.1C10.1,5,10.1,4.9,10.1,4.9z"/>
		<path fill-rule="evenodd" clip-rule="evenodd" fill="#FFFFFF" d="M10.5,5.1C10.5,5.1,10.5,5.1,10.5,5.1
			C10.5,5.1,10.5,5.1,10.5,5.1z"/>
		<path fill-rule="evenodd" clip-rule="evenodd" fill="#FFFFFF" d="M10.4,5.1c0,0,0,0.1-0.1,0.2C10.4,5.2,10.4,5.2,10.4,5.1z"/>
		<path fill-rule="evenodd" clip-rule="evenodd" fill="#FFFFFF" d="M10.1,5c0,0.1,0,0.1-0.1,0.2C10,5.1,10.1,5.1,10.1,5z"/>
		<path fill-rule="evenodd" clip-rule="evenodd" fill="#FFFFFF" d="M10.2,5.2C10.2,5.2,10.2,5.2,10.2,5.2
			C10.1,5.2,10.2,5.2,10.2,5.2z"/>
		<path fill-rule="evenodd" clip-rule="evenodd" fill="#FFFFFF" d="M10.1,5.2C10.1,5.3,10.1,5.3,10.1,5.2
			C10.1,5.3,10.1,5.3,10.1,5.2z"/>
		<path fill-rule="evenodd" clip-rule="evenodd" fill="#FFFFFF" d="M10.1,5.3C10.1,5.3,10.1,5.4,10.1,5.3
			C10.1,5.4,10.1,5.4,10.1,5.3C10.1,5.3,10.1,5.3,10.1,5.3z"/>
		<path fill-rule="evenodd" clip-rule="evenodd" fill="#FFFFFF" d="M10.2,5.6C10.2,5.5,10.3,5.4,10.2,5.6L10.2,5.6z"/>
		<path fill-rule="evenodd" clip-rule="evenodd" fill="#FFFFFF" d="M10.3,5.7c0,0,0,0.1,0,0.1C10.3,5.7,10.3,5.7,10.3,5.7z"/>
		<path fill-rule="evenodd" clip-rule="evenodd" fill="#FFFFFF" d="M10.3,5.7C10.3,5.7,10.3,5.7,10.3,5.7L10.3,5.7z"/>
		<path fill-rule="evenodd" clip-rule="evenodd" fill="#FFFFFF" d="M10.5,5.8C10.5,5.8,10.5,5.8,10.5,5.8
			C10.5,5.8,10.5,5.8,10.5,5.8C10.5,5.8,10.5,5.8,10.5,5.8C10.5,5.8,10.5,5.8,10.5,5.8z"/>
		<path fill-rule="evenodd" clip-rule="evenodd" fill="#FFFFFF" d="M10.5,6C10.5,6,10.5,6,10.5,6L10.5,6z"/>
		<path fill-rule="evenodd" clip-rule="evenodd" fill="#FFFFFF" d="M11.2,4.4C11.2,4.4,11.1,4.4,11.2,4.4c-0.1,0-0.1,0.1-0.1,0.1
			C11.1,4.5,11.1,4.4,11.2,4.4z"/>
		<path fill-rule="evenodd" clip-rule="evenodd" fill="#FFFFFF" d="M10.4,5C10.4,5,10.4,5,10.4,5L10.4,5c0,0.1,0,0.1-0.1,0.1
			c0,0,0,0,0,0c0,0.1,0,0.1-0.1,0.2C10.3,5.2,10.4,5,10.4,5C10.4,5,10.4,5,10.4,5C10.4,5,10.4,5,10.4,5z"/>
		<path fill-rule="evenodd" clip-rule="evenodd" fill="#FFFFFF" d="M10.1,5C10.1,5,10.1,5,10.1,5C10.1,5,10.1,5.1,10.1,5
			C10.1,5.1,10.2,4.9,10.1,5z"/>
		<path fill-rule="evenodd" clip-rule="evenodd" fill="#FFFFFF" d="M10,5.8L10,5.8C10,5.8,10,5.8,10,5.8L10,5.8c0,0.1,0,0.2,0,0.2
			C10,5.9,10,5.9,10,5.8L10,5.8C10,5.8,10,5.7,10,5.8c0-0.1,0-0.1,0-0.1c0-0.2,0-0.4,0.1-0.6c0,0.1-0.1,0.3-0.1,0.4c0,0,0,0,0,0
			C10,5.5,10,5.7,10,5.8z"/>
		<path fill-rule="evenodd" clip-rule="evenodd" fill="#FFFFFF" d="M10.4,5.7C10.4,5.7,10.4,5.7,10.4,5.7
			C10.4,5.8,10.3,5.7,10.4,5.7z"/>
		<path fill-rule="evenodd" clip-rule="evenodd" fill="#FFFFFF" d="M28.8,5.2c0,0,0.1,0,0.1,0.1C29,5.3,29,5.4,29.1,5.4
			c0.1,0,0.1,0.1,0.2,0.2c0,0,0.1,0.1,0.1,0.1c0.1,0.1,0.2,0.2,0.2,0.2c0.1,0.1,0.2,0.1,0.2,0.2c0,0,0,0,0,0
			c0.1,0.2,0.3,0.2,0.4,0.5c0,0,0,0,0.1,0.1c0,0,0,0,0,0.1c0,0,0.1,0,0.1,0.1c0,0,0,0,0,0c0.1,0,0.1-0.1,0.2-0.1
			c0-0.1,0-0.1,0.1-0.1c0,0,0-0.1,0-0.2c0-0.1,0-0.1,0-0.2c0,0,0-0.1,0-0.1c0-0.1,0-0.2-0.1-0.2c0,0,0,0,0,0
			c-0.1-0.2-0.1-0.4-0.3-0.6c0,0-0.1-0.1-0.1-0.1C30.2,5,30,4.8,29.9,4.7c0,0,0,0-0.1,0c0,0-0.1-0.1-0.1-0.2c0,0-0.1,0-0.1-0.1
			c-0.1-0.1-0.2-0.1-0.2-0.2c0,0-0.1,0-0.1,0C29,4.1,29,4.1,28.8,4C28.8,4,28.8,4,28.7,4c0,0-0.1,0-0.1,0c-0.1,0-0.5-0.2-0.7-0.2
			c-0.1-0.1-0.3-0.1-0.4-0.1c0,0-0.1,0-0.1,0c0,0-0.1,0-0.2,0c-0.1,0-0.1,0-0.3-0.1c-0.1-0.1-0.2,0-0.4-0.1c0,0-0.1,0-0.1,0
			c0,0-0.1,0-0.1,0c0,0-0.1,0-0.1,0c0,0-0.1,0-0.1,0c0,0-0.1,0-0.1,0c0,0-0.1,0-0.1,0c-0.1,0-0.3,0-0.4,0c-0.2,0-0.4-0.1-0.7-0.1
			c-0.1,0-0.1,0-0.2,0c0,0,0,0,0,0c-0.1,0-0.3,0-0.4-0.1c0,0,0,0,0,0c-0.2,0-0.5-0.1-0.6-0.1c-0.1,0-0.3,0-0.4,0c0,0-0.1,0-0.2,0
			c-0.3,0-0.3,0-0.4,0c0,0-0.1,0-0.1,0c-0.1,0-0.1,0-0.2,0c-0.3,0-0.6-0.1-0.9-0.1c0,0-0.2,0-0.2,0c-0.2,0-0.3,0-0.4,0
			c0,0-0.1,0-0.1,0c-0.1,0-0.2,0-0.3,0c-0.2,0-0.4,0-0.7,0c-0.3,0-0.7,0-1,0c-0.1,0-0.1,0-0.2,0c-0.2,0-0.5,0-0.7,0
			c-1,0-2,0-2.9,0.1c-0.1,0-0.2,0-0.3,0c0,0-0.1,0-0.1,0c-0.1,0-0.3,0-0.4,0c0,0-0.1,0-0.2,0c0,0,0,0,0,0c-0.1,0-0.4,0.1-0.6,0.1
			c0,0,0,0,0,0C13,3,13,3,13,3c-0.3,0-0.5,0.1-0.7,0.2c0,0-0.1,0-0.1,0c0,0,0.1,0,0.1,0c-0.1,0-0.2,0-0.2,0.1c-0.1,0-0.1,0-0.2,0.1
			c0,0,0,0,0,0c-0.1,0-0.2,0.1-0.3,0.1c0,0-0.1,0.1-0.2,0.1c0,0,0,0,0,0c-0.1,0.1-0.1,0-0.3,0.1c0,0,0,0-0.1,0.1c0,0,0,0,0,0
			c0,0,0,0,0,0c0,0,0,0,0,0c-0.1,0-0.1,0.1-0.1,0.1c-0.1,0.1-0.1,0-0.2,0.1c0,0-0.1,0.1-0.1,0.1c0,0-0.1,0.1-0.1,0.1c0,0,0,0,0,0
			c-0.1,0.1-0.2,0.3-0.3,0.4c0.1-0.2,0.2-0.3,0.3-0.5c0,0,0.1-0.1,0.1-0.1c0,0,0,0,0,0c0,0,0,0,0,0c0,0,0,0,0,0
			C10.8,4,10.9,3.9,11,3.9c0,0,0,0,0,0c0.1,0,0,0,0.1-0.1c0,0,0.1,0,0,0C11,3.9,10.8,4,10.7,4.2c0,0-0.1,0.1-0.1,0.1
			c0.1-0.1,0.1-0.1,0.2-0.2C10.8,4.1,10.9,4,11,3.9c0,0,0.1,0,0.1,0c0,0,0.1,0,0.1,0c0,0,0,0,0,0c0,0,0.1,0,0.1-0.1
			c0.1,0,0.2-0.1,0.2-0.1c0,0,0,0,0,0c-0.1,0-0.1,0.1-0.2,0.1c0,0,0,0,0,0c0,0,0,0-0.1,0c0.1,0,0.1,0,0.1,0
			c-0.2,0.1-0.4,0.2-0.5,0.3c0,0,0,0,0,0.1c-0.1,0.1-0.3,0.3-0.4,0.5c0.1-0.2,0.3-0.4,0.5-0.6c0,0,0,0,0,0C11,4,11.1,4,11.2,3.9
			c0,0,0.1,0,0.1,0c0.2-0.1,0.5-0.2,0.7-0.3c0,0,0,0,0,0c0,0,0,0-0.1,0c0,0-0.1,0-0.1,0c-0.2,0.1-0.5,0.2-0.7,0.4c0,0,0,0,0,0
			C11.3,4,11.4,4,11.5,3.9c0.1,0,0,0-0.1,0.1c-0.2,0.1-0.4,0.2-0.5,0.3c-0.4,0.3-0.6,0.8-0.6,1.3c0-0.3,0.1-0.5,0.2-0.7c0,0,0,0,0,0
			c0.1-0.2,0.3-0.4,0.5-0.5c0.1,0,0.2-0.2,0.3-0.2c0,0-0.1,0.1-0.1,0.1c0.1-0.1,0.2-0.1,0.2-0.1c0.1,0,0.2-0.1,0.2-0.1c0,0,0,0,0,0
			c0,0,0,0,0,0c0,0,0,0,0.1,0c0.1,0,0.1,0,0.1,0c0.2-0.1,0.4-0.1,0.6-0.2c0,0,0.1,0,0.1,0c0,0,0,0,0,0c0,0,0,0,0,0
			c0.1,0,0.2,0,0.2,0c0.2,0,0.4-0.1,0.6-0.1c0,0,0,0,0,0c0.3,0,0.6-0.1,0.9-0.1c0,0,0,0,0,0c0,0,0,0,0.1,0c0,0,0,0,0.1,0
			c0.5,0,0.7,0,1.1-0.1c0.4,0,0.7,0,1,0c0.3,0,0.5,0,0.7,0c0.3,0,0.6,0,0.9,0c0.2,0,0.3,0,0.6,0c0,0,0.1,0,0.1,0c0,0,0.1,0,0.2,0
			c0.1,0,0.3,0,0.4,0c0.2,0,0.3,0,0.5,0c0.1,0,0.2,0,0.3,0c0,0,0.1,0,0.2,0c0.1,0,0.4,0,0.5,0c0.2,0,0.4,0.1,0.7,0.1
			c0.4,0,0.5,0.1,0.8,0.1c0.2,0,0.4,0,0.6,0.1c0,0,0,0,0.1,0c0.3,0.1,0.7,0.1,0.9,0.1c0.1,0,0.2,0,0.3,0c0.1,0,0.2,0,0.3,0
			c0,0,0.1,0,0.1,0c0.1,0,0.2,0,0.3,0c0.2,0,0.3,0.1,0.5,0.1c0.1,0,0.3,0.1,0.5,0.1c0.3,0.1,0.5,0.1,0.8,0.1c0.1,0,0.2,0.1,0.3,0.1
			c0.1,0,0.2,0.1,0.3,0.1c0.1,0,0.2,0.1,0.3,0.1c0.2,0.1,0.4,0.1,0.5,0.2c0,0.1,0.2,0,0.3,0.1c0.1,0,0,0.1,0.1,0.1
			c0.1,0,0.1,0.1,0.2,0.1C28.7,5.1,28.7,5.2,28.8,5.2z M11.4,3.6C11.4,3.6,11.4,3.6,11.4,3.6C11.4,3.6,11.4,3.6,11.4,3.6z M11.4,3.6
			c0,0-0.1,0-0.2,0.1c0,0,0,0,0,0c0,0-0.1,0-0.1,0.1c0,0,0.1-0.1,0.1-0.1c0,0,0.1,0,0.1-0.1C11.2,3.7,11.3,3.6,11.4,3.6
			C11.3,3.6,11.4,3.6,11.4,3.6z"/>
	</g>
	<g>
		<path fill="#FFFFFF" d="M32.9,6.4c0-1.4-0.9-2.6-1.8-3.4c-0.9-0.8-2-1.4-3.2-1.9c-2.3-0.9-4.7-1.1-7.1-1.2
			c-2.4-0.1-4.8,0.1-7.1,0.6c-1.1,0.2-2.5,0.5-3.4,1.6C9.4,3.2,9.1,4.7,9.5,6l0-0.2v0v0.1l0,0.1l0.1,0.3l1-0.4l-0.1-0.2l0,0.2v0V5.7
			l0-0.1c-0.3-0.9,0-2,0.6-2.7c0.6-0.7,1.7-1,2.8-1.2c2.2-0.5,4.5-0.7,6.8-0.6c2.3,0.1,4.6,0.3,6.7,1.1c1,0.4,2,1,2.8,1.7
			c0.8,0.7,1.5,1.6,1.5,2.6L32.9,6.4z"/>
		<path fill-rule="evenodd" clip-rule="evenodd" fill="#FFFFFF" d="M12.5,2C12.5,2,12.5,2,12.5,2C12.5,2,12.5,2,12.5,2z"/>
		<path fill-rule="evenodd" clip-rule="evenodd" fill="#FFFFFF" d="M11.2,1.8C11.2,1.8,11.1,1.9,11.2,1.8
			C11.2,1.8,11.2,1.8,11.2,1.8z"/>
		<path fill-rule="evenodd" clip-rule="evenodd" fill="#FFFFFF" d="M11.1,1.9C11.1,1.9,11.1,1.9,11.1,1.9C11,1.9,11.1,1.9,11.1,1.9z
			"/>
		<path fill-rule="evenodd" clip-rule="evenodd" fill="#FFFFFF" d="M10.9,2.2C10.9,2.2,10.8,2.2,10.9,2.2
			C10.8,2.2,10.9,2.2,10.9,2.2z"/>
		<path fill-rule="evenodd" clip-rule="evenodd" fill="#FFFFFF" d="M10.7,2.2c0,0-0.1,0.1-0.1,0.1C10.6,2.3,10.6,2.2,10.7,2.2z"/>
		<path fill-rule="evenodd" clip-rule="evenodd" fill="#FFFFFF" d="M10.8,2.9c0,0.1-0.1,0.2-0.2,0.2C10.7,3.1,10.8,3,10.8,2.9z"/>
		<path fill-rule="evenodd" clip-rule="evenodd" fill="#FFFFFF" d="M10.5,2.9c0,0.1-0.1,0.2-0.2,0.3c0,0,0.1-0.2,0.1-0.2
			C10.4,3,10.4,3,10.5,2.9C10.5,3,10.5,2.9,10.5,2.9z"/>
		<path fill-rule="evenodd" clip-rule="evenodd" fill="#FFFFFF" d="M10,3.9C10,3.9,10,3.9,10,3.9C10,4,10,4,10,3.9L10,3.9z"/>
		<path fill-rule="evenodd" clip-rule="evenodd" fill="#FFFFFF" d="M10,4.4c0,0.1,0,0.2,0,0.3c0,0,0,0,0,0c0,0.1,0,0.2,0,0.1
			C9.9,4.7,9.9,4.6,10,4.4z"/>
		<path fill-rule="evenodd" clip-rule="evenodd" fill="#FFFFFF" d="M9.8,4.5C9.8,4.5,9.8,4.5,9.8,4.5C9.8,4.5,9.8,4.5,9.8,4.5z"/>
		<path fill-rule="evenodd" clip-rule="evenodd" fill="#FFFFFF" d="M10.2,4.6c0,0,0,0.1,0,0.1C10.1,4.7,10.1,4.6,10.2,4.6z"/>
		<path fill-rule="evenodd" clip-rule="evenodd" fill="#FFFFFF" d="M9.9,4.6c0,0,0,0.1,0,0.1C9.8,4.7,9.9,4.6,9.9,4.6z"/>
		<path fill-rule="evenodd" clip-rule="evenodd" fill="#FFFFFF" d="M9.8,4.6c0,0,0,0.1,0,0.2C9.8,4.7,9.8,4.7,9.8,4.6z"/>
		<path fill-rule="evenodd" clip-rule="evenodd" fill="#FFFFFF" d="M10.2,4.7C10.2,4.7,10.2,4.8,10.2,4.7
			C10.2,4.8,10.2,4.7,10.2,4.7z"/>
		<path fill-rule="evenodd" clip-rule="evenodd" fill="#FFFFFF" d="M10.1,4.8c0,0.2,0,0.2,0,0.2C10.1,4.9,10.1,4.9,10.1,4.8z"/>
		<path fill-rule="evenodd" clip-rule="evenodd" fill="#FFFFFF" d="M9.8,4.8c0,0.1,0,0.2,0,0.2C9.8,4.9,9.8,4.9,9.8,4.8z"/>
		<path fill-rule="evenodd" clip-rule="evenodd" fill="#FFFFFF" d="M9.9,5C9.9,5,9.9,5,9.9,5C9.9,5.1,9.9,5,9.9,5z"/>
		<path fill-rule="evenodd" clip-rule="evenodd" fill="#FFFFFF" d="M9.9,5.1C9.9,5.1,9.9,5.1,9.9,5.1C9.9,5.1,9.9,5.1,9.9,5.1z"/>
		<path fill-rule="evenodd" clip-rule="evenodd" fill="#FFFFFF" d="M9.9,5.2C9.9,5.2,9.9,5.3,9.9,5.2C9.9,5.2,9.9,5.2,9.9,5.2
			C9.9,5.2,9.9,5.2,9.9,5.2z"/>
		<path fill-rule="evenodd" clip-rule="evenodd" fill="#FFFFFF" d="M10.1,5.4C10.1,5.3,10.1,5.2,10.1,5.4L10.1,5.4z"/>
		<path fill-rule="evenodd" clip-rule="evenodd" fill="#FFFFFF" d="M10.2,5.5c0,0,0,0.1,0,0.1C10.3,5.6,10.2,5.5,10.2,5.5z"/>
		<path fill-rule="evenodd" clip-rule="evenodd" fill="#FFFFFF" d="M10.3,5.5C10.3,5.5,10.3,5.6,10.3,5.5L10.3,5.5z"/>
		<path fill-rule="evenodd" clip-rule="evenodd" fill="#FFFFFF" d="M10.4,5.6C10.4,5.6,10.4,5.6,10.4,5.6
			C10.4,5.6,10.4,5.6,10.4,5.6z"/>
		<path fill-rule="evenodd" clip-rule="evenodd" fill="#FFFFFF" d="M10.5,5.9C10.5,5.9,10.5,6,10.5,5.9L10.5,5.9z"/>
		<path fill-rule="evenodd" clip-rule="evenodd" fill="#FFFFFF" d="M10.6,3.6C10.6,3.6,10.6,3.6,10.6,3.6c0,0.1-0.1,0.1-0.1,0.2
			C10.6,3.7,10.6,3.6,10.6,3.6z"/>
		<path fill-rule="evenodd" clip-rule="evenodd" fill="#FFFFFF" d="M10.1,4.7C10.1,4.7,10.1,4.7,10.1,4.7
			C10.1,4.7,10.1,4.7,10.1,4.7c0,0.1,0,0.1,0,0.2c0,0,0,0,0,0c0,0.1,0,0.1,0,0.3C10.1,5,10.1,4.7,10.1,4.7
			C10.1,4.6,10.1,4.7,10.1,4.7C10.1,4.7,10.1,4.7,10.1,4.7z"/>
		<path fill-rule="evenodd" clip-rule="evenodd" fill="#FFFFFF" d="M9.8,4.8C9.8,4.8,9.8,4.8,9.8,4.8C9.9,4.8,9.8,4.8,9.8,4.8
			C9.8,4.8,9.8,4.7,9.8,4.8z"/>
		<path fill-rule="evenodd" clip-rule="evenodd" fill="#FFFFFF" d="M10,5.7L10,5.7c0,0,0,0.1,0,0.1l0,0l0,0l0,0c0,0,0,0.1,0,0.1
			c0-0.1,0-0.1,0-0.1l0,0l0,0l0,0C10,5.7,10,5.6,10,5.7C9.9,5.6,9.9,5.6,9.9,5.5C9.9,5.3,9.9,5.1,9.8,4.9c0,0.1,0,0.3,0.1,0.4
			c0,0,0,0,0,0C9.9,5.4,9.9,5.6,10,5.7z"/>
		<path fill-rule="evenodd" clip-rule="evenodd" fill="#FFFFFF" d="M10.3,5.5C10.3,5.6,10.3,5.6,10.3,5.5
			C10.3,5.6,10.3,5.6,10.3,5.5z"/>
		<path fill-rule="evenodd" clip-rule="evenodd" fill="#FFFFFF" d="M30.7,4.1c0,0,0.1,0.1,0.1,0.1c0.1,0.1,0.1,0.1,0.2,0.3
			c0.1,0.1,0.2,0.1,0.2,0.2c0,0,0.1,0.1,0.1,0.1c0.1,0.1,0.2,0.2,0.2,0.3c0.1,0.1,0.1,0.2,0.2,0.3c0,0,0,0,0,0
			c0.1,0.2,0.2,0.3,0.3,0.6c0,0,0,0,0.1,0.1c0,0,0,0.1,0,0.1c0,0.1,0.1,0,0.1,0.1c0,0,0,0,0,0c0.1,0,0.1,0,0.2,0
			c0-0.1,0.1-0.1,0.1-0.1c0,0,0-0.1,0-0.2c0-0.1,0-0.1,0-0.2c0,0,0-0.1,0-0.1c0-0.1,0-0.2,0-0.3c0,0,0,0,0,0c0-0.2-0.1-0.5-0.2-0.7
			c0,0,0-0.1-0.1-0.1c0-0.1-0.1-0.2-0.4-0.6c0,0,0,0-0.1-0.1c0,0-0.1-0.1-0.1-0.2c0,0-0.1-0.1-0.1-0.1c-0.1-0.1-0.1-0.2-0.2-0.2
			c0,0-0.1-0.1-0.1-0.1C31.1,3.1,31,3,30.9,2.9c-0.1-0.1-0.1-0.1-0.1-0.1c0,0-0.1-0.1-0.1,0c-0.2-0.1-0.5-0.3-0.7-0.5
			c-0.1-0.1-0.3-0.2-0.5-0.3c0,0-0.1-0.1-0.1-0.1c-0.1,0-0.1-0.1-0.2-0.1C29,1.8,29,1.8,28.9,1.7c-0.1-0.1-0.3-0.1-0.4-0.2
			c0,0-0.1-0.1-0.1-0.1c0,0-0.1,0-0.1-0.1c0,0-0.1-0.1-0.2-0.1c0,0-0.1,0-0.1,0c0,0-0.1,0-0.1,0c0,0-0.1,0-0.1,0
			c-0.2-0.1-0.3-0.1-0.5-0.2c-0.3-0.1-0.5-0.2-0.9-0.3c-0.1,0-0.1,0-0.2-0.1c0,0,0,0-0.1,0c-0.2-0.1-0.4-0.1-0.5-0.1c0,0,0,0,0,0
			c-0.2-0.1-0.6-0.1-0.8-0.1c-0.2,0-0.3,0-0.5-0.1c-0.1,0-0.1,0-0.3,0c-0.3,0-0.3,0-0.5-0.1c0,0-0.1,0-0.1,0c-0.1,0-0.1,0-0.3,0
			c-0.7,0-0.8-0.1-1-0.1c0,0-0.2,0-0.3,0c-0.2,0-0.3,0-0.5,0c0,0-0.1,0-0.1,0c-0.1,0-0.2,0-0.3,0c-0.2,0-0.3,0-0.8,0
			c-0.7,0-0.8,0-1.2,0c-0.1,0-0.2,0-0.2,0c-0.3,0-0.5,0-0.9,0.1c-1.2,0.1-2.4,0.3-3.5,0.5c-0.1,0-0.2,0-0.3,0.1c0,0-0.1,0-0.1,0
			c-0.1,0-0.3,0.1-0.5,0.1c0,0-0.2,0-0.2,0.1c0,0,0,0,0,0c-0.1,0.1-0.5,0.2-0.7,0.2c0,0,0,0,0,0c0,0-0.1,0-0.1,0
			c-0.3,0.1-0.5,0.3-0.8,0.4c0,0-0.1,0.1-0.1,0.1c0,0,0.1-0.1,0.1-0.1c-0.1,0-0.2,0.1-0.2,0.2C11,2,11,2.1,10.9,2.1c0,0,0,0,0,0
			c-0.1,0.1-0.2,0.2-0.3,0.3c0,0-0.1,0.2-0.2,0.2c0,0,0,0,0,0c-0.1,0.1-0.1,0.1-0.2,0.3c0,0,0,0,0,0.1c0,0,0,0,0,0c0,0,0,0,0,0
			c0,0.1,0,0,0,0.1c0,0.1-0.1,0.1-0.1,0.2c0,0.1-0.1,0.1-0.1,0.2c0,0,0,0.1-0.1,0.2c0,0.1,0,0.1-0.1,0.2c0,0,0,0,0,0
			C9.9,4,9.8,4.3,9.8,4.4C9.8,4.2,9.9,4,10,3.8c0,0,0-0.1,0.1-0.1c0,0,0,0,0,0c0,0,0,0,0,0c0,0,0,0,0,0c0.1-0.2,0.1-0.3,0.2-0.5
			c0,0,0,0,0,0c0-0.1,0,0,0.1-0.2c0,0,0.1-0.1,0.1,0c-0.1,0.2-0.3,0.5-0.4,0.7C10,3.7,10,3.8,10,3.8c0-0.1,0.1-0.2,0.1-0.3
			c0.1-0.1,0.1-0.3,0.2-0.4c0,0,0-0.1,0-0.1c0,0,0-0.1,0-0.1c0,0,0,0,0,0c0,0,0.1-0.1,0.1-0.1c0-0.1,0.1-0.2,0.2-0.2c0,0,0,0,0,0
			c-0.1,0.1-0.1,0.1-0.2,0.2c0,0,0,0,0,0c0,0,0,0,0,0.1c0.1-0.1,0.1-0.1,0.1,0c-0.2,0.2-0.3,0.5-0.4,0.7c0,0,0,0,0,0.1
			C10.1,3.8,10,4,10,4.3C10,4,10.1,3.7,10.3,3.4c0,0,0,0,0,0c0.1-0.1,0.1-0.3,0.2-0.4c0,0,0.1-0.1,0.1-0.1c0.2-0.3,0.4-0.4,0.7-0.6
			c0,0,0,0,0,0c0,0,0,0,0,0.1c0,0-0.1,0.1-0.1,0.1c-0.2,0.2-0.4,0.5-0.6,0.8c0,0,0,0,0,0c0.1-0.1,0.2-0.3,0.3-0.4c0.1,0,0,0,0,0.1
			c-0.1,0.2-0.3,0.5-0.4,0.6c-0.2,0.6-0.3,1.2-0.2,1.8c-0.1-0.3-0.1-0.7,0-1c0,0,0,0,0,0c0.1-0.3,0.2-0.6,0.3-0.9
			c0.1-0.1,0.2-0.3,0.2-0.4c0,0,0,0.1-0.1,0.2c0.1-0.1,0.1-0.2,0.2-0.3c0-0.1,0.1-0.2,0.2-0.2c0,0,0,0,0,0c0,0,0,0,0-0.1
			c0,0,0,0,0.1-0.1c0,0,0,0,0.1-0.1c0.2-0.2,0.3-0.3,0.5-0.4c0,0,0.1,0,0.1,0c0,0,0,0,0,0c0,0,0,0,0,0c0.1,0,0.2-0.1,0.3-0.1
			c0.2-0.1,0.5-0.2,0.7-0.2c0,0,0,0,0,0c0.3-0.1,0.7-0.2,1.1-0.2c0,0,0,0,0,0c0.1,0,0,0,0.1,0c0,0,0.1,0,0.1,0
			c0.5-0.1,0.9-0.2,1.3-0.2c0.4-0.1,0.8-0.1,1.2-0.2c0.3,0,0.6-0.1,0.9-0.1c0.4,0,0.7-0.1,1-0.1c0.2,0,0.4,0,0.7,0c0,0,0.1,0,0.1,0
			c0,0,0.2,0,0.2,0c0.1,0,0.4,0,0.5,0l0.6,0c0.1,0,0.2,0,0.3,0c0,0,0.2,0,0.2,0c0.2,0,0.4,0,0.6,0c0.2,0,0.3,0,0.8,0.1
			c0.4,0,0.6,0.1,0.9,0.1c0.2,0.1,0.5,0.1,0.7,0.1c0,0,0.1,0,0.1,0c0.4,0.1,0.8,0.1,1.1,0.2c0.1,0,0.2,0,0.3,0.1
			c0.1,0,0.3,0.1,0.3,0.1c0,0,0.1,0,0.1,0c0.1,0,0.2,0.1,0.3,0.1c0.2,0,0.4,0.1,0.6,0.2c0.2,0.1,0.4,0.2,0.6,0.2
			c0.3,0.1,0.6,0.2,0.9,0.4c0.1,0.1,0.2,0.1,0.3,0.1c0.3,0.2,0.3,0.1,0.3,0.2c0.1,0.1,0.2,0.2,0.4,0.2c0.2,0.1,0.4,0.3,0.5,0.4
			c0,0.1,0.2,0.1,0.3,0.2c0.1,0.1,0,0.1,0.1,0.1c0.1,0.1,0.1,0.1,0.2,0.1C30.5,4,30.6,4,30.7,4.1z M10.5,2.6
			C10.5,2.6,10.5,2.6,10.5,2.6C10.5,2.6,10.6,2.6,10.5,2.6z M10.5,2.7c-0.1,0.1-0.1,0.2-0.2,0.3c0,0,0,0,0,0c0,0-0.1,0.1-0.1,0.1
			c0,0,0.1-0.1,0.1-0.1c0,0,0-0.1,0.1-0.1C10.4,2.8,10.4,2.7,10.5,2.7C10.5,2.7,10.5,2.7,10.5,2.7z"/>
	</g>
	<g>
		<path fill="#FFFFFF" d="M24.5,8.8c0,0-0.3-0.1-0.5-0.1c-0.1,0-0.3-0.1-0.4-0.1c-0.1,0-0.1,0-0.1,0c0,0,0,0,0,0l0,0l0,0l0,0
			l0.4,0.5v0v0v0h-1.1v0v0v0l0.4,0.5l0,0l0,0l0,0c0,0,0,0,0,0c0,0,0.1,0,0.1,0c0.1,0,0.3,0,0.4,0.1c0.3,0.1,0.6,0.1,0.6,0.1
			L24.5,8.8z"/>
		<path fill-rule="evenodd" clip-rule="evenodd" fill="#FFFFFF" d="M23.4,9.6L23.4,9.6C23.4,9.6,23.4,9.6,23.4,9.6z"/>
		<path fill-rule="evenodd" clip-rule="evenodd" fill="#FFFFFF" d="M23.5,8.9C23.5,8.9,23.5,8.9,23.5,8.9L23.5,8.9z"/>
		<path fill-rule="evenodd" clip-rule="evenodd" fill="#FFFFFF" d="M23.5,8.8C23.5,8.9,23.5,8.8,23.5,8.8
			C23.5,8.8,23.5,8.8,23.5,8.8z"/>
		<path fill-rule="evenodd" clip-rule="evenodd" fill="#FFFFFF" d="M23.5,9C23.5,9,23.5,9,23.5,9C23.5,8.9,23.5,9,23.5,9z"/>
		<path fill-rule="evenodd" clip-rule="evenodd" fill="#FFFFFF" d="M23.5,8.8C23.5,8.8,23.5,8.8,23.5,8.8
			C23.5,8.8,23.5,8.8,23.5,8.8z"/>
		<path fill-rule="evenodd" clip-rule="evenodd" fill="#FFFFFF" d="M23.3,9.4C23.3,9.4,23.3,9.4,23.3,9.4
			C23.3,9.4,23.3,9.4,23.3,9.4z"/>
		<path fill-rule="evenodd" clip-rule="evenodd" fill="#FFFFFF" d="M23.4,9.1C23.4,9.2,23.4,9.1,23.4,9.1
			C23.4,9.1,23.4,9.2,23.4,9.1L23.4,9.1C23.4,9.1,23.4,9.1,23.4,9.1z"/>
		<path fill-rule="evenodd" clip-rule="evenodd" fill="#FFFFFF" d="M23.3,9.1C23.3,9.1,23.3,9.1,23.3,9.1L23.3,9.1L23.3,9.1z"/>
		<path fill-rule="evenodd" clip-rule="evenodd" fill="#FFFFFF" d="M23.3,9.2C23.3,9.2,23.3,9.2,23.3,9.2L23.3,9.2
			C23.3,9.2,23.3,9.2,23.3,9.2C23.3,9.2,23.3,9.2,23.3,9.2z"/>
		<path fill-rule="evenodd" clip-rule="evenodd" fill="#FFFFFF" d="M23.3,9.1L23.3,9.1C23.3,9.1,23.3,9.1,23.3,9.1z"/>
		<path fill-rule="evenodd" clip-rule="evenodd" fill="#FFFFFF" d="M23.3,9.4C23.2,9.4,23.2,9.4,23.3,9.4
			C23.2,9.4,23.3,9.4,23.3,9.4z"/>
		<path fill-rule="evenodd" clip-rule="evenodd" fill="#FFFFFF" d="M23.3,9.1C23.3,9.1,23.3,9.1,23.3,9.1
			C23.3,9.1,23.3,9.1,23.3,9.1z"/>
		<path fill-rule="evenodd" clip-rule="evenodd" fill="#FFFFFF" d="M23.3,9.1C23.3,9.1,23.3,9.1,23.3,9.1
			C23.3,9.1,23.3,9.1,23.3,9.1z"/>
		<path fill-rule="evenodd" clip-rule="evenodd" fill="#FFFFFF" d="M23.2,9.5C23.2,9.5,23.2,9.5,23.2,9.5
			C23.2,9.5,23.2,9.5,23.2,9.5z"/>
		<path fill-rule="evenodd" clip-rule="evenodd" fill="#FFFFFF" d="M23.2,9.4C23.2,9.4,23.2,9.4,23.2,9.4
			C23.2,9.4,23.2,9.4,23.2,9.4z"/>
		<path fill-rule="evenodd" clip-rule="evenodd" fill="#FFFFFF" d="M23.3,9.1C23.3,9.1,23.3,9.1,23.3,9.1
			C23.3,9.1,23.3,9.1,23.3,9.1z"/>
		<path fill-rule="evenodd" clip-rule="evenodd" fill="#FFFFFF" d="M23.3,9.2L23.3,9.2C23.3,9.2,23.3,9.2,23.3,9.2z"/>
		<path fill-rule="evenodd" clip-rule="evenodd" fill="#FFFFFF" d="M23.3,9.2C23.3,9.2,23.3,9.2,23.3,9.2
			C23.3,9.2,23.3,9.2,23.3,9.2z"/>
		<path fill-rule="evenodd" clip-rule="evenodd" fill="#FFFFFF" d="M23.3,9.1C23.3,9.1,23.3,9.1,23.3,9.1L23.3,9.1L23.3,9.1z"/>
		<path fill-rule="evenodd" clip-rule="evenodd" fill="#FFFFFF" d="M23.2,9.3C23.2,9.3,23.2,9.3,23.2,9.3L23.2,9.3z"/>
		<path fill-rule="evenodd" clip-rule="evenodd" fill="#FFFFFF" d="M23.2,9.4C23.2,9.4,23.2,9.4,23.2,9.4L23.2,9.4z"/>
		<path fill-rule="evenodd" clip-rule="evenodd" fill="#FFFFFF" d="M23.2,9.4C23.2,9.4,23.2,9.4,23.2,9.4L23.2,9.4z"/>
		<path fill-rule="evenodd" clip-rule="evenodd" fill="#FFFFFF" d="M23.2,9.6C23.2,9.6,23.2,9.6,23.2,9.6
			C23.2,9.6,23.2,9.6,23.2,9.6z"/>
		<path fill-rule="evenodd" clip-rule="evenodd" fill="#FFFFFF" d="M23.1,9.6L23.1,9.6c-0.2-0.2-0.3-0.4-0.4-0.4l0,0l0,0l0,0l0,0
			L23.1,9.6L23.1,9.6L23.1,9.6z"/>
		<path fill-rule="evenodd" clip-rule="evenodd" fill="#FFFFFF" d="M23.3,9.6C23.3,9.6,23.3,9.6,23.3,9.6
			C23.3,9.6,23.3,9.6,23.3,9.6C23.3,9.6,23.3,9.6,23.3,9.6z"/>
		<path fill-rule="evenodd" clip-rule="evenodd" fill="#FFFFFF" d="M23.3,9.3L23.3,9.3L23.3,9.3L23.3,9.3L23.3,9.3
			C23.2,9.3,23.3,9.3,23.3,9.3C23.3,9.3,23.3,9.3,23.3,9.3C23.3,9.3,23.3,9.3,23.3,9.3C23.3,9.3,23.3,9.3,23.3,9.3z"/>
		<path fill-rule="evenodd" clip-rule="evenodd" fill="#FFFFFF" d="M23.3,9.1L23.3,9.1C23.3,9.1,23.3,9.1,23.3,9.1
			C23.3,9.1,23.3,9.1,23.3,9.1z"/>
		<path fill-rule="evenodd" clip-rule="evenodd" fill="#FFFFFF" d="M23.3,9.1L23.3,9.1C23.3,9.1,23.3,9.1,23.3,9.1
			C23.3,9.1,23.3,9.1,23.3,9.1L23.3,9.1C23.3,9.1,23.3,9.1,23.3,9.1C23.3,9.1,23.3,9.1,23.3,9.1L23.3,9.1
			C23.3,9.1,23.3,9.1,23.3,9.1z"/>
		<path fill-rule="evenodd" clip-rule="evenodd" fill="#FFFFFF" d="M23.2,9.5C23.2,9.5,23.2,9.5,23.2,9.5
			C23.2,9.5,23.2,9.4,23.2,9.5z"/>
		<path fill-rule="evenodd" clip-rule="evenodd" fill="#FFFFFF" d="M24.2,9.8L24.2,9.8C24.2,9.8,24.2,9.8,24.2,9.8
			C24.2,9.8,24.2,9.8,24.2,9.8L24.2,9.8C24.3,9.8,24.3,9.8,24.2,9.8C24.3,9.8,24.3,9.8,24.2,9.8l0.1-0.1c0,0,0-0.1,0.1-0.1
			c0,0,0,0,0-0.1l0,0c0,0,0-0.1,0-0.1c0,0,0,0,0,0c0-0.1,0-0.1,0-0.2c0,0,0-0.1,0-0.1l0-0.1c0,0,0,0,0-0.1c0,0,0,0,0,0c0,0,0,0,0,0
			c0,0,0,0,0,0c0,0,0-0.1,0-0.1l0,0c0,0,0,0,0,0l0,0c0,0,0,0,0,0l0,0c0,0,0,0,0,0l0,0c0,0,0,0,0,0c0,0,0,0,0,0s0,0,0,0c0,0,0,0,0,0
			c0,0,0,0,0,0l0,0l0,0c0,0,0,0,0,0c0,0,0,0,0,0l0,0l0,0l0,0l0,0l0,0l0,0c0,0,0,0,0,0c0,0,0,0,0,0c0,0,0,0,0,0l0,0c0,0,0,0,0,0l0,0
			c0,0,0,0,0,0c0,0,0,0,0,0l0,0c0,0,0,0,0,0l0,0c0,0,0,0,0,0c0,0,0,0,0,0c0,0,0,0,0,0c0,0,0,0,0,0l0,0l0,0c0,0,0,0,0,0c0,0,0,0,0,0
			c0,0,0,0,0,0c0,0,0,0,0,0c-0.1,0-0.1,0-0.1,0c0,0,0,0,0,0c0,0,0,0,0,0c0,0,0,0,0,0c0,0,0,0,0,0c0,0,0,0,0,0c0,0,0,0,0,0l0,0
			c0,0,0,0,0,0c0,0,0,0,0,0c0,0,0,0,0,0c0,0,0,0,0,0c0,0,0,0,0,0c0,0,0,0,0,0l0,0c0,0,0,0,0,0c0,0,0,0,0,0c0,0,0,0,0,0c0,0,0,0,0,0
			c0,0,0,0,0,0l0,0c0,0,0,0,0,0c0,0,0,0,0,0c0,0,0,0,0,0c0,0,0,0,0,0l0,0l0,0l0,0c0,0,0,0,0,0c0,0,0,0,0,0c0,0,0,0,0,0c0,0,0,0,0,0
			l0,0c0,0,0,0,0,0l0,0l0,0c0,0,0,0,0,0c0,0,0,0,0,0c0,0,0,0,0,0c0,0,0,0,0,0c0,0,0,0,0,0c0,0,0,0,0,0l0,0l0,0l0,0l0,0c0,0,0,0,0,0
			l0,0c0,0,0,0,0,0l0,0c0,0,0,0,0,0c0,0,0,0,0,0c0,0,0,0,0,0c0,0,0,0,0,0c0,0,0,0,0,0c0,0,0,0,0,0l0,0c0,0,0,0,0,0l0,0c0,0,0,0,0,0
			c0,0,0,0,0,0l0,0c0,0,0,0,0,0c0,0,0,0,0,0c0,0,0,0,0,0c0,0,0,0,0,0c0,0,0,0.1,0,0.1c0,0,0,0,0,0c0,0-0.1,0-0.1,0c0,0,0,0,0,0
			c0,0,0,0,0,0c0,0,0,0,0,0c0,0,0,0,0,0c0,0,0,0,0,0c0,0,0,0,0,0c0,0,0,0,0,0l0,0l0,0l0,0c0,0,0,0,0,0c0,0,0,0,0,0l0,0l0,0l0,0l0,0
			c0,0,0,0,0,0l0,0c0,0,0,0,0,0l0,0l0,0c0,0,0,0,0,0c0,0,0,0,0.1,0c0,0,0,0,0.1,0c0,0,0,0,0,0c0,0,0,0,0,0c0,0,0,0,0,0l0,0l0,0
			c0,0,0,0,0,0c0,0,0,0,0,0l0,0l0,0c0,0,0,0,0,0c0,0,0,0,0,0c0,0,0,0,0,0c0,0,0,0,0,0l0,0c0,0,0,0,0,0c0,0,0,0,0,0c0,0,0,0,0,0l0,0
			c0,0,0,0,0,0c0,0,0,0,0,0c0,0,0,0,0,0c0,0,0,0,0,0c0,0,0,0,0,0c0,0,0,0,0,0c0,0,0,0,0,0C24.2,9.7,24.2,9.7,24.2,9.8
			C24.2,9.8,24.2,9.7,24.2,9.8C24.2,9.8,24.2,9.8,24.2,9.8C24.2,9.8,24.2,9.8,24.2,9.8C24.2,9.8,24.2,9.8,24.2,9.8z M23.4,9L23.4,9
			C23.4,9,23.4,9,23.4,9z M23.4,9C23.4,9,23.4,9,23.4,9L23.4,9C23.4,9,23.4,9,23.4,9C23.4,9,23.4,9,23.4,9C23.4,9,23.4,9,23.4,9
			C23.4,9,23.4,9,23.4,9C23.4,9,23.4,9,23.4,9z"/>
	</g>
</g>
</svg>
