<?xml version="1.0" encoding="utf-8"?>
<!-- Generator: Adobe Illustrator 18.1.1, SVG Export Plug-In . SVG Version: 6.00 Build 0)  -->
<svg version="1.1" id="Layer_1" xmlns="http://www.w3.org/2000/svg" xmlns:xlink="http://www.w3.org/1999/xlink" x="0px" y="0px"
	 viewBox="0 0 43.2 44.4" enable-background="new 0 0 43.2 44.4" xml:space="preserve">
<g>
	<g>
		<path fill="none" d="M16.3,3.4c0,0-0.3,0.2-0.8,0.7c-0.5,0.4-1.2,1.1-2.1,2c-0.9,0.9-1.9,2-2.9,3.4c-1.1,1.4-2.1,3-3.4,4.7
			c-1.3,1.6-2.8,3.3-4.3,5.4c-1.4,2-2.7,4.4-2.9,7.3c0,0.7,0,1.4,0.1,2.1c0.1,0.7,0.5,1.5,0.9,2.1c0.4,0.5,0.9,1.1,1.3,1.6l0.3,0.4
			c0.1,0.1,0.2,0.3,0.5,0.5c0.3,0.2,0.6,0.2,0.8,0.2l0.5,0c1.4,0,2.9,0.1,4.3-0.4c1.4-0.5,2.7-1.2,3.8-2.1c1.2-0.9,2.2-1.9,3.1-3
			c0.9-1.1,1.6-2.3,2.4-3.5c0.9-1,1.8-2.1,2.7-3.1c0.9-1.1,1.7-2.1,2.5-3.2c1.5-2.2,2.8-4.4,3.9-6.6c0.5-1.1,1-2.3,1.1-3.5
			c0.2-1.2,0.1-2.4-0.2-3.5c-0.3-1.1-0.8-2.1-1.4-2.9c-0.3-0.4-0.6-0.8-1.1-1.1c-0.4-0.3-0.9-0.5-1.4-0.6c-1-0.2-1.9,0-2.6,0.2
			c-0.8,0.2-1.4,0.5-2,0.8c-1.1,0.6-1.9,1.2-2.5,1.6C16.6,3.1,16.3,3.4,16.3,3.4L17,4.2c0,0,0.3-0.2,0.8-0.6c0.5-0.4,1.3-1,2.3-1.5
			c0.5-0.3,1.1-0.5,1.8-0.7C22.5,1.1,23.3,1,24,1.1c0.7,0.1,1.3,0.6,1.8,1.3c0.5,0.7,1,1.6,1.3,2.5c0.3,0.9,0.3,2,0.2,3
			c-0.2,1.1-0.6,2.1-1.1,3.2c-1,2.1-2.3,4.3-3.8,6.5c-0.8,1.1-1.6,2.1-2.4,3.2c-0.9,1-1.8,2.1-2.7,3.1c-0.8,1.2-1.5,2.4-2.3,3.4
			c-0.9,1.1-1.8,2-2.9,2.8c-1.1,0.8-2.3,1.5-3.5,1.9c-1.2,0.5-2.6,0.4-3.9,0.4c-0.3,0-0.8,0-0.7,0c0,0-0.1-0.1-0.2-0.3l-0.3-0.4
			c-0.4-0.5-0.9-1.1-1.3-1.6c-0.4-0.5-0.6-1-0.7-1.6c-0.1-0.6-0.1-1.2-0.1-1.9c0.2-2.5,1.3-4.8,2.7-6.7c1.4-1.9,2.9-3.6,4.2-5.3
			c1.3-1.7,2.3-3.4,3.4-4.7c1-1.3,2-2.4,2.9-3.3c0.8-0.9,1.5-1.5,2-2C16.8,4.4,17,4.2,17,4.2L16.3,3.4z"/>
		<path fill-rule="evenodd" clip-rule="evenodd" fill="#FFFFFF" d="M27.2,8.9c0-0.1,0-0.2,0.1-0.2C27.2,8.7,27.2,8.9,27.2,8.9z"/>
		<path fill-rule="evenodd" clip-rule="evenodd" fill="#FFFFFF" d="M28,5.4C28,5.4,28,5.1,28,5.2C28,5.3,28,5.4,28,5.4z"/>
		<path fill-rule="evenodd" clip-rule="evenodd" fill="#FFFFFF" d="M28,5.1c0,0,0-0.2-0.1-0.3C27.9,4.8,28,5,28,5.1z"/>
		<path fill-rule="evenodd" clip-rule="evenodd" fill="#FFFFFF" d="M27.5,4c0-0.1-0.1-0.2-0.1-0.3C27.4,3.8,27.5,3.9,27.5,4z"/>
		<path fill-rule="evenodd" clip-rule="evenodd" fill="#FFFFFF" d="M27.4,3.5c-0.1-0.2-0.1-0.3-0.2-0.4C27.3,3.1,27.4,3.3,27.4,3.5z
			"/>
		<path fill-rule="evenodd" clip-rule="evenodd" fill="#FFFFFF" d="M26.3,2.6c-0.1-0.2-0.4-0.6-0.5-0.7C25.9,2.1,26.1,2.4,26.3,2.6z
			"/>
		<path fill-rule="evenodd" clip-rule="evenodd" fill="#FFFFFF" d="M26.1,1.9c-0.2-0.2-0.6-0.6-0.9-0.8c0-0.1,0.4,0.3,0.5,0.4
			c0,0.1,0.1,0.1,0.2,0.2C25.9,1.8,26,1.8,26.1,1.9z"/>
		<path fill-rule="evenodd" clip-rule="evenodd" fill="#FFFFFF" d="M22.9,0.5c0,0,0,0-0.1,0c0,0,0,0,0,0L22.9,0.5z"/>
		<path fill-rule="evenodd" clip-rule="evenodd" fill="#FFFFFF" d="M21.4,1c-0.2,0.1-0.7,0.3-1,0.4c0,0,0,0-0.1,0.1
			c-0.2,0.1-0.5,0.3-0.2,0.1C20.5,1.3,20.9,1.1,21.4,1z"/>
		<path fill-rule="evenodd" clip-rule="evenodd" fill="#FFFFFF" d="M21.2,0.9C21,0.9,21,1,20.9,1C20.9,1,21.1,0.9,21.2,0.9z"/>
		<path fill-rule="evenodd" clip-rule="evenodd" fill="#FFFFFF" d="M21,1.3c-0.2,0.1-0.2,0.1-0.3,0.1C20.7,1.4,20.9,1.4,21,1.3z"/>
		<path fill-rule="evenodd" clip-rule="evenodd" fill="#FFFFFF" d="M20.9,1c-0.1,0-0.3,0.1-0.4,0.2C20.4,1.2,20.8,1.1,20.9,1z"/>
		<path fill-rule="evenodd" clip-rule="evenodd" fill="#FFFFFF" d="M20.7,1.1c-0.3,0.1-0.3,0.1-0.4,0.2C20.4,1.2,20.6,1.1,20.7,1.1z
			"/>
		<path fill-rule="evenodd" clip-rule="evenodd" fill="#FFFFFF" d="M20.6,1.5c0,0-0.1,0.1-0.2,0.1C20.4,1.6,20.6,1.6,20.6,1.5z"/>
		<path fill-rule="evenodd" clip-rule="evenodd" fill="#FFFFFF" d="M20.5,1.6c-0.3,0.1-0.5,0.3-0.7,0.3C20,1.8,20.2,1.7,20.5,1.6z"
			/>
		<path fill-rule="evenodd" clip-rule="evenodd" fill="#FFFFFF" d="M20.2,1.3c-0.4,0.2-0.5,0.2-0.6,0.3C19.8,1.5,20,1.4,20.2,1.3z"
			/>
		<path fill-rule="evenodd" clip-rule="evenodd" fill="#FFFFFF" d="M19.8,1.6c-0.1,0.1-0.2,0.1-0.3,0.2C19.5,1.8,19.7,1.7,19.8,1.6z
			"/>
		<path fill-rule="evenodd" clip-rule="evenodd" fill="#FFFFFF" d="M19.5,1.8c-0.2,0.1-0.2,0.1-0.3,0.2C19.3,1.9,19.4,1.8,19.5,1.8z
			"/>
		<path fill-rule="evenodd" clip-rule="evenodd" fill="#FFFFFF" d="M19.2,1.9c0,0-0.3,0.2-0.2,0.1C19,2,19,2,19,2
			C19.1,2,19.1,2,19.2,1.9z"/>
		<path fill-rule="evenodd" clip-rule="evenodd" fill="#FFFFFF" d="M18.6,2.5C18.8,2.4,19.1,2.3,18.6,2.5L18.6,2.5z"/>
		<path fill-rule="evenodd" clip-rule="evenodd" fill="#FFFFFF" d="M18.3,2.9c-0.2,0.1-0.3,0.2-0.4,0.3C18,3.1,18.3,2.9,18.3,2.9z"
			/>
		<path fill-rule="evenodd" clip-rule="evenodd" fill="#FFFFFF" d="M18.2,2.9c0,0-0.2,0.2-0.2,0.1L18.2,2.9z"/>
		<path fill-rule="evenodd" clip-rule="evenodd" fill="#FFFFFF" d="M18,3.3c-0.1,0.1-0.1,0.1-0.2,0.2C17.8,3.4,18,3.3,18,3.3z"/>
		<path fill-rule="evenodd" clip-rule="evenodd" fill="#FFFFFF" d="M17.2,3.9C16.9,4.1,16.8,4.2,17.2,3.9L17.2,3.9z"/>
		<path fill-rule="evenodd" clip-rule="evenodd" fill="#FFFFFF" d="M24.6,1.3c-0.1,0-0.1,0-0.2-0.1c-0.1,0-0.3-0.1-0.4-0.1
			C24.3,1.1,24.4,1.2,24.6,1.3z"/>
		<path fill-rule="evenodd" clip-rule="evenodd" fill="#FFFFFF" d="M20.7,1.4c-0.1,0-0.1,0-0.2,0.1c0,0,0,0,0,0
			c-0.2,0.1-0.3,0.1-0.4,0.2c0,0,0,0,0,0c-0.2,0.1-0.4,0.2-0.8,0.4c0.4-0.2,1.2-0.7,1.6-0.8c0,0-0.4,0.1-0.4,0.2
			C20.6,1.5,20.8,1.4,20.7,1.4z"/>
		<path fill-rule="evenodd" clip-rule="evenodd" fill="#FFFFFF" d="M20.2,1.3C20.2,1.4,20.2,1.3,20.2,1.3c0,0-0.2,0.1-0.2,0.1
			C20.1,1.4,20.6,1.2,20.2,1.3z"/>
		<path fill-rule="evenodd" clip-rule="evenodd" fill="#FFFFFF" d="M17.8,2.9L17.8,2.9c-0.2,0.1-0.3,0.2-0.7,0.5
			c0.2-0.2,0.7-0.6,0.9-0.7c0.1,0,0.1-0.1,0.2-0.1c0.6-0.4,1.2-0.8,1.8-1.1c-0.3,0.2-0.9,0.5-1.2,0.7c-0.1,0,0,0,0,0
			C18.6,2.3,18.1,2.6,17.8,2.9z"/>
		<path fill-rule="evenodd" clip-rule="evenodd" fill="#FFFFFF" d="M18.2,3c-0.1,0.1-0.1,0.1-0.2,0.1C18,3.2,18.1,3.1,18.2,3z"/>
		<path fill-rule="evenodd" clip-rule="evenodd" fill="#FFFFFF" d="M10.4,11.4c0.1-0.1,0.2-0.3,0.3-0.5c0.2-0.3,0.5-0.6,0.7-1
			c0.2-0.3,0.4-0.6,0.7-0.9c0.2-0.2,0.2-0.3,0.4-0.5c0.4-0.4,0.7-0.8,0.8-1c0.3-0.3,0.6-0.7,0.8-0.9c0.1-0.1,0.1-0.1,0.1-0.1
			c0.6-0.7,0.9-1.1,1.7-1.8c0.1-0.1,0.1-0.1,0.2-0.3c0.1-0.1,0.1-0.1,0.2-0.2c0.1-0.2,0-0.1,0.3-0.4c0,0,0,0-0.1,0
			c0-0.1-0.2,0-0.1-0.1c-0.2,0.2-0.2,0.1-0.4,0.2c-0.2,0.1-0.3,0.2-0.5,0.3c-0.2,0.1-0.3,0.2-0.5,0.3c0,0-0.2,0.2-0.2,0.2
			c-0.2,0.2-0.4,0.4-0.6,0.6c0,0-0.1,0.1-0.1,0.1c-0.5,0.4-1,0.9-1.6,1.5c-0.1,0.1-0.2,0.2-0.2,0.3c-0.3,0.4-0.7,0.8-1.3,1.5
			C11,8.9,11,8.9,10.9,9c-0.1,0.1-0.3,0.3-0.5,0.6c0,0-0.2,0.3-0.3,0.4c-0.2,0.3-0.4,0.5-0.6,0.8c0,0.1-0.2,0.3-0.2,0.4
			c-0.3,0.4-0.6,0.9-0.9,1.2c-0.1,0.2-0.2,0.3-0.3,0.4C8,13,7.9,13.1,8,13.1c-0.2,0.4-1,1.4-1.5,2c-0.5,0.6-0.7,0.9-1,1.3
			c-0.1,0.1-0.2,0.2-0.2,0.3c-0.1,0.1-0.3,0.4-0.4,0.5c-0.3,0.3-0.4,0.5-0.7,0.9c-0.3,0.4-0.6,0.7-0.8,1.1c-0.1,0.1-0.2,0.3-0.3,0.4
			c-0.1,0.1-0.2,0.3-0.3,0.4c-0.1,0.1-0.2,0.3-0.3,0.4c-0.1,0.1-0.1,0.2-0.2,0.3C2.2,20.7,2.1,20.9,2,21c0,0.1-0.2,0.3-0.2,0.4
			c-0.3,0.5-0.5,1-0.7,1.5c-0.4,0.9-0.6,1.6-0.8,2.7c0,0.3-0.1,0.5-0.1,0.8c0,0.1,0,0.1,0,0.2c-0.1,0.6,0,1.2,0,1.8c0,0,0,0.1,0,0.1
			c0,0.4,0.1,0.9,0.3,1.3c0.2,0.5,0.5,0.8,0.7,1.1c0.3,0.4,0.7,0.8,1,1.3c0.2,0.2,0.3,0.4,0.5,0.6L3,33.1c0.1,0.1,0.4,0.3,0.6,0.3
			c0.4,0.1,0.6,0,0.9,0c0.1,0,0.3,0,0.4,0c0.3,0,0.5,0,0.8,0c1.1,0,2.4-0.1,3.3-0.6c0.3-0.1,0.5-0.2,0.8-0.4c0.5-0.2,1-0.5,1.5-0.8
			c0.1-0.1,0.2-0.2,0.3-0.2c0.3-0.2,0.5-0.4,0.8-0.6c0.7-0.5,1.3-1.1,1.9-1.7c0.7-0.7,1.7-1.9,2.3-2.9c0.1-0.2,0.3-0.4,0.4-0.7
			c0.2-0.3,0.5-0.8,0.7-1.2c0.3-0.4,0.6-0.7,0.9-1.1c2.5-2.7,4.8-5.9,6.6-9.1c0.2-0.2,0.4-0.6,0.5-0.9c0,0,0.1-0.2,0.2-0.3
			c0.4-0.7,0.5-1,0.7-1.4c0.2-0.5,0.1-0.3,0.3-0.7c0-0.1,0,0.1,0,0c0.1-0.4,0.6-1.6,0.7-2.1c0,0,0,0,0,0c0-0.1,0-0.2,0.1-0.4
			c0.2-1,0.2-1.8,0.1-2.7c0-0.1,0-0.4-0.1-0.5c0,0.2,0.1,0.4,0,0.4c0-0.3-0.1-0.6-0.2-0.8c-0.1-0.3-0.1-0.5-0.2-0.8
			c0-0.1,0,0.1,0-0.1c-0.2-0.4-0.3-0.6-0.5-1c-0.2-0.3-0.3-0.5-0.4-0.6c-0.1-0.1,0.1,0.1,0,0c-0.2-0.3-0.4-0.6-0.7-0.9
			c-0.1-0.1-0.2-0.2-0.2-0.2c-0.1-0.1,0,0-0.1-0.1c-0.1-0.1,0.1,0.1,0,0.1c-0.1-0.1-0.1-0.1-0.2-0.2C25.4,1.1,25.2,1,25,0.8
			c-0.2-0.1-0.5-0.2-0.7-0.3c-0.2,0-0.3-0.1-0.5-0.1c-0.2,0-0.3,0-0.6,0c-0.1,0,0.1,0-0.1,0c-0.7,0-1.4,0.2-1.9,0.4
			c0.8-0.3,1.4-0.4,2.1-0.4c0.1,0,0.3,0,0.4,0c0,0-0.1,0,0,0c0,0,0.1,0,0.2,0c-0.1,0,0,0,0.1,0c0.6,0.1,1.1,0.3,1.5,0.7
			c0.1,0.1,0-0.1,0,0c0.2,0.1,0.3,0.2,0.4,0.4c0,0.1,0.1,0.2,0.1,0.1c-0.2-0.3-0.5-0.6-0.9-0.8c-0.4-0.2-0.8-0.4-1.2-0.4
			c-0.3,0-0.5-0.1-0.7,0c0.4,0,0.7,0,1,0.1c0.4,0.1,0.8,0.3,1.2,0.6c0.1,0.1,0.1,0.1,0.2,0.2c0.1,0.1,0.2,0.2,0.2,0.2
			c0,0,0.1,0.1,0.1,0.1c0.1,0.1,0.2,0.2,0.3,0.4c0.2,0.3,0.4,0.5,0.6,0.9c0,0.1,0,0,0,0c-0.2-0.4-0.3-0.4-0.5-0.8c0,0,0,0.1,0,0.1
			c-0.1-0.1-0.1-0.1-0.2-0.2c0.2,0.3,0.2,0.2,0.1,0.2c-0.5-0.7-1.2-1.3-1.9-1.5c-0.1,0-0.2,0-0.2,0c-0.7-0.1-1.6-0.1-2.3,0.2
			c0.9-0.2,1.9-0.4,2.8,0c0,0,0,0,0.1,0.1c0.4,0.2,0.8,0.5,1,0.8C25.9,1.8,26,1.9,26.1,2c0.7,0.9,1,1.6,1.4,2.6c0,0,0,0.1,0,0.1
			c0-0.1-0.1-0.2-0.1-0.2c-0.1-0.1-0.1-0.2-0.2-0.5c-0.3-0.8-1-1.9-1.8-2.6c-0.1-0.1,0,0,0,0.1c0.4,0.4,0.7,0.7,1,1.2
			c0.1,0.2,0,0-0.3-0.3c-0.2-0.3-0.5-0.7-0.9-0.9C24.9,1.2,24.5,1,24.3,1c-0.9-0.3-2-0.1-3,0.3c-1,0.3-1.9,0.9-2.8,1.5
			c1-0.7,2-1.2,3-1.5c0,0,0,0,0.1,0c1-0.3,2.2-0.4,3-0.1c0.3,0.1,0.9,0.6,1.1,0.9c-0.1,0-0.3-0.3-0.6-0.5c0.3,0.2,0.5,0.5,0.8,0.8
			C26,2.4,26.3,2.8,26.4,3c0,0,0,0,0,0c-0.1-0.1,0.1,0.2,0.1,0.2c0.1,0.1,0.1,0.1,0.1,0.3c0.1,0.2,0.1,0.2,0.2,0.3
			c0.3,0.7,0.6,1.5,0.6,2.2c0,0.1,0,0.2,0,0.3c0,0.1,0,0,0,0.1c0,0.1,0,0,0,0.1c0,0.3,0,0.7,0,1c0,0.8-0.3,1.7-0.5,2.3
			c0,0.1,0,0-0.1,0.1c-0.4,1-0.9,2.1-1.5,3.2c0,0.1,0,0-0.1,0.1c-0.1,0.1-0.1,0.1-0.1,0.2c0,0.1-0.1,0.1-0.1,0.2
			c-0.7,1.2-1.4,2.4-2.2,3.6c-0.7,1.1-1.5,2.2-2.3,3.2c-0.6,0.8-1.2,1.5-1.8,2.2c-0.4,0.5-0.8,0.9-1.1,1.3c-0.4,0.4-0.6,0.9-0.9,1.4
			c-0.5,0.7-0.9,1.4-1.3,2c-0.1,0.1-0.2,0.2-0.2,0.3c-0.1,0.1-0.3,0.3-0.4,0.5c-0.4,0.4-0.7,0.8-1.1,1.2c-0.4,0.4-0.9,0.8-1.4,1.1
			c-0.3,0.2-0.5,0.4-0.8,0.6c-0.2,0.1-0.4,0.2-0.6,0.4c-0.6,0.3-1.1,0.7-1.7,0.9c-0.4,0.1-0.7,0.3-1.1,0.4c-0.4,0.1-0.8,0.1-1.2,0.2
			c-0.5,0-1,0-1.5,0c-0.3,0-0.5,0-0.8,0c-0.2,0-0.5,0-0.7,0c-0.1,0-0.1,0-0.2-0.2c-0.1-0.1-0.2-0.3-0.4-0.4
			c-0.2-0.3-0.5-0.6-0.8-0.9c0,0-0.1-0.1-0.1-0.2c-0.4-0.5-0.8-1-1-1.5C1.1,29,1,28.4,1,27.9c0-0.4,0-0.7,0-1c0-0.4,0-0.7,0.1-1
			c0-0.1,0-0.2,0.1-0.3c0.1-0.3,0.1-0.7,0.3-1.1c0.2-0.6,0.4-1.1,0.7-1.8C2.3,22.2,2.7,21.6,3,21c0.6-0.9,1.2-1.7,1.8-2.5
			c0.2-0.3,0.4-0.5,0.7-0.8c0.4-0.5,0.6-0.7,0.8-1c0.3-0.3,0.6-0.7,0.9-1.1c0.4-0.5,0.5-0.7,1.3-1.6c0.2-0.2,0.4-0.6,0.7-1
			c0.2-0.2,0.2-0.2,0.3-0.3c0.2-0.2,0.3-0.4,0.4-0.6C10.1,11.9,10.2,11.7,10.4,11.4z M26.6,2.5C26.6,2.5,26.6,2.5,26.6,2.5
			C26.7,2.5,26.8,2.7,26.6,2.5z M26.6,2.4c-0.2-0.3-0.5-0.6-0.6-0.8c0,0,0,0.1,0,0c-0.1-0.1-0.2-0.2-0.4-0.4c0,0,0.4,0.3,0.4,0.3
			C26,1.6,26,1.7,26.1,1.8C26.4,2.1,26.4,2.1,26.6,2.4C26.5,2.3,26.6,2.4,26.6,2.4z"/>
	</g>
	<g>
		<path fill="none" d="M31.3,14.8c-2.4,2.1-4.8,4.2-7,6.5c-2.2,2.3-4.4,4.6-6.1,7.4c-0.9,1.4-1.6,2.8-2.1,4.4c-0.6,1.5-1,3.1-1,4.8
			c-0.1,1.7,0.4,3.5,1.5,4.8c0.6,0.7,1.3,1.2,2.2,1.5c0.9,0.3,1.8,0.3,2.6,0.2c1.7-0.3,3.2-1.2,4.5-2.2c1.3-1,2.5-2,3.6-3.2
			c2.3-2.2,4.4-4.6,6.4-7.1c2-2.5,3.8-5.1,5.5-7.8c0.2-0.4,0.4-0.7,0.6-1.1c0.2-0.4,0.3-0.8,0.4-1.2c0.2-0.8,0.4-1.6,0.6-2.4
			c0.1-0.8,0.3-1.6,0.2-2.5c0-0.4-0.1-0.9-0.3-1.3c-0.1-0.2-0.2-0.4-0.3-0.6c-0.1-0.1-0.1-0.2-0.2-0.3l-0.1-0.2
			c0-0.5-0.2-0.8-0.3-1.1c-0.2-0.3-0.4-0.4-0.6-0.6c-0.4-0.3-0.9-0.6-1.4-0.8c-1-0.4-2.2-0.5-3.2-0.3C34.5,12.2,32.8,13.5,31.3,14.8
			l0.7,0.8c1.5-1.2,3.1-2.4,4.8-2.8c0.9-0.2,1.8-0.1,2.6,0.2c0.4,0.2,0.8,0.4,1.1,0.7c0.2,0.1,0.3,0.3,0.4,0.4
			c0.1,0.1,0.1,0.3,0.1,0.3l0.1,0.4l0.1,0.4l0.1,0.1c0,0,0,0,0.1,0.1l0,0l0.1,0.1c0,0.1,0.1,0.1,0.1,0.2c0.1,0.1,0.2,0.3,0.2,0.4
			c0.1,0.3,0.2,0.7,0.2,1c0.1,0.7,0,1.5-0.2,2.2c-0.1,0.8-0.3,1.5-0.5,2.2c-0.1,0.4-0.2,0.7-0.4,1c-0.1,0.3-0.4,0.6-0.6,1
			c-1.7,2.6-3.5,5.2-5.5,7.7c-1.9,2.5-4,4.8-6.3,7c-1.1,1.1-2.3,2.1-3.5,3.1c-1.2,0.9-2.5,1.8-4,2c-1.4,0.2-2.9-0.2-3.8-1.3
			c-0.9-1.1-1.3-2.6-1.2-4.1c0-1.5,0.4-3,1-4.5c0.4-1.5,1.1-2.9,2-4.2c1.7-2.6,3.8-4.9,6-7.2c2.2-2.3,4.5-4.4,6.9-6.4L31.3,14.8z"/>
		<path fill-rule="evenodd" clip-rule="evenodd" fill="#FFFFFF" d="M41.8,20.1c0-0.1,0-0.2,0-0.2C41.8,19.9,41.8,20,41.8,20.1z"/>
		<path fill-rule="evenodd" clip-rule="evenodd" fill="#FFFFFF" d="M42.9,16.7c0-0.1-0.1-0.3,0-0.3C42.9,16.5,42.9,16.6,42.9,16.7z"
			/>
		<path fill-rule="evenodd" clip-rule="evenodd" fill="#FFFFFF" d="M42.8,16.3c0,0,0-0.2-0.1-0.3C42.8,16,42.8,16.2,42.8,16.3z"/>
		<path fill-rule="evenodd" clip-rule="evenodd" fill="#FFFFFF" d="M42.3,15.2c0-0.1-0.1-0.2-0.2-0.2C42.2,15,42.3,15.2,42.3,15.2z"
			/>
		<path fill-rule="evenodd" clip-rule="evenodd" fill="#FFFFFF" d="M42.1,14.7C42.1,14.7,42,14.7,42.1,14.7L42.1,14.7
			c-0.1-0.1-0.2-0.1-0.2-0.2c0,0,0,0,0,0c0,0,0,0,0,0C41.9,14.6,42,14.6,42.1,14.7C42,14.7,42,14.7,42.1,14.7z"/>
		<path fill-rule="evenodd" clip-rule="evenodd" fill="#FFFFFF" d="M41.2,14c-0.1-0.2-0.5-0.5-0.6-0.6C40.9,13.6,41.1,13.8,41.2,14z
			"/>
		<path fill-rule="evenodd" clip-rule="evenodd" fill="#FFFFFF" d="M41,13.4c-0.2-0.2-0.6-0.5-1-0.7c0,0,0.5,0.3,0.6,0.3
			c0.1,0.1,0.1,0.1,0.2,0.1C40.8,13.2,40.9,13.3,41,13.4z"/>
		<path fill-rule="evenodd" clip-rule="evenodd" fill="#FFFFFF" d="M37.7,12.1c0,0,0,0-0.1,0c0,0,0,0,0,0L37.7,12.1z"/>
		<path fill-rule="evenodd" clip-rule="evenodd" fill="#FFFFFF" d="M36.3,12.4c-0.2,0.1-0.7,0.3-1,0.4c0,0,0,0-0.1,0.1
			C35,12.9,34.6,13.1,35,13C35.4,12.7,35.8,12.6,36.3,12.4z"/>
		<path fill-rule="evenodd" clip-rule="evenodd" fill="#FFFFFF" d="M36,12.4c-0.1,0-0.2,0.1-0.3,0.1C35.8,12.4,36,12.4,36,12.4z"/>
		<path fill-rule="evenodd" clip-rule="evenodd" fill="#FFFFFF" d="M35.8,12.8c0,0-0.2,0.1-0.3,0.1C35.6,12.9,35.7,12.8,35.8,12.8z"
			/>
		<path fill-rule="evenodd" clip-rule="evenodd" fill="#FFFFFF" d="M35.8,12.5c-0.2,0.1-0.2,0.1-0.4,0.2
			C35.3,12.7,35.6,12.6,35.8,12.5z"/>
		<path fill-rule="evenodd" clip-rule="evenodd" fill="#FFFFFF" d="M35.6,12.5c-0.3,0.1-0.3,0.1-0.4,0.2
			C35.3,12.7,35.5,12.6,35.6,12.5z"/>
		<path fill-rule="evenodd" clip-rule="evenodd" fill="#FFFFFF" d="M35.5,13c0,0-0.1,0.1-0.2,0.1C35.3,13.1,35.4,13,35.5,13z"/>
		<path fill-rule="evenodd" clip-rule="evenodd" fill="#FFFFFF" d="M35.3,13c-0.1,0.1-0.5,0.2-0.7,0.3C34.9,13.2,35.1,13.1,35.3,13z
			"/>
		<path fill-rule="evenodd" clip-rule="evenodd" fill="#FFFFFF" d="M35.1,12.8C34.7,13,34.6,13,34.5,13C34.7,13,34.9,12.8,35.1,12.8
			z"/>
		<path fill-rule="evenodd" clip-rule="evenodd" fill="#FFFFFF" d="M34.7,13.1c-0.1,0.1-0.2,0.1-0.3,0.2
			C34.4,13.2,34.6,13.1,34.7,13.1z"/>
		<path fill-rule="evenodd" clip-rule="evenodd" fill="#FFFFFF" d="M34.4,13.2c-0.1,0.1-0.1,0.1-0.3,0.2
			C34.2,13.4,34.3,13.3,34.4,13.2z"/>
		<path fill-rule="evenodd" clip-rule="evenodd" fill="#FFFFFF" d="M34.1,13.4c0,0-0.3,0.2-0.2,0.1c0.1,0,0.1,0,0.1,0
			C34,13.4,34,13.4,34.1,13.4z"/>
		<path fill-rule="evenodd" clip-rule="evenodd" fill="#FFFFFF" d="M33.5,14C33.7,13.9,34,13.7,33.5,14L33.5,14z"/>
		<path fill-rule="evenodd" clip-rule="evenodd" fill="#FFFFFF" d="M33.2,14.3c-0.2,0.1-0.3,0.2-0.4,0.3
			C32.9,14.5,33.2,14.3,33.2,14.3z"/>
		<path fill-rule="evenodd" clip-rule="evenodd" fill="#FFFFFF" d="M33.2,14.4c0,0-0.2,0.2-0.2,0.1L33.2,14.4z"/>
		<path fill-rule="evenodd" clip-rule="evenodd" fill="#FFFFFF" d="M33,14.7c0,0-0.1,0.1-0.2,0.2C32.8,14.8,32.9,14.7,33,14.7z"/>
		<path fill-rule="evenodd" clip-rule="evenodd" fill="#FFFFFF" d="M32.1,15.3C31.9,15.6,31.8,15.6,32.1,15.3L32.1,15.3z"/>
		<path fill-rule="evenodd" clip-rule="evenodd" fill="#FFFFFF" d="M39.5,12.9c-0.1,0-0.1,0-0.2-0.1c-0.1,0-0.3-0.1-0.4-0.1
			C39.1,12.8,39.2,12.9,39.5,12.9z"/>
		<path fill-rule="evenodd" clip-rule="evenodd" fill="#FFFFFF" d="M35.6,12.9c-0.1,0-0.1,0-0.2,0.1c0,0,0,0,0,0
			C35.3,13,35.2,13,35,13.1c0,0,0,0,0,0c-0.2,0.1-0.4,0.2-0.8,0.4c0.4-0.2,1.2-0.6,1.6-0.8c0,0-0.4,0.1-0.4,0.2
			C35.4,12.9,35.6,12.8,35.6,12.9z"/>
		<path fill-rule="evenodd" clip-rule="evenodd" fill="#FFFFFF" d="M35.1,12.8C35.1,12.8,35.1,12.8,35.1,12.8c0,0-0.2,0.1-0.2,0.1
			C35,12.8,35.4,12.6,35.1,12.8z"/>
		<path fill-rule="evenodd" clip-rule="evenodd" fill="#FFFFFF" d="M32.7,14.3L32.7,14.3c-0.2,0.1-0.3,0.2-0.6,0.5
			c0.2-0.2,0.7-0.6,0.9-0.7c0.1,0,0.1-0.1,0.2-0.1c0.5-0.4,1.2-0.8,1.8-1.1c-0.3,0.2-0.9,0.5-1.2,0.7c-0.1,0,0,0,0,0
			C33.5,13.7,33,14.1,32.7,14.3z"/>
		<path fill-rule="evenodd" clip-rule="evenodd" fill="#FFFFFF" d="M33.1,14.4c-0.1,0.1-0.1,0.1-0.2,0.1
			C32.9,14.6,33,14.5,33.1,14.4z"/>
		<path fill-rule="evenodd" clip-rule="evenodd" fill="#FFFFFF" d="M24.9,22.2c0.1-0.1,0.3-0.3,0.4-0.4c0.3-0.3,0.5-0.5,0.9-0.9
			c0.2-0.2,0.6-0.6,0.8-0.8c0.2-0.2,0.3-0.3,0.4-0.4c0.4-0.4,0.7-0.7,0.9-0.9c0.3-0.3,0.6-0.6,0.9-0.9c0.1-0.1,0.1-0.1,0.1-0.1
			c0.6-0.6,1-1,1.8-1.7c0.1-0.1,0.1-0.1,0.2-0.3c0.1-0.1,0.1-0.1,0.2-0.2c0.1-0.2,0-0.1,0.3-0.3c0,0,0,0-0.1,0c0-0.1-0.2,0-0.1-0.1
			c-0.2,0.2-0.2,0.1-0.4,0.2c-0.2,0.1-0.3,0.2-0.5,0.3c-0.2,0.1-0.3,0.2-0.5,0.3c0,0-0.2,0.1-0.2,0.2c-0.2,0.2-0.5,0.4-0.7,0.5
			c0,0-0.1,0.1-0.1,0.1c-0.5,0.4-1,0.8-1.7,1.4c-0.1,0.1-0.2,0.2-0.3,0.2c-0.5,0.4-1.2,1.1-1.5,1.4c-0.1,0.1-0.1,0.1-0.2,0.2
			c-0.1,0-0.3,0.3-0.5,0.5c0,0-0.3,0.3-0.3,0.4c-0.2,0.2-0.5,0.5-0.7,0.7c0,0-0.2,0.3-0.3,0.3c-0.4,0.4-0.8,0.8-1,1.1
			c-0.1,0.1-0.3,0.3-0.4,0.4c-0.1,0.1-0.2,0.2-0.2,0.2c-0.3,0.4-1.2,1.3-1.6,1.9c-0.4,0.4-0.7,0.9-1,1.3c-0.1,0.1-0.2,0.2-0.2,0.3
			c-0.1,0.1-0.2,0.4-0.4,0.5c-0.2,0.3-0.4,0.6-0.6,0.9c-0.3,0.4-0.5,0.8-0.7,1.1c-0.1,0.1-0.2,0.3-0.3,0.4c-0.1,0.1-0.2,0.3-0.2,0.4
			c-0.1,0.1-0.2,0.3-0.2,0.5c0,0.1-0.1,0.2-0.1,0.3c0,0.1-0.1,0.2-0.1,0.3c-0.1,0.1-0.1,0.3-0.2,0.4c-0.2,0.5-0.4,1.1-0.5,1.5
			c-0.3,0.9-0.5,1.6-0.7,2.7c0,0.3-0.1,0.4-0.1,0.7c0,0,0,0.1,0,0.2c-0.1,0.6-0.1,1.2,0,1.8c0,0,0,0.1,0,0.1c0,0.8,0.3,1.9,0.7,2.4
			c0.2,0.5,0.5,1,1,1.4c0.2,0.2,0.4,0.4,0.7,0.6c0.4,0.3,1.1,0.7,1.6,0.8c0.2,0,0.3,0.1,0.5,0.1c0.3,0,0.6,0.1,0.9,0.1
			c1.1,0,2.4-0.4,3.2-0.9c0.3-0.1,0.5-0.3,0.8-0.5c0.5-0.3,0.9-0.6,1.3-1c0.1-0.1,0.2-0.2,0.3-0.3c0.3-0.2,0.5-0.4,0.7-0.6
			c0.6-0.5,1.2-1.1,1.8-1.6c0.7-0.7,1.8-1.7,2.6-2.5c0.4-0.4,0.4-0.4,0.5-0.6c0.5-0.6,1.2-1.3,1.8-2.1c2.4-2.8,4.6-5.8,6.6-8.8
			c0.2-0.2,0.4-0.6,0.5-0.8c0,0,0.1-0.2,0.2-0.3c0.2-0.4,0.5-0.9,0.8-1.4c0.1-0.1,0.2-0.5,0.3-0.7c0-0.1,0,0.1,0,0
			c0.1-0.4,0.5-1.6,0.6-2.1c0,0,0,0,0,0c0-0.1,0-0.2,0.1-0.3c0.2-1,0.3-1.7,0.2-2.6c0-0.1,0-0.4,0-0.5c0,0.2,0,0.4,0,0.4
			c0-0.3-0.1-0.6-0.1-0.8c-0.1-0.3-0.1-0.5-0.3-0.8c0-0.1,0,0.1-0.1-0.1c-0.2-0.3-0.4-0.5-0.5-0.6c0,0-0.1-0.1-0.1-0.1l0,0
			c0,0,0-0.1,0-0.1c0-0.3-0.1-0.5-0.2-0.6c-0.1-0.1,0.1,0.1,0,0c-0.2-0.4-0.5-0.6-0.7-0.8c-0.1-0.1-0.2-0.1-0.2-0.2
			c-0.1-0.1,0,0-0.1-0.1c-0.1-0.1,0.1,0.1,0,0.1c-0.2-0.1-0.1-0.1-0.2-0.1c-0.2-0.1-0.4-0.2-0.6-0.3c-0.2-0.1-0.5-0.2-0.7-0.2
			c-0.2,0-0.3-0.1-0.5-0.1c-0.2,0-0.3,0-0.5-0.1c-0.1,0,0.1,0-0.1,0c-0.7,0-1.4,0.1-1.9,0.3c0.8-0.3,1.4-0.3,2.1-0.3
			c0.1,0,0.3,0,0.4,0.1c0,0-0.1,0,0,0c0,0,0.1,0,0.2,0c-0.1,0,0,0,0.1,0c0.6,0.1,1,0.3,1.5,0.6c0.1,0-0.1,0,0,0
			c0.2,0.1,0.3,0.2,0.5,0.3c0,0.1,0.2,0.2,0.1,0.1c-0.5-0.5-1.4-0.9-2.2-1c-0.2-0.1-0.5-0.1-0.7-0.1c0.4,0,0.7,0.1,1,0.2
			c0.4,0.1,0.8,0.3,1.2,0.5c0.1,0,0.2,0.1,0.2,0.1c0.1,0,0.2,0.1,0.3,0.2c0,0,0.1,0.1,0.1,0.1c0.1,0.1,0.2,0.2,0.4,0.3
			c0.2,0.2,0.4,0.5,0.4,0.9l0,0c0,0,0,0,0,0c0,0,0,0,0,0c0-0.4-0.1-0.5-0.4-0.8c0,0,0,0.1,0,0.1c-0.1-0.1-0.1-0.1-0.2-0.2
			c0.2,0.2,0.2,0.2,0.1,0.1c-0.5-0.6-1.4-1-2-1.2c-0.1,0-0.2,0-0.2,0c-0.7-0.2-1.5-0.2-2.3,0c0.9-0.2,1.8-0.2,2.8,0.2c0,0,0,0,0.1,0
			c0.4,0.2,0.9,0.4,1.1,0.6c0.1,0.1,0.2,0.2,0.3,0.3c0.3,0.3,0.6,0.6,0.5,0.9c0,0.1,0,0.2-0.1,0.2c0,0.1,0.1,0.1,0.1,0.2
			c0.3,0.3,0.5,0.6,0.6,1c0,0,0,0.1,0,0.1c0-0.1-0.1-0.1-0.1-0.2c-0.1-0.2-0.1-0.3-0.2-0.4c-0.1-0.2-0.2-0.3-0.4-0.5
			c0-0.1-0.1-0.2-0.1-0.2c0-0.1,0-0.2,0-0.3c0-0.5-0.7-1.1-1.2-1.4c-0.1-0.1,0,0,0,0.1c0.4,0.3,0.8,0.6,1.1,1c0,0.2,0,0-0.3-0.3
			c-0.4-0.5-1.5-1.1-1.9-1.2c-1-0.3-2-0.2-2.9,0.1c-1,0.3-1.9,0.8-2.7,1.4c1-0.7,1.9-1.2,2.9-1.5c0,0,0,0,0.1,0
			c1-0.3,2.1-0.2,2.9,0.1c0.3,0.1,1,0.5,1.2,0.7c-0.1,0-0.3-0.2-0.7-0.4c0.3,0.2,0.6,0.4,0.9,0.6c0.2,0.2,0.4,0.5,0.4,0.6
			c0,0,0,0,0,0c0-0.1,0,0.1,0,0.1l0,0c0,0.2,0,0.2,0,0.3c0,0,0,0,0,0c0,0.1,0.1,0.2,0.1,0.3c0.1,0.1,0.2,0.1,0.2,0.2
			c0.5,0.5,0.6,1.2,0.7,2c0,0.1,0,0.2,0,0.3c0,0.1,0,0,0,0.1c0,0.1,0,0,0,0.1c0,0.3-0.1,0.6-0.1,1c-0.1,0.8-0.3,1.7-0.5,2.3
			c0,0.1,0,0,0,0.1c-0.2,0.5-0.3,1.1-0.6,1.5c-0.3,0.5-0.6,1-0.9,1.5c-0.1,0.1,0,0-0.1,0.1c-0.1,0.1-0.1,0.1-0.1,0.2
			c0,0-0.1,0.1-0.1,0.2c-0.8,1.1-1.5,2.3-2.4,3.4c-0.8,1.1-1.5,2.1-2.3,3.1c-0.6,0.8-1.2,1.5-1.8,2.2c-0.7,0.9-1.4,1.7-2.2,2.5
			c-0.5,0.6-1.1,1.2-1.6,1.7c-0.1,0.1-0.2,0.2-0.3,0.3c-0.1,0.1-0.3,0.3-0.4,0.4c-0.4,0.4-0.8,0.8-1.2,1.1c-0.5,0.4-0.9,0.8-1.4,1.2
			c-0.2,0.2-0.5,0.4-0.8,0.6c-0.2,0.1-0.4,0.3-0.5,0.4c-0.5,0.4-1,0.8-1.5,1c-0.7,0.4-1.4,0.7-2.2,0.8c-0.8,0.2-1.9,0.1-2.6-0.3
			c-0.6-0.3-1.1-0.7-1.6-1.3c0-0.1-0.1-0.1-0.1-0.2c-0.6-0.9-1-2.2-1-3.2c0-0.4,0-0.7,0-1c0-0.4,0.1-0.7,0.1-1c0-0.1,0-0.2,0.1-0.3
			c0.1-0.3,0.1-0.7,0.2-1.1c0.1-0.6,0.4-1.1,0.6-1.8c0.2-0.5,0.4-1.2,0.7-1.8c0.4-0.9,0.9-1.8,1.5-2.7c0.2-0.3,0.3-0.4,0.6-0.8
			c0.4-0.5,0.5-0.7,0.8-1c0.3-0.3,0.6-0.7,0.9-1.1c0.4-0.5,1-1.1,1.3-1.5c0.2-0.1,0.4-0.5,0.8-0.9c0.2-0.2,0.2-0.2,0.3-0.2
			c0.2-0.2,0.3-0.3,0.5-0.5C24.5,22.6,24.6,22.5,24.9,22.2z M41.6,13.8C41.6,13.8,41.6,13.8,41.6,13.8
			C41.6,13.9,41.7,14.1,41.6,13.8z M41.6,13.8c-0.2-0.3-0.6-0.6-0.7-0.7c-0.1,0,0,0,0,0c-0.1-0.1-0.2-0.2-0.4-0.3
			c0,0,0.4,0.2,0.4,0.2c0.1,0.1,0.2,0.2,0.3,0.2C41.3,13.4,41.4,13.5,41.6,13.8C41.5,13.7,41.6,13.8,41.6,13.8z"/>
	</g>
	<g>
		<path fill="none" d="M21.7,20c0,0-0.1-0.3-0.2-0.8c-0.1-0.5-0.4-1.1-0.8-1.9c-0.8-1.5-2.2-3.4-4.2-4.5c-2-1.1-4.4-1.3-6.2-0.9
			c-0.9,0.2-1.5,0.6-2,0.9c-0.4,0.3-0.6,0.5-0.6,0.5l0.8,0.8c0,0,0.2-0.2,0.5-0.4c0.3-0.2,0.9-0.5,1.6-0.7c1.4-0.4,3.6-0.2,5.4,0.8
			c1.8,1,3.1,2.7,3.8,4c0.4,0.7,0.6,1.3,0.7,1.7c0.1,0.4,0.2,0.7,0.2,0.7L21.7,20z"/>
		<path fill-rule="evenodd" clip-rule="evenodd" fill="#FFFFFF" d="M11.4,12.8C11.4,12.8,11.4,12.8,11.4,12.8
			C11.4,12.8,11.4,12.8,11.4,12.8z"/>
		<path fill-rule="evenodd" clip-rule="evenodd" fill="#FFFFFF" d="M10.6,12.2C10.6,12.2,10.5,12.3,10.6,12.2
			C10.6,12.2,10.6,12.2,10.6,12.2z"/>
		<path fill-rule="evenodd" clip-rule="evenodd" fill="#FFFFFF" d="M10.5,12.2C10.5,12.2,10.5,12.3,10.5,12.2
			C10.5,12.3,10.5,12.2,10.5,12.2z"/>
		<path fill-rule="evenodd" clip-rule="evenodd" fill="#FFFFFF" d="M10.3,12.4C10.3,12.4,10.3,12.4,10.3,12.4
			C10.3,12.4,10.3,12.4,10.3,12.4z"/>
		<path fill-rule="evenodd" clip-rule="evenodd" fill="#FFFFFF" d="M10.2,12.3C10.2,12.3,10.2,12.3,10.2,12.3
			C10.1,12.3,10.2,12.3,10.2,12.3z"/>
		<path fill-rule="evenodd" clip-rule="evenodd" fill="#FFFFFF" d="M10.1,13c0,0-0.1,0.1-0.2,0.1C10,13,10.1,13,10.1,13z"/>
		<path fill-rule="evenodd" clip-rule="evenodd" fill="#FFFFFF" d="M9.9,12.8c0,0-0.1,0.1-0.2,0.1C9.7,12.8,9.8,12.8,9.9,12.8
			C9.8,12.8,9.9,12.8,9.9,12.8C9.9,12.8,9.9,12.8,9.9,12.8z"/>
		<path fill-rule="evenodd" clip-rule="evenodd" fill="#FFFFFF" d="M9.3,13C9.3,13,9.3,13,9.3,13C9.3,13,9.2,13,9.3,13L9.3,13z"/>
		<path fill-rule="evenodd" clip-rule="evenodd" fill="#FFFFFF" d="M9.1,13.2c0,0-0.1,0.1-0.2,0.1c0,0,0,0,0,0c0,0-0.1,0.1,0,0
			C8.9,13.3,9,13.3,9.1,13.2z"/>
		<path fill-rule="evenodd" clip-rule="evenodd" fill="#FFFFFF" d="M9,13.2C9,13.2,8.9,13.2,9,13.2C8.9,13.2,9,13.2,9,13.2z"/>
		<path fill-rule="evenodd" clip-rule="evenodd" fill="#FFFFFF" d="M9.1,13.5C9.1,13.5,9.1,13.5,9.1,13.5
			C9.1,13.5,9.1,13.5,9.1,13.5z"/>
		<path fill-rule="evenodd" clip-rule="evenodd" fill="#FFFFFF" d="M8.9,13.2C8.9,13.2,8.9,13.3,8.9,13.2
			C8.9,13.3,8.9,13.2,8.9,13.2z"/>
		<path fill-rule="evenodd" clip-rule="evenodd" fill="#FFFFFF" d="M8.9,13.2C8.9,13.2,8.9,13.2,8.9,13.2
			C8.8,13.2,8.9,13.2,8.9,13.2z"/>
		<path fill-rule="evenodd" clip-rule="evenodd" fill="#FFFFFF" d="M9.1,13.6C9.1,13.6,9.1,13.6,9.1,13.6C9,13.6,9.1,13.6,9.1,13.6z
			"/>
		<path fill-rule="evenodd" clip-rule="evenodd" fill="#FFFFFF" d="M9,13.5c0,0-0.1,0.1-0.1,0.1C8.9,13.6,9,13.6,9,13.5z"/>
		<path fill-rule="evenodd" clip-rule="evenodd" fill="#FFFFFF" d="M8.8,13.3c0,0-0.1,0.1-0.1,0.1C8.7,13.3,8.8,13.3,8.8,13.3z"/>
		<path fill-rule="evenodd" clip-rule="evenodd" fill="#FFFFFF" d="M8.8,13.4C8.8,13.5,8.8,13.5,8.8,13.4
			C8.7,13.5,8.8,13.4,8.8,13.4z"/>
		<path fill-rule="evenodd" clip-rule="evenodd" fill="#FFFFFF" d="M8.7,13.4C8.7,13.5,8.7,13.5,8.7,13.4
			C8.7,13.5,8.7,13.5,8.7,13.4z"/>
		<path fill-rule="evenodd" clip-rule="evenodd" fill="#FFFFFF" d="M8.7,13.5C8.7,13.5,8.6,13.5,8.7,13.5
			C8.6,13.5,8.6,13.5,8.7,13.5C8.7,13.5,8.6,13.5,8.7,13.5z"/>
		<path fill-rule="evenodd" clip-rule="evenodd" fill="#FFFFFF" d="M8.7,13.7C8.7,13.7,8.8,13.7,8.7,13.7L8.7,13.7z"/>
		<path fill-rule="evenodd" clip-rule="evenodd" fill="#FFFFFF" d="M8.7,13.8C8.7,13.9,8.6,13.9,8.7,13.8
			C8.6,13.9,8.7,13.8,8.7,13.8z"/>
		<path fill-rule="evenodd" clip-rule="evenodd" fill="#FFFFFF" d="M8.7,13.9C8.7,13.9,8.6,13.9,8.7,13.9L8.7,13.9z"/>
		<path fill-rule="evenodd" clip-rule="evenodd" fill="#FFFFFF" d="M8.7,14C8.7,14,8.7,14,8.7,14C8.7,14,8.7,14,8.7,14z"/>
		<path fill-rule="evenodd" clip-rule="evenodd" fill="#FFFFFF" d="M8.6,14.1C8.5,14.2,8.5,14.2,8.6,14.1L8.6,14.1z"/>
		<path fill-rule="evenodd" clip-rule="evenodd" fill="#FFFFFF" d="M9.8,13.3C9.8,13.3,9.8,13.3,9.8,13.3c-0.1,0-0.1,0.1-0.1,0.1
			C9.7,13.3,9.8,13.3,9.8,13.3z"/>
		<path fill-rule="evenodd" clip-rule="evenodd" fill="#FFFFFF" d="M9,13.5C9,13.5,9,13.5,9,13.5L9,13.5C9,13.5,9,13.5,9,13.5
			L9,13.5c-0.1,0.1-0.2,0.1-0.2,0.1C8.8,13.5,9,13.5,9,13.5C9.1,13.4,9,13.5,9,13.5C9,13.5,9,13.4,9,13.5z"/>
		<path fill-rule="evenodd" clip-rule="evenodd" fill="#FFFFFF" d="M8.8,13.3C8.8,13.3,8.8,13.3,8.8,13.3
			C8.8,13.3,8.8,13.3,8.8,13.3C8.8,13.3,8.9,13.3,8.8,13.3z"/>
		<path fill-rule="evenodd" clip-rule="evenodd" fill="#FFFFFF" d="M8.4,13.7L8.4,13.7c0,0-0.1,0.1-0.1,0.1
			C8.3,13.7,8.4,13.7,8.4,13.7C8.5,13.6,8.5,13.6,8.4,13.7c0.2-0.2,0.3-0.3,0.4-0.3c0,0.1-0.2,0.1-0.2,0.2c0,0,0,0,0,0
			C8.5,13.5,8.5,13.6,8.4,13.7z"/>
		<path fill-rule="evenodd" clip-rule="evenodd" fill="#FFFFFF" d="M8.7,13.9C8.7,13.9,8.7,13.9,8.7,13.9
			C8.6,13.9,8.7,13.9,8.7,13.9z"/>
		<path fill-rule="evenodd" clip-rule="evenodd" fill="#FFFFFF" d="M20.1,18.6C20.1,18.6,20.2,18.6,20.1,18.6
			c0.1,0.1,0.1,0.2,0.1,0.3c0,0,0.1,0.2,0.1,0.2c0,0,0,0.1,0,0.1c0,0.1,0.1,0.2,0.1,0.2c0,0.1,0.1,0.1,0.1,0.2c0,0,0,0,0,0
			c0.1,0.1,0.2,0.2,0.3,0.4c0,0,0,0,0.1,0c0,0,0,0,0,0.1c0,0,0.1,0,0.1,0.1c0,0,0,0,0,0c0.1,0,0.1-0.1,0.2,0c0-0.1,0.1-0.1,0.1-0.1
			c0,0,0-0.1,0-0.1c0,0,0-0.1,0-0.1c0,0,0-0.1,0-0.1c0-0.1,0-0.1,0-0.2c0,0,0,0,0,0c0-0.1,0-0.3,0-0.4c0,0,0-0.1,0-0.1
			c0-0.1-0.1-0.3-0.1-0.4c0,0,0,0,0,0c0,0,0-0.1,0-0.2c0,0,0,0-0.1-0.1c0-0.1,0-0.1-0.1-0.2c0,0,0,0-0.1-0.1c0-0.1-0.1-0.2-0.1-0.3
			c0,0,0-0.1,0-0.1c0,0,0,0-0.1,0c-0.1-0.1-0.2-0.3-0.3-0.4c0-0.1-0.1-0.2-0.2-0.3c0,0,0-0.1,0-0.1c0,0-0.1-0.1-0.1-0.1
			c-0.1-0.1-0.1-0.1-0.1-0.2c0-0.1-0.1-0.1-0.1-0.2c0,0,0-0.1,0-0.1c0,0-0.1-0.1-0.1-0.1c0,0,0-0.1-0.1-0.1c0,0,0,0,0,0
			c0,0,0,0,0-0.1c0,0-0.1-0.1-0.1-0.1c-0.1-0.1-0.1-0.2-0.2-0.2c-0.1-0.2-0.2-0.3-0.3-0.4c0,0-0.1-0.1-0.1-0.1c0,0,0,0,0,0
			c-0.1-0.1-0.2-0.2-0.2-0.3c0,0,0,0,0,0c-0.1-0.1-0.2-0.3-0.3-0.3c-0.1-0.1-0.2-0.1-0.2-0.2c0,0-0.1-0.1-0.1-0.1
			C17.9,14,18,14,17.9,13.9c0,0-0.1,0-0.1,0c0,0-0.1-0.1-0.1-0.1c-0.4-0.3-0.4-0.3-0.5-0.4c0,0-0.1-0.1-0.2-0.1
			c-0.1-0.1-0.2-0.1-0.3-0.2c0,0-0.1,0-0.1,0c-0.1-0.1-0.1-0.1-0.2-0.1c-0.1-0.1-0.3-0.1-0.4-0.2c-0.2-0.1-0.5-0.2-0.7-0.3
			c-0.1,0-0.1,0-0.1,0c-0.2,0-0.3-0.1-0.5-0.2c-0.7-0.2-1.5-0.3-2.2-0.3c-0.1,0-0.1,0-0.2,0c0,0,0,0-0.1,0c-0.1,0-0.2,0-0.3,0
			c0,0-0.1,0-0.1,0c0,0,0,0,0,0c-0.1,0-0.3,0-0.4,0.1c0,0,0,0,0,0c0,0,0,0-0.1,0c-0.2,0-0.3,0.1-0.5,0.1c0,0-0.1,0-0.1,0
			c0,0,0.1,0,0.1,0c-0.1,0-0.1,0-0.1,0c-0.1,0-0.1,0-0.1,0c0,0,0,0,0,0c-0.1,0-0.1,0-0.2,0.1c0,0-0.1,0.1-0.1,0.1c0,0,0,0,0,0
			c-0.1,0-0.1,0.1-0.2,0.1c0,0,0,0,0,0c0,0,0,0,0,0c0,0,0,0,0,0c0,0,0,0,0,0c0,0-0.1,0-0.1,0.1c-0.1,0.1,0,0-0.1,0.1
			c0,0,0,0-0.1,0.1c0,0-0.1,0-0.1,0c0,0,0,0,0,0C9.2,13,9.1,13.1,9,13.2c0.1-0.1,0.2-0.1,0.3-0.2c0,0,0.1,0,0.1,0c0,0,0,0,0,0
			c0,0,0,0,0,0c0,0,0,0,0,0c0.1-0.1,0.2-0.1,0.3-0.1c0,0,0,0,0,0c0.1,0,0,0,0.1,0c0,0,0,0,0,0c-0.1,0.1-0.3,0.1-0.4,0.2
			c0,0-0.1,0-0.1,0.1c0.1,0,0.1,0,0.2-0.1c0.1,0,0.1-0.1,0.2-0.1c0,0,0.1,0,0.1,0s0,0,0.1,0c0,0,0,0,0,0c0,0,0.1,0,0.1,0
			c0.1,0,0.1,0,0.2-0.1c0,0,0,0,0,0c-0.1,0-0.1,0-0.2,0.1c0,0,0,0,0,0c0,0,0,0,0,0c0.1,0,0.1,0,0,0c-0.1,0.1-0.3,0.1-0.4,0.2
			c0,0,0,0,0,0c-0.1,0.1-0.3,0.1-0.4,0.2C9.5,13,9.5,13,9.6,12.9c0,0,0,0,0,0c0.1,0,0.2-0.1,0.2-0.1l0.1,0c0.2-0.1,0.4-0.1,0.5-0.1
			c0,0,0,0,0,0c0,0,0,0,0,0c0,0-0.1,0-0.1,0c-0.2,0.1-0.4,0.1-0.6,0.2c0,0,0,0,0,0c0.1,0,0.2-0.1,0.3-0.1c0,0,0,0.1-0.1,0.1
			C10,13,9.8,13.1,9.7,13.2c-0.3,0.2-0.7,0.4-1,0.6c0.2-0.1,0.3-0.3,0.5-0.4c0,0,0,0,0,0c0.2-0.1,0.4-0.2,0.5-0.3
			c0.1,0,0.2-0.1,0.3-0.1c0,0-0.1,0.1-0.1,0.1c0.1,0,0.1,0,0.2-0.1c0,0,0.1-0.1,0.2-0.1c0,0,0,0,0,0c0,0,0,0,0,0c0,0,0,0,0.1,0
			c0,0,0,0,0.1,0c0.1,0,0.3-0.1,0.4-0.1c0,0,0,0,0,0c0,0,0,0,0,0c0,0,0,0,0,0c0.1,0,0.1,0,0.2,0c0.1,0,0.3,0,0.4-0.1c0,0,0,0,0,0
			c0.2,0,0.4,0,0.6,0c0,0,0,0,0,0c0,0,0,0,0.1,0c0,0,0,0,0,0c0.3,0,0.5,0,0.8,0c0.2,0,0.5,0.1,0.7,0.1c0.2,0,0.4,0.1,0.5,0.1
			c0.2,0,0.4,0.1,0.6,0.2c0.1,0,0.2,0.1,0.4,0.2c0,0,0.1,0,0.1,0c0,0,0.1,0,0.1,0.1c0.1,0,0.2,0.1,0.3,0.1c0.1,0.1,0.2,0.1,0.3,0.2
			c0,0,0.1,0.1,0.2,0.1c0,0,0.1,0.1,0.1,0.1c0.1,0.1,0.2,0.1,0.3,0.2c0.1,0.1,0.2,0.2,0.4,0.3c0.2,0.2,0.3,0.2,0.4,0.3
			c0.1,0.1,0.2,0.2,0.3,0.3c0,0,0,0,0,0c0.2,0.2,0.4,0.3,0.5,0.5c0.1,0,0.1,0.1,0.1,0.1c0,0.1,0.1,0.1,0.1,0.1c0,0,0,0,0,0.1
			c0,0,0.1,0.1,0.1,0.2c0.1,0.1,0.1,0.2,0.2,0.3c0.1,0.1,0.1,0.2,0.2,0.3c0.1,0.2,0.2,0.3,0.3,0.5c0,0.1,0.1,0.1,0.1,0.2
			c0,0.1,0.1,0.1,0.1,0.2c0,0,0.1,0.2,0.1,0.2c0.1,0.1,0.1,0.2,0.2,0.3c0,0.1,0.1,0.1,0.1,0.2c0,0.1,0,0.1,0,0.1c0,0,0,0.1,0.1,0.1
			C20.1,18.4,20.1,18.5,20.1,18.6z M10,12.6C10,12.6,10,12.6,10,12.6C10,12.6,10.1,12.6,10,12.6z M10,12.6c-0.1,0-0.1,0.1-0.2,0.1
			c0,0,0,0,0,0c0,0-0.1,0-0.1,0c0,0,0.1,0,0.1-0.1c0,0,0.1,0,0.1,0C9.9,12.6,9.9,12.6,10,12.6C10,12.6,10,12.6,10,12.6z"/>
	</g>
	<g>
		<path fill="none" d="M33.7,34.3c0,0,0-0.3,0.1-0.8c0.1-0.5,0.1-1.2,0.1-2.1c0-0.8,0-1.9-0.4-3c-0.4-1.1-1.2-2-2-2.8
			c-0.9-0.8-1.8-1.5-2.8-2c-1-0.5-2-0.8-2.9-0.9c-0.9-0.1-1.6,0-2.2,0.1c-0.5,0.1-0.8,0.2-0.8,0.2l0.3,1c0,0,0.2-0.1,0.7-0.2
			c0.4-0.1,1.1-0.1,1.9-0.1c0.8,0.1,1.6,0.3,2.5,0.8c0.9,0.5,1.7,1.1,2.5,1.8c0.8,0.7,1.4,1.6,1.8,2.4c0.3,0.9,0.4,1.8,0.4,2.6
			c0,0.8,0,1.5-0.1,1.9c-0.1,0.5-0.1,0.7-0.1,0.7L33.7,34.3z"/>
		<path fill-rule="evenodd" clip-rule="evenodd" fill="#FFFFFF" d="M26.5,23.7C26.5,23.7,26.5,23.7,26.5,23.7
			C26.5,23.7,26.5,23.7,26.5,23.7z"/>
		<path fill-rule="evenodd" clip-rule="evenodd" fill="#FFFFFF" d="M25.9,22.9C25.9,22.9,25.9,22.9,25.9,22.9
			C25.9,22.9,25.9,22.9,25.9,22.9z"/>
		<path fill-rule="evenodd" clip-rule="evenodd" fill="#FFFFFF" d="M25.8,22.9C25.8,22.9,25.8,22.9,25.8,22.9
			C25.8,22.9,25.8,22.9,25.8,22.9z"/>
		<path fill-rule="evenodd" clip-rule="evenodd" fill="#FFFFFF" d="M25.6,23C25.6,23,25.6,23,25.6,23C25.6,23,25.6,23,25.6,23z"/>
		<path fill-rule="evenodd" clip-rule="evenodd" fill="#FFFFFF" d="M25.5,22.8C25.5,22.8,25.5,22.8,25.5,22.8
			C25.4,22.8,25.5,22.8,25.5,22.8z"/>
		<path fill-rule="evenodd" clip-rule="evenodd" fill="#FFFFFF" d="M25.2,23.4c0,0-0.1,0-0.2,0C25.1,23.4,25.2,23.4,25.2,23.4z"/>
		<path fill-rule="evenodd" clip-rule="evenodd" fill="#FFFFFF" d="M25.1,23.1c-0.1,0-0.2,0-0.2,0c0,0,0.1,0,0.1,0
			C25,23.1,25,23.1,25.1,23.1C25.1,23.1,25.1,23.1,25.1,23.1z"/>
		<path fill-rule="evenodd" clip-rule="evenodd" fill="#FFFFFF" d="M24.4,23.1C24.4,23.1,24.4,23.1,24.4,23.1
			C24.3,23.1,24.3,23.1,24.4,23.1L24.4,23.1z"/>
		<path fill-rule="evenodd" clip-rule="evenodd" fill="#FFFFFF" d="M24.1,23.3c0,0-0.2,0-0.2,0c0,0,0,0,0,0c0,0-0.1,0,0,0
			C23.9,23.3,24,23.3,24.1,23.3z"/>
		<path fill-rule="evenodd" clip-rule="evenodd" fill="#FFFFFF" d="M24,23.1C24,23.1,24,23.1,24,23.1C24,23.1,24,23.1,24,23.1z"/>
		<path fill-rule="evenodd" clip-rule="evenodd" fill="#FFFFFF" d="M24,23.5C24,23.5,24,23.5,24,23.5C23.9,23.5,24,23.5,24,23.5z"/>
		<path fill-rule="evenodd" clip-rule="evenodd" fill="#FFFFFF" d="M24,23.2C24,23.2,23.9,23.2,24,23.2C23.9,23.2,23.9,23.2,24,23.2
			z"/>
		<path fill-rule="evenodd" clip-rule="evenodd" fill="#FFFFFF" d="M23.9,23.1C23.9,23.2,23.9,23.2,23.9,23.1
			C23.9,23.2,23.9,23.2,23.9,23.1z"/>
		<path fill-rule="evenodd" clip-rule="evenodd" fill="#FFFFFF" d="M23.9,23.5C23.9,23.6,23.9,23.6,23.9,23.5
			C23.9,23.6,23.9,23.6,23.9,23.5z"/>
		<path fill-rule="evenodd" clip-rule="evenodd" fill="#FFFFFF" d="M23.9,23.5c0,0-0.1,0-0.1,0C23.8,23.5,23.8,23.5,23.9,23.5z"/>
		<path fill-rule="evenodd" clip-rule="evenodd" fill="#FFFFFF" d="M23.8,23.2c0,0-0.1,0-0.1,0C23.7,23.2,23.8,23.2,23.8,23.2z"/>
		<path fill-rule="evenodd" clip-rule="evenodd" fill="#FFFFFF" d="M23.7,23.3C23.7,23.3,23.7,23.3,23.7,23.3
			C23.7,23.3,23.7,23.3,23.7,23.3z"/>
		<path fill-rule="evenodd" clip-rule="evenodd" fill="#FFFFFF" d="M23.7,23.3C23.7,23.3,23.6,23.3,23.7,23.3
			C23.6,23.3,23.7,23.3,23.7,23.3z"/>
		<path fill-rule="evenodd" clip-rule="evenodd" fill="#FFFFFF" d="M23.6,23.3C23.6,23.3,23.5,23.3,23.6,23.3
			C23.6,23.3,23.6,23.3,23.6,23.3C23.6,23.3,23.6,23.3,23.6,23.3z"/>
		<path fill-rule="evenodd" clip-rule="evenodd" fill="#FFFFFF" d="M23.5,23.5C23.5,23.5,23.6,23.5,23.5,23.5L23.5,23.5z"/>
		<path fill-rule="evenodd" clip-rule="evenodd" fill="#FFFFFF" d="M23.4,23.6C23.4,23.6,23.4,23.6,23.4,23.6
			C23.3,23.6,23.4,23.6,23.4,23.6z"/>
		<path fill-rule="evenodd" clip-rule="evenodd" fill="#FFFFFF" d="M23.4,23.6C23.4,23.6,23.4,23.7,23.4,23.6L23.4,23.6z"/>
		<path fill-rule="evenodd" clip-rule="evenodd" fill="#FFFFFF" d="M23.4,23.8C23.4,23.8,23.3,23.8,23.4,23.8
			C23.3,23.8,23.4,23.8,23.4,23.8z"/>
		<path fill-rule="evenodd" clip-rule="evenodd" fill="#FFFFFF" d="M23.2,23.8C23.1,23.8,23.1,23.8,23.2,23.8L23.2,23.8z"/>
		<path fill-rule="evenodd" clip-rule="evenodd" fill="#FFFFFF" d="M24.8,23.6C24.8,23.6,24.8,23.6,24.8,23.6c-0.1,0-0.1,0-0.1,0
			C24.7,23.6,24.7,23.6,24.8,23.6z"/>
		<path fill-rule="evenodd" clip-rule="evenodd" fill="#FFFFFF" d="M23.9,23.4C23.9,23.4,23.9,23.4,23.9,23.4L23.9,23.4
			c-0.1,0-0.1,0-0.1,0l0,0c0,0-0.1,0-0.2,0C23.7,23.4,23.9,23.4,23.9,23.4C24,23.4,23.9,23.4,23.9,23.4C23.9,23.4,24,23.4,23.9,23.4
			z"/>
		<path fill-rule="evenodd" clip-rule="evenodd" fill="#FFFFFF" d="M23.8,23.2C23.8,23.2,23.8,23.2,23.8,23.2
			C23.8,23.2,23.8,23.2,23.8,23.2C23.8,23.2,23.9,23.2,23.8,23.2z"/>
		<path fill-rule="evenodd" clip-rule="evenodd" fill="#FFFFFF" d="M23.3,23.3L23.3,23.3c0,0-0.1,0-0.2,0
			C23.2,23.3,23.3,23.3,23.3,23.3C23.3,23.3,23.3,23.3,23.3,23.3c0.2-0.1,0.4-0.1,0.5-0.1c-0.1,0-0.2,0-0.3,0.1c0,0,0,0,0,0
			C23.5,23.3,23.3,23.3,23.3,23.3z"/>
		<path fill-rule="evenodd" clip-rule="evenodd" fill="#FFFFFF" d="M23.4,23.7C23.4,23.7,23.4,23.7,23.4,23.7
			C23.3,23.7,23.4,23.7,23.4,23.7z"/>
		<path fill-rule="evenodd" clip-rule="evenodd" fill="#FFFFFF" d="M32.9,32.2c0,0,0,0.1,0,0.1c0,0.1,0,0.2,0,0.2c0,0,0,0.2,0,0.2
			c0,0,0,0.1,0,0.1c0,0.1,0,0.2,0,0.3c0,0.1,0,0.2,0,0.2c0,0,0,0,0,0c0,0.2,0.1,0.3,0.1,0.5c0,0,0,0,0,0.1c0,0,0,0.1,0,0.1
			c0,0,0.1,0,0.1,0.1c0,0,0,0,0,0c0.1,0,0.1,0,0.2,0c0,0,0.1,0,0.1-0.1c0,0,0-0.1,0.1-0.1c0,0,0-0.1,0.1-0.1c0,0,0,0,0-0.1
			c0,0,0-0.1,0.1-0.2c0,0,0,0,0,0c0.1-0.1,0.1-0.3,0.2-0.4c0,0,0-0.1,0-0.1c0-0.1,0-0.3,0-0.4c0,0,0,0,0,0c0,0,0-0.1,0-0.1
			c0,0,0-0.1,0-0.1c0-0.1,0-0.1,0-0.2c0,0,0-0.1,0-0.1c0-0.1,0-0.2,0-0.3c0-0.1,0-0.1,0-0.1c0,0,0-0.1,0-0.1c0-0.1,0-0.4,0-0.5
			c0-0.1,0-0.2,0-0.3c0,0,0-0.1,0-0.1c0,0,0-0.1,0-0.1c0-0.1,0-0.1,0-0.2c0-0.1,0-0.2,0-0.3c0,0,0-0.1,0-0.1c0,0,0-0.1,0-0.1
			c0,0,0-0.1,0-0.1c0,0,0-0.1,0-0.1c0,0,0,0,0-0.1c0,0,0-0.1,0-0.1c0-0.1,0-0.2-0.1-0.3c0-0.2-0.1-0.4-0.2-0.6c0-0.1,0-0.1-0.1-0.2
			c0,0,0,0,0,0c0-0.1-0.1-0.2-0.1-0.3c0,0,0,0,0,0c-0.1-0.2-0.2-0.4-0.2-0.5c0-0.1-0.1-0.2-0.2-0.3c0,0,0-0.1-0.1-0.1
			c-0.1-0.2-0.1-0.2-0.2-0.3c0,0-0.1-0.1-0.1-0.1c0,0-0.1-0.1-0.1-0.1c-0.4-0.4-0.4-0.4-0.4-0.5c0,0-0.1-0.1-0.1-0.1
			c-0.1-0.1-0.1-0.2-0.2-0.2c0,0-0.1,0-0.1-0.1c-0.1-0.1-0.1-0.1-0.1-0.1c-0.1-0.1-0.3-0.2-0.4-0.3c-0.4-0.3-0.4-0.3-0.6-0.5
			c-0.1,0-0.1-0.1-0.1-0.1c-0.1-0.1-0.3-0.2-0.5-0.3c-0.6-0.4-1.3-0.8-2-1.1c-0.1,0-0.1-0.1-0.2-0.1c0,0,0,0-0.1,0
			c-0.1,0-0.2-0.1-0.3-0.1c0,0-0.1,0-0.1,0c0,0,0,0,0,0c-0.1,0-0.3-0.1-0.4-0.1c0,0,0,0,0,0c0,0,0,0-0.1,0c-0.2,0-0.4,0-0.5,0
			c0,0-0.1,0-0.1,0c0,0,0.1,0,0.1,0c-0.1,0-0.1,0-0.2,0c-0.1,0-0.1,0-0.2,0c0,0,0,0,0,0c-0.1,0-0.1,0-0.2,0c0,0-0.1,0-0.2,0
			c0,0,0,0,0,0c-0.1,0-0.1,0-0.2,0c0,0,0,0-0.1,0c0,0,0,0,0,0c0,0,0,0,0,0c0,0,0,0,0,0c-0.1,0-0.1,0-0.1,0c-0.1,0,0,0-0.1,0
			c0,0-0.1,0-0.1,0c0,0-0.1,0-0.1,0c0,0,0,0,0,0c-0.1,0-0.3,0-0.4,0.1c0.2,0,0.3,0,0.4-0.1c0,0,0.1,0,0.1,0c0,0,0,0,0,0c0,0,0,0,0,0
			c0,0,0,0,0,0c0.1,0,0.2,0,0.3,0c0,0,0,0,0,0c0.1,0,0,0,0.1,0c0,0,0,0,0,0c-0.1,0-0.3,0-0.5,0c-0.1,0-0.1,0-0.1,0
			c0.1,0,0.1,0,0.2,0c0.1,0,0.2,0,0.3,0c0,0,0.1,0,0.1,0s0.1,0,0.1,0c0,0,0,0,0,0c0,0,0.1,0,0.1,0c0,0,0.1,0,0.2,0c0,0,0,0,0,0
			c-0.1,0-0.1,0-0.2,0c0,0,0,0,0,0c0,0,0,0-0.1,0c0.1,0,0.1,0,0,0c-0.2,0-0.2,0-0.5,0c0,0,0,0,0,0c-0.1,0-0.3,0-0.5,0
			c0.2,0,0.4,0,0.6,0c0,0,0,0,0,0c0.1,0,0.2,0,0.3,0l0.1,0c0.2,0,0.4,0,0.6,0.1c0,0,0,0,0,0c0,0,0,0,0,0c0,0-0.1,0-0.1,0
			c-0.2,0-0.4,0-0.6,0c0,0,0,0,0,0c0.1,0,0.2,0,0.3,0c0,0,0,0.1-0.1,0.1c-0.2,0-0.3,0-0.5,0c-0.4,0-0.8,0.1-1.2,0.2
			c0.2,0,0.4-0.1,0.6-0.1c0,0,0,0,0,0c0.2,0,0.3,0,0.6-0.1c0.1,0,0.2,0,0.3,0c0,0-0.1,0-0.2,0.1c0.1,0,0.2,0,0.2,0
			c0.1,0,0.1,0,0.2,0c0,0,0,0,0,0c0,0,0,0,0,0c0,0,0,0,0.1,0c0,0,0,0,0.1,0c0.2,0,0.3,0,0.5,0c0,0,0,0,0.1,0c0,0,0,0,0,0
			c0,0,0,0,0,0c0.1,0,0.1,0,0.2,0c0.1,0,0.3,0.1,0.4,0.1c0,0,0,0,0,0c0.2,0.1,0.4,0.1,0.6,0.2c0,0,0,0,0,0c0,0,0,0,0.1,0
			c0,0,0,0,0,0c0.2,0.1,0.5,0.2,0.7,0.3c0.2,0.1,0.4,0.2,0.7,0.4c0.2,0.1,0.3,0.2,0.5,0.3c0.2,0.1,0.4,0.2,0.5,0.4
			c0.1,0.1,0.2,0.1,0.4,0.3c0,0,0.1,0,0.1,0c0,0,0.1,0.1,0.1,0.1c0,0,0.2,0.2,0.3,0.2c0.1,0.1,0.2,0.2,0.3,0.2c0,0,0.1,0.1,0.1,0.1
			c0,0,0.1,0.1,0.1,0.1c0.1,0.1,0.2,0.2,0.3,0.3c0.1,0.1,0.2,0.2,0.3,0.4c0.2,0.2,0.2,0.3,0.3,0.4c0.1,0.1,0.2,0.2,0.2,0.4
			c0,0,0,0,0,0c0.1,0.2,0.2,0.4,0.3,0.6c0,0.1,0,0.1,0.1,0.2c0,0.1,0.1,0.2,0.1,0.2c0,0,0,0.1,0,0.1c0,0,0.1,0.1,0.1,0.2
			c0,0.1,0,0.2,0.1,0.4c0,0.1,0,0.2,0.1,0.4c0,0.2,0.1,0.4,0.1,0.6c0,0.1,0,0.1,0,0.2c0,0.1,0,0.2,0,0.2c0,0,0,0.2,0,0.3
			c0,0.1,0,0.3,0,0.4c-0.1,0,0,0.1,0,0.2c0,0.1,0,0-0.1,0.1c0,0,0,0.1,0,0.1C32.9,32.1,32.9,32.1,32.9,32.2z M25.2,23
			C25.2,23,25.2,23,25.2,23C25.3,23,25.3,23,25.2,23z M25.2,23c-0.1,0-0.2,0-0.2,0c0,0,0,0,0,0c0,0-0.1,0-0.1,0c0,0,0.1,0,0.1,0
			c0,0,0.1,0,0.1,0C25.2,23,25.2,23,25.2,23C25.2,23,25.2,23,25.2,23z"/>
	</g>
</g>
</svg>
