<?xml version="1.0" encoding="utf-8"?>
<!-- Generator: Adobe Illustrator 18.1.1, SVG Export Plug-In . SVG Version: 6.00 Build 0)  -->
<svg version="1.1" id="Layer_1" xmlns="http://www.w3.org/2000/svg" xmlns:xlink="http://www.w3.org/1999/xlink" x="0px" y="0px"
	 viewBox="0 0 62.4 108.4" enable-background="new 0 0 62.4 108.4" xml:space="preserve">
<g>
	<g>
		<path fill="#FFFFFF" d="M24.4,108.4c0,0,0.6-0.1,1.8-0.4c1.1-0.3,2.8-0.8,4.8-1.6c4-1.6,9.7-4.7,14.6-10.4
			c4.9-5.6,8.8-14,9.1-23.4c0-1.2,0-2.4,0-3.5l0-0.4l0,0l0.2,0c0.6,0,1.2,0,1.8-0.1c1.2-0.1,2.5-0.3,3.7-0.9
			c0.3-0.1,0.6-0.4,0.9-0.6c0.2-0.3,0.5-0.5,0.6-0.8c0.3-0.6,0.5-1.3,0.6-1.9c0.1-1.3-0.1-2.7-0.9-3.9c-0.4-0.6-1.2-1-2-1
			c-0.6,0-1.2,0-1.8,0c-0.6,0-1.2-0.1-1.9-0.1c-0.6,0-1.2,0-1.7-0.1c-0.3-0.1-0.5-0.1-0.7-0.3c-0.1-0.1-0.1-0.1-0.1-0.1l0-0.1l0-0.2
			c-0.1-0.6-0.3-1.3-0.5-1.8c-0.4-1.2-1-2.3-1.6-3.4c-0.6-1.1-1.3-2.2-2.2-3.1c-1.7-1.9-3.7-3.4-5.7-4.7c-2-1.3-4.2-2.5-6.2-3.8
			c-2-1.3-4-2.5-5.9-3.8C23.5,32.7,17,27,12.3,21.4c-4.7-5.6-7.6-11.1-9.2-15c-0.8-2-1.3-3.6-1.6-4.7C1.2,0.6,1.1,0,1.1,0L0,0.3
			c0,0,0.2,0.6,0.5,1.7c0.3,1.1,0.8,2.8,1.7,4.8c1.6,4,4.6,9.6,9.4,15.3c4.7,5.7,11.3,11.5,19,16.7c1.9,1.3,3.9,2.6,5.9,3.9
			c2,1.3,4.1,2.4,6.1,3.8c2,1.3,3.9,2.8,5.5,4.5c0.8,0.9,1.4,1.9,2,2.9c0.6,1.1,1.1,2.2,1.5,3.3c0.2,0.6,0.4,1.1,0.5,1.7l0.1,0.6
			c0.1,0.2,0.5,0.4,0.6,0.5c0.3,0.2,0.7,0.3,1,0.4c0.7,0.2,1.4,0.2,1.9,0.1c0.6,0,1.2,0,1.8,0.1c0.6,0,1.2,0,1.9,0
			c0.5,0,0.9,0.2,1.2,0.6c0.6,0.8,0.8,2,0.7,3.1c-0.1,1.1-0.6,2.1-1.5,2.5c-1,0.5-2.1,0.7-3.3,0.8c-0.6,0-1.2,0.1-1.7,0.1l-0.7,0
			c-0.3,0-0.7-0.1-0.6,0.3l0.1,1.3c0.1,1.2,0.1,2.3,0,3.4c-0.3,9.1-4.1,17.3-8.8,22.7c-4.8,5.5-10.3,8.5-14.2,10.1
			c-2,0.8-3.6,1.2-4.7,1.5c-1.1,0.3-1.7,0.4-1.7,0.4L24.4,108.4z"/>
		<path fill-rule="evenodd" clip-rule="evenodd" fill="#FFFFFF" d="M16.6,27.5c-0.1-0.1-0.2-0.2-0.3-0.3
			C16.4,27.3,16.5,27.4,16.6,27.5z"/>
		<path fill-rule="evenodd" clip-rule="evenodd" fill="#FFFFFF" d="M12.9,22.4c-0.1-0.1-0.3-0.4-0.3-0.4
			C12.7,22.2,12.8,22.3,12.9,22.4z"/>
		<path fill-rule="evenodd" clip-rule="evenodd" fill="#FFFFFF" d="M12.4,21.9c0,0-0.2-0.3-0.3-0.4C12.1,21.6,12.4,21.8,12.4,21.9z"
			/>
		<path fill-rule="evenodd" clip-rule="evenodd" fill="#FFFFFF" d="M11.1,20.5c-0.1-0.1-0.2-0.3-0.3-0.4
			C11,20.3,11.1,20.4,11.1,20.5z"/>
		<path fill-rule="evenodd" clip-rule="evenodd" fill="#FFFFFF" d="M10.7,19.7c-0.2-0.2-0.3-0.4-0.5-0.6
			C10.4,19.4,10.5,19.5,10.7,19.7z"/>
		<path fill-rule="evenodd" clip-rule="evenodd" fill="#FFFFFF" d="M8.8,18.2c-0.3-0.3-0.7-1-0.9-1.3C8.2,17.3,8.5,17.8,8.8,18.2z"
			/>
		<path fill-rule="evenodd" clip-rule="evenodd" fill="#FFFFFF" d="M8.4,17.1c-0.3-0.4-0.8-1.2-1.2-1.8c0-0.1,0.5,0.8,0.6,1
			C7.9,16.4,8,16.5,8,16.6C8.1,16.8,8.3,16.9,8.4,17.1z"/>
		<path fill-rule="evenodd" clip-rule="evenodd" fill="#FFFFFF" d="M5,11.6c0,0,0,0-0.1-0.2c0,0,0-0.1,0-0.1L5,11.6z"/>
		<path fill-rule="evenodd" clip-rule="evenodd" fill="#FFFFFF" d="M3.7,9.3C3.5,8.9,3.1,8,3,7.5c0-0.1-0.1-0.1-0.1-0.2
			C2.7,7,2.5,6.4,2.7,7C3.1,7.8,3.3,8.4,3.7,9.3z"/>
		<path fill-rule="evenodd" clip-rule="evenodd" fill="#FFFFFF" d="M3.7,8.9C3.7,8.8,3.6,8.6,3.5,8.5C3.5,8.5,3.7,8.8,3.7,8.9z"/>
		<path fill-rule="evenodd" clip-rule="evenodd" fill="#FFFFFF" d="M3.1,8.5C3,8.2,3,8.1,2.9,7.9C3,8.1,3,8.2,3.1,8.5z"/>
		<path fill-rule="evenodd" clip-rule="evenodd" fill="#FFFFFF" d="M3.5,8.5C3.4,8.2,3.3,8,3.2,7.8C3.1,7.6,3.4,8.2,3.5,8.5z"/>
		<path fill-rule="evenodd" clip-rule="evenodd" fill="#FFFFFF" d="M3.4,8.2C3.2,7.9,3.2,7.7,3,7.4C3.2,7.7,3.3,7.9,3.4,8.2z"/>
		<path fill-rule="evenodd" clip-rule="evenodd" fill="#FFFFFF" d="M2.8,7.9c0,0-0.1-0.3-0.2-0.4C2.6,7.5,2.7,7.7,2.8,7.9z"/>
		<path fill-rule="evenodd" clip-rule="evenodd" fill="#FFFFFF" d="M2.8,7.6C2.7,7.4,2.4,6.7,2.2,6.3C2.4,6.8,2.5,7.1,2.8,7.6z"/>
		<path fill-rule="evenodd" clip-rule="evenodd" fill="#FFFFFF" d="M3,7.3C2.8,7,2.6,6.5,2.5,6.2C2.7,6.5,2.8,7,3,7.3z"/>
		<path fill-rule="evenodd" clip-rule="evenodd" fill="#FFFFFF" d="M2.5,6.5C2.4,6.3,2.4,6.2,2.3,6C2.3,5.9,2.4,6.3,2.5,6.5z"/>
		<path fill-rule="evenodd" clip-rule="evenodd" fill="#FFFFFF" d="M2.3,5.9C2.2,5.7,2.2,5.6,2.1,5.4C2.2,5.6,2.3,5.8,2.3,5.9z"/>
		<path fill-rule="evenodd" clip-rule="evenodd" fill="#FFFFFF" d="M2.1,5.4c0-0.1-0.2-0.6-0.2-0.4C2,5.1,2,5,2,5
			C2.1,5.2,2.1,5.2,2.1,5.4z"/>
		<path fill-rule="evenodd" clip-rule="evenodd" fill="#FFFFFF" d="M1.5,4.1C1.6,4.4,1.8,4.9,1.5,4.1L1.5,4.1z"/>
		<path fill-rule="evenodd" clip-rule="evenodd" fill="#FFFFFF" d="M1.1,3.4C1,3,1,2.8,0.9,2.5C0.9,2.8,1.1,3.2,1.1,3.4z"/>
		<path fill-rule="evenodd" clip-rule="evenodd" fill="#FFFFFF" d="M1.1,3.2c0,0.1-0.1-0.4-0.1-0.3L1.1,3.2z"/>
		<path fill-rule="evenodd" clip-rule="evenodd" fill="#FFFFFF" d="M0.7,2.6C0.7,2.4,0.6,2.3,0.6,2.1C0.6,2.2,0.7,2.5,0.7,2.6z"/>
		<path fill-rule="evenodd" clip-rule="evenodd" fill="#FFFFFF" d="M0.2,0.7C0.1,0.2,0,0,0.2,0.7L0.2,0.7z"/>
		<path fill-rule="evenodd" clip-rule="evenodd" fill="#FFFFFF" d="M6.4,15c-0.1-0.1-0.1-0.2-0.2-0.3c-0.2-0.4-0.3-0.5-0.5-0.8
			C6.1,14.4,6.1,14.5,6.4,15z"/>
		<path fill-rule="evenodd" clip-rule="evenodd" fill="#FFFFFF" d="M3,8C2.9,7.9,2.9,7.9,2.9,7.7c0,0,0,0.1,0,0.1
			C2.8,7.5,2.7,7.3,2.6,7c0,0,0,0.1,0,0.1C2.4,6.7,2.3,6.3,2,5.6c0.3,0.7,0.9,2.3,1.2,2.9C3.1,8.2,3.1,8.1,2.9,7.8
			C2.9,7.8,3.1,8.1,3,8z"/>
		<path fill-rule="evenodd" clip-rule="evenodd" fill="#FFFFFF" d="M2.9,7.3C2.9,7.2,2.9,7.2,2.9,7.3c0,0-0.1-0.3-0.1-0.3
			C2.8,7,3.2,7.9,2.9,7.3z"/>
		<path fill-rule="evenodd" clip-rule="evenodd" fill="#FFFFFF" d="M1.2,2.5L1.2,2.5C1.1,2.1,0.9,1.4,0.8,1.1C0.9,1.6,1.2,2.7,1.4,3
			c0,0.1,0.1,0.2,0.1,0.3c0.4,1.1,0.8,2.4,1.3,3.5C2.6,6.4,2.1,5.2,1.9,4.6c0-0.1,0,0,0,0.1C1.7,4.1,1.4,3.2,1.2,2.5z"/>
		<path fill-rule="evenodd" clip-rule="evenodd" fill="#FFFFFF" d="M1,3C0.9,2.9,0.9,2.8,0.9,2.6C0.8,2.6,1,2.9,1,3z"/>
		<path fill-rule="evenodd" clip-rule="evenodd" fill="#FFFFFF" d="M39.6,100.2c-0.2,0.2-0.5,0.4-0.8,0.6c-0.6,0.4-1.1,0.8-1.8,1.2
			c-0.5,0.4-1.1,0.7-1.7,1.1c-0.4,0.3-0.6,0.3-0.9,0.5c-0.9,0.5-1.6,0.8-2,1.1c-0.6,0.3-1.4,0.7-2,0.9c-0.1,0.1-0.3,0.1-0.3,0.1
			c-1.4,0.6-2.3,1-4.1,1.5c-0.2,0.1-0.3,0.1-0.6,0.2c-0.2,0.1-0.4,0.1-0.5,0.1c-0.4,0.1,0,0.1-0.7,0.3c0,0,0.1,0,0.1,0
			c0,0.1,0.3,0.1,0.1,0.2c0.5-0.1,0.4,0,0.8-0.1c0.2,0,0.7-0.1,1-0.2c0.3-0.1,0.6-0.1,1-0.2c0,0,0.4-0.1,0.5-0.1
			c0.5-0.1,1-0.3,1.4-0.4c0.1,0,0.2,0,0.2,0c1.1-0.4,2.2-0.7,3.6-1.4c0.1-0.1,0.4-0.2,0.6-0.3c1.1-0.5,2.6-1.4,3.2-1.7
			c0.2-0.1,0.2-0.1,0.4-0.2c0.1-0.1,0.7-0.4,1.1-0.7c0.2-0.1,0.4-0.3,0.7-0.5c0.5-0.4,1-0.7,1.4-1c0.1-0.1,0.4-0.4,0.6-0.5
			c0.5-0.4,1.6-1.3,2-1.7c0.3-0.3,0.5-0.5,0.7-0.7c0.2-0.2,0.4-0.4,0.3-0.4c0.6-0.7,2.2-2.3,3-3.4c0.6-0.8,1.2-1.6,1.7-2.4
			c0.1-0.1,0.2-0.4,0.3-0.5c0.2-0.3,0.4-0.7,0.6-1c0.4-0.6,0.7-1.2,0.9-1.7c0.5-0.8,0.7-1.4,1-2.1c0.1-0.2,0.2-0.6,0.3-0.8
			c0.1-0.2,0.2-0.5,0.3-0.8c0.1-0.3,0.2-0.6,0.3-0.8c0.1-0.2,0.1-0.4,0.2-0.5c0.1-0.2,0.1-0.4,0.2-0.6c0.1-0.2,0.2-0.5,0.2-0.7
			c0.3-0.9,0.5-1.9,0.7-2.8c0.4-1.6,0.5-3,0.8-4.9c0-0.5,0.1-0.8,0.1-1.3c0-0.1,0-0.2,0-0.3c0-0.5,0-1,0-1.5c0-0.5,0-1,0-1.5
			c0-0.1,0-0.1,0-0.1c0-0.4,0-0.7-0.1-1.1l0-0.1c0,0,0.1,0,0.1,0c0.7,0,1.5,0,2-0.1c0.9-0.1,1.9-0.2,2.9-0.6c0.5-0.2,1-0.4,1.4-0.8
			c0.8-0.7,1.3-2,1.3-2.9c0-0.3,0-0.5,0-0.8c0-0.5-0.1-1-0.3-1.5c-0.2-0.5-0.4-1-0.8-1.4c-0.4-0.4-0.9-0.8-1.5-0.8
			c-0.6-0.1-1,0-1.5-0.1c-0.5,0-0.9,0-1.3-0.1c-0.5,0-1,0-1.5,0c-0.5,0-0.9,0-1.4-0.1c-0.2,0-0.4-0.1-0.6-0.2
			c-0.1,0-0.2-0.1-0.3-0.1C53.1,59,53.1,59,53,59c0-0.1,0-0.2,0-0.2c0-0.1-0.1-0.2-0.1-0.3c-0.1-0.6-0.3-1.1-0.5-1.7
			c-0.5-1.4-1.2-2.7-1.9-3.9c-0.5-0.8-1.1-1.7-1.9-2.5c-0.8-0.8-1.6-1.6-2.4-2.3c-0.6-0.5-0.7-0.6-1.1-0.8c-1.2-0.9-2.8-1.9-4.1-2.7
			c-5.6-3.2-11.2-6.9-16.2-10.8c-0.5-0.4-0.9-0.7-1.3-1.1c-0.2-0.2-0.3-0.3-0.5-0.4c-0.6-0.5-1.4-1.2-2.2-1.8
			c-0.2-0.2-0.6-0.6-0.9-0.8c-0.1-0.1,0.2,0.1,0,0c-0.5-0.4-2.1-1.9-2.8-2.6c0,0,0.1,0.1,0,0c-0.2-0.2-0.3-0.2-0.4-0.4
			c-1.3-1.3-2.2-2.2-3.2-3.3c-0.1-0.1-0.4-0.5-0.6-0.7c0.2,0.2,0.4,0.5,0.4,0.5c-0.3-0.4-0.7-0.8-0.9-1c-0.3-0.4-0.5-0.6-0.9-1.1
			c-0.1-0.1,0.1,0.1-0.1-0.1c-0.5-0.7-0.7-0.9-1.2-1.5c-0.1-0.2-0.6-0.8-0.8-1c-0.1-0.2,0.1,0.2,0,0.1c-0.4-0.5-0.7-1-1.1-1.5
			c-0.1-0.1-0.2-0.3-0.3-0.4c-0.1-0.1,0,0-0.1-0.2c-0.1-0.2,0.1,0.2,0.1,0.1c-0.1-0.1-0.1-0.2-0.2-0.3c-0.2-0.4-0.4-0.6-0.6-1
			c-0.2-0.4-0.5-0.8-0.7-1.1c-0.2-0.3-0.3-0.4-0.5-0.8c-0.1-0.3-0.3-0.5-0.5-0.8C5.3,12,5.5,12.3,5.3,12C4.7,10.9,4.2,9.8,3.8,9
			c0.6,1.3,1.1,2.2,1.7,3.3c0.1,0.2,0.3,0.5,0.4,0.7c0,0.1-0.1-0.2,0,0.1c0,0.1,0.1,0.1,0.1,0.2c-0.1-0.1,0,0.1,0.1,0.2
			c0.5,0.9,1,1.6,1.5,2.4c0.1,0.1-0.1-0.1,0,0.1c0.2,0.3,0.3,0.5,0.6,0.9c0.1,0.1,0.2,0.3,0.1,0.2c-0.7-1-1.6-2.4-2.4-3.7
			c-0.2-0.4-0.4-0.8-0.6-1c0.3,0.6,0.6,1.1,0.9,1.5c0.4,0.6,0.8,1.3,1.2,1.9c0.1,0.2,0.2,0.3,0.3,0.4c0.1,0.1,0.2,0.3,0.3,0.5
			c0.1,0.1,0.1,0.2,0.2,0.3c0.2,0.2,0.3,0.5,0.5,0.7C9,18,9.4,18.5,9.7,19c0.1,0.1,0,0.1-0.1-0.1c-0.4-0.6-0.5-0.7-1-1.3
			c0,0.1,0.1,0.1,0.1,0.1c-0.1-0.2-0.1-0.2-0.3-0.4c0.3,0.5,0.3,0.4,0.2,0.3C7.9,16.4,6.9,15,6.3,14c-0.1-0.1-0.2-0.3-0.2-0.4
			c-0.7-1.1-1.4-2.4-2-3.7c0.7,1.4,1.5,2.9,2.5,4.5c0,0.1,0,0,0.1,0.2c0.4,0.7,0.9,1.5,1.3,2c0.1,0.2,0.3,0.4,0.4,0.7
			c1.1,1.6,2,2.8,3.1,4.2c0,0,0.1,0.1,0.1,0.2c-0.1-0.1-0.2-0.2-0.3-0.3c-0.2-0.2-0.3-0.4-0.6-0.7c-1-1.2-2.3-3-3.4-4.7
			c-0.1-0.2,0,0,0,0.1c0.5,0.8,1,1.5,1.6,2.3c0.2,0.3-0.1,0-0.5-0.6c-0.7-1.1-2-2.9-2.4-3.6c-2-3.2-3.6-6.6-4.8-10.3
			c0.7,2,1.5,3.9,2.3,5.6c0,0,0,0.1,0.1,0.2c0.8,1.7,1.8,3.6,2.7,5c0.4,0.6,1.1,1.7,1.5,2.3c-0.1-0.1-0.5-0.6-0.9-1.2
			c0.4,0.6,0.8,1.2,1.1,1.7c0.3,0.4,0.8,1.1,1,1.3c0,0.1,0,0,0,0.1c-0.1-0.2,0.2,0.3,0.2,0.3c0.2,0.2,0.2,0.2,0.3,0.4
			c0.2,0.3,0.2,0.3,0.4,0.5c0.9,1.2,1.8,2.2,2.8,3.4c0.1,0.1,0.3,0.3,0.3,0.4c0,0.1,0.1,0.1,0.1,0.2c0,0,0.1,0.1,0.1,0.2
			c0.4,0.4,0.8,0.9,1.2,1.3c1,1,2.2,2.2,3,3c0.2,0.2-0.1,0,0.2,0.2c1.5,1.4,3.1,2.8,4.7,4.1c0.1,0.1,0,0,0.2,0.2
			c0.2,0.1,0.2,0.2,0.4,0.3c0.1,0.1,0.2,0.2,0.3,0.3c1.9,1.5,4,3,6,4.5c1.9,1.3,3.9,2.6,5.8,3.8c1.5,0.9,2.9,1.8,4.3,2.6
			c1.8,1.1,3.3,2,4.9,3.2c1.1,0.8,2.3,1.8,3.1,2.7c0.1,0.1,0.3,0.3,0.5,0.5c0.2,0.3,0.5,0.5,0.7,0.8c0.6,0.7,1.1,1.6,1.5,2.4
			c0.5,1,1,1.9,1.3,2.9c0.2,0.6,0.4,1.1,0.5,1.7c0,0.1,0,0.2,0.1,0.3c0,0.1,0,0.3,0.1,0.4c0,0.1,0.1,0.1,0.1,0.2
			c0.1,0.1,0.1,0.1,0.2,0.2c0.1,0.1,0.2,0.1,0.3,0.2c1.2,0.6,2.5,0.4,3.5,0.4c0.7,0,1.5,0.1,2.2,0.1l0.6,0c0.2,0,0.3,0,0.5,0
			c0.3,0.1,0.5,0.2,0.8,0.5c1,1,1.1,3.2,0.6,4.5c-0.2,0.5-0.6,1-1.1,1.3c-0.5,0.3-1.1,0.5-1.8,0.7c-0.1,0-0.2,0-0.4,0.1
			c-1,0.2-2.2,0.2-3.3,0.2c-0.2,0-0.5,0-0.7,0c-0.1,0-0.3,0-0.3,0l0,0.4c0,0.4,0,0.7,0.1,1.1c0,0.5,0.1,1,0.1,1.4c0,0.7,0,1.2,0,1.8
			c0,0.7,0,1.3-0.1,1.9c0,0.2,0,0.4-0.1,0.6c-0.1,0.6-0.1,1.3-0.2,2c-0.2,1-0.4,2.1-0.7,3.3c-0.2,0.9-0.6,2.2-1,3.2
			c-0.6,1.7-1.3,3.4-2.2,5c-0.3,0.6-0.6,1-0.9,1.6c-0.3,0.6-0.8,1.2-1.2,1.9c-0.5,0.6-0.9,1.3-1.4,2c-0.7,0.9-1.7,2-2.3,2.6
			c-0.3,0.3-0.8,0.9-1.5,1.5c-0.4,0.3-0.3,0.3-0.5,0.4c-0.4,0.4-0.6,0.6-1,0.8C40.4,99.6,40.1,99.8,39.6,100.2z M9.2,18.1
			C9.2,18.1,9.2,18.1,9.2,18.1C9.3,18.2,9.5,18.4,9.2,18.1z M9.1,18c-0.3-0.5-0.8-1.1-1-1.5c-0.1-0.1,0,0.1-0.1-0.1
			c-0.2-0.3-0.3-0.5-0.5-0.8c0,0,0.4,0.7,0.5,0.7c0.2,0.3,0.3,0.4,0.4,0.5C8.7,17.4,8.8,17.5,9.1,18C9,17.8,9.2,18,9.1,18z"/>
	</g>
	<g>
		<path fill="#FFFFFF" d="M53.3,79.5c0,0-0.6-0.2-1.6-0.5c-1-0.3-2.4-0.9-4-1.7c-1.6-0.9-3.2-2.2-4.4-4.1c-1.2-1.9-2-4.2-2.2-6.6
			c-0.3-2.4-0.1-4.8,0.2-7.1c0.3-2.3,0.9-4.3,1.9-5.8c0.9-1.6,1.8-2.9,2.2-4c0.4-1,0.6-1.7,0.6-1.7l-1.1-0.2c0,0-0.1,0.6-0.5,1.5
			c-0.4,1-1.2,2.2-2.1,3.9c-1,1.6-1.7,3.9-2,6.2c-0.3,2.3-0.5,4.9-0.2,7.4c0.3,2.5,1.1,5,2.4,7c1.3,2.1,3.1,3.6,4.7,4.5
			c1.7,1,3.2,1.5,4.2,1.8c1,0.3,1.6,0.5,1.6,0.5L53.3,79.5z"/>
		<path fill-rule="evenodd" clip-rule="evenodd" fill="#FFFFFF" d="M41.4,54.8c0,0,0-0.1,0-0.1C41.5,54.7,41.4,54.8,41.4,54.8z"/>
		<path fill-rule="evenodd" clip-rule="evenodd" fill="#FFFFFF" d="M42.8,53.7c0,0,0.1-0.1,0.1-0.1C42.8,53.6,42.8,53.7,42.8,53.7z"
			/>
		<path fill-rule="evenodd" clip-rule="evenodd" fill="#FFFFFF" d="M42.9,53.6c0,0,0-0.1,0.1-0.1C42.9,53.5,42.9,53.5,42.9,53.6z"/>
		<path fill-rule="evenodd" clip-rule="evenodd" fill="#FFFFFF" d="M43,53.1c0,0,0-0.1,0.1-0.1C43.1,53,43,53,43,53.1z"/>
		<path fill-rule="evenodd" clip-rule="evenodd" fill="#FFFFFF" d="M43.2,52.9c0,0,0-0.1,0.1-0.2C43.3,52.8,43.3,52.9,43.2,52.9z"/>
		<path fill-rule="evenodd" clip-rule="evenodd" fill="#FFFFFF" d="M43,52.1c0.1-0.1,0.2-0.3,0.2-0.3C43.1,52,43.1,51.9,43,52.1z"/>
		<path fill-rule="evenodd" clip-rule="evenodd" fill="#FFFFFF" d="M43.4,52c0.1-0.1,0.2-0.3,0.3-0.5c0,0-0.1,0.2-0.1,0.3
			c0,0,0,0.1-0.1,0.1C43.4,51.9,43.4,52,43.4,52z"/>
		<path fill-rule="evenodd" clip-rule="evenodd" fill="#FFFFFF" d="M44.2,50.6C44.2,50.6,44.2,50.6,44.2,50.6
			C44.2,50.6,44.3,50.6,44.2,50.6L44.2,50.6z"/>
		<path fill-rule="evenodd" clip-rule="evenodd" fill="#FFFFFF" d="M44.5,50c0-0.1,0.1-0.3,0.2-0.4c0,0,0,0,0,0c0-0.1,0.1-0.2,0-0.1
			C44.6,49.6,44.6,49.8,44.5,50z"/>
		<path fill-rule="evenodd" clip-rule="evenodd" fill="#FFFFFF" d="M44.6,50c0,0,0-0.1,0-0.1C44.7,49.9,44.6,50,44.6,50z"/>
		<path fill-rule="evenodd" clip-rule="evenodd" fill="#FFFFFF" d="M44.4,49.7c0,0,0-0.1,0.1-0.1C44.4,49.6,44.4,49.7,44.4,49.7z"/>
		<path fill-rule="evenodd" clip-rule="evenodd" fill="#FFFFFF" d="M44.6,49.9c0-0.1,0-0.1,0.1-0.2C44.7,49.6,44.7,49.8,44.6,49.9z"
			/>
		<path fill-rule="evenodd" clip-rule="evenodd" fill="#FFFFFF" d="M44.7,49.8c0,0,0.1-0.1,0.1-0.2C44.8,49.7,44.7,49.7,44.7,49.8z"
			/>
		<path fill-rule="evenodd" clip-rule="evenodd" fill="#FFFFFF" d="M44.4,49.5c0,0,0-0.1,0-0.1C44.4,49.4,44.4,49.5,44.4,49.5z"/>
		<path fill-rule="evenodd" clip-rule="evenodd" fill="#FFFFFF" d="M44.5,49.5c0-0.1,0.1-0.2,0.1-0.3C44.6,49.3,44.5,49.4,44.5,49.5
			z"/>
		<path fill-rule="evenodd" clip-rule="evenodd" fill="#FFFFFF" d="M44.8,49.6c0-0.1,0.1-0.2,0.1-0.3C44.9,49.4,44.8,49.5,44.8,49.6
			z"/>
		<path fill-rule="evenodd" clip-rule="evenodd" fill="#FFFFFF" d="M44.8,49.3c0-0.1,0-0.1,0-0.1C44.8,49.2,44.8,49.3,44.8,49.3z"/>
		<path fill-rule="evenodd" clip-rule="evenodd" fill="#FFFFFF" d="M44.9,49.2c0,0,0-0.1,0-0.1C44.9,49.1,44.9,49.2,44.9,49.2z"/>
		<path fill-rule="evenodd" clip-rule="evenodd" fill="#FFFFFF" d="M44.9,49.1c0,0,0-0.1,0-0.1C45,49,45,49,44.9,49.1
			C45,49,45,49,44.9,49.1z"/>
		<path fill-rule="evenodd" clip-rule="evenodd" fill="#FFFFFF" d="M44.9,48.7C44.9,48.7,44.8,48.9,44.9,48.7L44.9,48.7z"/>
		<path fill-rule="evenodd" clip-rule="evenodd" fill="#FFFFFF" d="M44.8,48.5c0-0.1,0-0.1,0.1-0.2C44.9,48.3,44.9,48.4,44.8,48.5z"
			/>
		<path fill-rule="evenodd" clip-rule="evenodd" fill="#FFFFFF" d="M44.8,48.4C44.8,48.4,44.9,48.3,44.8,48.4L44.8,48.4z"/>
		<path fill-rule="evenodd" clip-rule="evenodd" fill="#FFFFFF" d="M44.8,48.2c0,0,0-0.1,0-0.1C44.8,48.1,44.8,48.2,44.8,48.2z"/>
		<path fill-rule="evenodd" clip-rule="evenodd" fill="#FFFFFF" d="M44.9,47.8C44.9,47.6,44.9,47.6,44.9,47.8L44.9,47.8z"/>
		<path fill-rule="evenodd" clip-rule="evenodd" fill="#FFFFFF" d="M43.4,51.2C43.4,51.2,43.4,51.1,43.4,51.2
			c0.1-0.1,0.1-0.2,0.2-0.3C43.5,51,43.4,51.1,43.4,51.2z"/>
		<path fill-rule="evenodd" clip-rule="evenodd" fill="#FFFFFF" d="M44.5,49.6C44.5,49.6,44.5,49.6,44.5,49.6
			C44.5,49.5,44.5,49.6,44.5,49.6c0.1-0.2,0.1-0.2,0.1-0.2c0,0,0,0,0,0c0-0.1,0.1-0.2,0.2-0.4c-0.1,0.2-0.2,0.6-0.3,0.7
			C44.4,49.7,44.5,49.6,44.5,49.6C44.5,49.6,44.5,49.7,44.5,49.6z"/>
		<path fill-rule="evenodd" clip-rule="evenodd" fill="#FFFFFF" d="M44.8,49.6C44.8,49.5,44.8,49.6,44.8,49.6
			C44.8,49.6,44.8,49.5,44.8,49.6C44.8,49.5,44.7,49.7,44.8,49.6z"/>
		<path fill-rule="evenodd" clip-rule="evenodd" fill="#FFFFFF" d="M45.2,48.4L45.2,48.4c0-0.1,0.1-0.3,0.1-0.3
			c0,0.1-0.1,0.4-0.1,0.5c0,0,0,0,0,0.1c-0.1,0.3-0.2,0.6-0.3,0.9c0-0.1,0.2-0.4,0.2-0.6c0,0,0,0,0,0C45.1,48.8,45.2,48.5,45.2,48.4
			z"/>
		<path fill-rule="evenodd" clip-rule="evenodd" fill="#FFFFFF" d="M44.8,48.4C44.8,48.3,44.8,48.3,44.8,48.4
			C44.9,48.2,44.9,48.3,44.8,48.4z"/>
		<path fill-rule="evenodd" clip-rule="evenodd" fill="#FFFFFF" d="M48.8,79c0,0,0.2,0.1,0.2,0.1c0.2,0.1,0.3,0.2,0.5,0.2
			c0.1,0,0.4,0.1,0.5,0.2c0.1,0,0.2,0.1,0.3,0.1c0.2,0.1,0.4,0.2,0.6,0.2c0.2,0.1,0.3,0.1,0.6,0.1c0.1,0,0.1,0,0.1,0
			c0.4,0.1,0.6,0.1,1.1,0.2c0,0,0.1,0,0.2,0c0,0,0.1,0,0.1,0c0.1,0,0-0.1,0.2,0c0,0,0,0,0,0c0-0.1,0-0.1,0-0.2
			c-0.1-0.1-0.1-0.1-0.2-0.1c-0.1,0-0.2-0.1-0.2-0.1c-0.1,0-0.1-0.1-0.2-0.1c0,0-0.1-0.1-0.1-0.1c-0.1,0-0.2-0.1-0.3-0.2
			c0,0,0,0,0,0c-0.3-0.1-0.5-0.3-0.9-0.4c0,0-0.1,0-0.1-0.1c-0.3-0.1-0.7-0.3-0.8-0.3c-0.1,0,0,0-0.1,0c0,0-0.2-0.1-0.3-0.2
			c0,0-0.2-0.1-0.2-0.1c-0.1-0.1-0.3-0.1-0.4-0.2c0,0-0.1,0-0.2-0.1c-0.2-0.1-0.5-0.2-0.6-0.3c-0.1-0.1-0.1-0.1-0.2-0.1
			c-0.1,0-0.1,0-0.1,0c-0.2-0.1-0.7-0.4-1-0.5c-0.4-0.3-0.4-0.3-0.6-0.4c0,0-0.1-0.1-0.1-0.1c0,0-0.2-0.1-0.2-0.2
			c-0.2-0.1-0.2-0.1-0.4-0.3c-0.2-0.2-0.3-0.2-0.4-0.4c0,0-0.1-0.1-0.2-0.1c0,0-0.1-0.1-0.1-0.1c0,0-0.1-0.1-0.1-0.2
			c0,0-0.1-0.1-0.1-0.1c0,0-0.1-0.1-0.1-0.1c0,0-0.1-0.1-0.1-0.1c-0.1-0.1-0.1-0.1-0.5-0.5c-0.2-0.3-0.5-0.6-0.7-1
			c-0.1-0.1-0.1-0.2-0.2-0.3c0,0,0,0,0-0.1c-0.1-0.2-0.3-0.4-0.4-0.6c0,0,0,0,0,0c-0.2-0.4-0.2-0.5-0.5-0.9
			c-0.2-0.4-0.2-0.5-0.3-0.6c0-0.1-0.1-0.2-0.1-0.3c-0.1-0.2-0.2-0.5-0.2-0.7c0,0-0.1-0.1-0.1-0.2c0-0.1,0-0.2-0.1-0.3
			c-0.1-0.4-0.3-1-0.3-1.4c0-0.1-0.1-0.3-0.1-0.4c0-0.2-0.1-0.5-0.1-0.7c0,0,0-0.1,0-0.2c0-0.2,0-0.3-0.1-0.4c0-0.4-0.1-0.7-0.1-1.1
			c0-0.4-0.1-1.1-0.1-1.6c0-0.1,0-0.2,0-0.3c0-0.4,0-0.8,0-1.2c0.1-1.6,0.3-3.3,0.6-4.8c0-0.1,0.1-0.3,0.1-0.4c0,0,0-0.1,0-0.1
			c0-0.2,0.1-0.4,0.2-0.7c0-0.1,0.1-0.2,0.1-0.3c0,0,0,0.1,0,0c0-0.2,0.2-0.7,0.3-0.9c0,0,0,0,0,0c0-0.1,0-0.1,0.1-0.1
			c0.2-0.4,0.3-0.7,0.5-1c0,0,0.1-0.1,0.1-0.2c0,0.1-0.1,0.1-0.1,0.1c0.1-0.1,0.1-0.2,0.2-0.3c0.1-0.1,0.1-0.2,0.2-0.3c0,0,0,0,0,0
			c0.2-0.3,0.1-0.2,0.2-0.4c0-0.1,0.1-0.2,0.2-0.3c0-0.1,0,0.1,0,0c0.1-0.1,0.2-0.3,0.2-0.4c0,0,0-0.1,0-0.1c0,0,0,0,0,0
			c0-0.1,0,0,0,0c0-0.1,0-0.1,0-0.1c0.1-0.1,0.1-0.2,0.1-0.3c0.1-0.2,0.1-0.1,0.2-0.3c0-0.1,0.1-0.1,0.1-0.2c0,0,0.1-0.2,0.1-0.2
			c0,0,0,0,0,0c0.2-0.3,0.3-0.6,0.4-0.8c-0.1,0.3-0.3,0.6-0.4,0.8c0,0-0.1,0.1-0.1,0.2c0,0,0,0,0,0c0,0,0,0,0,0.1c0,0,0,0,0,0
			c-0.1,0.2-0.2,0.4-0.4,0.6c0,0,0,0,0,0c-0.1,0.1,0,0.1-0.1,0.2c0,0-0.1,0.1-0.1,0c0.1-0.2,0.4-0.7,0.5-1c0.1-0.1,0.1-0.2,0.1-0.3
			c-0.1,0.1-0.2,0.3-0.2,0.4c-0.1,0.1-0.2,0.3-0.3,0.5c0,0-0.1,0.1-0.1,0.1c0,0-0.1,0.1-0.1,0.1c0,0,0,0.1,0,0.1
			c0,0-0.1,0.2-0.1,0.2c-0.1,0.1-0.1,0.2-0.2,0.4c0,0,0,0,0,0c0.1-0.2,0.1-0.2,0.2-0.4c0,0,0,0,0,0c0-0.1,0-0.1,0.1-0.1
			c-0.1,0.1-0.1,0.1-0.1,0.1c0.2-0.3,0.3-0.6,0.6-0.9c0,0,0-0.1,0-0.1c0.2-0.3,0.3-0.6,0.5-0.9c-0.3,0.6-0.4,0.7-0.6,1.1
			c0,0,0,0,0,0c-0.2,0.3-0.2,0.4-0.3,0.5L43.3,52c-0.2,0.4-0.5,0.7-0.7,1.1c0,0,0,0,0,0c0,0,0-0.1,0-0.1c0-0.1,0.1-0.1,0.1-0.2
			c0.2-0.4,0.5-0.8,0.7-1.3c0-0.1,0,0,0,0c-0.1,0.2-0.2,0.4-0.4,0.6c-0.1,0.1,0,0,0.1-0.2c0.2-0.3,0.4-0.7,0.6-0.9
			c0.5-0.8,0.9-1.6,1.2-2.5c-0.2,0.5-0.4,0.9-0.6,1.4c0,0,0,0,0,0c-0.2,0.4-0.4,0.7-0.7,1.2c-0.1,0.1-0.3,0.4-0.4,0.6
			c0-0.1,0.1-0.2,0.1-0.3c-0.1,0.1-0.2,0.3-0.3,0.4c-0.1,0.1-0.2,0.3-0.2,0.4c0,0,0,0,0,0c0,0,0,0.1-0.1,0.1c0,0.1,0,0.1-0.1,0.1
			c-0.1,0.1-0.1,0.1-0.1,0.1c-0.2,0.3-0.4,0.6-0.5,1c0,0-0.1,0.1-0.1,0.1c0,0,0,0,0,0c0,0,0,0,0,0.1c-0.1,0.1-0.1,0.3-0.2,0.4
			c-0.2,0.3-0.3,0.7-0.4,1c0,0.1,0,0,0,0.1c-0.2,0.5-0.4,1-0.5,1.5c0,0,0,0,0,0.1c0,0.1,0,0.1,0,0.1c0,0,0,0.1,0,0.1
			c-0.2,0.6-0.3,1.2-0.4,1.9c-0.1,0.6-0.2,1.2-0.2,1.7c0,0.4-0.1,0.8-0.1,1.3c0,0.5,0,1,0,1.5c0,0.4,0,0.8,0,1.1c0,0,0,0.1,0,0.2
			c0,0.1,0,0.2,0,0.3c0,0.2,0,0.5,0.1,0.8c0,0.3,0.1,0.5,0.1,0.8c0,0.1,0.1,0.3,0.1,0.5c0,0.1,0,0.2,0,0.3c0,0.3,0.1,0.6,0.2,0.9
			c0.1,0.4,0.1,0.7,0.3,1.1c0.1,0.4,0.3,0.9,0.4,1.3c0.1,0.3,0.2,0.6,0.4,1c0,0,0,0.1,0,0.1c0.2,0.5,0.5,1.1,0.7,1.5
			c0.1,0.1,0.2,0.3,0.2,0.4c0.1,0.1,0.2,0.3,0.3,0.4c0,0,0.1,0.1,0.1,0.1c0.1,0.1,0.2,0.3,0.3,0.4c0.2,0.2,0.3,0.5,0.6,0.7
			c0.1,0.2,0.4,0.5,0.6,0.7c0.3,0.3,0.7,0.7,1.1,1c0.1,0.1,0.2,0.2,0.4,0.3c0.1,0.1,0.3,0.2,0.5,0.3c0.2,0.1,0.3,0.2,0.5,0.4
			c0.3,0.2,0.6,0.3,0.8,0.5c0.1,0.1,0.3,0.1,0.5,0.2c0.1,0.1,0.1,0.1,0.1,0.1c0.1,0.1,0.2,0.1,0.3,0.1C48.6,78.9,48.6,78.9,48.8,79z
			 M43.3,52.4C43.3,52.4,43.3,52.4,43.3,52.4C43.3,52.4,43.3,52.5,43.3,52.4z M43.3,52.3c0.1-0.1,0.2-0.3,0.2-0.4c0,0,0,0,0,0
			c0,0,0.1-0.1,0.1-0.2c0,0-0.1,0.2-0.1,0.2c0,0.1-0.1,0.1-0.1,0.1C43.4,52.3,43.5,52.1,43.3,52.3C43.4,52.3,43.3,52.4,43.3,52.3z"
			/>
	</g>
</g>
</svg>
