<?xml version="1.0" encoding="utf-8"?>
<!-- Generator: Adobe Illustrator 18.1.1, SVG Export Plug-In . SVG Version: 6.00 Build 0)  -->
<svg version="1.1" id="Layer_1" xmlns="http://www.w3.org/2000/svg" xmlns:xlink="http://www.w3.org/1999/xlink" x="0px" y="0px"
	 viewBox="0 0 45.1 14.6" enable-background="new 0 0 45.1 14.6" xml:space="preserve">
<g>
	<g>
		<path fill="#FFFFFF" d="M14.2,13.3c0,0-0.1,0.1-0.4,0.1c-0.3,0.1-0.7,0.1-1.3,0.1c-0.6,0-1.3-0.2-2.1-0.5
			c-0.8-0.3-1.7-0.8-2.6-1.3c-1.9-1-4.3-2.1-5.8-4.3C1.2,6.3,0.9,5,1.2,3.8c0.2-0.6,0.5-1.2,0.9-1.6c0.5-0.4,1.1-0.7,1.7-0.8
			c1.3-0.3,2.7,0.1,4,0.5c0.7,0.3,1.3,0.5,2,0.8c0.7,0.3,1.4,0.5,2,0.7c1.3,0.4,2.4,1,3.2,1.8c0.8,0.8,1.4,1.8,1.7,2.7
			c0.5,1.9-0.3,3.6-1.1,4.4C14.8,13.1,14.1,13.2,14.2,13.3l0.3,1c0,0,0.2-0.1,0.6-0.2c0.3-0.2,0.8-0.5,1.3-1c0.5-0.5,1-1.2,1.3-2.2
			c0.3-0.9,0.4-2.1,0.1-3.3c-0.3-1.2-1-2.3-2-3.2c-1-1-2.3-1.6-3.6-2c-1.3-0.4-2.6-0.9-4-1.5C6.8,0.4,5.2,0,3.6,0.3
			C2.8,0.5,2,0.8,1.4,1.4C0.8,2,0.4,2.7,0.2,3.5C-0.3,5.1,0.2,6.8,1,8c0.8,1.2,1.9,2.2,3,2.9c1.1,0.7,2.2,1.2,3.2,1.7
			c1,0.5,1.9,1,2.8,1.3c0.9,0.3,1.7,0.5,2.4,0.6c0.7,0.1,1.3,0,1.6-0.1c0.4-0.1,0.6-0.2,0.6-0.2L14.2,13.3z"/>
		<path fill-rule="evenodd" clip-rule="evenodd" fill="#FFFFFF" d="M16.7,5.5c0,0,0,0.1,0.1,0.1C16.7,5.6,16.7,5.6,16.7,5.5z"/>
		<path fill-rule="evenodd" clip-rule="evenodd" fill="#FFFFFF" d="M16.9,7.5c0,0,0.1,0.1,0,0.1C16.9,7.6,16.9,7.6,16.9,7.5z"/>
		<path fill-rule="evenodd" clip-rule="evenodd" fill="#FFFFFF" d="M16.9,7.7c0,0,0,0.1,0,0.1C17,7.8,16.9,7.7,16.9,7.7z"/>
		<path fill-rule="evenodd" clip-rule="evenodd" fill="#FFFFFF" d="M17.2,8.2c0,0,0,0.1,0,0.1C17.2,8.3,17.2,8.3,17.2,8.2z"/>
		<path fill-rule="evenodd" clip-rule="evenodd" fill="#FFFFFF" d="M17.1,8.5c0,0,0,0.1,0,0.2C17.1,8.7,17.1,8.6,17.1,8.5z"/>
		<path fill-rule="evenodd" clip-rule="evenodd" fill="#FFFFFF" d="M17.7,9.2c0,0.1,0,0.4,0,0.5C17.7,9.5,17.7,9.3,17.7,9.2z"/>
		<path fill-rule="evenodd" clip-rule="evenodd" fill="#FFFFFF" d="M17.5,9.5c0,0.2,0,0.4-0.1,0.6c0,0,0.1-0.3,0-0.3
			c0,0,0-0.1,0-0.1C17.5,9.6,17.4,9.5,17.5,9.5z"/>
		<path fill-rule="evenodd" clip-rule="evenodd" fill="#FFFFFF" d="M16.9,11.3C16.9,11.3,16.9,11.3,16.9,11.3
			C16.9,11.4,16.9,11.4,16.9,11.3L16.9,11.3z"/>
		<path fill-rule="evenodd" clip-rule="evenodd" fill="#FFFFFF" d="M16.6,12.1c-0.1,0.1-0.2,0.3-0.3,0.5c0,0,0,0,0,0.1
			c-0.1,0.1-0.2,0.2-0.1,0.1C16.3,12.5,16.5,12.3,16.6,12.1z"/>
		<path fill-rule="evenodd" clip-rule="evenodd" fill="#FFFFFF" d="M16.5,12.1c0,0,0,0.1-0.1,0.1C16.4,12.2,16.4,12.1,16.5,12.1z"/>
		<path fill-rule="evenodd" clip-rule="evenodd" fill="#FFFFFF" d="M16.6,12.4c0,0-0.1,0.1-0.1,0.2C16.5,12.5,16.6,12.5,16.6,12.4z"
			/>
		<path fill-rule="evenodd" clip-rule="evenodd" fill="#FFFFFF" d="M16.4,12.2c-0.1,0.1-0.1,0.1-0.1,0.2
			C16.2,12.4,16.4,12.3,16.4,12.2z"/>
		<path fill-rule="evenodd" clip-rule="evenodd" fill="#FFFFFF" d="M16.3,12.3c0,0-0.1,0.1-0.1,0.2C16.3,12.3,16.3,12.3,16.3,12.3z"
			/>
		<path fill-rule="evenodd" clip-rule="evenodd" fill="#FFFFFF" d="M16.5,12.6c0,0-0.1,0.1-0.1,0.1C16.4,12.7,16.5,12.7,16.5,12.6z"
			/>
		<path fill-rule="evenodd" clip-rule="evenodd" fill="#FFFFFF" d="M16.4,12.7c0,0.1-0.2,0.2-0.3,0.3C16.3,12.8,16.3,12.8,16.4,12.7
			z"/>
		<path fill-rule="evenodd" clip-rule="evenodd" fill="#FFFFFF" d="M16.1,12.5c-0.1,0.1-0.2,0.2-0.2,0.3
			C16,12.7,16.1,12.6,16.1,12.5z"/>
		<path fill-rule="evenodd" clip-rule="evenodd" fill="#FFFFFF" d="M16,12.8c0,0-0.1,0.1-0.1,0.1C15.9,12.9,16,12.8,16,12.8z"/>
		<path fill-rule="evenodd" clip-rule="evenodd" fill="#FFFFFF" d="M15.9,12.9c0,0-0.1,0.1-0.1,0.1C15.8,13,15.9,12.9,15.9,12.9z"/>
		<path fill-rule="evenodd" clip-rule="evenodd" fill="#FFFFFF" d="M15.7,13c0,0-0.1,0.1-0.1,0.1C15.7,13,15.7,13,15.7,13
			C15.7,13,15.7,13,15.7,13z"/>
		<path fill-rule="evenodd" clip-rule="evenodd" fill="#FFFFFF" d="M15.5,13.4C15.6,13.3,15.8,13.2,15.5,13.4L15.5,13.4z"/>
		<path fill-rule="evenodd" clip-rule="evenodd" fill="#FFFFFF" d="M15.4,13.6c-0.1,0.1-0.1,0.1-0.2,0.1
			C15.2,13.7,15.3,13.6,15.4,13.6z"/>
		<path fill-rule="evenodd" clip-rule="evenodd" fill="#FFFFFF" d="M15.3,13.7C15.4,13.7,15.2,13.7,15.3,13.7L15.3,13.7z"/>
		<path fill-rule="evenodd" clip-rule="evenodd" fill="#FFFFFF" d="M15.2,13.9c0,0-0.1,0.1-0.1,0.1C15.1,14,15.2,13.9,15.2,13.9z"/>
		<path fill-rule="evenodd" clip-rule="evenodd" fill="#FFFFFF" d="M14.6,14.1C14.5,14.2,14.4,14.2,14.6,14.1L14.6,14.1z"/>
		<path fill-rule="evenodd" clip-rule="evenodd" fill="#FFFFFF" d="M17.8,10.4c0,0,0,0.1,0,0.1c0,0.1-0.1,0.2-0.1,0.3
			C17.7,10.7,17.7,10.6,17.8,10.4z"/>
		<path fill-rule="evenodd" clip-rule="evenodd" fill="#FFFFFF" d="M16.5,12.5C16.5,12.5,16.5,12.5,16.5,12.5
			C16.4,12.6,16.4,12.6,16.5,12.5c-0.1,0.2-0.2,0.2-0.2,0.3c0,0,0,0,0,0c-0.1,0.1-0.2,0.2-0.4,0.4c0.2-0.2,0.5-0.6,0.7-0.7
			C16.6,12.4,16.4,12.5,16.5,12.5C16.4,12.6,16.5,12.5,16.5,12.5z"/>
		<path fill-rule="evenodd" clip-rule="evenodd" fill="#FFFFFF" d="M16.2,12.5C16.1,12.5,16.2,12.5,16.2,12.5
			C16.2,12.5,16.1,12.6,16.2,12.5C16.1,12.6,16.3,12.4,16.2,12.5z"/>
		<path fill-rule="evenodd" clip-rule="evenodd" fill="#FFFFFF" d="M15,13.5L15,13.5c-0.1,0-0.3,0.2-0.4,0.2
			c0.1-0.1,0.4-0.2,0.5-0.3c0,0,0,0,0.1,0c0.3-0.2,0.6-0.4,0.9-0.7c-0.1,0.1-0.4,0.4-0.5,0.5c0,0,0,0,0,0
			C15.4,13.2,15.2,13.4,15,13.5z"/>
		<path fill-rule="evenodd" clip-rule="evenodd" fill="#FFFFFF" d="M15.3,13.7c0,0-0.1,0.1-0.1,0.1C15.2,13.8,15.3,13.7,15.3,13.7z"
			/>
		<path fill-rule="evenodd" clip-rule="evenodd" fill="#FFFFFF" d="M9.1,13.6c0,0,0.2,0.1,0.3,0.1c0.2,0.1,0.4,0.2,0.6,0.3
			c0.2,0.1,0.4,0.1,0.6,0.2c0.1,0,0.2,0.1,0.3,0.1c0.3,0.1,0.6,0.1,0.7,0.1c0.2,0,0.5,0,0.7,0c0.1,0,0.1,0,0.1,0
			c0.5,0,0.8-0.1,1.4-0.2c0,0,0.1-0.1,0.2-0.1c0.1,0,0.1,0,0.2-0.1c0.1-0.1,0-0.1,0.2-0.2c0,0,0,0,0,0c0-0.1-0.1-0.1-0.1-0.2
			c-0.1,0-0.1,0-0.2,0c-0.1,0-0.2,0-0.3,0c-0.1,0-0.2,0-0.3,0c0,0-0.1,0-0.1,0c-0.1,0-0.3,0-0.4,0c0,0-0.1,0-0.1,0
			c-0.3,0-0.6-0.1-1.1-0.2c0,0-0.1,0-0.2,0c-0.3-0.1-0.8-0.2-0.9-0.3c-0.1,0-0.1,0-0.1,0c0,0-0.2-0.1-0.3-0.2c0,0-0.1,0-0.2-0.1
			c-0.2-0.1-0.3-0.2-0.4-0.2c0,0-0.2-0.1-0.2-0.1c-0.2-0.1-0.5-0.3-0.7-0.3c-0.1-0.1-0.2-0.1-0.2-0.1c-0.1,0-0.1-0.1-0.1,0
			C8,11.9,7.4,11.6,7,11.4c-0.3-0.2-0.5-0.3-0.8-0.4c0,0-0.1-0.1-0.2-0.1c0,0-0.2-0.1-0.3-0.2c-0.2-0.1-0.3-0.1-0.5-0.3
			c-0.2-0.2-0.4-0.2-0.6-0.3c0,0-0.2-0.1-0.2-0.1c0,0-0.2-0.1-0.2-0.1c0,0-0.2-0.1-0.2-0.2c0,0-0.1-0.1-0.1-0.1c0,0-0.1-0.1-0.1-0.1
			c0,0-0.2-0.1-0.2-0.1C3.5,9.3,3.2,9.1,3,8.9c-0.3-0.3-0.6-0.6-0.9-1C2,7.8,2,7.7,1.9,7.6c0,0,0,0-0.1-0.1C1.7,7.3,1.5,7.1,1.4,6.8
			c0,0,0,0,0,0C1.3,6.4,1.1,6,1,5.7C1,5.4,1,5.2,1,4.9c0-0.1,0-0.3,0-0.4C1,4.3,1,3.9,1.1,3.7c0-0.1,0-0.1,0-0.2
			c0-0.1,0.1-0.2,0.1-0.4C1.5,2.7,1.8,2.2,2.2,2c0.1-0.1,0.2-0.2,0.3-0.2C2.7,1.6,3,1.5,3.2,1.4c0.1,0,0.1-0.1,0.2-0.1
			c0.1,0,0.3-0.1,0.5-0.1C4.2,1.1,4.6,1.1,5,1.1c0.5,0,1.2,0.1,1.8,0.3c0.1,0,0.3,0.1,0.4,0.1C7.6,1.6,8.1,1.8,8.6,2
			c0.9,0.3,1.8,0.7,2.8,1c0.9,0.3,1.8,0.6,2.6,1.1c0.1,0.1,0.3,0.2,0.4,0.3c0,0,0.1,0.1,0.1,0.1c0.2,0.1,0.4,0.3,0.6,0.5
			c0.1,0,0.2,0.2,0.3,0.2c0,0-0.1,0,0,0C15.6,5.3,16,5.8,16.1,6c0,0,0,0,0,0c0,0.1,0.1,0.1,0.1,0.1c0.3,0.4,0.5,0.7,0.6,1.2
			c0,0.1,0,0.2,0.1,0.2c0-0.1-0.1-0.2,0-0.2c0,0.1,0.1,0.3,0.1,0.4c0,0.1,0,0.1,0.1,0.4c0,0,0,0,0,0c0,0.2,0.1,0.3,0.1,0.5
			c0,0.1,0,0.3,0,0.4c0,0.1,0-0.1,0,0c0,0.2,0,0.4,0,0.5c0,0,0,0.1,0,0.1c0,0,0,0,0,0.1c0,0.1,0,0,0,0c0,0.1,0,0.1,0,0.1
			c0,0.1,0,0.2-0.1,0.3c0,0.1-0.1,0.3-0.1,0.4c0,0.1,0,0.1-0.1,0.3c0,0-0.1,0.2-0.1,0.3c0,0.1,0,0,0,0c-0.1,0.3-0.3,0.7-0.5,0.9
			c0.2-0.4,0.4-0.6,0.5-1c0,0,0.1-0.2,0.1-0.2c0,0,0,0.1,0,0c0,0,0,0,0-0.1c0,0.1,0,0,0,0c0.1-0.3,0.1-0.5,0.2-0.8c0-0.1,0,0,0,0
			c0-0.1,0-0.1,0-0.3c0,0,0-0.1,0-0.1c0,0.4-0.1,0.9-0.3,1.3c0,0.1-0.1,0.3-0.1,0.3c0.1-0.2,0.1-0.3,0.2-0.5
			c0.1-0.2,0.1-0.4,0.2-0.7c0,0,0-0.1,0-0.1c0,0,0-0.1,0-0.2c0,0,0-0.1,0-0.1c0-0.1,0-0.2,0-0.3c0-0.2,0-0.3,0-0.5c0,0,0,0,0,0
			c0,0.2,0,0.3,0,0.5c0,0,0,0,0,0c0,0.1,0,0.1,0,0.1c0-0.2,0-0.2,0-0.1c0,0.4-0.1,0.9-0.2,1.3c0,0,0,0.1,0,0.1
			c-0.1,0.4-0.3,0.8-0.5,1.1c0.3-0.4,0.5-0.9,0.6-1.4c0,0,0,0,0-0.1c0-0.2,0.1-0.5,0.1-0.7c0-0.1,0-0.2,0.1-0.2c0-0.6,0-1-0.1-1.6
			c0,0,0,0,0-0.1c0,0,0,0.1,0.1,0.1c0,0.1,0,0.2,0.1,0.3c0.1,0.5,0.1,1.2,0,1.8c0,0.1,0,0,0,0c0.1-0.3,0.1-0.6,0.1-0.9
			c0-0.1,0.1,0,0.1,0.2c0,0.4-0.1,1.1-0.2,1.3c-0.3,1.1-1,2.2-2,2.9c0.6-0.4,1-0.9,1.3-1.4c0,0,0,0,0-0.1c0.3-0.5,0.6-1.1,0.7-1.6
			c0.1-0.2,0.1-0.6,0.2-0.8c0,0.1,0,0.2,0,0.5c0-0.2,0.1-0.4,0.1-0.6c0-0.2,0-0.4,0-0.5c0,0,0,0,0,0c0,0.1,0-0.1,0-0.1
			c0-0.1,0-0.1,0-0.2c0-0.1,0-0.1,0-0.2c-0.1-0.5-0.2-0.9-0.3-1.3c0-0.1-0.1-0.1-0.1-0.1c0,0,0,0,0-0.1c0,0,0,0,0-0.1
			c-0.1-0.2-0.2-0.4-0.2-0.5c-0.2-0.4-0.5-0.8-0.7-1.1c-0.1-0.1,0,0,0-0.1c-0.4-0.5-0.9-0.9-1.4-1.3c0,0,0,0-0.1-0.1
			c-0.1-0.1-0.1,0-0.1-0.1c0,0-0.1,0-0.1-0.1c-0.7-0.4-1.4-0.7-2.1-1c-0.7-0.2-1.3-0.5-2-0.7C10,1.7,9.6,1.6,9.1,1.4
			C8.5,1.2,8,1,7.5,0.8C7,0.6,6.6,0.5,6.2,0.5c0,0-0.2,0-0.2,0c-0.1,0-0.2,0-0.3-0.1c-0.3,0-0.6,0-0.9,0c-0.3,0-0.7,0-1,0.1
			c-0.2,0-0.4,0.1-0.6,0.1C3,0.6,2.9,0.7,2.7,0.7c-0.4,0.1-0.7,0.3-1,0.6C1.4,1.6,1,1.9,0.8,2.4C0.5,2.8,0.3,3.5,0.2,4
			C0.1,4.4,0.1,4.8,0.2,5.3c0,0,0,0.1,0,0.1c0.1,0.7,0.4,1.4,0.6,1.9C1,7.7,1,7.7,1.1,7.8C1.2,8,1.3,8.2,1.4,8.3
			c0,0,0.1,0.1,0.1,0.2C1.6,8.7,1.8,8.8,1.9,9c0.2,0.2,0.5,0.5,0.8,0.7c0.2,0.2,0.5,0.5,0.8,0.7C4,10.7,4.5,11,4.9,11.3
			c0.2,0.1,0.3,0.2,0.5,0.3c0.2,0.1,0.4,0.2,0.6,0.3c0.2,0.1,0.4,0.2,0.6,0.4c0.3,0.2,0.7,0.4,0.9,0.5c0.1,0.1,0.3,0.1,0.6,0.3
			c0.1,0.1,0.1,0.1,0.2,0.1c0.1,0.1,0.2,0.1,0.4,0.2C8.8,13.4,8.9,13.5,9.1,13.6z M17.3,9.1C17.3,9.1,17.3,9.1,17.3,9.1
			C17.3,9.1,17.3,9,17.3,9.1z M17.4,9.1c0,0.2,0,0.4,0,0.5c0,0,0,0,0,0c0,0.1,0,0.2,0,0.3c0,0,0-0.2,0-0.2c0-0.1,0-0.1,0-0.2
			C17.3,9.3,17.3,9.4,17.4,9.1C17.3,9.2,17.3,9.1,17.4,9.1z"/>
	</g>
	<g>
		<path fill="#FFFFFF" d="M9.9,1.6c0,0,0,0-0.1,0c0,0,0,0,0,0c0,0-0.1,0-0.1,0c-0.1,0-0.2,0-0.4,0.1C8.9,1.8,8.4,2,7.9,2.3
			c-1,0.5-2.2,1.7-2.8,3.1c-0.6,1.4-0.7,3-0.6,4.1C4.7,10.6,5,11.3,5,11.3L6,11c0,0-0.3-0.6-0.4-1.6C5.5,8.4,5.6,7,6.1,5.8
			c0.5-1.2,1.5-2.2,2.3-2.6C8.9,3,9.3,2.8,9.5,2.8c0.1,0,0.2-0.1,0.3-0.1c0,0,0.1,0,0.1,0c0,0,0,0,0,0l0,0l0,0l0,0l0,0l-0.1,0h0
			L9.9,1.6z"/>
		<path fill-rule="evenodd" clip-rule="evenodd" fill="#FFFFFF" d="M5.5,8.8C5.5,8.8,5.5,8.9,5.5,8.8C5.5,8.9,5.5,8.9,5.5,8.8z"/>
		<path fill-rule="evenodd" clip-rule="evenodd" fill="#FFFFFF" d="M4.8,9.4C4.8,9.4,4.8,9.4,4.8,9.4C4.8,9.4,4.8,9.4,4.8,9.4z"/>
		<path fill-rule="evenodd" clip-rule="evenodd" fill="#FFFFFF" d="M4.8,9.4C4.8,9.4,4.8,9.4,4.8,9.4C4.8,9.4,4.8,9.4,4.8,9.4z"/>
		<path fill-rule="evenodd" clip-rule="evenodd" fill="#FFFFFF" d="M4.9,9.5C4.9,9.5,4.9,9.6,4.9,9.5C4.9,9.6,4.9,9.5,4.9,9.5z"/>
		<path fill-rule="evenodd" clip-rule="evenodd" fill="#FFFFFF" d="M4.8,9.6C4.8,9.6,4.8,9.6,4.8,9.6C4.8,9.7,4.8,9.6,4.8,9.6z"/>
		<path fill-rule="evenodd" clip-rule="evenodd" fill="#FFFFFF" d="M5.4,9.7c0,0,0,0.1,0,0.1C5.4,9.8,5.4,9.7,5.4,9.7z"/>
		<path fill-rule="evenodd" clip-rule="evenodd" fill="#FFFFFF" d="M5.2,9.8c0,0,0,0.1,0,0.1C5.2,10,5.2,9.9,5.2,9.8
			C5.2,9.9,5.2,9.9,5.2,9.8C5.2,9.8,5.2,9.8,5.2,9.8z"/>
		<path fill-rule="evenodd" clip-rule="evenodd" fill="#FFFFFF" d="M5.2,10.3C5.2,10.3,5.3,10.3,5.2,10.3L5.2,10.3L5.2,10.3z"/>
		<path fill-rule="evenodd" clip-rule="evenodd" fill="#FFFFFF" d="M5.4,10.4c0,0,0,0.1,0,0.1c0,0,0,0,0,0c0,0,0,0.1,0,0
			C5.4,10.6,5.4,10.5,5.4,10.4z"/>
		<path fill-rule="evenodd" clip-rule="evenodd" fill="#FFFFFF" d="M5.3,10.5C5.3,10.5,5.3,10.5,5.3,10.5
			C5.3,10.5,5.3,10.5,5.3,10.5z"/>
		<path fill-rule="evenodd" clip-rule="evenodd" fill="#FFFFFF" d="M5.6,10.5C5.6,10.5,5.6,10.5,5.6,10.5
			C5.6,10.5,5.6,10.5,5.6,10.5z"/>
		<path fill-rule="evenodd" clip-rule="evenodd" fill="#FFFFFF" d="M5.3,10.5C5.3,10.5,5.3,10.6,5.3,10.5
			C5.3,10.6,5.3,10.5,5.3,10.5z"/>
		<path fill-rule="evenodd" clip-rule="evenodd" fill="#FFFFFF" d="M5.3,10.6C5.3,10.6,5.3,10.6,5.3,10.6
			C5.3,10.6,5.3,10.6,5.3,10.6z"/>
		<path fill-rule="evenodd" clip-rule="evenodd" fill="#FFFFFF" d="M5.7,10.5C5.7,10.5,5.7,10.5,5.7,10.5
			C5.7,10.5,5.7,10.5,5.7,10.5z"/>
		<path fill-rule="evenodd" clip-rule="evenodd" fill="#FFFFFF" d="M5.6,10.5C5.6,10.5,5.6,10.6,5.6,10.5
			C5.6,10.6,5.6,10.6,5.6,10.5z"/>
		<path fill-rule="evenodd" clip-rule="evenodd" fill="#FFFFFF" d="M5.3,10.6C5.3,10.6,5.3,10.7,5.3,10.6
			C5.3,10.7,5.3,10.6,5.3,10.6z"/>
		<path fill-rule="evenodd" clip-rule="evenodd" fill="#FFFFFF" d="M5.4,10.6C5.4,10.7,5.4,10.7,5.4,10.6
			C5.4,10.7,5.4,10.7,5.4,10.6z"/>
		<path fill-rule="evenodd" clip-rule="evenodd" fill="#FFFFFF" d="M5.4,10.7C5.4,10.7,5.4,10.7,5.4,10.7
			C5.4,10.7,5.4,10.7,5.4,10.7z"/>
		<path fill-rule="evenodd" clip-rule="evenodd" fill="#FFFFFF" d="M5.4,10.7C5.4,10.8,5.4,10.8,5.4,10.7
			C5.4,10.8,5.4,10.8,5.4,10.7C5.4,10.8,5.4,10.8,5.4,10.7z"/>
		<path fill-rule="evenodd" clip-rule="evenodd" fill="#FFFFFF" d="M5.6,10.8C5.6,10.8,5.6,10.7,5.6,10.8L5.6,10.8z"/>
		<path fill-rule="evenodd" clip-rule="evenodd" fill="#FFFFFF" d="M5.7,10.8C5.7,10.8,5.8,10.8,5.7,10.8
			C5.7,10.9,5.7,10.8,5.7,10.8z"/>
		<path fill-rule="evenodd" clip-rule="evenodd" fill="#FFFFFF" d="M5.8,10.8C5.8,10.8,5.8,10.8,5.8,10.8L5.8,10.8z"/>
		<path fill-rule="evenodd" clip-rule="evenodd" fill="#FFFFFF" d="M5.9,10.8C5.9,10.8,5.9,10.8,5.9,10.8
			C5.9,10.8,5.9,10.8,5.9,10.8z"/>
		<path fill-rule="evenodd" clip-rule="evenodd" fill="#FFFFFF" d="M5.9,10.9C6,11,5.9,11,5.9,10.9L5.9,10.9z"/>
		<path fill-rule="evenodd" clip-rule="evenodd" fill="#FFFFFF" d="M5.7,9.9C5.7,9.9,5.7,9.9,5.7,9.9C5.7,10,5.7,10,5.7,9.9
			C5.7,10,5.7,10,5.7,9.9z"/>
		<path fill-rule="evenodd" clip-rule="evenodd" fill="#FFFFFF" d="M5.6,10.5C5.6,10.5,5.6,10.5,5.6,10.5L5.6,10.5
			C5.6,10.5,5.6,10.6,5.6,10.5L5.6,10.5c0,0.1,0,0.1,0,0.2C5.6,10.6,5.5,10.5,5.6,10.5C5.5,10.5,5.5,10.5,5.6,10.5
			C5.6,10.5,5.5,10.5,5.6,10.5z"/>
		<path fill-rule="evenodd" clip-rule="evenodd" fill="#FFFFFF" d="M5.3,10.6C5.3,10.6,5.3,10.6,5.3,10.6
			C5.3,10.6,5.3,10.6,5.3,10.6C5.3,10.6,5.3,10.6,5.3,10.6z"/>
		<path fill-rule="evenodd" clip-rule="evenodd" fill="#FFFFFF" d="M5.5,11L5.5,11c0,0,0,0.1,0,0.1C5.5,11,5.5,10.9,5.5,11
			C5.4,10.9,5.4,10.9,5.5,11c-0.1-0.1-0.1-0.2-0.1-0.3c0,0,0,0.1,0.1,0.2c0,0,0,0,0,0C5.4,10.8,5.4,10.9,5.5,11z"/>
		<path fill-rule="evenodd" clip-rule="evenodd" fill="#FFFFFF" d="M5.8,10.8C5.8,10.8,5.8,10.8,5.8,10.8
			C5.8,10.8,5.8,10.8,5.8,10.8z"/>
		<path fill-rule="evenodd" clip-rule="evenodd" fill="#FFFFFF" d="M8.9,3C8.9,3,8.9,3,8.9,3C9,2.9,9,2.9,9.1,2.9c0,0,0.1,0,0.1-0.1
			c0,0,0,0,0.1,0c0.1,0,0.1,0,0.1-0.1c0,0,0.1-0.1,0.1-0.1c0,0,0,0,0,0c0.1-0.1,0.1-0.2,0.3-0.2c0,0,0,0,0-0.1c0,0,0,0,0,0
			c0,0,0-0.1,0-0.1c0,0,0,0,0,0c0-0.1,0-0.1,0-0.2c0,0,0-0.1-0.1-0.1c0,0-0.1,0-0.1,0c0,0-0.1,0-0.1,0c0,0,0,0,0,0c0,0-0.1,0-0.1,0
			c0,0,0,0,0,0c-0.1,0-0.2,0-0.3,0c0,0,0,0,0,0c-0.1,0-0.2,0.1-0.3,0.1c0,0,0,0,0,0c0,0-0.1,0-0.1,0c0,0,0,0-0.1,0c0,0-0.1,0-0.1,0
			c0,0,0,0,0,0c0,0-0.1,0.1-0.2,0.1c0,0-0.1,0-0.1,0c0,0,0,0,0,0.1c0,0.1-0.2,0.1-0.3,0.2c-0.1,0-0.1,0.1-0.2,0.1c0,0,0,0,0,0
			c0,0,0,0-0.1,0.1c-0.1,0,0,0-0.1,0.1c-0.1,0-0.1,0.1-0.1,0.1c0,0,0,0-0.1,0c0,0,0,0,0,0c0,0-0.1,0-0.1,0s0,0,0,0c0,0,0,0,0,0
			c0,0,0,0,0,0C6.9,3.1,6.9,3.1,6.8,3.2C6.7,3.3,6.7,3.4,6.6,3.4c0,0,0,0.1-0.1,0.1c0,0,0,0,0,0C6.4,3.6,6.4,3.7,6.3,3.7
			c0,0,0,0,0,0C6.2,3.8,6.2,3.9,6.1,4C6.1,4,6,4.1,6,4.2c0,0-0.1,0.1-0.1,0.1C5.8,4.4,5.9,4.3,5.8,4.4c0,0,0,0,0,0.1
			c0,0,0,0.1-0.1,0.1C5.7,4.7,5.6,4.9,5.5,5c0,0,0,0.1,0,0.1c0,0.1-0.1,0.1-0.1,0.2c0,0,0,0,0,0.1c0,0.1,0,0.1-0.1,0.1
			c0,0.1-0.1,0.2-0.1,0.3c0,0.1-0.1,0.3-0.1,0.5c0,0,0,0.1,0,0.1c0,0.1,0,0.2-0.1,0.4c-0.1,0.5-0.2,1-0.2,1.5c0,0,0,0.1,0,0.1
			c0,0,0,0,0,0c0,0.1,0,0.1,0,0.2c0,0,0,0.1,0,0.1c0,0,0,0,0,0c0,0,0,0.2,0,0.3c0,0,0,0,0,0c0,0,0,0,0,0c0,0.1,0.1,0.2,0.1,0.3
			c0,0,0,0.1,0,0.1c0,0,0,0,0,0c0,0,0,0.1,0,0.1c0,0,0,0.1,0,0.1c0,0,0,0,0,0c0,0.1,0,0.1,0,0.1c0,0,0,0.1,0,0.1c0,0,0,0,0,0
			c0,0,0,0.1,0,0.1c0,0,0,0,0,0c0,0,0,0,0,0c0,0,0,0,0,0c0,0,0,0,0,0c0,0,0,0.1,0,0.1c0,0.1,0,0,0,0.1c0,0,0,0,0,0.1c0,0,0,0,0,0.1
			c0,0,0,0,0,0c0,0.1,0,0.2,0.1,0.2c0-0.1,0-0.2-0.1-0.3c0,0,0,0,0-0.1c0,0,0,0,0,0c0,0,0,0,0,0c0,0,0,0,0,0c0,0,0-0.2,0-0.2
			c0,0,0,0,0,0c0,0,0,0,0-0.1c0,0,0,0,0,0c0,0.1,0.1,0.2,0.1,0.3c0,0,0,0.1,0,0.1c0,0,0-0.1,0-0.1c0-0.1,0-0.1,0-0.2c0,0,0,0,0,0
			c0,0,0,0,0,0c0,0,0,0,0,0c0,0,0,0,0-0.1c0,0,0-0.1,0-0.1c0,0,0,0,0,0c0,0.1,0,0.1,0,0.1c0,0,0,0,0,0c0,0,0,0,0,0c0,0,0,0,0,0
			c0,0.1,0,0,0.1,0.3c0,0,0,0,0,0c0,0.1,0,0.2,0.1,0.3c0-0.1,0-0.2-0.1-0.4c0,0,0,0,0,0c0-0.1,0-0.1,0-0.2l0-0.1c0-0.1,0-0.2,0-0.4
			c0,0,0,0,0,0c0,0,0,0,0,0c0,0,0,0,0,0.1c0,0.1,0,0.3,0.1,0.4c0,0,0,0,0,0c0-0.1,0-0.1,0-0.2c0,0,0.1,0,0.1,0c0,0.1,0,0.2,0.1,0.3
			c0.1,0.3,0.1,0.5,0.2,0.8c0-0.1-0.1-0.3-0.1-0.4c0,0,0,0,0,0c0-0.1,0-0.1-0.1-0.4c0-0.1,0-0.1,0-0.2c0,0,0.1,0,0.1,0.1
			c0,0,0-0.1,0-0.1c0,0,0-0.1,0-0.1c0,0,0,0,0,0c0,0,0,0,0,0c0,0,0,0,0,0c0,0,0,0,0,0c0-0.1,0-0.2,0-0.3c0,0,0,0,0,0c0,0,0,0,0,0
			c0,0,0,0,0,0c0-0.1,0-0.1,0-0.1c0-0.1,0-0.2,0-0.3c0,0,0,0,0,0c0-0.2,0-0.3,0-0.4c0,0,0,0,0,0c0,0,0,0,0,0c0,0,0,0,0,0
			c0-0.3,0-0.3,0-0.5c0-0.2,0-0.3,0.1-0.5c0-0.1,0-0.2,0.1-0.3c0-0.1,0.1-0.3,0.1-0.4c0-0.1,0-0.1,0.1-0.3c0,0,0,0,0,0
			c0,0,0,0,0-0.1c0,0,0.1-0.2,0.1-0.2C5.9,5.9,6,5.8,6,5.8c0,0,0-0.1,0-0.1c0,0,0-0.1,0-0.1c0-0.1,0.1-0.1,0.1-0.2
			c0.1-0.1,0.1-0.2,0.1-0.3c0.1-0.2,0.1-0.2,0.2-0.3c0.1-0.1,0.1-0.1,0.2-0.2c0,0,0,0,0,0C6.8,4.5,6.9,4.3,7,4.2
			c0,0,0.1-0.1,0.1-0.1c0,0,0.1-0.1,0.1-0.1c0,0,0,0,0,0c0,0,0.1-0.1,0.1-0.1c0-0.1,0.1-0.1,0.2-0.2c0.1,0,0.1-0.1,0.2-0.1
			c0.1-0.1,0.2-0.2,0.3-0.2c0,0,0.1,0,0.1-0.1c0,0,0.1,0,0.1-0.1c0,0,0.1-0.1,0.1-0.1c0.1,0,0.2-0.1,0.2-0.1C8.6,3.1,8.6,3,8.6,3
			c0,0,0,0,0.1,0c0,0,0.1,0,0.1,0C8.8,3,8.8,3,8.9,3z M5.1,9.7L5.1,9.7C5,9.7,5,9.7,5.1,9.7z M5.1,9.8c0,0,0,0.1,0,0.1c0,0,0,0,0,0
			c0,0,0,0,0,0.1c0,0,0-0.1,0-0.1c0,0,0,0,0,0C5,9.8,5,9.8,5.1,9.8C5,9.8,5,9.8,5.1,9.8z"/>
	</g>
	<g>
		<path fill="#FFFFFF" d="M31.9,5.1c0,0,0-0.1,0-0.3c0-0.2,0-0.5-0.1-0.8c-0.2-0.7-0.7-1.6-1.6-2.3C29.3,1,28,0.7,26.6,0.5
			c-1.3-0.1-2.7-0.2-4-0.3c-1.4-0.1-2.7-0.2-4-0.2C17.3,0,16,0,14.9,0.4c-1.1,0.4-1.8,1.1-2.3,1.6c-0.4,0.6-0.5,1-0.5,1l1,0.3
			c0,0,0.1-0.3,0.4-0.7c0.3-0.4,0.9-0.9,1.7-1.2c0.9-0.3,2-0.3,3.3-0.3c1.3,0.1,2.6,0.2,4,0.2c1.4,0.1,2.8,0.1,4,0.3
			c1.2,0.1,2.3,0.5,3,1c0.7,0.5,1.1,1.2,1.2,1.7C30.9,4.8,30.8,5,30.8,5L31.9,5.1z"/>
		<path fill-rule="evenodd" clip-rule="evenodd" fill="#FFFFFF" d="M16.2,1.1C16.2,1.1,16.1,1.1,16.2,1.1
			C16.1,1.1,16.2,1.1,16.2,1.1z"/>
		<path fill-rule="evenodd" clip-rule="evenodd" fill="#FFFFFF" d="M15.2,0.5C15.2,0.6,15.1,0.6,15.2,0.5
			C15.1,0.6,15.2,0.6,15.2,0.5z"/>
		<path fill-rule="evenodd" clip-rule="evenodd" fill="#FFFFFF" d="M15.1,0.6C15.1,0.6,15,0.6,15.1,0.6C15,0.6,15.1,0.6,15.1,0.6z"
			/>
		<path fill-rule="evenodd" clip-rule="evenodd" fill="#FFFFFF" d="M14.8,0.8C14.8,0.8,14.8,0.8,14.8,0.8
			C14.8,0.8,14.8,0.8,14.8,0.8z"/>
		<path fill-rule="evenodd" clip-rule="evenodd" fill="#FFFFFF" d="M14.7,0.7c0,0-0.1,0-0.1,0.1C14.6,0.7,14.6,0.7,14.7,0.7z"/>
		<path fill-rule="evenodd" clip-rule="evenodd" fill="#FFFFFF" d="M14.6,1.4c0,0-0.1,0.1-0.2,0.1C14.5,1.4,14.6,1.4,14.6,1.4z"/>
		<path fill-rule="evenodd" clip-rule="evenodd" fill="#FFFFFF" d="M14.4,1.2c-0.1,0-0.2,0.1-0.2,0.2c0,0,0.1-0.1,0.1-0.1
			C14.3,1.3,14.3,1.3,14.4,1.2C14.3,1.2,14.3,1.2,14.4,1.2z"/>
		<path fill-rule="evenodd" clip-rule="evenodd" fill="#FFFFFF" d="M13.6,1.7C13.6,1.7,13.6,1.7,13.6,1.7
			C13.6,1.7,13.6,1.7,13.6,1.7L13.6,1.7z"/>
		<path fill-rule="evenodd" clip-rule="evenodd" fill="#FFFFFF" d="M13.4,2c0,0-0.1,0.1-0.2,0.2c0,0,0,0,0,0c0,0-0.1,0.1,0,0
			C13.3,2.2,13.3,2.1,13.4,2z"/>
		<path fill-rule="evenodd" clip-rule="evenodd" fill="#FFFFFF" d="M13.3,2C13.3,2,13.3,2,13.3,2C13.3,2,13.3,2,13.3,2z"/>
		<path fill-rule="evenodd" clip-rule="evenodd" fill="#FFFFFF" d="M13.5,2.3C13.5,2.3,13.5,2.3,13.5,2.3
			C13.5,2.3,13.5,2.3,13.5,2.3z"/>
		<path fill-rule="evenodd" clip-rule="evenodd" fill="#FFFFFF" d="M13.3,2C13.3,2.1,13.2,2.1,13.3,2C13.2,2.1,13.3,2.1,13.3,2z"/>
		<path fill-rule="evenodd" clip-rule="evenodd" fill="#FFFFFF" d="M13.2,2.1C13.2,2.1,13.2,2.1,13.2,2.1
			C13.2,2.1,13.2,2.1,13.2,2.1z"/>
		<path fill-rule="evenodd" clip-rule="evenodd" fill="#FFFFFF" d="M13.5,2.4C13.5,2.4,13.5,2.4,13.5,2.4
			C13.5,2.4,13.5,2.4,13.5,2.4z"/>
		<path fill-rule="evenodd" clip-rule="evenodd" fill="#FFFFFF" d="M13.4,2.4c0,0-0.1,0.1-0.1,0.1C13.4,2.4,13.4,2.4,13.4,2.4z"/>
		<path fill-rule="evenodd" clip-rule="evenodd" fill="#FFFFFF" d="M13.1,2.2c0,0-0.1,0.1-0.1,0.1C13.1,2.3,13.1,2.2,13.1,2.2z"/>
		<path fill-rule="evenodd" clip-rule="evenodd" fill="#FFFFFF" d="M13.2,2.3C13.2,2.4,13.1,2.4,13.2,2.3
			C13.1,2.4,13.2,2.4,13.2,2.3z"/>
		<path fill-rule="evenodd" clip-rule="evenodd" fill="#FFFFFF" d="M13.1,2.4C13.1,2.4,13.1,2.4,13.1,2.4
			C13.1,2.4,13.1,2.4,13.1,2.4z"/>
		<path fill-rule="evenodd" clip-rule="evenodd" fill="#FFFFFF" d="M13,2.4C13,2.5,13,2.5,13,2.4C13,2.5,13,2.5,13,2.4
			C13,2.5,13,2.5,13,2.4z"/>
		<path fill-rule="evenodd" clip-rule="evenodd" fill="#FFFFFF" d="M13.1,2.7C13.1,2.7,13.2,2.6,13.1,2.7L13.1,2.7z"/>
		<path fill-rule="evenodd" clip-rule="evenodd" fill="#FFFFFF" d="M13.1,2.8c0,0.1,0,0.1,0,0.1C13.1,2.9,13.1,2.9,13.1,2.8z"/>
		<path fill-rule="evenodd" clip-rule="evenodd" fill="#FFFFFF" d="M13.1,2.9C13.2,2.9,13.1,2.9,13.1,2.9L13.1,2.9z"/>
		<path fill-rule="evenodd" clip-rule="evenodd" fill="#FFFFFF" d="M13.2,3C13.2,3,13.2,3,13.2,3C13.2,3,13.2,3,13.2,3z"/>
		<path fill-rule="evenodd" clip-rule="evenodd" fill="#FFFFFF" d="M13.1,3.2C13.1,3.3,13.1,3.3,13.1,3.2L13.1,3.2z"/>
		<path fill-rule="evenodd" clip-rule="evenodd" fill="#FFFFFF" d="M14.3,1.8C14.3,1.8,14.3,1.8,14.3,1.8c-0.1,0-0.1,0.1-0.1,0.1
			C14.2,1.8,14.2,1.8,14.3,1.8z"/>
		<path fill-rule="evenodd" clip-rule="evenodd" fill="#FFFFFF" d="M13.4,2.3C13.4,2.3,13.4,2.3,13.4,2.3L13.4,2.3
			c-0.1,0.1-0.1,0.1-0.1,0.1C13.3,2.4,13.3,2.4,13.4,2.3c-0.1,0.1-0.2,0.2-0.2,0.3C13.2,2.4,13.4,2.3,13.4,2.3
			C13.4,2.2,13.4,2.3,13.4,2.3C13.4,2.3,13.4,2.3,13.4,2.3z"/>
		<path fill-rule="evenodd" clip-rule="evenodd" fill="#FFFFFF" d="M13.2,2.2C13.2,2.2,13.2,2.2,13.2,2.2
			C13.2,2.2,13.1,2.2,13.2,2.2C13.1,2.2,13.2,2.1,13.2,2.2z"/>
		<path fill-rule="evenodd" clip-rule="evenodd" fill="#FFFFFF" d="M12.8,2.8L12.8,2.8c0,0.1-0.1,0.1-0.1,0.2
			C12.7,2.9,12.8,2.8,12.8,2.8c0-0.1,0-0.1,0-0.1c0.1-0.2,0.2-0.3,0.3-0.4c0,0.1-0.2,0.2-0.2,0.3c0,0,0,0,0,0
			C12.9,2.6,12.8,2.7,12.8,2.8z"/>
		<path fill-rule="evenodd" clip-rule="evenodd" fill="#FFFFFF" d="M13.2,2.9C13.1,2.9,13.1,2.9,13.2,2.9C13.1,3,13.1,2.9,13.2,2.9z
			"/>
		<path fill-rule="evenodd" clip-rule="evenodd" fill="#FFFFFF" d="M30.2,3.2C30.2,3.2,30.2,3.2,30.2,3.2c0.1,0.2,0.2,0.2,0.2,0.3
			c0,0.1,0.1,0.1,0.1,0.2c0,0,0,0.1,0.1,0.1C30.7,3.9,30.7,4,30.7,4c0,0.1,0.1,0.2,0.1,0.2c0,0,0,0,0,0c0.1,0.2,0.2,0.3,0.2,0.5
			c0,0,0,0,0.1,0.1c0,0,0,0.1,0,0.1c0,0.1,0.1,0,0.1,0.1c0,0,0,0,0,0c0.1,0,0.1,0,0.2,0c0-0.1,0.1-0.1,0.1-0.1c0,0,0-0.1,0.1-0.1
			c0-0.1,0-0.1,0-0.2c0,0,0-0.1,0-0.1c0-0.1,0-0.1,0-0.2c0,0,0,0,0,0c0-0.2,0-0.4-0.1-0.6c0,0,0-0.1,0-0.1c-0.1-0.2-0.2-0.4-0.2-0.5
			c0,0,0,0,0-0.1c0,0,0-0.1-0.1-0.2c0,0-0.1-0.1-0.1-0.1c-0.1-0.1-0.1-0.2-0.2-0.2c0,0-0.1-0.1-0.1-0.1c-0.2-0.2-0.2-0.2-0.3-0.3
			c0,0-0.1-0.1-0.1-0.1c0,0-0.1,0-0.1,0c-0.1-0.1-0.4-0.3-0.6-0.4c-0.1-0.1-0.3-0.1-0.4-0.2c0,0-0.1,0-0.1,0c0,0-0.1,0-0.2-0.1
			c-0.1,0-0.2-0.1-0.3-0.1c-0.1-0.1-0.2-0.1-0.3-0.1c0,0-0.1,0-0.1-0.1c0,0-0.1,0-0.1,0c0,0-0.1,0-0.1,0c0,0-0.1,0-0.1,0
			c0,0-0.1,0-0.1,0c0,0-0.1,0-0.1,0c-0.1,0-0.3-0.1-0.4-0.1c-0.2-0.1-0.4-0.1-0.7-0.1c-0.1,0-0.1,0-0.2,0c0,0,0,0,0,0
			c-0.1,0-0.3,0-0.4,0c0,0,0,0,0,0c-0.2,0-0.4,0-0.6,0c-0.1,0-0.3,0-0.4,0c0,0-0.1,0-0.2,0c-0.3,0-0.2,0-0.4,0c0,0-0.1,0-0.1,0
			c-0.1,0-0.1,0-0.2,0c-0.3,0-0.6,0-0.8,0c0,0-0.2,0-0.2,0c-0.2,0-0.3,0-0.4,0c0,0-0.1,0-0.1,0c-0.1,0-0.2,0-0.2,0
			c-0.2,0-0.4,0-0.6,0c-0.2,0-0.6,0-0.9,0c-0.1,0-0.1,0-0.2,0c-0.2,0-0.5,0-0.7,0c-0.9,0-1.8-0.1-2.7-0.1c-0.1,0-0.2,0-0.2,0
			c0,0-0.1,0-0.1,0c-0.1,0-0.3,0-0.4,0c0,0-0.1,0-0.2,0c0,0,0,0,0,0c-0.1,0-0.4,0.1-0.5,0.1c0,0,0,0,0,0c0,0,0,0-0.1,0
			c-0.3,0.1-0.4,0.1-0.6,0.2c0,0-0.1,0-0.1,0c0,0,0.1,0,0.1,0c-0.1,0-0.1,0-0.2,0.1c-0.1,0-0.1,0-0.2,0.1c0,0,0,0,0,0
			c-0.1,0-0.2,0.1-0.3,0.1c0,0-0.1,0.1-0.2,0.1c0,0,0,0,0,0c-0.1,0-0.2,0.1-0.2,0.1c0,0,0,0-0.1,0c0,0,0,0,0,0c0,0,0,0,0,0
			c0,0,0,0,0,0c-0.1,0-0.1,0.1-0.1,0.1c-0.1,0.1-0.1,0-0.1,0.1c0,0,0,0.1-0.1,0.1c0,0-0.1,0-0.1,0.1c0,0,0,0,0,0
			c-0.1,0.1-0.3,0.2-0.3,0.4c0.1-0.2,0.2-0.2,0.4-0.4c0,0,0.1-0.1,0.1-0.1c0,0,0,0,0,0c0,0,0,0,0,0c0,0,0,0,0,0
			c0.1-0.1,0.2-0.2,0.3-0.2c0,0,0,0,0,0c0.1,0,0,0,0.1-0.1c0,0,0.1,0,0,0c-0.2,0.1-0.3,0.2-0.5,0.4c0,0-0.1,0.1-0.1,0.1
			c0.1-0.1,0.1-0.1,0.2-0.1c0.1-0.1,0.2-0.1,0.3-0.2c0,0,0.1,0,0.1,0c0,0,0,0,0.1,0c0,0,0,0,0,0c0,0,0.1-0.1,0.1-0.1
			c0,0,0.1-0.1,0.2-0.1c0,0,0,0,0,0c-0.1,0-0.1,0.1-0.2,0.1c0,0,0,0,0,0c0,0,0,0-0.1,0c0.1,0,0.1,0,0.1,0c-0.2,0.1-0.4,0.2-0.5,0.3
			c0,0,0,0,0,0c-0.1,0.1-0.3,0.2-0.4,0.4c0.2-0.1,0.3-0.3,0.5-0.5c0,0,0,0,0,0c0.1-0.1,0.2-0.1,0.3-0.2l0.1,0
			c0.2-0.1,0.4-0.2,0.7-0.3c0,0,0,0,0,0c0,0,0,0,0,0c0,0-0.1,0-0.1,0c-0.2,0.1-0.5,0.2-0.7,0.4c0,0,0,0,0,0c0.1-0.1,0.2-0.1,0.3-0.2
			c0.1,0,0,0-0.1,0.1c-0.1,0.1-0.4,0.2-0.5,0.3c-0.4,0.3-0.7,0.7-0.9,1.1c0.1-0.2,0.3-0.4,0.4-0.6c0,0,0,0,0,0
			C13.8,2,14,1.8,14.2,1.7c0.1,0,0.2-0.1,0.3-0.2c0,0-0.1,0.1-0.1,0.1c0.1-0.1,0.2-0.1,0.2-0.1c0.1,0,0.2-0.1,0.2-0.1c0,0,0,0,0,0
			c0,0,0,0,0,0c0,0,0,0,0.1,0c0,0,0,0,0.1,0c0.2-0.1,0.3-0.1,0.5-0.2c0,0,0,0,0.1,0c0,0,0,0,0,0c0,0,0,0,0,0c0.1,0,0.2,0,0.2,0
			C16,1.1,16.2,1,16.4,1c0,0,0,0,0,0c0.3,0,0.5,0,0.8,0c0,0,0,0,0,0c0,0,0,0,0.1,0c0,0,0,0,0.1,0c0.5,0,0.7,0,1,0c0.4,0,0.6,0,1,0
			c0.2,0,0.5,0,0.7,0c0.4,0,0.6,0,0.8,0c0.2,0,0.3,0,0.6,0c0,0,0.1,0,0.1,0c0,0,0.1,0,0.2,0c0.1,0,0.3,0,0.4,0c0.1,0,0.3,0,0.4,0
			c0,0,0.2,0,0.2,0c0,0,0.1,0,0.2,0c0.1,0,0.3,0,0.5,0c0.2,0,0.4,0,0.6,0c0.2,0,0.5,0,0.7,0c0.2,0,0.4,0,0.6,0c0,0,0,0,0.1,0
			c0.3,0,0.6,0,0.9,0.1c0.1,0,0.2,0,0.2,0c0.1,0,0.2,0,0.3,0c0,0,0.1,0,0.1,0c0.1,0,0.2,0,0.3,0c0.1,0,0.3,0.1,0.4,0.1
			c0.1,0,0.3,0.1,0.4,0.1c0.2,0.1,0.5,0.1,0.7,0.2c0.1,0,0.1,0.1,0.2,0.1c0.1,0,0.2,0.1,0.3,0.1c0.1,0.1,0.2,0.1,0.3,0.2
			c0.1,0.1,0.3,0.2,0.3,0.3c0,0.1,0.1,0.1,0.2,0.2c0,0.1,0,0.1,0,0.1C30,3,30,3,30.1,3C30.1,3.1,30.1,3.1,30.2,3.2z M14.5,1
			C14.5,1,14.5,1,14.5,1C14.5,1,14.5,1,14.5,1z M14.5,1c-0.1,0-0.2,0.1-0.2,0.1c0,0,0,0,0,0c0,0-0.1,0-0.1,0.1c0,0,0.1-0.1,0.1-0.1
			c0,0,0.1,0,0.1-0.1C14.4,1.1,14.4,1,14.5,1C14.4,1,14.5,1,14.5,1z"/>
	</g>
	<g>
		<path fill="#FFFFFF" d="M30,10.1c0,0-0.8,0-2,0.1c-1.2,0-2.8,0-4.3,0c-1.6-0.1-3.1-0.3-4.2-0.5c-1.1-0.3-1.8-0.5-1.8-0.5l-0.4,1
			c0,0,0.8,0.3,2,0.6c1.2,0.3,2.8,0.5,4.4,0.6c1.6,0.1,3.2,0,4.4,0c1.2,0,2-0.1,2-0.1L30,10.1z"/>
		<path fill-rule="evenodd" clip-rule="evenodd" fill="#FFFFFF" d="M19.8,10.7C19.8,10.7,19.8,10.7,19.8,10.7
			C19.8,10.7,19.8,10.7,19.8,10.7z"/>
		<path fill-rule="evenodd" clip-rule="evenodd" fill="#FFFFFF" d="M19.5,9.9C19.5,9.9,19.5,9.9,19.5,9.9
			C19.5,9.9,19.5,9.9,19.5,9.9z"/>
		<path fill-rule="evenodd" clip-rule="evenodd" fill="#FFFFFF" d="M19.4,9.8C19.4,9.8,19.4,9.8,19.4,9.8
			C19.4,9.8,19.4,9.8,19.4,9.8z"/>
		<path fill-rule="evenodd" clip-rule="evenodd" fill="#FFFFFF" d="M19.3,9.9C19.3,9.9,19.2,9.9,19.3,9.9
			C19.2,9.9,19.3,9.9,19.3,9.9z"/>
		<path fill-rule="evenodd" clip-rule="evenodd" fill="#FFFFFF" d="M19.2,9.8C19.2,9.8,19.2,9.8,19.2,9.8
			C19.2,9.8,19.2,9.8,19.2,9.8z"/>
		<path fill-rule="evenodd" clip-rule="evenodd" fill="#FFFFFF" d="M18.9,10.3c0,0-0.1,0-0.1,0C18.8,10.3,18.9,10.3,18.9,10.3z"/>
		<path fill-rule="evenodd" clip-rule="evenodd" fill="#FFFFFF" d="M18.9,10c0,0-0.1,0-0.2,0C18.7,10,18.8,10,18.9,10
			C18.8,10,18.8,10,18.9,10C18.9,10,18.9,10,18.9,10z"/>
		<path fill-rule="evenodd" clip-rule="evenodd" fill="#FFFFFF" d="M18.4,9.9C18.4,9.9,18.4,9.9,18.4,9.9L18.4,9.9L18.4,9.9z"/>
		<path fill-rule="evenodd" clip-rule="evenodd" fill="#FFFFFF" d="M18.2,9.9c0,0-0.1,0-0.1,0c0,0,0,0,0,0c0,0-0.1,0,0,0
			C18,9.9,18.1,9.9,18.2,9.9z"/>
		<path fill-rule="evenodd" clip-rule="evenodd" fill="#FFFFFF" d="M18.2,9.8C18.2,9.8,18.2,9.8,18.2,9.8
			C18.1,9.7,18.2,9.8,18.2,9.8z"/>
		<path fill-rule="evenodd" clip-rule="evenodd" fill="#FFFFFF" d="M18,10.1C18,10.1,18,10.1,18,10.1C18,10.1,18,10.1,18,10.1z"/>
		<path fill-rule="evenodd" clip-rule="evenodd" fill="#FFFFFF" d="M18.1,9.8C18.1,9.8,18.1,9.8,18.1,9.8C18,9.8,18.1,9.8,18.1,9.8z
			"/>
		<path fill-rule="evenodd" clip-rule="evenodd" fill="#FFFFFF" d="M18.1,9.7C18.1,9.8,18.1,9.7,18.1,9.7
			C18.1,9.7,18.1,9.7,18.1,9.7z"/>
		<path fill-rule="evenodd" clip-rule="evenodd" fill="#FFFFFF" d="M18,10.1C17.9,10.1,17.9,10.1,18,10.1
			C17.9,10.1,17.9,10.1,18,10.1z"/>
		<path fill-rule="evenodd" clip-rule="evenodd" fill="#FFFFFF" d="M17.9,10.1c0,0-0.1,0-0.1,0C17.9,10,17.9,10,17.9,10.1z"/>
		<path fill-rule="evenodd" clip-rule="evenodd" fill="#FFFFFF" d="M18,9.7C18,9.7,18,9.7,18,9.7C18,9.7,18,9.7,18,9.7z"/>
		<path fill-rule="evenodd" clip-rule="evenodd" fill="#FFFFFF" d="M17.9,9.8C17.9,9.8,17.9,9.8,17.9,9.8
			C17.9,9.8,17.9,9.8,17.9,9.8z"/>
		<path fill-rule="evenodd" clip-rule="evenodd" fill="#FFFFFF" d="M17.9,9.8C17.9,9.8,17.9,9.8,17.9,9.8
			C17.8,9.8,17.9,9.8,17.9,9.8z"/>
		<path fill-rule="evenodd" clip-rule="evenodd" fill="#FFFFFF" d="M17.9,9.7C17.8,9.7,17.8,9.7,17.9,9.7
			C17.8,9.7,17.8,9.7,17.9,9.7C17.8,9.7,17.8,9.7,17.9,9.7z"/>
		<path fill-rule="evenodd" clip-rule="evenodd" fill="#FFFFFF" d="M17.7,9.9C17.7,9.9,17.7,9.9,17.7,9.9L17.7,9.9z"/>
		<path fill-rule="evenodd" clip-rule="evenodd" fill="#FFFFFF" d="M17.6,10C17.6,10,17.5,10,17.6,10C17.5,10,17.6,10,17.6,10z"/>
		<path fill-rule="evenodd" clip-rule="evenodd" fill="#FFFFFF" d="M17.6,10C17.6,10,17.5,10,17.6,10L17.6,10z"/>
		<path fill-rule="evenodd" clip-rule="evenodd" fill="#FFFFFF" d="M17.5,10.1C17.5,10.1,17.4,10.1,17.5,10.1
			C17.4,10.1,17.5,10.1,17.5,10.1z"/>
		<path fill-rule="evenodd" clip-rule="evenodd" fill="#FFFFFF" d="M17.3,10C17.3,10,17.3,10,17.3,10L17.3,10z"/>
		<path fill-rule="evenodd" clip-rule="evenodd" fill="#FFFFFF" d="M18.5,10.4C18.5,10.4,18.5,10.4,18.5,10.4
			C18.5,10.4,18.5,10.4,18.5,10.4C18.5,10.4,18.5,10.4,18.5,10.4z"/>
		<path fill-rule="evenodd" clip-rule="evenodd" fill="#FFFFFF" d="M18,10C18,10,18,10,18,10L18,10C17.9,10,17.9,10,18,10L18,10
			c-0.1,0-0.1-0.1-0.2-0.1C17.9,9.9,18,10,18,10C18,10,18,10,18,10C18,10,18,10,18,10z"/>
		<path fill-rule="evenodd" clip-rule="evenodd" fill="#FFFFFF" d="M18,9.8C18,9.8,18,9.8,18,9.8C18,9.8,18,9.8,18,9.8
			C18,9.8,18.1,9.8,18,9.8z"/>
		<path fill-rule="evenodd" clip-rule="evenodd" fill="#FFFFFF" d="M17.6,9.7L17.6,9.7c0,0-0.1,0-0.1-0.1
			C17.6,9.6,17.6,9.7,17.6,9.7C17.7,9.7,17.7,9.7,17.6,9.7c0.2,0,0.3,0.1,0.4,0.1c-0.1,0-0.1-0.1-0.2,0c0,0,0,0,0,0
			C17.8,9.7,17.7,9.7,17.6,9.7z"/>
		<path fill-rule="evenodd" clip-rule="evenodd" fill="#FFFFFF" d="M17.5,10C17.5,10,17.5,10,17.5,10C17.5,10,17.5,10,17.5,10z"/>
		<path fill-rule="evenodd" clip-rule="evenodd" fill="#FFFFFF" d="M28.6,11.2L28.6,11.2c0.1,0,0.2,0,0.3,0c0,0,0.1,0,0.2,0
			c0,0,0.1,0,0.1,0c0.1,0,0.2,0,0.2,0c0.1,0,0.1,0,0.2-0.1c0,0,0,0,0,0c0.1,0,0.2-0.1,0.4-0.2c0,0,0,0,0-0.1c0,0,0,0,0,0
			c0,0,0-0.1,0.1-0.1c0,0,0,0,0,0c0-0.1,0-0.1,0-0.2c0,0,0-0.1-0.1-0.1c0,0-0.1,0-0.1,0c0,0-0.1,0-0.1-0.1c0,0,0,0,0,0
			c0,0-0.1,0-0.1,0c0,0,0,0,0,0c-0.1,0-0.2-0.1-0.3-0.1c0,0,0,0,0,0c-0.1,0-0.2,0-0.3,0c0,0,0,0,0,0c0,0-0.1,0-0.1,0c0,0,0,0-0.1,0
			c0,0-0.1,0-0.1,0c0,0,0,0-0.1,0c-0.1,0-0.2,0-0.2,0c0,0,0,0-0.1,0c0,0,0,0,0,0c-0.1,0-0.3,0-0.4,0c-0.1,0-0.2,0-0.2,0c0,0,0,0,0,0
			s-0.1,0-0.1,0c-0.1,0-0.1,0-0.2,0c-0.1,0-0.1,0-0.2,0c0,0-0.1,0-0.1,0s-0.1,0-0.1,0c0,0-0.1,0-0.1,0s0,0,0,0c0,0,0,0,0,0
			c0,0-0.1,0-0.1,0c-0.1,0-0.2,0-0.2,0c-0.1,0-0.2,0-0.4,0c0,0-0.1,0-0.1,0c0,0,0,0,0,0c-0.1,0-0.2,0-0.2,0c0,0,0,0,0,0
			c-0.1,0-0.3,0-0.3,0c-0.1,0-0.1,0-0.2,0c0,0-0.1,0-0.1,0c-0.2,0-0.1,0-0.2,0c0,0-0.1,0-0.1,0c-0.1,0,0,0-0.1,0c-0.2,0-0.3,0-0.5,0
			c0,0-0.1,0-0.1,0c-0.1,0-0.2,0-0.2,0c0,0,0,0-0.1,0c-0.1,0-0.1,0-0.1,0c-0.1,0-0.2,0-0.3,0c-0.1,0-0.3,0-0.5,0c0,0-0.1,0-0.1,0
			c-0.1,0-0.3,0-0.4,0c-0.5,0-1-0.1-1.6-0.1c0,0-0.1,0-0.1,0c0,0,0,0,0,0c-0.1,0-0.1,0-0.2,0c0,0-0.1,0-0.1,0c0,0,0,0,0,0
			c-0.1,0-0.2,0-0.3,0c0,0,0,0,0,0c0,0,0,0,0,0c-0.1,0-0.2,0-0.4,0c0,0-0.1,0-0.1,0c0,0,0,0,0,0c0,0-0.1,0-0.1,0c0,0-0.1,0-0.1,0
			c0,0,0,0,0,0c-0.1,0-0.1,0-0.1,0c0,0-0.1,0-0.1,0c0,0,0,0,0,0c-0.1,0-0.1,0-0.1,0c0,0,0,0,0,0c0,0,0,0,0,0c0,0,0,0,0,0
			c0,0,0,0,0,0c0,0-0.1,0-0.1,0c-0.1,0,0,0-0.1,0c0,0,0,0-0.1,0c0,0,0,0-0.1,0c0,0,0,0,0,0c-0.1,0-0.2,0-0.3-0.1
			c0.1,0,0.2,0.1,0.3,0.1c0,0,0,0,0.1,0c0,0,0,0,0,0c0,0,0,0,0,0c0,0,0,0,0,0c0,0,0.2,0,0.2,0c0,0,0,0,0,0c0,0,0,0,0.1,0
			c0,0,0,0,0,0c0,0-0.3-0.1-0.3-0.1c0,0-0.1,0-0.1,0c0.1,0,0.1,0,0.1,0.1c0.1,0,0.1,0,0.2,0c0,0,0,0,0,0l0,0c0,0,0,0,0,0
			c0,0,0,0,0.1,0c0,0,0.1,0,0.1,0c0,0,0,0,0,0c-0.1,0-0.1,0-0.1,0c0,0,0,0,0,0c0,0,0,0,0,0c0,0,0,0,0,0c-0.1,0-0.2-0.1-0.3-0.1
			c0,0,0,0,0,0c-0.2-0.1-0.1,0-0.3-0.1c0.1,0.1,0.3,0.1,0.4,0.1c0,0,0,0,0,0c0.1,0,0.1,0,0.2,0l0.1,0c0.2,0,0.3,0.1,0.4,0.1
			c0,0,0,0,0,0c0,0,0,0,0,0c0,0-0.1,0-0.1,0c-0.1,0-0.3-0.1-0.5-0.1c0,0,0,0,0,0c0.1,0,0.1,0,0.2,0.1c0,0,0,0.1-0.1,0
			c-0.1,0-0.3-0.1-0.3-0.1c-0.3-0.1-0.6-0.2-0.9-0.2c0.2,0.1,0.1,0,0.5,0.1c0,0,0,0,0,0c0.1,0,0.3,0.1,0.4,0.1c0.1,0,0.2,0,0.2,0.1
			c0,0-0.1,0-0.1,0c0,0,0.1,0,0.2,0.1c0,0,0.1,0,0.1,0c0,0,0,0,0,0c0,0,0,0,0,0c0,0,0,0,0,0c0,0,0,0,0.1,0c0.2,0,0.1,0,0.3,0.1
			c0,0,0,0,0,0c0,0,0,0,0,0c0,0,0,0,0,0c0.1,0,0.1,0,0.1,0c0.1,0,0.2,0.1,0.3,0.1c0,0,0,0,0,0c0.2,0,0.4,0.1,0.5,0.1c0,0,0,0,0,0
			c0,0,0,0,0,0c0,0,0,0,0,0c0.2,0,0.4,0.1,0.6,0.1c0.2,0,0.4,0,0.6,0.1c0.1,0,0.3,0,0.4,0c0.3,0,0.4,0,0.5,0c0.1,0,0.2,0,0.3,0
			c0,0,0.1,0,0.1,0c0,0,0.1,0,0.1,0c0,0,0.2,0,0.2,0c0.1,0,0.2,0,0.3,0c0,0,0.1,0,0.1,0c0,0,0.1,0,0.1,0c0,0,0.2,0,0.3,0
			c0.1,0,0.2,0,0.4,0c0.1,0,0.3,0,0.4,0c0.1,0,0.2,0,0.3,0c0,0,0,0,0,0c0.2,0,0.4,0,0.5,0c0.1,0,0.1,0,0.1,0c0.1,0,0.1,0,0.2,0
			c0,0,0,0,0,0c0.1,0,0.1,0,0.2,0c0.1,0,0.2,0,0.3,0c0.1,0,0.2,0,0.3,0c0.1,0,0.3,0,0.4,0c0.1,0,0.1,0,0.1,0c0.1,0,0.1,0,0.2,0
			c0,0,0.1,0,0.2,0c0.1,0,0.2,0,0.3,0c0,0.1,0.1,0,0.2,0c0,0,0,0,0.1,0c0,0,0.1,0,0.1,0C28.5,11.2,28.6,11.2,28.6,11.2z M19,9.9
			L19,9.9C19,9.9,19,10,19,9.9z M19,9.9c0,0-0.1,0-0.1,0c0,0,0,0,0,0c0,0,0,0-0.1,0c0,0,0.1,0,0.1,0C18.9,9.9,18.9,9.9,19,9.9
			C19,9.9,19,9.9,19,9.9C19,9.9,19,9.9,19,9.9z"/>
	</g>
	<g>
		<path fill="#FFFFFF" d="M30.7,5c0,0-0.1,0.1-0.3,0.4c-0.2,0.3-0.4,0.7-0.6,1.3c-0.2,0.6-0.4,1.3-0.4,2.2c0,0.9,0,1.9,0.6,2.9
			c0.6,1,1.6,1.7,2.8,2.1c1.2,0.4,2.6,0.3,3.8-0.1c1.3-0.4,2.4-1,3.6-1.7c1.1-0.7,2.3-1.5,3.2-2.5c0.9-1.1,1.6-2.4,1.7-3.9
			c0.1-1.4-0.5-2.9-1.6-3.8c-1.1-0.9-2.5-1.2-3.7-1.2c-1.2,0-2.3,0.3-3.3,0.7c-1,0.4-1.8,0.8-2.5,1.2c-0.7,0.4-1.3,0.7-1.9,1.1
			c-0.5,0.3-0.9,0.7-1.1,0.9C30.8,4.9,30.7,5,30.7,5l0.9,0.7c0,0,0.1-0.1,0.3-0.3c0.2-0.2,0.5-0.5,0.9-0.8c0.9-0.6,2.4-1.4,4.1-2.1
			c0.9-0.3,1.9-0.6,2.9-0.6c1,0,2.2,0.2,3,0.9c0.8,0.7,1.3,1.8,1.2,3c-0.1,1.1-0.6,2.3-1.4,3.2c-0.8,0.9-1.9,1.7-2.9,2.3
			c-1.1,0.6-2.2,1.2-3.3,1.5c-1.1,0.3-2.2,0.4-3.2,0.1c-1-0.3-1.8-0.9-2.2-1.6c-0.4-0.7-0.5-1.6-0.5-2.3c0-0.7,0.2-1.4,0.3-1.9
			c0.2-0.5,0.4-0.9,0.5-1.1c0.1-0.2,0.2-0.3,0.2-0.3L30.7,5z"/>
		<path fill-rule="evenodd" clip-rule="evenodd" fill="#FFFFFF" d="M38.7,1.9c0,0-0.1,0-0.1,0C38.6,2,38.6,1.9,38.7,1.9z"/>
		<path fill-rule="evenodd" clip-rule="evenodd" fill="#FFFFFF" d="M36.9,1.6c0,0-0.1,0.1-0.1,0C36.8,1.7,36.8,1.7,36.9,1.6z"/>
		<path fill-rule="evenodd" clip-rule="evenodd" fill="#FFFFFF" d="M36.7,1.7c0,0-0.1,0-0.1,0C36.6,1.7,36.7,1.7,36.7,1.7z"/>
		<path fill-rule="evenodd" clip-rule="evenodd" fill="#FFFFFF" d="M36.2,2c0,0-0.1,0-0.1,0.1C36.1,2,36.2,2,36.2,2z"/>
		<path fill-rule="evenodd" clip-rule="evenodd" fill="#FFFFFF" d="M36,2c0,0-0.1,0.1-0.2,0.1C35.8,2,35.9,2,36,2z"/>
		<path fill-rule="evenodd" clip-rule="evenodd" fill="#FFFFFF" d="M35.6,2.8c-0.1,0-0.3,0.2-0.4,0.2C35.4,2.9,35.5,2.8,35.6,2.8z"
			/>
		<path fill-rule="evenodd" clip-rule="evenodd" fill="#FFFFFF" d="M35.3,2.6c-0.1,0.1-0.4,0.2-0.5,0.3c0,0,0.2-0.1,0.3-0.2
			c0,0,0.1,0,0.1,0C35.2,2.7,35.2,2.7,35.3,2.6z"/>
		<path fill-rule="evenodd" clip-rule="evenodd" fill="#FFFFFF" d="M33.7,3.4C33.7,3.4,33.7,3.4,33.7,3.4
			C33.6,3.4,33.6,3.4,33.7,3.4L33.7,3.4z"/>
		<path fill-rule="evenodd" clip-rule="evenodd" fill="#FFFFFF" d="M33.1,3.8C33,3.9,32.8,4,32.7,4.1c0,0,0,0,0,0
			c-0.1,0-0.2,0.1-0.1,0C32.8,4,32.9,4,33.1,3.8z"/>
		<path fill-rule="evenodd" clip-rule="evenodd" fill="#FFFFFF" d="M33,3.8c0,0-0.1,0-0.1,0.1C32.9,3.8,33,3.8,33,3.8z"/>
		<path fill-rule="evenodd" clip-rule="evenodd" fill="#FFFFFF" d="M33,4.1c0,0-0.1,0.1-0.1,0.1C32.9,4.2,33,4.2,33,4.1z"/>
		<path fill-rule="evenodd" clip-rule="evenodd" fill="#FFFFFF" d="M32.9,3.9c-0.1,0.1-0.1,0.1-0.2,0.1C32.7,4,32.8,3.9,32.9,3.9z"
			/>
		<path fill-rule="evenodd" clip-rule="evenodd" fill="#FFFFFF" d="M32.8,3.9c0,0-0.1,0.1-0.2,0.1C32.6,4,32.7,3.9,32.8,3.9z"/>
		<path fill-rule="evenodd" clip-rule="evenodd" fill="#FFFFFF" d="M32.9,4.3c0,0-0.1,0-0.1,0.1C32.8,4.3,32.9,4.3,32.9,4.3z"/>
		<path fill-rule="evenodd" clip-rule="evenodd" fill="#FFFFFF" d="M32.8,4.3c-0.2,0.1-0.2,0.2-0.3,0.2C32.6,4.4,32.7,4.3,32.8,4.3z
			"/>
		<path fill-rule="evenodd" clip-rule="evenodd" fill="#FFFFFF" d="M32.6,4c-0.1,0.1-0.2,0.1-0.3,0.2C32.4,4.1,32.5,4.1,32.6,4z"/>
		<path fill-rule="evenodd" clip-rule="evenodd" fill="#FFFFFF" d="M32.4,4.3c-0.1,0.1-0.1,0.1-0.1,0.1C32.3,4.3,32.4,4.3,32.4,4.3z
			"/>
		<path fill-rule="evenodd" clip-rule="evenodd" fill="#FFFFFF" d="M32.3,4.3c0,0-0.1,0.1-0.1,0.1C32.2,4.4,32.3,4.4,32.3,4.3z"/>
		<path fill-rule="evenodd" clip-rule="evenodd" fill="#FFFFFF" d="M32.2,4.4c0,0-0.1,0.1-0.1,0.1C32.1,4.4,32.1,4.4,32.2,4.4
			C32.1,4.4,32.1,4.4,32.2,4.4z"/>
		<path fill-rule="evenodd" clip-rule="evenodd" fill="#FFFFFF" d="M32,4.8C32,4.7,32.2,4.6,32,4.8L32,4.8z"/>
		<path fill-rule="evenodd" clip-rule="evenodd" fill="#FFFFFF" d="M31.9,5c0,0.1-0.1,0.1-0.2,0.2C31.8,5.1,31.9,5,31.9,5z"/>
		<path fill-rule="evenodd" clip-rule="evenodd" fill="#FFFFFF" d="M31.9,5C31.9,5,31.8,5.1,31.9,5L31.9,5z"/>
		<path fill-rule="evenodd" clip-rule="evenodd" fill="#FFFFFF" d="M31.8,5.2C31.8,5.3,31.8,5.3,31.8,5.2
			C31.8,5.3,31.8,5.3,31.8,5.2z"/>
		<path fill-rule="evenodd" clip-rule="evenodd" fill="#FFFFFF" d="M31.5,5.6C31.4,5.7,31.4,5.7,31.5,5.6L31.5,5.6z"/>
		<path fill-rule="evenodd" clip-rule="evenodd" fill="#FFFFFF" d="M34.8,3.4C34.7,3.4,34.7,3.4,34.8,3.4c-0.1,0.1-0.2,0.1-0.3,0.2
			C34.6,3.5,34.7,3.5,34.8,3.4z"/>
		<path fill-rule="evenodd" clip-rule="evenodd" fill="#FFFFFF" d="M32.9,4.2C32.9,4.2,32.9,4.2,32.9,4.2
			C32.8,4.2,32.8,4.2,32.9,4.2c-0.2,0.1-0.2,0.1-0.2,0.1c0,0,0,0,0,0c-0.1,0.1-0.2,0.1-0.4,0.2C32.5,4.4,32.8,4.2,32.9,4.2
			C33,4.1,32.8,4.2,32.9,4.2C32.8,4.2,32.9,4.1,32.9,4.2z"/>
		<path fill-rule="evenodd" clip-rule="evenodd" fill="#FFFFFF" d="M32.6,4.1C32.6,4.1,32.6,4.1,32.6,4.1
			C32.6,4.1,32.5,4.1,32.6,4.1C32.5,4.1,32.7,4,32.6,4.1z"/>
		<path fill-rule="evenodd" clip-rule="evenodd" fill="#FFFFFF" d="M31.5,4.9L31.5,4.9c-0.1,0-0.1,0.1-0.3,0.3
			c0.1-0.1,0.3-0.3,0.4-0.4c0,0,0,0,0.1-0.1c0.2-0.2,0.5-0.4,0.8-0.6c-0.1,0.1-0.4,0.3-0.5,0.4c0,0,0,0,0,0
			C31.9,4.6,31.7,4.8,31.5,4.9z"/>
		<path fill-rule="evenodd" clip-rule="evenodd" fill="#FFFFFF" d="M31.9,5.1C31.8,5.1,31.8,5.1,31.9,5.1
			C31.8,5.2,31.8,5.1,31.9,5.1z"/>
		<path fill-rule="evenodd" clip-rule="evenodd" fill="#FFFFFF" d="M30.4,9.7c0,0,0-0.2,0-0.2c0-0.2,0-0.4,0-0.5c0-0.2,0-0.3,0-0.5
			c0-0.1,0-0.2,0-0.3c0-0.3,0.1-0.5,0.1-0.6c0-0.2,0.1-0.4,0.1-0.5c0-0.1,0-0.1,0-0.1C30.8,6.6,30.8,6.4,31,6c0,0,0-0.1,0-0.2
			c0,0,0.1-0.1,0.1-0.1c0-0.1-0.1-0.1,0-0.2c0,0,0,0,0,0c0,0-0.1,0-0.2-0.1c-0.1,0.1-0.1,0-0.2,0.1c-0.1,0-0.1,0.1-0.2,0.2
			c-0.1,0.1-0.1,0.1-0.2,0.2c0,0-0.1,0.1-0.1,0.1c-0.1,0.1-0.1,0.2-0.2,0.4c0,0,0,0,0,0c-0.2,0.3-0.3,0.6-0.4,1c0,0,0,0.1,0,0.2
			c0,0.2-0.1,0.4-0.2,1c0,0.1,0,0.1,0,0.1c0,0-0.1,0.2-0.1,0.4c0,0,0,0.2,0,0.3c0,0.2,0,0.3,0,0.5c0,0,0,0.2,0,0.2
			c0,0.2,0.1,0.6,0.1,0.8c0,0.1,0,0.2,0.1,0.3c0,0.1,0.1,0.1,0.1,0.1c0.1,0.2,0.4,0.9,0.7,1.2c0.2,0.2,0.4,0.4,0.6,0.6
			c0,0,0.1,0.1,0.1,0.1c0,0,0.2,0.1,0.3,0.2c0.2,0.1,0.3,0.2,0.5,0.3c0.2,0.1,0.4,0.2,0.6,0.3c0.1,0,0.2,0.1,0.2,0.1
			c0,0,0.2,0,0.2,0.1c0,0,0.2,0.1,0.2,0.1c0,0,0.1,0,0.2,0c0,0,0.1,0,0.2,0c0.1,0,0.1,0,0.2,0c0.3,0,0.6,0,0.8,0
			c0.5,0,0.8-0.1,1.4-0.2c0.2,0,0.2,0,0.4-0.1c0,0,0,0,0.1,0c0.3-0.1,0.5-0.2,0.8-0.3c0,0,0,0,0,0c0.4-0.1,0.8-0.3,1.1-0.5
			c0.2-0.1,0.5-0.2,0.7-0.4c0.1-0.1,0.2-0.1,0.3-0.2c0.3-0.2,0.5-0.3,0.7-0.4c0,0,0.1-0.1,0.2-0.1c0.1-0.1,0.2-0.1,0.3-0.2
			c0.4-0.3,0.9-0.6,1.3-0.9c0.1-0.1,0.2-0.2,0.3-0.3c0.2-0.2,0.4-0.3,0.6-0.5c0,0,0.1-0.1,0.1-0.1c0.1-0.1,0.2-0.2,0.3-0.4
			c0.3-0.3,0.5-0.7,0.7-1c0.2-0.4,0.6-1.1,0.7-1.7c0.1-0.4,0.1-0.3,0.1-0.4c0.1-0.4,0.1-1,0.1-1.4c-0.1-0.9-0.4-1.9-1.1-2.6
			c-0.7-0.7-1.5-1.1-2.4-1.3c-0.1,0-0.4-0.1-0.5-0.1c0,0-0.1,0-0.2,0c-0.2,0-0.5,0-0.8,0c-0.1,0-0.2,0-0.3,0c0,0,0.1,0,0,0
			c-0.2,0-0.8,0.1-1.1,0.1c0,0,0,0,0,0c-0.1,0-0.1,0-0.2,0c-0.5,0.1-0.8,0.2-1.2,0.4c-0.1,0-0.2,0-0.2,0.1c0.1,0,0.2-0.1,0.2,0
			c-0.1,0-0.3,0.1-0.4,0.1c-0.1,0.1-0.2,0.1-0.3,0.1c0,0,0,0,0,0C36.1,2,36,2.1,35.8,2.2c0,0-0.3,0.1-0.3,0.2c-0.1,0,0.1,0,0,0
			c-0.2,0.1-0.3,0.2-0.5,0.2c0,0-0.1,0-0.1,0.1c0,0,0,0-0.1,0c-0.1,0,0,0,0,0c-0.1,0-0.1,0-0.1,0.1c-0.1,0-0.2,0.1-0.3,0.2
			c-0.2,0.1-0.2,0.1-0.3,0.2c-0.1,0-0.2,0.1-0.2,0.1c0,0-0.2,0.1-0.2,0.1c0,0,0,0,0,0c-0.3,0.2-0.6,0.3-0.8,0.5
			c0.3-0.2,0.6-0.3,0.9-0.5c0.1,0,0.1-0.1,0.2-0.1c0,0-0.1,0,0,0c0,0,0,0,0.1,0c0,0,0,0,0.1,0c0.2-0.1,0.5-0.2,0.7-0.4c0,0,0,0,0,0
			c0.1-0.1,0.1,0,0.2-0.1c0,0,0.1,0,0.1,0c-0.3,0.1-0.7,0.4-1,0.6c-0.1,0.1-0.2,0.1-0.3,0.2c0.2-0.1,0.3-0.1,0.4-0.2
			c0.2-0.1,0.4-0.2,0.5-0.3c0,0,0.1,0,0.1-0.1c0,0,0.1-0.1,0.1-0.1c0,0,0.1,0,0.1,0c0,0,0.2-0.1,0.2-0.1c0.1,0,0.3-0.1,0.4-0.2
			c0,0,0,0,0,0c-0.2,0.1-0.2,0.1-0.4,0.2c0,0,0,0,0,0c-0.1,0-0.1,0-0.1,0.1c0.1-0.1,0.1,0,0.1,0c-0.3,0.2-0.8,0.4-1,0.5
			c0,0,0,0-0.1,0.1c-0.4,0.2-0.6,0.3-1,0.5c0.6-0.3,0.8-0.4,1.2-0.7c0,0,0,0,0.1,0c0.3-0.2,0.4-0.2,0.6-0.3c0.1,0,0.1,0,0.2-0.1
			c0.5-0.2,0.8-0.3,1.3-0.5c0,0,0,0,0.1,0c0,0-0.1,0-0.1,0.1c-0.1,0-0.2,0.1-0.2,0.1C36,2.5,35.4,2.7,35,3c-0.1,0,0,0,0,0
			c0.2-0.1,0.4-0.2,0.7-0.3c0.1,0,0,0-0.2,0.1c-0.3,0.2-0.8,0.4-1,0.5c-0.9,0.5-1.8,0.9-2.5,1.6c0.4-0.3,0.8-0.6,1.3-0.9
			c0,0,0,0,0,0c0.4-0.2,0.8-0.4,1.3-0.7C34.8,3.2,35.1,3,35.3,3c0,0-0.2,0.1-0.3,0.2C35.1,3.1,35.3,3,35.4,3
			c0.1-0.1,0.3-0.2,0.4-0.2c0,0,0,0,0,0c-0.1,0,0.1,0,0.1,0c0.1,0,0.1,0,0.1-0.1c0.1,0,0.1,0,0.2-0.1c0.4-0.1,0.7-0.3,1.1-0.4
			c0,0,0.1,0,0.1,0c0,0,0,0,0.1,0c0,0,0,0,0.1,0c0.2,0,0.3-0.1,0.4-0.1c0.4-0.1,0.8-0.2,1.1-0.2c0.1,0,0,0,0.1,0c0.5-0.1,1,0,1.6,0
			c0,0,0,0,0.1,0c0.1,0,0.1,0,0.1,0c0,0,0.1,0,0.1,0c0.6,0.1,1.2,0.3,1.7,0.7c0.5,0.3,0.8,0.7,1.1,1.2c0.2,0.4,0.3,0.8,0.4,1.1
			c0.1,0.5,0.1,1,0,1.4c-0.1,0.3-0.2,0.7-0.3,1c0,0-0.1,0.1-0.1,0.2c0,0-0.1,0.2-0.1,0.2c-0.1,0.2-0.2,0.4-0.4,0.6
			c-0.2,0.2-0.3,0.4-0.5,0.6c-0.1,0.1-0.2,0.2-0.3,0.3c-0.1,0.1-0.2,0.2-0.2,0.2c-0.2,0.2-0.4,0.4-0.7,0.6c-0.3,0.2-0.6,0.5-0.9,0.7
			c-0.4,0.2-0.8,0.5-1.2,0.7c-0.7,0.4-0.6,0.3-0.9,0.5c0,0-0.1,0-0.1,0c-0.5,0.2-1.1,0.5-1.5,0.7c-0.2,0.1-0.3,0.1-0.5,0.1
			C36.2,13,36,13,35.9,13.1c0,0-0.1,0-0.2,0c-0.2,0-0.3,0.1-0.5,0.1c-0.3,0-0.6,0-0.9,0.1c-0.2,0-0.6-0.1-0.8-0.1
			c-0.4-0.1-0.9-0.2-1.3-0.4c-0.1-0.1-0.2-0.2-0.4-0.2c-0.1-0.1-0.3-0.2-0.4-0.3c-0.1-0.1-0.3-0.3-0.4-0.4c-0.2-0.2-0.4-0.5-0.4-0.7
			c0-0.1-0.1-0.2-0.2-0.5c0-0.1,0-0.1,0-0.2c0-0.1,0-0.2-0.1-0.3C30.4,10,30.4,9.9,30.4,9.7z M35.5,2.4C35.5,2.4,35.5,2.4,35.5,2.4
			C35.5,2.4,35.6,2.3,35.5,2.4z M35.5,2.4c-0.1,0.1-0.3,0.2-0.4,0.2c0,0,0,0,0,0c-0.1,0-0.1,0.1-0.2,0.1c0,0,0.2-0.1,0.2-0.1
			c0.1,0,0.1-0.1,0.1-0.1C35.3,2.5,35.3,2.4,35.5,2.4C35.4,2.4,35.5,2.4,35.5,2.4z"/>
	</g>
	<g>
		<path fill="#FFFFFF" d="M41.5,11.1L41.5,11.1L41.5,11.1L41.5,11.1L41.5,11.1l0,0.2l0,0c0,0,0,0,0,0C41.5,11.2,41.5,11.2,41.5,11.1
			c0-0.1,0.1-0.2,0.1-0.4c0.1-0.3,0.2-0.8,0.3-1.4c0.1-1.2,0.2-2.8-0.4-4.4c-0.3-0.8-0.8-1.5-1.4-2.1c-0.6-0.5-1.3-0.9-2-1
			c-0.6-0.1-1.2-0.1-1.5-0.1c-0.2,0-0.3,0-0.4,0c0,0-0.1,0-0.1,0c0,0,0,0,0,0l0,0l0.1,0h0h0h0h0l0,1.1c0,0,0,0,0.1,0c0,0,0,0,0,0
			c0,0,0.1,0,0.1,0c0.1,0,0.2,0,0.4,0c0.3,0,0.7,0,1.2,0.1c1,0.2,2.1,1.1,2.6,2.4C41,6.5,41,8.1,40.8,9.1c-0.1,0.5-0.2,1-0.3,1.3
			c0,0.2-0.1,0.3-0.1,0.4c0,0,0,0.1,0,0.1c0,0,0,0,0,0l0,0l0,0.2L41.5,11.1z"/>
		<path fill-rule="evenodd" clip-rule="evenodd" fill="#FFFFFF" d="M38.4,2.9C38.4,2.9,38.4,2.9,38.4,2.9
			C38.4,2.9,38.4,2.9,38.4,2.9z"/>
		<path fill-rule="evenodd" clip-rule="evenodd" fill="#FFFFFF" d="M38.2,2C38.2,2,38.1,2,38.2,2C38.2,2,38.2,2,38.2,2z"/>
		<path fill-rule="evenodd" clip-rule="evenodd" fill="#FFFFFF" d="M38.1,2C38.1,2,38.1,2,38.1,2C38.1,2,38.1,2,38.1,2z"/>
		<path fill-rule="evenodd" clip-rule="evenodd" fill="#FFFFFF" d="M38,2.1C37.9,2.1,37.9,2.1,38,2.1C37.9,2.1,37.9,2.1,38,2.1z"/>
		<path fill-rule="evenodd" clip-rule="evenodd" fill="#FFFFFF" d="M37.9,2C37.9,2,37.9,2,37.9,2C37.9,1.9,37.9,1.9,37.9,2z"/>
		<path fill-rule="evenodd" clip-rule="evenodd" fill="#FFFFFF" d="M37.6,2.5c0,0-0.1,0-0.1,0C37.6,2.5,37.6,2.5,37.6,2.5z"/>
		<path fill-rule="evenodd" clip-rule="evenodd" fill="#FFFFFF" d="M37.6,2.2c0,0-0.1,0-0.2,0C37.4,2.2,37.5,2.2,37.6,2.2
			C37.5,2.2,37.5,2.2,37.6,2.2C37.6,2.2,37.6,2.2,37.6,2.2z"/>
		<path fill-rule="evenodd" clip-rule="evenodd" fill="#FFFFFF" d="M37.1,2.2C37.1,2.2,37.1,2.2,37.1,2.2L37.1,2.2L37.1,2.2z"/>
		<path fill-rule="evenodd" clip-rule="evenodd" fill="#FFFFFF" d="M36.9,2.2c0,0-0.1,0-0.1,0c0,0,0,0,0,0c0,0-0.1,0,0,0
			C36.7,2.3,36.8,2.3,36.9,2.2z"/>
		<path fill-rule="evenodd" clip-rule="evenodd" fill="#FFFFFF" d="M36.8,2.1C36.8,2.1,36.8,2.1,36.8,2.1
			C36.8,2.1,36.8,2.1,36.8,2.1z"/>
		<path fill-rule="evenodd" clip-rule="evenodd" fill="#FFFFFF" d="M36.8,2.5C36.8,2.5,36.8,2.5,36.8,2.5
			C36.8,2.5,36.8,2.5,36.8,2.5z"/>
		<path fill-rule="evenodd" clip-rule="evenodd" fill="#FFFFFF" d="M36.8,2.2C36.8,2.2,36.8,2.2,36.8,2.2
			C36.7,2.2,36.8,2.2,36.8,2.2z"/>
		<path fill-rule="evenodd" clip-rule="evenodd" fill="#FFFFFF" d="M36.8,2.1C36.8,2.1,36.7,2.1,36.8,2.1
			C36.7,2.1,36.8,2.1,36.8,2.1z"/>
		<path fill-rule="evenodd" clip-rule="evenodd" fill="#FFFFFF" d="M36.8,2.5C36.8,2.5,36.7,2.5,36.8,2.5
			C36.7,2.5,36.7,2.5,36.8,2.5z"/>
		<path fill-rule="evenodd" clip-rule="evenodd" fill="#FFFFFF" d="M36.7,2.5c0,0-0.1,0-0.1,0C36.7,2.5,36.7,2.5,36.7,2.5z"/>
		<path fill-rule="evenodd" clip-rule="evenodd" fill="#FFFFFF" d="M36.7,2.1C36.7,2.1,36.6,2.1,36.7,2.1
			C36.6,2.1,36.7,2.1,36.7,2.1z"/>
		<path fill-rule="evenodd" clip-rule="evenodd" fill="#FFFFFF" d="M36.6,2.3C36.6,2.3,36.6,2.3,36.6,2.3
			C36.6,2.3,36.6,2.3,36.6,2.3z"/>
		<path fill-rule="evenodd" clip-rule="evenodd" fill="#FFFFFF" d="M36.6,2.2C36.6,2.2,36.6,2.2,36.6,2.2
			C36.6,2.2,36.6,2.2,36.6,2.2z"/>
		<path fill-rule="evenodd" clip-rule="evenodd" fill="#FFFFFF" d="M36.5,2.2C36.5,2.2,36.5,2.2,36.5,2.2
			C36.5,2.2,36.5,2.2,36.5,2.2C36.5,2.2,36.5,2.2,36.5,2.2z"/>
		<path fill-rule="evenodd" clip-rule="evenodd" fill="#FFFFFF" d="M36.5,2.4C36.5,2.4,36.5,2.4,36.5,2.4L36.5,2.4z"/>
		<path fill-rule="evenodd" clip-rule="evenodd" fill="#FFFFFF" d="M36.4,2.5C36.4,2.5,36.4,2.5,36.4,2.5
			C36.4,2.5,36.4,2.5,36.4,2.5z"/>
		<path fill-rule="evenodd" clip-rule="evenodd" fill="#FFFFFF" d="M36.4,2.5C36.4,2.5,36.4,2.6,36.4,2.5L36.4,2.5z"/>
		<path fill-rule="evenodd" clip-rule="evenodd" fill="#FFFFFF" d="M36.4,2.7C36.4,2.7,36.3,2.7,36.4,2.7
			C36.3,2.7,36.4,2.7,36.4,2.7z"/>
		<path fill-rule="evenodd" clip-rule="evenodd" fill="#FFFFFF" d="M36.2,2.7C36.2,2.7,36.2,2.7,36.2,2.7L36.2,2.7L36.2,2.7
			L36.2,2.7C36.2,2.7,36.2,2.7,36.2,2.7z"/>
		<path fill-rule="evenodd" clip-rule="evenodd" fill="#FFFFFF" d="M37.3,2.7C37.3,2.7,37.3,2.7,37.3,2.7
			C37.3,2.7,37.3,2.7,37.3,2.7C37.3,2.6,37.3,2.7,37.3,2.7z"/>
		<path fill-rule="evenodd" clip-rule="evenodd" fill="#FFFFFF" d="M36.8,2.4C36.8,2.4,36.8,2.4,36.8,2.4L36.8,2.4
			C36.7,2.4,36.7,2.4,36.8,2.4L36.8,2.4c-0.1,0-0.1,0-0.2,0C36.6,2.4,36.8,2.4,36.8,2.4C36.8,2.4,36.8,2.4,36.8,2.4
			C36.7,2.4,36.8,2.4,36.8,2.4z"/>
		<path fill-rule="evenodd" clip-rule="evenodd" fill="#FFFFFF" d="M36.7,2.2C36.7,2.2,36.7,2.2,36.7,2.2
			C36.7,2.2,36.7,2.2,36.7,2.2C36.7,2.2,36.8,2.2,36.7,2.2z"/>
		<path fill-rule="evenodd" clip-rule="evenodd" fill="#FFFFFF" d="M36.3,2.2L36.3,2.2c0,0-0.1,0-0.1,0C36.2,2.2,36.3,2.2,36.3,2.2
			C36.4,2.2,36.4,2.2,36.3,2.2c0.2-0.1,0.3,0,0.4-0.1c0,0-0.1,0-0.2,0c0,0,0,0,0,0C36.4,2.2,36.4,2.2,36.3,2.2z"/>
		<path fill-rule="evenodd" clip-rule="evenodd" fill="#FFFFFF" d="M36.4,2.6C36.4,2.6,36.4,2.6,36.4,2.6
			C36.4,2.6,36.4,2.6,36.4,2.6z"/>
		<path fill-rule="evenodd" clip-rule="evenodd" fill="#FFFFFF" d="M40.8,9.7L40.8,9.7c0,0.1,0,0.2,0,0.2c0,0,0,0.1,0,0.2
			c0,0,0,0.1,0,0.1c0,0.1,0,0.1,0,0.2c0,0.1,0,0.1,0,0.2c0,0,0,0,0,0c0,0.1,0.1,0.2,0,0.4c0,0,0,0,0,0.1c0,0,0,0,0,0
			c0,0.1,0.1,0,0.1,0.1c0,0,0,0,0,0l0,0c0.1,0,0.1,0,0.2,0c0,0,0.1,0,0.1,0c0,0,0,0,0.1-0.1c0,0,0,0,0.1-0.1c0,0,0,0,0.1,0
			c0,0,0.1-0.1,0.1-0.1c0,0,0,0,0,0c0.1-0.1,0.1-0.2,0.2-0.3c0,0,0,0,0,0c0-0.1,0.1-0.2,0.1-0.3c0,0,0,0,0,0c0,0,0-0.1,0.1-0.1
			c0,0,0,0,0-0.1c0,0,0-0.1,0-0.1c0,0,0,0,0-0.1c0-0.1,0-0.2,0-0.2c0,0,0,0,0-0.1c0,0,0,0,0,0c0-0.1,0-0.3,0-0.4c0-0.1,0-0.2,0-0.2
			c0,0,0,0,0,0s0-0.1,0-0.1c0-0.1,0-0.1,0-0.2c0-0.1,0-0.1,0-0.2c0,0,0-0.1,0-0.1s0-0.1,0-0.1c0,0,0-0.1,0-0.1s0,0,0,0c0,0,0,0,0,0
			c0,0,0-0.1,0-0.1c0-0.1,0-0.2,0-0.2c0-0.1,0-0.2,0-0.4c0,0,0-0.1,0-0.1c0,0,0,0,0,0c0-0.1,0-0.2,0-0.2c0,0,0,0,0,0
			c0-0.1,0-0.3,0-0.3c0-0.1,0-0.1,0-0.2c0,0,0-0.1,0-0.1c0-0.2,0-0.1,0-0.2c0,0,0-0.1,0-0.1c0,0,0-0.1,0-0.1c0-0.1-0.1-0.3-0.1-0.5
			c0,0,0-0.1,0-0.1c0-0.1,0-0.1-0.1-0.2c0,0,0,0,0-0.1c0-0.1,0-0.1,0-0.1c0-0.1-0.1-0.2-0.1-0.3C41,4.2,41,4.2,41,4.1
			c0,0,0-0.1-0.1-0.1c-0.1-0.1-0.2-0.2-0.2-0.3c-0.3-0.4-0.7-0.8-1.2-1.1c0,0-0.1-0.1-0.1-0.1c0,0,0,0,0,0c-0.1,0-0.1-0.1-0.2-0.1
			c0,0-0.1,0-0.1,0c0,0,0,0,0,0c-0.1,0-0.2-0.1-0.3-0.1c0,0,0,0,0,0c0,0,0,0-0.1,0c-0.1,0-0.3-0.1-0.4-0.1c0,0-0.1,0-0.1,0
			c0,0,0.1,0,0,0c0,0-0.1,0-0.1,0c0,0-0.1,0-0.1,0c0,0,0,0,0,0c-0.1,0-0.1,0-0.2,0c0,0-0.1,0-0.1,0c0,0,0,0,0,0c-0.1,0-0.1,0-0.1,0
			c0,0,0,0,0,0c0,0,0,0,0,0c0,0,0,0,0,0c0,0,0,0,0,0c0,0-0.1,0-0.1,0c-0.1,0,0,0-0.1,0c0,0,0,0-0.1,0c0,0,0,0-0.1,0c0,0,0,0,0,0
			c-0.1,0-0.2,0-0.3,0c0.1,0,0.2,0,0.3,0c0,0,0,0,0.1,0c0,0,0,0,0,0c0,0,0,0,0,0c0,0,0,0,0,0c0,0,0.2,0,0.2,0c0,0,0,0,0,0
			c0,0,0,0,0.1,0c0,0,0,0,0,0c-0.1,0-0.2,0-0.3,0c0,0-0.1,0-0.1,0c0.1,0,0.1,0,0.1,0c0.1,0,0.1,0,0.2,0c0,0,0,0,0,0l0,0c0,0,0,0,0,0
			c0,0,0,0,0.1,0c0,0,0.1,0,0.1,0c0,0,0,0,0,0c-0.1,0-0.1,0-0.1,0c0,0,0,0,0,0c0,0,0,0,0,0c0,0,0,0,0,0c-0.1,0-0.1,0-0.3,0
			c0,0,0,0,0,0c-0.1,0-0.2,0-0.3,0c0.1,0,0.3,0,0.4,0c0,0,0,0,0,0c0.1,0,0.1,0,0.2,0l0.1,0c0.1,0,0.2,0.1,0.4,0.1c0,0,0,0,0,0
			c0,0,0,0,0,0c0,0,0,0-0.1,0c-0.1,0-0.3,0-0.4,0c0,0,0,0,0,0c0.1,0,0.1,0,0.2,0c0,0,0,0.1-0.1,0c-0.1,0-0.2,0-0.3,0
			c-0.3,0-0.6,0-0.8,0c0.2,0,0.3,0,0.4,0c0,0,0,0,0,0c0.1,0,0.1,0,0.4,0c0,0,0.1,0,0.2,0c0,0-0.1,0-0.1,0c0.1,0,0.1,0,0.1,0
			c0,0,0.1,0,0.1,0c0,0,0,0,0,0c0,0,0,0,0,0c0,0,0,0,0,0c0,0,0,0,0,0c0.1,0,0.2,0,0.3,0.1c0,0,0,0,0,0c0,0,0,0,0,0c0,0,0,0,0,0
			c0.1,0,0.1,0,0.1,0c0.1,0,0.2,0.1,0.3,0.1c0,0,0,0,0,0C38.7,3,38.8,3,38.9,3.1c0,0,0,0,0,0c0,0,0,0,0,0c0,0,0,0,0,0
			c0.1,0.1,0.3,0.2,0.4,0.3c0.1,0.1,0.2,0.2,0.4,0.3C39.8,3.9,39.9,4,40,4.1c0.1,0.1,0.2,0.2,0.2,0.3c0,0.1,0,0.1,0.2,0.3
			c0,0,0,0,0,0c0,0,0,0.1,0,0.1c0,0,0.1,0.2,0.1,0.2c0,0.1,0.1,0.1,0.1,0.2c0,0,0,0.1,0.1,0.1c0,0,0,0.1,0,0.1
			c0,0.1,0.1,0.2,0.1,0.2c0,0.1,0,0.2,0.1,0.3c0,0.2,0,0.2,0.1,0.4c0,0.1,0,0.2,0,0.3c0,0,0,0,0,0C41,6.8,41,7,41,7.1
			c0,0,0,0.1,0,0.1c0,0,0,0.1,0,0.1c0,0,0,0,0,0c0,0,0,0.1,0,0.1c0,0.1,0,0.2,0,0.3c0,0.1,0,0.2,0,0.3c0,0.1,0,0.3,0,0.4
			c0,0,0,0.1,0,0.1c0,0,0,0.1,0,0.2c0,0,0,0.1,0,0.2c0,0.1,0,0.2-0.1,0.3c-0.1,0,0,0.1,0,0.2c0,0,0,0-0.1,0c0,0,0,0.1,0,0.1
			C40.8,9.6,40.8,9.6,40.8,9.7z M37.7,2.1L37.7,2.1C37.7,2.1,37.7,2.1,37.7,2.1z M37.7,2.1c0,0-0.1,0-0.1,0c0,0,0,0,0,0
			c0,0,0,0-0.1,0c0,0,0.1,0,0.1,0c0,0,0,0,0.1,0C37.6,2.1,37.6,2.1,37.7,2.1C37.7,2.1,37.7,2.1,37.7,2.1z"/>
	</g>
	<g>
		<path fill="#FFFFFF" d="M21.7,0.5c0,0-0.4,0.6-0.7,1.5c-0.4,0.9-0.8,2.2-0.9,3.5c-0.1,1.3,0,2.6,0.2,3.6c0.2,1,0.4,1.6,0.4,1.6
			l1-0.3c0,0-0.2-0.6-0.4-1.4c-0.2-0.9-0.3-2.1-0.1-3.3c0.1-1.2,0.5-2.3,0.8-3.2c0.4-0.8,0.7-1.3,0.7-1.3L21.7,0.5z"/>
		<path fill-rule="evenodd" clip-rule="evenodd" fill="#FFFFFF" d="M21.2,8.4C21.2,8.4,21.2,8.4,21.2,8.4
			C21.2,8.4,21.2,8.4,21.2,8.4z"/>
		<path fill-rule="evenodd" clip-rule="evenodd" fill="#FFFFFF" d="M20.5,8.9C20.5,8.9,20.5,9,20.5,8.9C20.5,8.9,20.5,8.9,20.5,8.9z
			"/>
		<path fill-rule="evenodd" clip-rule="evenodd" fill="#FFFFFF" d="M20.5,9C20.5,9,20.5,9,20.5,9C20.5,9,20.5,9,20.5,9z"/>
		<path fill-rule="evenodd" clip-rule="evenodd" fill="#FFFFFF" d="M20.6,9.1C20.6,9.1,20.6,9.1,20.6,9.1
			C20.6,9.1,20.6,9.1,20.6,9.1z"/>
		<path fill-rule="evenodd" clip-rule="evenodd" fill="#FFFFFF" d="M20.5,9.1C20.5,9.2,20.5,9.2,20.5,9.1
			C20.5,9.2,20.5,9.2,20.5,9.1z"/>
		<path fill-rule="evenodd" clip-rule="evenodd" fill="#FFFFFF" d="M21.1,9.2C21.1,9.2,21.2,9.3,21.1,9.2
			C21.1,9.2,21.1,9.2,21.1,9.2z"/>
		<path fill-rule="evenodd" clip-rule="evenodd" fill="#FFFFFF" d="M20.9,9.3c0,0,0,0.1,0,0.1C20.9,9.4,20.9,9.4,20.9,9.3
			C20.9,9.4,20.9,9.3,20.9,9.3C20.9,9.3,20.9,9.3,20.9,9.3z"/>
		<path fill-rule="evenodd" clip-rule="evenodd" fill="#FFFFFF" d="M21,9.7C21,9.7,21,9.7,21,9.7L21,9.7L21,9.7z"/>
		<path fill-rule="evenodd" clip-rule="evenodd" fill="#FFFFFF" d="M21.1,9.8c0,0,0,0.1,0,0.1c0,0,0,0,0,0c0,0,0,0.1,0,0
			C21.1,9.9,21.1,9.9,21.1,9.8z"/>
		<path fill-rule="evenodd" clip-rule="evenodd" fill="#FFFFFF" d="M21,9.9C21,9.9,21,9.9,21,9.9C21,9.9,21,9.9,21,9.9z"/>
		<path fill-rule="evenodd" clip-rule="evenodd" fill="#FFFFFF" d="M21.3,9.8C21.3,9.9,21.3,9.9,21.3,9.8
			C21.3,9.9,21.3,9.9,21.3,9.8z"/>
		<path fill-rule="evenodd" clip-rule="evenodd" fill="#FFFFFF" d="M21,9.9C21,9.9,21,10,21,9.9C21,10,21,9.9,21,9.9z"/>
		<path fill-rule="evenodd" clip-rule="evenodd" fill="#FFFFFF" d="M21,10C21,10,21,10,21,10C21,10,21,10,21,10z"/>
		<path fill-rule="evenodd" clip-rule="evenodd" fill="#FFFFFF" d="M21.4,9.9C21.4,9.9,21.4,9.9,21.4,9.9
			C21.4,9.9,21.4,9.9,21.4,9.9z"/>
		<path fill-rule="evenodd" clip-rule="evenodd" fill="#FFFFFF" d="M21.3,9.9C21.3,9.9,21.3,10,21.3,9.9C21.3,10,21.3,9.9,21.3,9.9z
			"/>
		<path fill-rule="evenodd" clip-rule="evenodd" fill="#FFFFFF" d="M21,10C21,10,21,10.1,21,10C21,10.1,21,10,21,10z"/>
		<path fill-rule="evenodd" clip-rule="evenodd" fill="#FFFFFF" d="M21.1,10C21.1,10,21.2,10,21.1,10C21.1,10.1,21.1,10,21.1,10z"/>
		<path fill-rule="evenodd" clip-rule="evenodd" fill="#FFFFFF" d="M21.1,10.1C21.1,10.1,21.1,10.1,21.1,10.1
			C21.1,10.1,21.1,10.1,21.1,10.1z"/>
		<path fill-rule="evenodd" clip-rule="evenodd" fill="#FFFFFF" d="M21.1,10.1C21.1,10.1,21.1,10.2,21.1,10.1
			C21.1,10.1,21.1,10.1,21.1,10.1C21.1,10.1,21.1,10.1,21.1,10.1z"/>
		<path fill-rule="evenodd" clip-rule="evenodd" fill="#FFFFFF" d="M21.3,10.1C21.3,10.1,21.3,10.1,21.3,10.1L21.3,10.1z"/>
		<path fill-rule="evenodd" clip-rule="evenodd" fill="#FFFFFF" d="M21.4,10.2C21.4,10.2,21.4,10.2,21.4,10.2
			C21.4,10.2,21.4,10.2,21.4,10.2z"/>
		<path fill-rule="evenodd" clip-rule="evenodd" fill="#FFFFFF" d="M21.5,10.2C21.5,10.2,21.5,10.2,21.5,10.2L21.5,10.2z"/>
		<path fill-rule="evenodd" clip-rule="evenodd" fill="#FFFFFF" d="M21.6,10.2C21.6,10.2,21.6,10.2,21.6,10.2
			C21.6,10.2,21.6,10.2,21.6,10.2z"/>
		<path fill-rule="evenodd" clip-rule="evenodd" fill="#FFFFFF" d="M21.6,10.3C21.6,10.3,21.6,10.3,21.6,10.3L21.6,10.3z"/>
		<path fill-rule="evenodd" clip-rule="evenodd" fill="#FFFFFF" d="M21.4,9.4C21.4,9.4,21.4,9.4,21.4,9.4
			C21.4,9.4,21.4,9.4,21.4,9.4C21.4,9.4,21.4,9.4,21.4,9.4z"/>
		<path fill-rule="evenodd" clip-rule="evenodd" fill="#FFFFFF" d="M21.3,9.9C21.3,9.9,21.3,9.9,21.3,9.9L21.3,9.9
			C21.3,9.9,21.3,9.9,21.3,9.9L21.3,9.9c0,0.1,0,0.1,0,0.2C21.3,10,21.3,9.9,21.3,9.9C21.2,9.9,21.2,9.9,21.3,9.9
			C21.3,9.9,21.3,9.9,21.3,9.9z"/>
		<path fill-rule="evenodd" clip-rule="evenodd" fill="#FFFFFF" d="M21,10L21,10C21.1,10,21.1,10,21,10C21,10,21,10,21,10z"/>
		<path fill-rule="evenodd" clip-rule="evenodd" fill="#FFFFFF" d="M21.2,10.3L21.2,10.3C21.2,10.3,21.2,10.4,21.2,10.3
			C21.2,10.4,21.2,10.3,21.2,10.3C21.1,10.3,21.1,10.3,21.2,10.3c-0.1-0.1-0.1-0.2-0.1-0.3c0,0,0,0.1,0.1,0.1c0,0,0,0,0,0
			C21.1,10.2,21.1,10.3,21.2,10.3z"/>
		<path fill-rule="evenodd" clip-rule="evenodd" fill="#FFFFFF" d="M21.5,10.2C21.5,10.2,21.5,10.2,21.5,10.2
			C21.5,10.2,21.5,10.2,21.5,10.2z"/>
		<path fill-rule="evenodd" clip-rule="evenodd" fill="#FFFFFF" d="M22.2,2L22.2,2c0-0.1,0.1-0.1,0.1-0.2c0,0,0-0.1,0-0.1
			c0,0,0,0,0-0.1c0-0.1,0-0.1,0-0.1c0-0.1,0-0.1,0-0.1c0,0,0,0,0,0c0-0.1,0-0.2,0-0.3c0,0,0,0,0-0.1c0,0,0,0,0,0c0,0-0.1,0-0.1-0.1
			c0,0,0,0,0,0c-0.1,0-0.1,0-0.2-0.1c0,0-0.1,0-0.1,0c0,0-0.1,0-0.1,0c0,0-0.1,0-0.1,0c0,0,0,0-0.1,0c0,0-0.1,0-0.1,0.1c0,0,0,0,0,0
			c-0.1,0-0.1,0.1-0.2,0.2c0,0,0,0,0,0c0,0.1-0.1,0.2-0.1,0.2c0,0,0,0,0,0c0,0-0.1,0-0.1,0.1c0,0,0,0,0,0.1c0,0,0,0.1-0.1,0.1
			c0,0,0,0,0,0.1c0,0-0.1,0.1-0.1,0.2c0,0,0,0,0,0.1c0,0,0,0,0,0C21.1,1.9,21,2,21,2.1c0,0.1,0,0.1-0.1,0.2l0,0c0,0,0,0.1,0,0.1
			c0,0.1,0,0,0,0.1c0,0,0,0.1,0,0.1l0,0.1c0,0,0,0,0,0.1l0,0.1l0,0c0,0,0,0,0,0c0,0,0,0.1,0,0.1c0,0.1,0,0.1,0,0.2
			c0,0.1,0,0.2-0.1,0.3c0,0,0,0.1,0,0.1c0,0,0,0,0,0c0,0.1,0,0.1,0,0.2l0,0c0,0.1-0.1,0.2-0.1,0.3c0,0.1,0,0.1,0,0.2
			c0,0,0,0.1,0,0.1c0,0.2,0,0.1,0,0.2c0,0,0,0,0,0.1c0,0,0,0.1,0,0.1c0,0.1,0,0.3-0.1,0.4c0,0,0,0.1,0,0.1c0,0.1,0,0.1,0,0.2
			c0,0,0,0,0,0c0,0.1,0,0.1,0,0.1c0,0.1,0,0.2,0,0.3c0,0.1,0,0.3,0,0.4c0,0,0,0.1,0,0.1c0,0.1,0,0.2,0,0.3c0,0.4,0,0.9,0.1,1.3
			c0,0,0,0.1,0,0.1c0,0,0,0,0,0c0,0,0,0.1,0,0.2c0,0,0,0.1,0,0.1c0,0,0,0,0,0c0,0,0,0.2,0.1,0.2c0,0,0,0,0,0c0,0,0,0,0,0
			c0,0.1,0.1,0.2,0.1,0.3c0,0,0,0,0,0.1c0,0,0,0,0,0c0,0,0,0.1,0,0.1c0,0,0,0.1,0,0.1c0,0,0,0,0,0c0,0.1,0,0.1,0,0.1
			c0,0,0,0.1,0,0.1c0,0,0,0,0,0c0,0,0,0.1,0,0.1c0,0,0,0,0,0c0,0,0,0,0,0c0,0,0,0,0,0c0,0,0,0,0,0c0,0,0,0,0,0.1c0,0.1,0,0,0,0.1
			c0,0,0,0,0,0.1c0,0,0,0,0,0.1c0,0,0,0,0,0c0,0.1,0,0.2,0.1,0.2c0-0.1,0-0.2-0.1-0.2c0,0,0,0,0,0c0,0,0,0,0,0c0,0,0,0,0,0
			c0,0,0,0,0,0c0,0,0-0.1,0-0.2c0,0,0,0,0,0c0,0,0,0,0-0.1c0,0,0,0,0,0c0,0.1,0.1,0.2,0.1,0.3c0,0,0,0.1,0,0.1c0,0,0-0.1,0-0.1
			c0,0,0-0.1,0-0.1c0,0,0,0,0,0c0,0,0,0,0,0c0,0,0,0,0,0c0,0,0,0,0-0.1c0,0,0-0.1,0-0.1c0,0,0,0,0,0c0,0.1,0,0,0,0.1c0,0,0,0,0,0
			c0,0,0,0,0,0c0,0,0,0,0,0c0,0.1,0.1,0.2,0.1,0.3c0,0,0,0,0,0c0.1,0.2,0,0.1,0.1,0.3c0-0.1,0-0.2-0.1-0.3c0,0,0,0,0,0
			c0,0,0-0.1,0-0.1l0-0.1c0-0.1,0-0.2,0-0.3c0,0,0,0,0,0c0,0,0,0,0,0c0,0,0,0,0,0.1c0,0.1,0.1,0.2,0.1,0.3c0,0,0,0,0,0
			c0-0.1,0-0.1,0-0.2c0,0,0.1,0,0.1,0c0,0.1,0,0.2,0.1,0.3c0.1,0.2,0.1,0.4,0.2,0.7c0-0.1-0.1-0.2-0.1-0.4c0,0,0,0,0,0
			c0-0.1-0.1-0.2-0.1-0.3c0,0,0-0.1,0-0.2c0,0,0.1,0,0.1,0.1c0,0,0-0.1,0-0.1c0,0,0-0.1,0-0.1c0,0,0,0,0,0c0,0,0,0,0,0c0,0,0,0,0,0
			c0,0,0,0,0,0c0-0.1,0-0.2,0-0.3c0,0,0,0,0,0c0,0,0,0,0,0c0,0,0,0,0,0c0-0.1,0-0.1,0-0.1c0-0.1,0-0.2,0-0.3c0,0,0,0,0,0
			c0-0.2,0-0.3,0-0.4c0,0,0,0,0,0c0,0,0,0,0,0c0,0,0,0,0,0c0-0.1,0-0.3,0-0.5c0-0.1,0-0.3,0-0.4c0-0.1,0-0.2,0-0.3
			c0-0.1,0-0.2,0-0.4c0-0.1,0-0.1,0-0.3c0,0,0,0,0,0l0-0.1c0,0,0-0.2,0-0.2c0-0.1,0-0.1,0-0.2c0,0,0-0.1,0-0.1c0,0,0-0.1,0-0.1
			c0,0,0-0.2,0-0.2c0-0.1,0-0.2,0-0.3c0-0.1,0-0.2,0.1-0.3c0-0.1,0-0.2,0.1-0.2c0,0,0,0,0,0c0-0.1,0.1-0.3,0.1-0.4c0,0,0-0.1,0-0.1
			c0,0,0-0.1,0-0.1l0,0c0,0,0-0.1,0-0.1c0-0.1,0.1-0.1,0.1-0.2c0-0.1,0.1-0.1,0.1-0.2c0.1-0.1,0.1-0.2,0.1-0.3c0,0,0-0.1,0-0.1
			c0,0,0-0.1,0.1-0.1c0,0,0.1-0.1,0.1-0.1c0-0.1,0.1-0.2,0.1-0.2c0.1,0,0-0.1,0-0.1c0,0,0,0,0.1,0C22.1,2.1,22.1,2.1,22.2,2
			C22.1,2,22.2,2,22.2,2z M20.8,9.2L20.8,9.2C20.7,9.2,20.7,9.2,20.8,9.2z M20.8,9.3c0,0,0,0.1,0,0.1c0,0,0,0,0,0c0,0,0,0,0,0.1
			c0,0,0,0,0,0C20.8,9.4,20.8,9.4,20.8,9.3C20.8,9.3,20.7,9.3,20.8,9.3C20.8,9.3,20.7,9.3,20.8,9.3z"/>
	</g>
</g>
</svg>
