<?xml version="1.0" encoding="utf-8"?>
<!-- Generator: Adobe Illustrator 18.1.1, SVG Export Plug-In . SVG Version: 6.00 Build 0)  -->
<svg version="1.1" id="Layer_1" xmlns="http://www.w3.org/2000/svg" xmlns:xlink="http://www.w3.org/1999/xlink" x="0px" y="0px"
	 viewBox="0 0 412.7 59.3" enable-background="new 0 0 412.7 59.3" xml:space="preserve">
<g>
	<path fill="#FFFFFF" d="M9.3,6.2H6.9L8.6,1h2.1L9.3,6.2z M13.6,6.2h-2.4L12.8,1H15L13.6,6.2z"/>
	<path fill="#FFFFFF" d="M21.4,11.2c0,2.3-1.4,4.3-4.3,4.3c-2.2,0-3.7-1-4.2-3.3l2.4-0.6c0.2,0.9,0.8,1.5,1.7,1.5
		c1.4,0,1.9-1,1.9-2.7V1h2.5V11.2z"/>
	<path fill="#FFFFFF" d="M32.7,15.1h-2.3v-1.5h0c-0.4,1-1.3,1.8-2.9,1.8c-2.6,0-3.5-1.8-3.5-3.8V5.5h2.4v4.9c0,1.1,0.1,2.8,1.8,2.8
		c1.6,0,2.2-1.2,2.2-2.4V5.5h2.4V15.1z"/>
	<path fill="#FFFFFF" d="M40.1,8.2c-0.5-0.6-1.1-1-1.9-1c-0.6,0-1.4,0.3-1.4,1c0,1.7,5.2,0.3,5.2,4.1c0,2.3-2.2,3.1-4.1,3.1
		c-1.5,0-2.8-0.4-3.7-1.5l1.6-1.5c0.6,0.7,1.3,1.2,2.3,1.2c0.7,0,1.6-0.3,1.6-1.1c0-2-5.2-0.4-5.2-4.1c0-2.1,1.9-3.1,3.9-3.1
		c1.3,0,2.6,0.4,3.4,1.5L40.1,8.2z"/>
	<path fill="#FFFFFF" d="M42.8,7.6v-2h2V2.7h2.4v2.8h2.6v2h-2.6v4.2c0,1,0.3,1.6,1.3,1.6c0.4,0,1-0.1,1.3-0.3v2
		c-0.5,0.2-1.3,0.3-1.9,0.3c-2.5,0-3.1-1.1-3.1-3.4V7.6H42.8z"/>
	<path fill="#FFFFFF" d="M57.6,0H60v6.7H60c0.5-0.6,1.5-1.5,3.3-1.5c2.7,0,4.6,2.2,4.6,5s-1.8,5-4.7,5c-1.3,0-2.6-0.5-3.3-1.7h0v1.4
		h-2.3V0z M62.7,7.4c-1.8,0-2.8,1.4-2.8,2.9c0,1.5,1.1,2.9,2.8,2.9s2.8-1.4,2.8-2.9C65.5,8.8,64.5,7.4,62.7,7.4z"/>
	<path fill="#FFFFFF" d="M71.7,11.2c0.2,1.4,1.2,2.3,2.6,2.3c1.2,0,2-0.6,2.6-1.3l1.7,1.3c-1.1,1.4-2.5,1.9-4.1,1.9
		c-2.9,0-5.2-2-5.2-5s2.3-5,5.2-5c2.7,0,4.5,1.9,4.5,5.2v0.7H71.7z M76.6,9.4c0-1.4-0.9-2.3-2.4-2.3c-1.4,0-2.3,0.9-2.5,2.3H76.6z"
		/>
	<path fill="#FFFFFF" d="M87.5,8.4c-0.6-0.6-1.2-1-1.8-1c-1.8,0-2.8,1.4-2.8,2.9c0,1.5,1.1,2.9,2.8,2.9c0.7,0,1.4-0.3,1.9-0.9
		l1.6,1.7c-1,1-2.6,1.3-3.5,1.3c-2.9,0-5.2-2-5.2-5s2.3-5,5.2-5c1.2,0,2.6,0.4,3.5,1.5L87.5,8.4z"/>
	<path fill="#FFFFFF" d="M96.5,13.8L96.5,13.8c-0.7,1.1-1.9,1.6-3.1,1.6c-1.8,0-3.5-1-3.5-2.9c0-3.1,3.6-3.3,6-3.3h0.6V8.9
		c0-1.2-0.9-1.8-2.2-1.8c-1,0-1.9,0.4-2.6,1l-1.3-1.3c1.1-1.1,2.6-1.5,4.1-1.5c4.1,0,4.1,3,4.1,4.3v5.5h-2.2V13.8z M96.4,10.8h-0.5
		c-1.3,0-3.6,0.1-3.6,1.5c0,0.9,0.9,1.3,1.7,1.3c1.6,0,2.4-0.9,2.4-2.2V10.8z"/>
	<path fill="#FFFFFF" d="M109.3,15.1H107v-1.5h0c-0.4,1-1.3,1.8-2.9,1.8c-2.6,0-3.5-1.8-3.5-3.8V5.5h2.4v4.9c0,1.1,0.1,2.8,1.8,2.8
		c1.6,0,2.2-1.2,2.2-2.4V5.5h2.4V15.1z"/>
	<path fill="#FFFFFF" d="M116.3,8.2c-0.5-0.6-1.1-1-1.9-1c-0.6,0-1.4,0.3-1.4,1c0,1.7,5.2,0.3,5.2,4.1c0,2.3-2.2,3.1-4.1,3.1
		c-1.5,0-2.8-0.4-3.7-1.5l1.6-1.5c0.6,0.7,1.3,1.2,2.3,1.2c0.7,0,1.6-0.3,1.6-1.1c0-2-5.2-0.4-5.2-4.1c0-2.1,1.9-3.1,3.9-3.1
		c1.3,0,2.6,0.4,3.4,1.5L116.3,8.2z"/>
	<path fill="#FFFFFF" d="M122,11.2c0.2,1.4,1.2,2.3,2.6,2.3c1.2,0,2-0.6,2.6-1.3l1.7,1.3c-1.1,1.4-2.5,1.9-4.1,1.9
		c-2.9,0-5.2-2-5.2-5s2.3-5,5.2-5c2.7,0,4.5,1.9,4.5,5.2v0.7H122z M126.9,9.4c0-1.4-0.9-2.3-2.4-2.3c-1.4,0-2.3,0.9-2.5,2.3H126.9z"
		/>
	<path fill="#FFFFFF" d="M143.5,13.8L143.5,13.8c-0.7,1.1-1.9,1.6-3.1,1.6c-1.8,0-3.5-1-3.5-2.9c0-3.1,3.6-3.3,6-3.3h0.6V8.9
		c0-1.2-0.9-1.8-2.2-1.8c-1,0-1.9,0.4-2.6,1l-1.3-1.3c1.1-1.1,2.6-1.5,4.1-1.5c4.1,0,4.1,3,4.1,4.3v5.5h-2.2V13.8z M143.3,10.8h-0.5
		c-1.3,0-3.6,0.1-3.6,1.5c0,0.9,0.9,1.3,1.7,1.3c1.6,0,2.4-0.9,2.4-2.2V10.8z"/>
	<path fill="#FFFFFF" d="M154,5.5h2.3V7h0c0.4-0.9,1.3-1.7,2.9-1.7c1.5,0,2.5,0.6,3,1.8c0.7-1.2,1.7-1.8,3.2-1.8
		c2.6,0,3.5,1.8,3.5,4.1v5.7h-2.4V9.7c0-1.2-0.4-2.2-1.8-2.2c-1.5,0-2.1,1.2-2.1,2.5v5.2h-2.4V9.4c0-1.2-0.5-2-1.6-2
		c-1.6,0-2.2,1.2-2.2,2.4v5.2H154V5.5z"/>
	<path fill="#FFFFFF" d="M176.7,13.8L176.7,13.8c-0.7,1.1-1.9,1.6-3.1,1.6c-1.8,0-3.5-1-3.5-2.9c0-3.1,3.6-3.3,6-3.3h0.6V8.9
		c0-1.2-0.9-1.8-2.2-1.8c-1,0-1.9,0.4-2.6,1l-1.3-1.3c1.1-1.1,2.6-1.5,4.1-1.5c4.1,0,4.1,3,4.1,4.3v5.5h-2.2V13.8z M176.6,10.8h-0.5
		c-1.3,0-3.6,0.1-3.6,1.5c0,0.9,0.9,1.3,1.7,1.3c1.6,0,2.4-0.9,2.4-2.2V10.8z"/>
	<path fill="#FFFFFF" d="M181.1,5.5h2.3v1.5h0c0.4-1,1.3-1.8,2.9-1.8c2.6,0,3.5,1.8,3.5,3.8v6.1h-2.4v-4.9c0-1.1-0.1-2.8-1.8-2.8
		c-1.6,0-2.2,1.2-2.2,2.4v5.2h-2.4V5.5z"/>
	<path fill="#FFFFFF" d="M193.3,1h2.4L194,6.2h-2.1L193.3,1z"/>
	<path fill="#FFFFFF" d="M201.4,8.2c-0.5-0.6-1.1-1-1.9-1c-0.6,0-1.4,0.3-1.4,1c0,1.7,5.2,0.3,5.2,4.1c0,2.3-2.2,3.1-4.1,3.1
		c-1.5,0-2.8-0.4-3.7-1.5l1.6-1.5c0.6,0.7,1.3,1.2,2.3,1.2c0.7,0,1.6-0.3,1.6-1.1c0-2-5.2-0.4-5.2-4.1c0-2.1,1.9-3.1,3.9-3.1
		c1.3,0,2.6,0.4,3.4,1.5L201.4,8.2z"/>
	<path fill="#FFFFFF" d="M211,5.5h2.4V7h0c0.5-1.1,1.6-1.8,2.8-1.8c0.3,0,0.6,0.1,0.9,0.1v2.3c-0.4-0.1-0.8-0.2-1.2-0.2
		c-2.3,0-2.6,1.9-2.6,2.4v5.1H211V5.5z"/>
	<path fill="#FFFFFF" d="M224,13.8L224,13.8c-0.7,1.1-1.9,1.6-3.1,1.6c-1.8,0-3.5-1-3.5-2.9c0-3.1,3.6-3.3,6-3.3h0.6V8.9
		c0-1.2-0.9-1.8-2.2-1.8c-1,0-1.9,0.4-2.6,1L218,6.8c1.1-1.1,2.6-1.5,4.1-1.5c4.1,0,4.1,3,4.1,4.3v5.5H224V13.8z M223.9,10.8h-0.5
		c-1.3,0-3.6,0.1-3.6,1.5c0,0.9,0.9,1.3,1.7,1.3c1.6,0,2.4-0.9,2.4-2.2V10.8z"/>
	<path fill="#FFFFFF" d="M227.3,7.6v-2h2V2.7h2.4v2.8h2.6v2h-2.6v4.2c0,1,0.3,1.6,1.3,1.6c0.4,0,1-0.1,1.3-0.3v2
		c-0.5,0.2-1.3,0.3-1.9,0.3c-2.5,0-3.1-1.1-3.1-3.4V7.6H227.3z"/>
	<path fill="#FFFFFF" d="M237,0.8c0.9,0,1.6,0.6,1.6,1.4c0,0.8-0.7,1.4-1.6,1.4s-1.5-0.7-1.5-1.4C235.5,1.5,236.1,0.8,237,0.8z
		 M235.8,5.5h2.4v9.6h-2.4V5.5z"/>
	<path fill="#FFFFFF" d="M240.6,5.5h2.3v1.5h0c0.4-1,1.3-1.8,2.9-1.8c2.6,0,3.5,1.8,3.5,3.8v6.1h-2.4v-4.9c0-1.1-0.1-2.8-1.8-2.8
		c-1.6,0-2.2,1.2-2.2,2.4v5.2h-2.4V5.5z"/>
	<path fill="#FFFFFF" d="M261.2,5.5v8.7c0,3.5-1.7,5.7-5.4,5.7c-1.8,0-3.4-0.4-4.8-1.6l1.4-2c1,0.9,2,1.4,3.3,1.4c2.3,0,3-1.3,3-3.2
		v-0.7h0c-0.7,0.9-1.9,1.4-3.1,1.4c-2.9,0-4.8-2.2-4.8-4.9c0-2.8,1.8-5,4.7-5c1.3,0,2.6,0.5,3.3,1.7h0V5.5H261.2z M253.2,10.3
		c0,1.5,1.2,2.8,2.8,2.8c1.8,0,2.9-1.2,2.9-2.8c0-1.7-1.1-2.8-2.8-2.8C254.4,7.4,253.2,8.6,253.2,10.3z"/>
	<path fill="#FFFFFF" d="M268.6,8.2c-0.5-0.6-1.1-1-1.9-1c-0.6,0-1.4,0.3-1.4,1c0,1.7,5.2,0.3,5.2,4.1c0,2.3-2.2,3.1-4.1,3.1
		c-1.5,0-2.8-0.4-3.7-1.5l1.6-1.5c0.6,0.7,1.3,1.2,2.3,1.2c0.7,0,1.6-0.3,1.6-1.1c0-2-5.2-0.4-5.2-4.1c0-2.1,1.9-3.1,3.9-3.1
		c1.3,0,2.6,0.4,3.4,1.5L268.6,8.2z"/>
	<path fill="#FFFFFF" d="M280.7,6.9L280.7,6.9c0.4-0.8,1.4-1.6,2.9-1.6c2.6,0,3.5,1.8,3.5,3.8v6.1h-2.4v-4.9c0-1.1-0.1-2.8-1.8-2.8
		c-1.6,0-2.2,1.2-2.2,2.4v5.2h-2.4V0h2.4V6.9z"/>
	<path fill="#FFFFFF" d="M295,13.8L295,13.8c-0.7,1.1-1.9,1.6-3.1,1.6c-1.8,0-3.5-1-3.5-2.9c0-3.1,3.6-3.3,6-3.3h0.6V8.9
		c0-1.2-0.9-1.8-2.2-1.8c-1,0-1.9,0.4-2.6,1L289,6.8c1.1-1.1,2.6-1.5,4.1-1.5c4.1,0,4.1,3,4.1,4.3v5.5H295V13.8z M294.9,10.8h-0.5
		c-1.3,0-3.6,0.1-3.6,1.5c0,0.9,0.9,1.3,1.7,1.3c1.6,0,2.4-0.9,2.4-2.2V10.8z"/>
	<path fill="#FFFFFF" d="M297.7,5.5h2.6l2.6,6.7h0l2.6-6.7h2.5l-3.8,9.6h-2.6L297.7,5.5z"/>
	<path fill="#FFFFFF" d="M310.5,11.2c0.2,1.4,1.2,2.3,2.6,2.3c1.2,0,2-0.6,2.6-1.3l1.7,1.3c-1.1,1.4-2.5,1.9-4.1,1.9
		c-2.9,0-5.2-2-5.2-5s2.3-5,5.2-5c2.7,0,4.5,1.9,4.5,5.2v0.7H310.5z M315.4,9.4c0-1.4-0.9-2.3-2.4-2.3c-1.4,0-2.3,0.9-2.5,2.3H315.4
		z"/>
	<path fill="#FFFFFF" d="M331.1,8.2c-0.5-0.6-1.1-1-1.9-1c-0.6,0-1.4,0.3-1.4,1c0,1.7,5.2,0.3,5.2,4.1c0,2.3-2.2,3.1-4.1,3.1
		c-1.5,0-2.8-0.4-3.7-1.5l1.6-1.5c0.6,0.7,1.3,1.2,2.3,1.2c0.7,0,1.6-0.3,1.6-1.1c0-2-5.2-0.4-5.2-4.1c0-2.1,1.9-3.1,3.9-3.1
		c1.3,0,2.6,0.4,3.4,1.5L331.1,8.2z"/>
	<path fill="#FFFFFF" d="M334.1,0h2.4v15.1h-2.4V0z"/>
	<path fill="#FFFFFF" d="M340.1,0.8c0.9,0,1.6,0.6,1.6,1.4c0,0.8-0.7,1.4-1.6,1.4c-0.9,0-1.5-0.7-1.5-1.4
		C338.6,1.5,339.2,0.8,340.1,0.8z M338.9,5.5h2.4v9.6h-2.4V5.5z"/>
	<path fill="#FFFFFF" d="M343.7,5.5h2.3V7h0c0.7-1.2,2-1.7,3.3-1.7c3,0,4.7,2.2,4.7,5s-1.9,5-4.6,5c-1.8,0-2.8-0.8-3.3-1.5h-0.1v5.8
		h-2.4V5.5z M348.8,7.4c-1.8,0-2.8,1.4-2.8,2.9c0,1.5,1.1,2.9,2.8,2.9c1.8,0,2.8-1.4,2.8-2.9C351.6,8.8,350.6,7.4,348.8,7.4z"/>
	<path fill="#FFFFFF" d="M355.5,5.5h2.3V7h0c0.7-1.2,2-1.7,3.3-1.7c3,0,4.7,2.2,4.7,5s-1.9,5-4.6,5c-1.8,0-2.8-0.8-3.3-1.5h-0.1v5.8
		h-2.4V5.5z M360.6,7.4c-1.8,0-2.8,1.4-2.8,2.9c0,1.5,1.1,2.9,2.8,2.9c1.8,0,2.8-1.4,2.8-2.9C363.5,8.8,362.4,7.4,360.6,7.4z"/>
	<path fill="#FFFFFF" d="M369.2,11.2c0.2,1.4,1.2,2.3,2.6,2.3c1.2,0,2-0.6,2.6-1.3l1.7,1.3c-1.1,1.4-2.5,1.9-4.1,1.9
		c-2.9,0-5.2-2-5.2-5s2.3-5,5.2-5c2.7,0,4.5,1.9,4.5,5.2v0.7H369.2z M374.2,9.4c0-1.4-0.9-2.3-2.4-2.3c-1.4,0-2.3,0.9-2.5,2.3H374.2
		z"/>
	<path fill="#FFFFFF" d="M385.6,13.7L385.6,13.7c-0.7,1.2-2,1.7-3.3,1.7c-3,0-4.7-2.2-4.7-5s1.9-5,4.6-5c1.8,0,2.8,0.8,3.3,1.5h0.1
		V0h2.4v15.1h-2.3V13.7z M382.8,13.2c1.8,0,2.8-1.4,2.8-2.9c0-1.5-1.1-2.9-2.8-2.9c-1.8,0-2.8,1.4-2.8,2.9
		C379.9,11.8,381,13.2,382.8,13.2z"/>
</g>
<g>
</g>
<g>
	<path fill="#FFFFFF" d="M8.1,37.7L8.1,37.7c-0.7,1.2-2,1.7-3.3,1.7c-3,0-4.7-2.2-4.7-5s1.9-5,4.6-5c1.8,0,2.8,0.8,3.3,1.5H8V24h2.4
		v15.1H8.1V37.7z M5.2,37.2C7,37.2,8,35.8,8,34.3c0-1.5-1.1-2.9-2.8-2.9c-1.8,0-2.8,1.4-2.8,2.9C2.4,35.8,3.5,37.2,5.2,37.2z"/>
	<path fill="#FFFFFF" d="M17.4,29.3c2.9,0,5.2,2,5.2,5s-2.3,5-5.2,5c-2.9,0-5.2-2-5.2-5S14.5,29.3,17.4,29.3z M17.4,37.2
		c1.8,0,2.8-1.4,2.8-2.9c0-1.5-1.1-2.9-2.8-2.9c-1.8,0-2.8,1.4-2.8,2.9C14.6,35.8,15.7,37.2,17.4,37.2z"/>
	<path fill="#FFFFFF" d="M26.4,35.2c0.2,1.4,1.2,2.3,2.6,2.3c1.2,0,2-0.6,2.6-1.3l1.7,1.3c-1.1,1.4-2.5,1.9-4.1,1.9
		c-2.9,0-5.2-2-5.2-5s2.3-5,5.2-5c2.7,0,4.5,1.9,4.5,5.2v0.7H26.4z M31.4,33.4c0-1.4-0.9-2.3-2.4-2.3c-1.4,0-2.3,0.9-2.5,2.3H31.4z"
		/>
	<path fill="#FFFFFF" d="M40.7,32.2c-0.5-0.6-1.1-1-1.9-1c-0.6,0-1.4,0.3-1.4,1c0,1.7,5.2,0.3,5.2,4.1c0,2.3-2.2,3.1-4.1,3.1
		c-1.5,0-2.8-0.4-3.7-1.5l1.6-1.5c0.6,0.7,1.3,1.2,2.3,1.2c0.7,0,1.6-0.3,1.6-1.1c0-2-5.2-0.4-5.2-4.1c0-2.1,1.9-3.1,3.9-3.1
		c1.3,0,2.6,0.4,3.4,1.5L40.7,32.2z"/>
	<path fill="#FFFFFF" d="M44.1,29.5h2.3v1.5h0c0.4-1,1.3-1.8,2.9-1.8c2.6,0,3.5,1.8,3.5,3.8v6.1h-2.4v-4.9c0-1.1-0.1-2.8-1.8-2.8
		c-1.6,0-2.2,1.2-2.2,2.4v5.2h-2.4V29.5z"/>
	<path fill="#FFFFFF" d="M55.9,25h2.4l-1.7,5.3h-2.1L55.9,25z"/>
	<path fill="#FFFFFF" d="M58.9,31.6v-2h2v-2.8h2.4v2.8h2.6v2h-2.6v4.2c0,1,0.3,1.6,1.3,1.6c0.4,0,1-0.1,1.3-0.3v2
		c-0.5,0.2-1.3,0.3-1.9,0.3c-2.5,0-3.1-1.1-3.1-3.4v-4.4H58.9z"/>
	<path fill="#FFFFFF" d="M73.6,29.5h2.3V31h0c0.4-0.9,1.3-1.7,2.9-1.7c1.5,0,2.5,0.6,3,1.8c0.7-1.2,1.7-1.8,3.2-1.8
		c2.6,0,3.5,1.8,3.5,4.1v5.7h-2.4v-5.4c0-1.2-0.4-2.2-1.8-2.2c-1.5,0-2.1,1.2-2.1,2.5v5.2h-2.4v-5.7c0-1.2-0.5-2-1.6-2
		c-1.6,0-2.2,1.2-2.2,2.4v5.2h-2.4V29.5z"/>
	<path fill="#FFFFFF" d="M92.6,35.2c0.2,1.4,1.2,2.3,2.6,2.3c1.2,0,2-0.6,2.6-1.3l1.7,1.3c-1.1,1.4-2.5,1.9-4.1,1.9
		c-2.9,0-5.2-2-5.2-5s2.3-5,5.2-5c2.7,0,4.5,1.9,4.5,5.2v0.7H92.6z M97.6,33.4c0-1.4-0.9-2.3-2.4-2.3c-1.4,0-2.3,0.9-2.5,2.3H97.6z"
		/>
	<path fill="#FFFFFF" d="M107.8,37.8L107.8,37.8c-0.7,1.1-1.9,1.6-3.1,1.6c-1.8,0-3.5-1-3.5-2.9c0-3.1,3.6-3.3,6-3.3h0.6v-0.3
		c0-1.2-0.9-1.8-2.2-1.8c-1,0-1.9,0.4-2.6,1l-1.3-1.3c1.1-1.1,2.6-1.5,4.1-1.5c4.1,0,4.1,3,4.1,4.3v5.5h-2.2V37.8z M107.7,34.8h-0.5
		c-1.3,0-3.6,0.1-3.6,1.5c0,0.9,0.9,1.3,1.7,1.3c1.6,0,2.4-0.9,2.4-2.2V34.8z"/>
	<path fill="#FFFFFF" d="M112.2,29.5h2.3v1.5h0c0.4-1,1.3-1.8,2.9-1.8c2.6,0,3.5,1.8,3.5,3.8v6.1h-2.4v-4.9c0-1.1-0.1-2.8-1.8-2.8
		c-1.6,0-2.2,1.2-2.2,2.4v5.2h-2.4V29.5z"/>
	<path fill="#FFFFFF" d="M132,30.9L132,30.9c0.4-0.8,1.4-1.6,2.9-1.6c2.6,0,3.5,1.8,3.5,3.8v6.1h-2.4v-4.9c0-1.1-0.1-2.8-1.8-2.8
		c-1.6,0-2.2,1.2-2.2,2.4v5.2h-2.4V24h2.4V30.9z"/>
	<path fill="#FFFFFF" d="M141.5,24.8c0.9,0,1.6,0.6,1.6,1.4c0,0.8-0.7,1.4-1.6,1.4S140,27,140,26.3C140,25.5,140.6,24.8,141.5,24.8z
		 M140.3,29.5h2.4v9.6h-2.4V29.5z"/>
	<path fill="#FFFFFF" d="M150.2,32.2c-0.5-0.6-1.1-1-1.9-1c-0.6,0-1.4,0.3-1.4,1c0,1.7,5.2,0.3,5.2,4.1c0,2.3-2.2,3.1-4.1,3.1
		c-1.5,0-2.8-0.4-3.7-1.5l1.6-1.5c0.6,0.7,1.3,1.2,2.3,1.2c0.7,0,1.6-0.3,1.6-1.1c0-2-5.2-0.4-5.2-4.1c0-2.1,1.9-3.1,3.9-3.1
		c1.3,0,2.6,0.4,3.4,1.5L150.2,32.2z"/>
	<path fill="#FFFFFF" d="M160.8,31.6h-2v-2h2v-1.4c0-2.7,0.6-4.4,3.6-4.4c0.5,0,1,0,1.5,0.1l-0.2,2c-0.3-0.1-0.7-0.1-1-0.1
		c-1.3,0-1.5,0.9-1.5,2v1.7h2.2v2h-2.2v7.6h-2.4V31.6z"/>
	<path fill="#FFFFFF" d="M166.6,29.5h2.4V31h0c0.5-1.1,1.6-1.8,2.8-1.8c0.3,0,0.6,0.1,0.9,0.1v2.3c-0.4-0.1-0.8-0.2-1.2-0.2
		c-2.3,0-2.6,1.9-2.6,2.4v5.1h-2.4V29.5z"/>
	<path fill="#FFFFFF" d="M177.9,29.3c2.9,0,5.2,2,5.2,5s-2.3,5-5.2,5c-2.9,0-5.2-2-5.2-5S175,29.3,177.9,29.3z M177.9,37.2
		c1.8,0,2.8-1.4,2.8-2.9c0-1.5-1.1-2.9-2.8-2.9c-1.8,0-2.8,1.4-2.8,2.9C175.1,35.8,176.2,37.2,177.9,37.2z"/>
	<path fill="#FFFFFF" d="M184.6,29.5h2.3v1.5h0c0.4-1,1.3-1.8,2.9-1.8c2.6,0,3.5,1.8,3.5,3.8v6.1H191v-4.9c0-1.1-0.1-2.8-1.8-2.8
		c-1.6,0-2.2,1.2-2.2,2.4v5.2h-2.4V29.5z"/>
	<path fill="#FFFFFF" d="M194.6,31.6v-2h2v-2.8h2.4v2.8h2.6v2H199v4.2c0,1,0.3,1.6,1.3,1.6c0.4,0,1-0.1,1.3-0.3v2
		c-0.5,0.2-1.3,0.3-1.9,0.3c-2.5,0-3.1-1.1-3.1-3.4v-4.4H194.6z"/>
	<path fill="#FFFFFF" d="M209.1,37.8L209.1,37.8c-0.7,1.1-1.9,1.6-3.1,1.6c-1.8,0-3.5-1-3.5-2.9c0-3.1,3.6-3.3,6-3.3h0.6v-0.3
		c0-1.2-0.9-1.8-2.2-1.8c-1,0-1.9,0.4-2.6,1l-1.3-1.3c1.1-1.1,2.6-1.5,4.1-1.5c4.1,0,4.1,3,4.1,4.3v5.5h-2.2V37.8z M209,34.8h-0.5
		c-1.3,0-3.6,0.1-3.6,1.5c0,0.9,0.9,1.3,1.7,1.3c1.6,0,2.4-0.9,2.4-2.2V34.8z"/>
	<path fill="#FFFFFF" d="M213.5,24h2.4v15.1h-2.4V24z"/>
	<path fill="#FFFFFF" d="M224.6,24h2.4v15.1h-2.4V24z"/>
	<path fill="#FFFFFF" d="M233.7,29.3c2.9,0,5.2,2,5.2,5s-2.3,5-5.2,5s-5.2-2-5.2-5S230.8,29.3,233.7,29.3z M233.7,37.2
		c1.8,0,2.8-1.4,2.8-2.9c0-1.5-1.1-2.9-2.8-2.9c-1.8,0-2.8,1.4-2.8,2.9C230.9,35.8,232,37.2,233.7,37.2z"/>
	<path fill="#FFFFFF" d="M240.4,24h2.4v6.7h0.1c0.5-0.6,1.5-1.5,3.3-1.5c2.7,0,4.6,2.2,4.6,5s-1.8,5-4.7,5c-1.3,0-2.6-0.5-3.3-1.7h0
		v1.4h-2.3V24z M245.6,31.4c-1.8,0-2.8,1.4-2.8,2.9c0,1.5,1.1,2.9,2.8,2.9s2.8-1.4,2.8-2.9C248.4,32.8,247.3,31.4,245.6,31.4z"/>
	<path fill="#FFFFFF" d="M254.6,35.2c0.2,1.4,1.2,2.3,2.6,2.3c1.2,0,2-0.6,2.6-1.3l1.7,1.3c-1.1,1.4-2.5,1.9-4.1,1.9
		c-2.9,0-5.2-2-5.2-5s2.3-5,5.2-5c2.7,0,4.5,1.9,4.5,5.2v0.7H254.6z M259.5,33.4c0-1.4-0.9-2.3-2.4-2.3c-1.4,0-2.3,0.9-2.5,2.3
		H259.5z"/>
	<path fill="#FFFFFF" d="M268.9,32.2c-0.5-0.6-1.1-1-1.9-1c-0.6,0-1.4,0.3-1.4,1c0,1.7,5.2,0.3,5.2,4.1c0,2.3-2.2,3.1-4.1,3.1
		c-1.5,0-2.8-0.4-3.7-1.5l1.6-1.5c0.6,0.7,1.3,1.2,2.3,1.2c0.7,0,1.6-0.3,1.6-1.1c0-2-5.2-0.4-5.2-4.1c0-2.1,1.9-3.1,3.9-3.1
		c1.3,0,2.6,0.4,3.4,1.5L268.9,32.2z"/>
	<path fill="#FFFFFF" d="M284.5,37.8L284.5,37.8c-0.7,1.1-1.9,1.6-3.1,1.6c-1.8,0-3.5-1-3.5-2.9c0-3.1,3.6-3.3,6-3.3h0.6v-0.3
		c0-1.2-0.9-1.8-2.2-1.8c-1,0-1.9,0.4-2.6,1l-1.3-1.3c1.1-1.1,2.6-1.5,4.1-1.5c4.1,0,4.1,3,4.1,4.3v5.5h-2.2V37.8z M284.4,34.8h-0.5
		c-1.3,0-3.6,0.1-3.6,1.5c0,0.9,0.9,1.3,1.7,1.3c1.6,0,2.4-0.9,2.4-2.2V34.8z"/>
	<path fill="#FFFFFF" d="M288.9,29.5h2.4V31h0c0.5-1.1,1.6-1.8,2.8-1.8c0.3,0,0.6,0.1,0.9,0.1v2.3c-0.4-0.1-0.8-0.2-1.2-0.2
		c-2.3,0-2.6,1.9-2.6,2.4v5.1h-2.4V29.5z"/>
	<path fill="#FFFFFF" d="M297.9,35.2c0.2,1.4,1.2,2.3,2.6,2.3c1.2,0,2-0.6,2.6-1.3l1.7,1.3c-1.1,1.4-2.5,1.9-4.1,1.9
		c-2.9,0-5.2-2-5.2-5s2.3-5,5.2-5c2.7,0,4.5,1.9,4.5,5.2v0.7H297.9z M302.8,33.4c0-1.4-0.9-2.3-2.4-2.3c-1.4,0-2.3,0.9-2.5,2.3
		H302.8z"/>
	<path fill="#FFFFFF" d="M320.9,37.7L320.9,37.7c-0.7,1.2-2,1.7-3.3,1.7c-3,0-4.7-2.2-4.7-5s1.9-5,4.6-5c1.8,0,2.8,0.8,3.3,1.5h0.1
		V24h2.4v15.1h-2.3V37.7z M318.1,37.2c1.8,0,2.8-1.4,2.8-2.9c0-1.5-1.1-2.9-2.8-2.9c-1.8,0-2.8,1.4-2.8,2.9
		C315.3,35.8,316.3,37.2,318.1,37.2z"/>
	<path fill="#FFFFFF" d="M326.4,24.8c0.9,0,1.6,0.6,1.6,1.4c0,0.8-0.7,1.4-1.6,1.4c-0.9,0-1.5-0.7-1.5-1.4
		C324.8,25.5,325.5,24.8,326.4,24.8z M325.2,29.5h2.4v9.6h-2.4V29.5z"/>
	<path fill="#FFFFFF" d="M335.1,32.2c-0.5-0.6-1.1-1-1.9-1c-0.6,0-1.4,0.3-1.4,1c0,1.7,5.2,0.3,5.2,4.1c0,2.3-2.2,3.1-4.1,3.1
		c-1.5,0-2.8-0.4-3.7-1.5l1.6-1.5c0.6,0.7,1.3,1.2,2.3,1.2c0.7,0,1.6-0.3,1.6-1.1c0-2-5.2-0.4-5.2-4.1c0-2.1,1.9-3.1,3.9-3.1
		c1.3,0,2.6,0.4,3.4,1.5L335.1,32.2z"/>
	<path fill="#FFFFFF" d="M343.6,32.2c-0.5-0.6-1.1-1-1.9-1c-0.6,0-1.4,0.3-1.4,1c0,1.7,5.2,0.3,5.2,4.1c0,2.3-2.2,3.1-4.1,3.1
		c-1.5,0-2.8-0.4-3.7-1.5l1.6-1.5c0.6,0.7,1.3,1.2,2.3,1.2c0.7,0,1.6-0.3,1.6-1.1c0-2-5.2-0.4-5.2-4.1c0-2.1,1.9-3.1,3.9-3.1
		c1.3,0,2.6,0.4,3.4,1.5L343.6,32.2z"/>
	<path fill="#FFFFFF" d="M351.7,29.3c2.9,0,5.2,2,5.2,5s-2.3,5-5.2,5c-2.9,0-5.2-2-5.2-5S348.8,29.3,351.7,29.3z M351.7,37.2
		c1.8,0,2.8-1.4,2.8-2.9c0-1.5-1.1-2.9-2.8-2.9c-1.8,0-2.8,1.4-2.8,2.9C348.9,35.8,349.9,37.2,351.7,37.2z"/>
	<path fill="#FFFFFF" d="M358.4,24h2.4v15.1h-2.4V24z"/>
	<path fill="#FFFFFF" d="M361.9,29.5h2.6l2.6,6.7h0l2.6-6.7h2.5l-3.8,9.6h-2.6L361.9,29.5z"/>
	<path fill="#FFFFFF" d="M374.4,24.8c0.9,0,1.6,0.6,1.6,1.4c0,0.8-0.7,1.4-1.6,1.4c-0.9,0-1.5-0.7-1.5-1.4
		C372.9,25.5,373.5,24.8,374.4,24.8z M373.2,29.5h2.4v9.6h-2.4V29.5z"/>
	<path fill="#FFFFFF" d="M377.6,29.5h2.3v1.5h0c0.4-1,1.3-1.8,2.9-1.8c2.6,0,3.5,1.8,3.5,3.8v6.1h-2.4v-4.9c0-1.1-0.1-2.8-1.8-2.8
		c-1.6,0-2.2,1.2-2.2,2.4v5.2h-2.4V29.5z"/>
	<path fill="#FFFFFF" d="M398.2,29.5v8.7c0,3.5-1.7,5.7-5.4,5.7c-1.8,0-3.4-0.4-4.8-1.6l1.4-2c1,0.9,2,1.4,3.3,1.4
		c2.3,0,3-1.3,3-3.2v-0.7h0c-0.7,0.9-1.9,1.4-3.1,1.4c-2.9,0-4.8-2.2-4.8-4.9c0-2.8,1.8-5,4.7-5c1.3,0,2.6,0.5,3.3,1.7h0v-1.4H398.2
		z M390.2,34.3c0,1.5,1.2,2.8,2.8,2.8c1.8,0,2.9-1.2,2.9-2.8c0-1.7-1.1-2.8-2.8-2.8C391.4,31.4,390.2,32.6,390.2,34.3z"/>
	<path fill="#FFFFFF" d="M402.1,36.2c0.9,0,1.6,0.7,1.6,1.5s-0.7,1.6-1.6,1.6c-0.8,0-1.6-0.7-1.6-1.5S401.2,36.2,402.1,36.2z"/>
	<path fill="#FFFFFF" d="M406,25h2.4l-1.7,5.3h-2.1L406,25z M410.3,25h2.4l-1.7,5.3h-2.1L410.3,25z"/>
</g>
<g>
	<path fill="#002B49" d="M126.6,56h5v1.2h-5V56z"/>
	<path fill="#002B49" d="M136.6,52h1.7l1.1,4.5h0l1.5-4.5h1.4l1.5,4.7h0L145,52h1.6l-2.1,7.1h-1.4l-1.6-4.9h0l-1.6,4.9h-1.3
		L136.6,52z"/>
	<path fill="#002B49" d="M154.2,52h1.3l3.1,7.1h-1.8l-0.6-1.5h-2.7l-0.6,1.5h-1.7L154.2,52z M154.8,54.1l-0.9,2.2h1.7L154.8,54.1z"
		/>
	<path fill="#002B49" d="M164.4,52h1.6v5.6h2.9v1.4h-4.4V52z"/>
	<path fill="#002B49" d="M175.4,53.4h-2V52h5.6v1.4h-2v5.7h-1.6V53.4z"/>
	<path fill="#002B49" d="M184.8,52h4.8v1.4h-3.2v1.3h3.1v1.4h-3.1v1.4h3.4v1.4h-5V52z"/>
	<path fill="#002B49" d="M196.1,52h2.7c1.4,0,2.7,0.5,2.7,2.1c0,1-0.5,1.8-1.5,1.9l1.8,3h-1.9l-1.5-2.8h-0.8v2.8h-1.6V52z M197.6,55
		h0.9c0.6,0,1.3,0,1.3-0.8c0-0.7-0.6-0.8-1.2-0.8h-1V55z"/>
	<path fill="#002B49" d="M215.5,52h2.6c1.2,0,2.6,0.3,2.6,1.8c0,0.8-0.5,1.3-1.2,1.6v0c0.9,0.1,1.5,0.8,1.5,1.7c0,1.5-1.4,2-2.7,2
		h-2.9V52z M217.1,54.9h1.1c0.5,0,1-0.2,1-0.8c0-0.6-0.6-0.7-1-0.7h-1.1V54.9z M217.1,57.8h1.4c0.5,0,1-0.2,1-0.8
		c0-0.7-0.7-0.8-1.3-0.8h-1.2V57.8z"/>
	<path fill="#002B49" d="M227.2,52h1.6v5.6h2.9v1.4h-4.4V52z"/>
	<path fill="#002B49" d="M243.3,56.4c0,1.7-1,2.9-3,2.9c-2,0-3-1.2-3-2.9V52h1.6v4.3c0,0.9,0.6,1.5,1.4,1.5c0.8,0,1.4-0.7,1.4-1.5
		V52h1.6V56.4z"/>
	<path fill="#002B49" d="M249.8,52h2.1l3,4.9h0V52h1.6v7.1h-2l-3.1-5h0v5h-1.6V52z"/>
	<path fill="#002B49" d="M264.3,53.4h-2V52h5.6v1.4h-2v5.7h-1.6V53.4z"/>
</g>
</svg>
