<?xml version="1.0" encoding="utf-8"?>
<!-- Generator: Adobe Illustrator 18.1.1, SVG Export Plug-In . SVG Version: 6.00 Build 0)  -->
<svg version="1.1" id="Layer_1" xmlns="http://www.w3.org/2000/svg" xmlns:xlink="http://www.w3.org/1999/xlink" x="0px" y="0px"
	 viewBox="0 0 72.8 59.6" enable-background="new 0 0 72.8 59.6" xml:space="preserve">
<g>
	<g>
		<path fill="#FFFFFF" d="M1.1,56.8c0.2-1.1,1-2,2-2.7c1-0.7,2.2-1.2,3.3-1.8c2.4-1.1,4.7-2.2,6.9-3.6c4.5-2.7,8.5-6,12.4-9.5
			c7.6-7.1,14-15.3,20.7-23.2l-0.9-0.6c-2.8,5-6.2,9.7-9.9,14c-1.9,2.2-3.9,4.2-5.9,6.2c-1,1-2.1,2-3.2,2.9
			c-0.5,0.5-1.1,0.9-1.6,1.4c-0.5,0.5-1.1,0.9-1.7,1.4c-0.5,0.5-1,1.2-1.3,2c-0.1,0.4-0.2,0.8-0.3,1.2c0,0.2,0,0.4,0,0.7
			c0,0.3,0.1,0.5,0.3,0.7c0.7,0.8,1.5,1,2.2,1.1c0.8,0.1,1.5,0.2,2.2,0.2c0.7,0,1.5,0,2.1,0.1c0.7,0.1,1.5,0.1,2.2,0.1
			c1.5-0.1,3-0.3,4.4-0.8c2.9-1.1,5.1-3.1,7-5.3c1.9-2.3,3.3-4.9,4.5-7.5c1.3-2.6,2.5-5.2,4-7.6c1.5-2.4,3.2-4.7,5-6.9
			c3.7-4.4,7.9-8.3,12.2-12.2c0.5-0.5,1.1-1,1.5-1.7c0.4-0.7,0.7-1.5,0.7-2.3c0-0.9-0.4-1.8-1.1-2.3C68.2,0.1,67.3,0,66.5,0
			c-0.8,0-1.5,0.2-2.3,0.5c-0.7,0.3-1.4,0.6-2,0.9c-1.3,0.7-2.6,1.4-3.8,2.2c-4.9,3.2-9,7.4-12.9,11.7l0.8,0.7
			c3.8-4.3,7.8-8.4,12.6-11.5c1.2-0.8,2.4-1.5,3.7-2.1c0.6-0.3,1.3-0.6,1.9-0.9c0.6-0.2,1.3-0.4,1.9-0.4c0.6,0,1.3,0.1,1.7,0.4
			C68.7,1.8,69,2.4,69,2.9c0,1.2-0.9,2.3-1.9,3.2C62.8,10,58.5,14,54.8,18.5c-1.9,2.2-3.6,4.6-5.1,7.1c-1.6,2.5-2.7,5.2-4,7.7
			c-1.3,2.6-2.6,5.1-4.4,7.3c-1.8,2.1-4,4.1-6.6,5c-1.3,0.5-2.7,0.7-4.1,0.8c-0.7,0-1.4,0-2.1,0c-0.7-0.1-1.5-0.1-2.2-0.1
			c-0.7,0-1.4-0.1-2.1-0.2c-0.7-0.1-1.3-0.4-1.6-0.7c0-0.1-0.1-0.2-0.1-0.3c0-0.1,0-0.3,0-0.4c0-0.3,0.1-0.6,0.2-0.9
			c0.2-0.6,0.6-1.1,1.1-1.6c0.5-0.5,1.1-0.9,1.6-1.4c0.6-0.5,1.1-0.9,1.7-1.4c1.1-0.9,2.2-1.9,3.2-2.9c2.1-2,4.1-4.1,6-6.3
			c3.8-4.4,7.2-9.1,10.1-14.2l-0.9-0.6C38.8,23.2,32.5,31.4,25,38.4c-3.8,3.5-7.8,6.7-12.2,9.4c-2.2,1.4-4.5,2.5-6.8,3.6
			c-1.2,0.5-2.4,1.1-3.5,1.9C1.4,54,0.3,55.1,0,56.6L1.1,56.8z"/>
		<path fill-rule="evenodd" clip-rule="evenodd" fill="#FFFFFF" d="M62.6,10.4c0.1-0.1,0.2-0.2,0.4-0.4
			C62.9,10.1,62.7,10.3,62.6,10.4z"/>
		<path fill-rule="evenodd" clip-rule="evenodd" fill="#FFFFFF" d="M68.9,5.4c0.1-0.1,0.4-0.6,0.4-0.5C69.1,5.2,69,5.3,68.9,5.4z"/>
		<path fill-rule="evenodd" clip-rule="evenodd" fill="#FFFFFF" d="M69.4,4.7c0,0,0.2-0.4,0.2-0.6C69.7,4.1,69.5,4.6,69.4,4.7z"/>
		<path fill-rule="evenodd" clip-rule="evenodd" fill="#FFFFFF" d="M69.6,2.1c0-0.1-0.2-0.5-0.3-0.6C69.3,1.5,69.5,1.9,69.6,2.1z"/>
		<path fill-rule="evenodd" clip-rule="evenodd" fill="#FFFFFF" d="M69,1c-0.2-0.2-0.5-0.4-1-0.6C68.2,0.5,68.7,0.7,69,1z"/>
		<path fill-rule="evenodd" clip-rule="evenodd" fill="#FFFFFF" d="M66,0.9c-0.5,0.1-1.5,0.4-1.9,0.5C64.7,1.2,65.4,1,66,0.9z"/>
		<path fill-rule="evenodd" clip-rule="evenodd" fill="#FFFFFF" d="M64.5,1c-0.6,0.2-1.7,0.7-2.5,1.1c-0.1,0,1.1-0.6,1.3-0.7
			c0.2-0.1,0.3-0.1,0.5-0.2C64.1,1.1,64.3,1,64.5,1z"/>
		<path fill-rule="evenodd" clip-rule="evenodd" fill="#FFFFFF" d="M57.4,4.9c0,0,0,0-0.2,0.2c-0.1,0-0.1,0-0.1,0L57.4,4.9z"/>
		<path fill-rule="evenodd" clip-rule="evenodd" fill="#FFFFFF" d="M54.8,7c-0.5,0.5-1.3,1.1-1.9,1.6c-0.1,0.1-0.1,0.1-0.2,0.2
			c-0.3,0.3-1,0.9-0.3,0.3C53.2,8.4,53.8,7.8,54.8,7z"/>
		<path fill-rule="evenodd" clip-rule="evenodd" fill="#FFFFFF" d="M54.4,7.2c-0.2,0.1-0.3,0.2-0.5,0.4C53.9,7.5,54.3,7.2,54.4,7.2z
			"/>
		<path fill-rule="evenodd" clip-rule="evenodd" fill="#FFFFFF" d="M54,8c-0.2,0.2-0.4,0.4-0.6,0.5C53.5,8.4,53.7,8.2,54,8z"/>
		<path fill-rule="evenodd" clip-rule="evenodd" fill="#FFFFFF" d="M53.9,7.6c-0.2,0.2-0.5,0.4-0.7,0.6C53,8.4,53.6,7.9,53.9,7.6z"
			/>
		<path fill-rule="evenodd" clip-rule="evenodd" fill="#FFFFFF" d="M53.6,7.9c-0.3,0.2-0.5,0.5-0.8,0.7C52.9,8.4,53.3,8.1,53.6,7.9z
			"/>
		<path fill-rule="evenodd" clip-rule="evenodd" fill="#FFFFFF" d="M53.4,8.6c-0.2,0.2-0.3,0.3-0.4,0.4C52.9,9,53.2,8.7,53.4,8.6z"
			/>
		<path fill-rule="evenodd" clip-rule="evenodd" fill="#FFFFFF" d="M53,8.8c-0.3,0.3-0.9,0.9-1.3,1.2C52.2,9.5,52.6,9.2,53,8.8z"/>
		<path fill-rule="evenodd" clip-rule="evenodd" fill="#FFFFFF" d="M52.7,8.7c-0.5,0.5-0.8,0.8-1.1,1C51.9,9.4,52.3,9,52.7,8.7z"/>
		<path fill-rule="evenodd" clip-rule="evenodd" fill="#FFFFFF" d="M51.9,9.6c-0.2,0.2-0.3,0.3-0.5,0.5C51.3,10.1,51.7,9.8,51.9,9.6
			z"/>
		<path fill-rule="evenodd" clip-rule="evenodd" fill="#FFFFFF" d="M51.3,10.1c-0.2,0.2-0.3,0.3-0.5,0.5
			C50.9,10.5,51.2,10.2,51.3,10.1z"/>
		<path fill-rule="evenodd" clip-rule="evenodd" fill="#FFFFFF" d="M50.8,10.6c-0.1,0.1-0.5,0.5-0.4,0.4c0.1-0.1,0.1-0.1,0.1-0.1
			C50.6,10.8,50.6,10.8,50.8,10.6z"/>
		<path fill-rule="evenodd" clip-rule="evenodd" fill="#FFFFFF" d="M49.6,12C49.9,11.7,50.4,11.2,49.6,12L49.6,12z"/>
		<path fill-rule="evenodd" clip-rule="evenodd" fill="#FFFFFF" d="M49,12.8c-0.3,0.3-0.5,0.5-0.8,0.8C48.4,13.4,48.9,12.9,49,12.8z
			"/>
		<path fill-rule="evenodd" clip-rule="evenodd" fill="#FFFFFF" d="M48.8,13c0.1-0.1-0.4,0.4-0.3,0.3L48.8,13z"/>
		<path fill-rule="evenodd" clip-rule="evenodd" fill="#FFFFFF" d="M48.4,13.7c-0.2,0.2-0.3,0.3-0.4,0.5
			C48,14.1,48.3,13.8,48.4,13.7z"/>
		<path fill-rule="evenodd" clip-rule="evenodd" fill="#FFFFFF" d="M46.7,15.5C46.3,16,46.1,16.2,46.7,15.5L46.7,15.5z"/>
		<path fill-rule="evenodd" clip-rule="evenodd" fill="#FFFFFF" d="M61.5,2.9C61.4,3,61.3,3,61.1,3.1c-0.4,0.2-0.6,0.4-1,0.6
			C60.5,3.4,60.9,3.2,61.5,2.9z"/>
		<path fill-rule="evenodd" clip-rule="evenodd" fill="#FFFFFF" d="M53.5,8.3c-0.1,0.1-0.1,0.1-0.3,0.3c0,0,0.1-0.1,0.1-0.1
			c-0.3,0.3-0.5,0.5-0.8,0.7c0,0,0.1-0.1,0.1-0.1c-0.4,0.3-0.8,0.7-1.5,1.4c0.7-0.7,2.3-2.2,2.9-2.7c-0.3,0.3-0.4,0.4-0.7,0.6
			C53.2,8.5,53.6,8.2,53.5,8.3z"/>
		<path fill-rule="evenodd" clip-rule="evenodd" fill="#FFFFFF" d="M52.7,8.7C52.6,8.8,52.6,8.8,52.7,8.7c0,0-0.3,0.3-0.3,0.3
			C52.4,9,53.3,8.2,52.7,8.7z"/>
		<path fill-rule="evenodd" clip-rule="evenodd" fill="#FFFFFF" d="M48.1,13.3L48.1,13.3c-0.4,0.4-0.9,0.9-1.2,1.3
			c0.5-0.5,1.1-1.2,1.7-1.9l0.3-0.3c1-1.1,2.2-2.3,3.4-3.4c-0.5,0.5-1.7,1.6-2.3,2.2c-0.1,0.1,0,0,0.1-0.1
			C49.6,11.7,48.7,12.7,48.1,13.3z"/>
		<path fill-rule="evenodd" clip-rule="evenodd" fill="#FFFFFF" d="M48.7,13.2c-0.1,0.1-0.2,0.3-0.4,0.4
			C48.3,13.6,48.6,13.3,48.7,13.2z"/>
		<path fill-rule="evenodd" clip-rule="evenodd" fill="#FFFFFF" d="M18.2,44.1c-0.3,0.2-0.7,0.5-1,0.7c-0.8,0.6-1.5,1.1-2.3,1.6
			c-0.7,0.5-1.4,0.9-2.1,1.4c-0.5,0.3-0.7,0.5-1.1,0.7c-1.1,0.7-2,1.1-2.5,1.4c-0.8,0.4-1.8,0.9-2.5,1.3c-0.1,0.1-0.3,0.2-0.4,0.2
			c-0.9,0.4-1.7,0.8-2.4,1.2c-0.7,0.4-1.6,0.9-2.4,1.8c-0.1,0.2-0.2,0.3-0.4,0.6c-0.1,0.2-0.3,0.5-0.4,0.7c-0.1,0.5,0,0.1-0.2,1
			c0,0.1,0-0.1,0.1-0.2c0.1,0,0.2-0.3,0.2-0.1c0.2-0.6,0.2-0.4,0.4-0.8c0.1-0.3,0.5-0.7,0.8-0.9c0.3-0.3,0.7-0.6,1-0.8
			c0,0,0.1-0.1,0.2-0.1c0.1-0.1,0.3-0.2,0.3-0.2c0.6-0.3,1-0.6,1.6-0.8c0.1,0,0.2-0.1,0.2-0.1c1.3-0.6,2.7-1.1,4.5-2
			c0.2-0.1,0.5-0.3,0.7-0.4c1.3-0.7,3.3-1.9,3.9-2.3c0.2-0.1,0.2-0.1,0.4-0.3c0.1-0.1,0.8-0.5,1.4-0.9c0.2-0.1,0.5-0.4,0.9-0.7
			c0.6-0.5,1.2-0.9,1.8-1.3c0.2-0.1,0.6-0.5,0.8-0.6c0.4-0.3,0.9-0.7,1.4-1.1c0.5-0.4,1-0.8,1.2-1c0.4-0.4,0.6-0.5,0.9-0.8
			c0.3-0.3,0.5-0.5,0.5-0.5c0.8-0.8,3-2.7,4.2-3.9c0.9-0.9,1.7-1.8,2.6-2.6c0.2-0.2,0.4-0.4,0.5-0.6c0.3-0.3,0.7-0.7,1-1.1
			c0.6-0.7,1.2-1.3,1.6-1.8c0.8-0.9,1.3-1.5,2-2.2c0.2-0.3,0.5-0.6,0.7-0.8c0.2-0.2,0.4-0.5,0.7-0.8c0.2-0.3,0.5-0.6,0.7-0.9
			c0.2-0.2,0.3-0.4,0.5-0.5c0.2-0.2,0.3-0.4,0.5-0.6c0.2-0.2,0.4-0.5,0.6-0.8c0.7-0.9,1.4-1.7,2.3-2.8c1.4-1.6,2.4-2.8,4-4.7
			c0.3-0.3,0.5-0.6,0.7-0.8l-0.7-0.5c-0.1,0.2-0.2,0.3-0.3,0.5c-0.1,0.1-0.1,0.2-0.2,0.3c-0.6,1.1-1.3,2.2-2,3.3
			c0,0.1-0.1,0.1-0.1,0.2c-1,1.5-2.3,3.3-3.1,4.4C39.3,25,38.6,26,37.7,27c-0.4,0.5-0.8,1-1.2,1.4c-0.7,0.9-1.7,2-2.5,2.8
			c-0.2,0.2-0.5,0.5-0.6,0.7c-0.4,0.4-0.8,0.9-1.3,1.3c-1.7,1.7-3.7,3.6-5.2,5c-0.5,0.4-0.9,0.8-1.5,1.3c-0.5,0.4-0.9,0.8-1.4,1.1
			c-0.5,0.4-1,0.8-1.4,1.3c-0.2,0.3-0.4,0.5-0.5,0.8c-0.4,0.7-0.6,1.5-0.5,2.3c0.1,0.6,0.6,1.1,1,1.4c0.5,0.3,1,0.4,1.4,0.5
			c0.9,0.2,1.9,0.2,2.8,0.2c1.1,0,2.5,0.2,4,0.1c1.5-0.1,3-0.3,4.2-0.8c0.6-0.2,1.1-0.5,1.6-0.8c1.7-0.9,3.5-2.6,4.9-4
			c2.8-3.2,4.5-7.1,6.3-10.8c1.7-3.8,4.1-7.3,6.5-10.4c0.5-0.6,1-1.2,1.4-1.7c0.2-0.2,0.3-0.4,0.5-0.6c0.7-0.8,1.5-1.7,2.4-2.7
			c0.2-0.3,0.8-0.8,1.1-1.2c0.2-0.1-0.2,0.2,0.1,0c0.6-0.6,2.6-2.6,3.5-3.4c-0.1,0.1-0.1,0.1,0,0c0.3-0.3,0.4-0.4,0.6-0.5
			c1.7-1.6,2.9-2.7,4.3-4c0.2-0.2,0.6-0.7,0.8-0.9c-0.2,0.3-0.5,0.6-0.5,0.6c0.4-0.4,0.9-1.1,1-1.5c0.3-0.7,0.3-1.1,0.3-1.8
			c0-0.2,0,0.2,0-0.2c-0.1-0.5-0.4-0.9-0.6-1.2c-0.3-0.3-0.6-0.5-1.1-0.7c-0.1,0-0.5-0.1-0.8-0.1c-0.4,0-0.7,0-0.9,0
			c-0.3,0,0.3,0,0.1,0C65.4,0.5,64.7,0.7,64,1c-0.2,0.1-0.4,0.2-0.6,0.3c-0.2,0.1,0,0-0.2,0.1c-0.3,0.1,0.2-0.1,0.2,0
			c-0.4,0.2-0.3,0.2-0.5,0.2C62.3,1.8,62,2,61.5,2.3c-0.5,0.2-1,0.6-1.5,0.8c-0.4,0.2-0.6,0.4-1,0.6c-0.4,0.2-0.6,0.4-1,0.7
			c-0.2,0.1,0.1-0.1-0.1,0.1c-1.3,0.9-2.6,1.9-3.5,2.7c1.4-1.2,2.5-2,3.8-2.9c0.2-0.1,0.6-0.4,0.8-0.5c0.1-0.1-0.2,0.1,0.1-0.1
			c0.1-0.1,0.2-0.1,0.3-0.2c-0.2,0.1,0.1,0,0.2-0.1c1.2-0.7,2.1-1.2,3.1-1.7c0.2-0.1-0.1,0.1,0.1-0.1c0.4-0.2,0.7-0.3,1.2-0.6
			C64.2,1,64.5,0.9,64.3,1c-1.5,0.6-3.4,1.6-5,2.6c-0.5,0.3-1,0.6-1.2,0.8c0.7-0.5,1.3-0.8,1.9-1.2c0.8-0.5,1.7-1,2.5-1.4
			c0.2-0.1,0.4-0.2,0.6-0.3c0.1-0.1,0.5-0.2,0.6-0.3c0.2-0.1,0.2-0.1,0.4-0.2c0.4-0.1,0.7-0.3,1.1-0.4c0.7-0.2,1.4-0.3,2.2-0.1
			c0.1,0,0.1,0-0.1,0c-0.9-0.1-1.1,0-2.1,0.1c0.1,0,0.2,0,0.2,0c-0.3,0.1-0.4,0.1-0.6,0.2c0.7-0.2,0.6-0.1,0.4-0.1
			c-0.9,0.2-1.8,0.7-2.6,1.1c-0.9,0.4-1.7,0.9-2.3,1.2c-0.2,0.1-0.3,0.2-0.5,0.3c-1.4,0.9-3,1.9-4.4,3c1.6-1.2,3.4-2.5,5.4-3.7
			c0.1,0,0,0,0.2-0.1c0.9-0.5,1.9-1,2.7-1.3c0.3-0.1,0.6-0.2,1-0.3C65.9,0.6,67,0.5,68,0.9c1,0.3,1.6,1.4,1.4,2.5c0,0,0,0.2-0.1,0.2
			c0-0.2,0-0.3,0.1-0.5c0-0.4,0-0.7-0.2-1c-0.2-0.4-0.5-0.8-1-1.1c-0.5-0.2-1.1-0.3-1.7-0.3c-1.2,0.1-2.5,0.6-3.6,1.2
			c-0.3,0.1,0,0,0.1,0c1.1-0.5,2.1-1,3.3-1.1c0.4,0,0,0-0.9,0.2c-1.5,0.4-4,1.7-4.9,2.3c-4.1,2.4-7.7,5.5-11.1,9.1
			c1.9-2,3.7-3.7,5.6-5.2c0,0,0.1-0.1,0.2-0.2c1.8-1.5,4-3,5.9-4c0.8-0.4,2.3-1.2,3.1-1.5c-0.2,0.1-0.8,0.4-1.7,0.8
			c0.8-0.4,1.6-0.8,2.3-1c0.6-0.2,1.6-0.4,1.9-0.3c0.1,0-0.1,0,0.1,0c-0.2,0,0.4,0,0.5,0c0.3,0.1,0.3,0,0.6,0.2
			c0.4,0.2,0.4,0.2,0.6,0.4c0.6,0.5,0.7,1.4,0.5,2.2c-0.2,0.8-0.7,1.5-1.4,2.1c-0.1,0.1-0.4,0.4-0.4,0.4c-0.1,0.1-0.1,0.1-0.2,0.2
			C67,6.4,67,6.4,66.9,6.5c-0.5,0.5-1.1,1-1.7,1.5c-1.3,1.2-2.9,2.7-4,3.7C61,12,61.3,11.7,61,12c-1.8,1.8-3.7,3.7-5.5,5.8
			c-0.1,0.2,0,0-0.2,0.3c-0.2,0.2-0.2,0.3-0.4,0.5c-0.1,0.1-0.2,0.2-0.3,0.4c-2,2.4-3.9,5-5.5,7.8c-1.5,2.6-2.7,5.4-4,7.9
			c-1,2-2,3.8-3.3,5.4c-1.6,2-3.3,3.7-5.5,4.9c-1.5,0.9-3.4,1.4-4.9,1.5c-0.3,0-0.6,0-0.9,0.1c-0.4,0-0.9,0-1.4,0
			c-0.6,0-1.2-0.1-1.9-0.1c-0.6,0-1.3,0-1.9-0.1c-0.7-0.1-1.3-0.1-1.9-0.3c-0.6-0.2-1.1-0.5-1.1-1c-0.1-0.7,0.1-1.3,0.5-1.9
			c0.2-0.4,0.6-0.8,0.9-1.1c1-0.9,2.3-1.9,3.3-2.8c1.4-1.2,2.8-2.5,4.2-3.9c1.5-1.5,3.3-3.3,4.6-4.8c1.1-1.2,2.2-2.5,3.3-4
			c0.1-0.1,0.2-0.3,0.3-0.4c1.7-2.2,3.5-4.8,4.7-6.7c0.5-0.9,0.8-1.4,1.2-2c0.3-0.5,0.6-1,0.9-1.5l-0.7-0.5L45.2,16
			c-0.2,0.2-0.3,0.4-0.5,0.6c-0.5,0.6-1.1,1.3-1.6,2c-0.9,1-1.7,2.1-2.8,3.3c-0.8,1-1.9,2.2-2.8,3.3c-1.5,1.8-3,3.5-4.6,5.3
			c-0.5,0.6-0.9,1-1.6,1.7c-0.7,0.7-1.3,1.4-2,2.1c-0.7,0.7-1.5,1.5-2.2,2.2c-1.1,1-2.4,2.4-3.3,3.1c-0.4,0.3-1.1,1-2,1.8
			c-0.5,0.4-0.4,0.3-0.7,0.5c-0.4,0.4-0.8,0.7-1.3,1C19.4,43.3,18.7,43.7,18.2,44.1z M66.2,0.5C66.2,0.5,66.1,0.5,66.2,0.5
			C66.3,0.4,66.7,0.4,66.2,0.5z M66,0.5c-0.7,0.1-1.7,0.4-2.2,0.7c-0.1,0.1,0.1,0-0.1,0.1c-0.4,0.2-0.7,0.3-1.1,0.5
			c0,0,0.9-0.4,1-0.5c0.4-0.2,0.6-0.2,0.7-0.3C65.1,0.6,65.3,0.6,66,0.5C65.7,0.5,66,0.5,66,0.5z"/>
	</g>
	<g>
		<path fill="#FFFFFF" d="M67.8,1.2c0,0,0.1,0,0.3,0.1c0.2,0.1,0.4,0.2,0.7,0.4c0.6,0.4,1.5,1.1,2.1,2.4c0.6,1.3,0.7,3,0.6,5.1
			c0,0.5,0,1.1,0,1.7c0,0.6,0.1,1.2,0.1,1.7c0.1,1.1,0.1,2.4-0.1,3.6c-0.2,1.2-0.5,2.5-1.1,3.7c-0.6,1.2-1.4,2.3-2.4,3.3
			c-2.1,2-5,3.2-7.9,4.6c-2.9,1.4-5.8,3.4-8.2,6c-1.2,1.3-2.2,2.7-3.1,4.2c-0.9,1.5-1.6,3.1-2.3,4.7c-1.3,3.2-2.3,6.5-4.1,9.3
			c-0.9,1.4-2,2.6-3.3,3.5c-1.3,0.9-2.8,1.6-4.3,2c-3,0.8-6.2,0.9-9.1,0.8c-3-0.1-5.8-0.1-8.4-0.2c-5.2-0.1-9.5-0.2-12.5-0.3
			c-1.5-0.1-2.5-0.4-3.1-0.7C1.3,57.2,1.2,57,1,56.9c-0.1-0.1-0.2-0.2-0.2-0.2L0,57.4c0,0,0.1,0.1,0.2,0.3c0.2,0.2,0.4,0.4,0.8,0.6
			c0.8,0.5,2.1,0.8,3.6,0.9c3,0.1,7.4,0.2,12.6,0.3c2.6,0.1,5.4,0.1,8.4,0.2c3,0,6.2,0,9.4-0.9c1.6-0.4,3.2-1.1,4.6-2.2
			c1.4-1,2.6-2.3,3.6-3.8c1.9-3,3-6.3,4.2-9.5c0.6-1.6,1.3-3.1,2.2-4.6c0.9-1.4,1.9-2.8,3-4c2.3-2.5,5-4.4,7.9-5.7
			c2.9-1.4,5.9-2.7,8.2-4.8c1.1-1.1,2.1-2.3,2.7-3.6c0.6-1.3,1-2.7,1.1-4c0.2-1.3,0.2-2.6,0.1-3.8c0-0.6-0.1-1.2-0.1-1.7
			c0-0.5,0-1.1,0-1.6c0.1-2.1,0-4.1-0.7-5.6c-0.7-1.5-1.8-2.4-2.5-2.8c-0.4-0.2-0.7-0.4-0.9-0.5c-0.2-0.1-0.3-0.2-0.3-0.2L67.8,1.2z
			"/>
		<path fill-rule="evenodd" clip-rule="evenodd" fill="#FFFFFF" d="M22.5,59.5c-0.1,0-0.2,0-0.3,0C22.3,59.5,22.4,59.5,22.5,59.5z"
			/>
		<path fill-rule="evenodd" clip-rule="evenodd" fill="#FFFFFF" d="M18.1,58.6c-0.1,0-0.4,0-0.3,0C17.9,58.6,18,58.6,18.1,58.6z"/>
		<path fill-rule="evenodd" clip-rule="evenodd" fill="#FFFFFF" d="M17.7,58.6c0,0-0.2,0-0.3,0C17.3,58.6,17.6,58.6,17.7,58.6z"/>
		<path fill-rule="evenodd" clip-rule="evenodd" fill="#FFFFFF" d="M16.3,58.7c-0.1,0-0.3,0-0.3,0C16,58.7,16.2,58.7,16.3,58.7z"/>
		<path fill-rule="evenodd" clip-rule="evenodd" fill="#FFFFFF" d="M15.7,58.6c-0.1,0-0.3,0-0.6,0C15.2,58.5,15.5,58.6,15.7,58.6z"
			/>
		<path fill-rule="evenodd" clip-rule="evenodd" fill="#FFFFFF" d="M14,59.1c-0.3,0-0.9,0-1.1,0C13.4,59.1,13.6,59.1,14,59.1z"/>
		<path fill-rule="evenodd" clip-rule="evenodd" fill="#FFFFFF" d="M13.2,58.8c-0.7,0-0.9,0-1.5,0c-0.1,0,0.7,0,0.8,0
			c0.1,0,0.2,0,0.3,0C13,58.8,13.1,58.8,13.2,58.8z"/>
		<path fill-rule="evenodd" clip-rule="evenodd" fill="#FFFFFF" d="M8.7,58.7c0,0,0,0-0.1,0c0,0,0,0,0,0L8.7,58.7z"/>
		<path fill-rule="evenodd" clip-rule="evenodd" fill="#FFFFFF" d="M6.8,58.7c-0.3,0-1,0-1.4,0c0,0-0.1,0-0.1,0c-0.2,0-0.7,0-0.2,0
			C5.8,58.7,6.1,58.7,6.8,58.7z"/>
		<path fill-rule="evenodd" clip-rule="evenodd" fill="#FFFFFF" d="M6.6,58.6c-0.1,0-0.2,0-0.3,0C6.3,58.6,6.5,58.6,6.6,58.6z"/>
		<path fill-rule="evenodd" clip-rule="evenodd" fill="#FFFFFF" d="M6.1,58.9c-0.2,0-0.3,0-0.4,0C5.8,58.9,6,58.9,6.1,58.9z"/>
		<path fill-rule="evenodd" clip-rule="evenodd" fill="#FFFFFF" d="M6.2,58.6c-0.2,0-0.3,0-0.5,0C5.6,58.6,6.1,58.6,6.2,58.6z"/>
		<path fill-rule="evenodd" clip-rule="evenodd" fill="#FFFFFF" d="M6,58.6c-0.1,0-0.4,0-0.6,0C5.7,58.6,5.8,58.6,6,58.6z"/>
		<path fill-rule="evenodd" clip-rule="evenodd" fill="#FFFFFF" d="M5.7,59c0,0-0.2,0-0.3,0C5.4,59,5.6,59,5.7,59z"/>
		<path fill-rule="evenodd" clip-rule="evenodd" fill="#FFFFFF" d="M5.5,58.9c-0.2,0-0.7,0-1,0C4.9,58.9,5.1,58.9,5.5,58.9z"/>
		<path fill-rule="evenodd" clip-rule="evenodd" fill="#FFFFFF" d="M5.3,58.6c-0.2,0-0.6,0-0.8,0C4.8,58.5,5.1,58.6,5.3,58.6z"/>
		<path fill-rule="evenodd" clip-rule="evenodd" fill="#FFFFFF" d="M4.7,58.7c-0.2,0-0.3,0-0.4,0C4.3,58.6,4.5,58.7,4.7,58.7z"/>
		<path fill-rule="evenodd" clip-rule="evenodd" fill="#FFFFFF" d="M4.3,58.6c-0.1,0-0.2,0-0.4,0C4.1,58.6,4.2,58.6,4.3,58.6z"/>
		<path fill-rule="evenodd" clip-rule="evenodd" fill="#FFFFFF" d="M3.9,58.5c-0.1,0-0.4,0-0.3,0c0.1,0,0.1,0,0.1,0
			C3.7,58.5,3.7,58.5,3.9,58.5z"/>
		<path fill-rule="evenodd" clip-rule="evenodd" fill="#FFFFFF" d="M2.8,58.6C3.1,58.6,3.5,58.7,2.8,58.6L2.8,58.6z"/>
		<path fill-rule="evenodd" clip-rule="evenodd" fill="#FFFFFF" d="M2.3,58.5c-0.2-0.1-0.4-0.1-0.6-0.2C1.8,58.4,2.2,58.5,2.3,58.5z
			"/>
		<path fill-rule="evenodd" clip-rule="evenodd" fill="#FFFFFF" d="M2.1,58.5c0.1,0-0.3-0.1-0.2-0.1C1.9,58.4,2,58.5,2.1,58.5z"/>
		<path fill-rule="evenodd" clip-rule="evenodd" fill="#FFFFFF" d="M1.6,58.4c-0.1,0-0.2-0.1-0.3-0.2C1.3,58.3,1.5,58.4,1.6,58.4z"
			/>
		<path fill-rule="evenodd" clip-rule="evenodd" fill="#FFFFFF" d="M0.4,57.6C0,57.3-0.1,57.2,0.4,57.6L0.4,57.6z"/>
		<path fill-rule="evenodd" clip-rule="evenodd" fill="#FFFFFF" d="M11.2,59.2c-0.1,0-0.1,0-0.2,0c-0.1,0-0.4,0-0.6,0
			C10.8,59.2,10.8,59.2,11.2,59.2z"/>
		<path fill-rule="evenodd" clip-rule="evenodd" fill="#FFFFFF" d="M5.8,58.9c-0.1,0-0.1,0-0.2,0c0,0,0,0,0.1,0c-0.3,0-0.4,0-0.6,0
			c0,0,0.1,0,0.1,0c-0.3,0-0.6,0-1.2-0.1c0.6,0.1,1.8,0.1,2.2,0.1c-0.1,0-0.5,0-0.5,0C5.6,58.9,5.9,58.9,5.8,58.9z"/>
		<path fill-rule="evenodd" clip-rule="evenodd" fill="#FFFFFF" d="M5.3,58.6C5.3,58.6,5.3,58.6,5.3,58.6c0,0-0.2,0-0.2,0
			C5.1,58.6,5.8,58.6,5.3,58.6z"/>
		<path fill-rule="evenodd" clip-rule="evenodd" fill="#FFFFFF" d="M1.8,58L1.8,58c-0.3-0.1-0.7-0.4-0.9-0.5c0.3,0.2,1,0.6,1.2,0.6
			c0.1,0,0.1,0,0.2,0.1c0.8,0.2,1.7,0.3,2.6,0.4c-0.4,0-1.3-0.1-1.7-0.1c-0.1,0,0,0,0,0C3,58.4,2.3,58.2,1.8,58z"/>
		<path fill-rule="evenodd" clip-rule="evenodd" fill="#FFFFFF" d="M2,58.5c-0.1,0-0.2-0.1-0.3-0.1C1.7,58.4,1.9,58.4,2,58.5z"/>
		<path fill-rule="evenodd" clip-rule="evenodd" fill="#FFFFFF" d="M72.6,11.3c0-0.2,0-0.4,0-0.6c0-0.5,0-1,0-1.5c0-0.4,0-1,0-1.4
			c0-0.4,0-0.5,0-0.7c0-0.7-0.1-1.3-0.2-1.7c-0.1-0.5-0.3-1.1-0.6-1.6c0-0.1-0.1-0.2-0.1-0.2c-0.6-1-1.2-1.6-2.3-2.3
			c-0.1,0-0.2-0.1-0.4-0.2c-0.1-0.1-0.2-0.1-0.4-0.2c-0.3-0.1-0.1,0-0.5-0.2c0,0,0.1,0,0.1,0.1c0,0.1,0.1,0.2,0,0.2
			c0.3,0.2,0.2,0.2,0.4,0.3c0.1,0.1,0.4,0.3,0.5,0.4c0.2,0.2,0.4,0.3,0.5,0.4c0,0,0.2,0.2,0.2,0.3c0.3,0.2,0.4,0.5,0.6,0.8
			c0,0,0.1,0.1,0.1,0.1c0.4,0.6,0.7,1.3,0.9,2.4c0,0.1,0.1,0.3,0.1,0.4c0.1,0.8,0.1,2,0.1,2.4c0,0.1,0,0.1,0,0.3
			c0,0.1,0,0.5-0.1,0.9c0,0.1,0,0.5,0,0.6c0,0.4,0,0.8,0,1.2c0,0.1,0.1,0.4,0.1,0.5c0.1,0.5,0.1,1.4,0.1,1.8c0,0.2,0,0.5,0,0.6
			c0,0.2,0,0.4,0,0.3c0,0.6-0.2,2.1-0.4,3c-0.2,0.6-0.3,1.3-0.6,1.9c0,0.1-0.1,0.3-0.2,0.4c-0.1,0.2-0.2,0.5-0.3,0.7
			c-0.2,0.4-0.5,0.8-0.7,1.1c-0.4,0.5-0.7,0.8-1,1.2c-0.1,0.1-0.3,0.3-0.4,0.4c-0.1,0.1-0.3,0.3-0.4,0.4c-0.1,0.1-0.3,0.3-0.5,0.4
			c-0.1,0.1-0.2,0.2-0.3,0.2c-0.1,0.1-0.2,0.1-0.3,0.2c-0.1,0.1-0.3,0.2-0.4,0.3c-0.5,0.4-1.1,0.7-1.7,1c-1,0.5-1.8,0.9-3,1.5
			c-0.3,0.2-0.5,0.2-0.8,0.4c0,0-0.1,0.1-0.2,0.1c-0.6,0.3-1.3,0.7-1.9,1c0,0-0.1,0-0.1,0.1c-0.9,0.5-1.9,1.2-2.6,1.6
			c-0.5,0.3-1,0.8-1.6,1.3c-0.3,0.2-0.5,0.5-0.8,0.7c-0.5,0.4-1.1,1-1.5,1.5c-0.1,0.1-0.3,0.3-0.4,0.4c-0.2,0.3-0.4,0.5-0.7,0.8
			c-0.8,1.1-1.7,2.3-2.3,3.4c-0.2,0.3-0.3,0.6-0.5,1c-0.3,0.6-0.6,1.2-0.9,1.8c-0.1,0.1-0.1,0.3-0.2,0.5c-0.2,0.4-0.3,0.7-0.5,1.1
			c-0.4,0.9-0.7,1.8-1.1,2.8c-0.4,1.2-1.1,2.8-1.7,4.1c-0.1,0.3-0.3,0.6-0.4,0.8c-0.5,0.9-1.1,2-1.8,2.8c-1.4,1.8-3.3,3.1-5.4,3.9
			c-2.1,0.8-4.4,1.1-6.6,1.2c-0.3,0-0.9,0-1.2,0c-0.1,0-0.3,0-0.4,0c-0.6,0-1.3,0-2,0c-0.2,0-0.6,0-0.9,0c-0.1,0,0.2,0,0,0
			c-0.5,0-2,0-2.7,0c0,0,0.1,0,0,0c-0.2,0-0.2,0-0.4,0c-1.1,0-2.3,0-3.3,0c-0.1,0-0.5,0-0.6,0c0.2,0,0.4,0,0.4,0c-0.3,0-0.8,0-1,0
			c-0.4,0-0.4,0-1,0c-0.1,0,0.1,0-0.1,0c-0.6,0-0.8,0-1.3,0c-0.1,0-0.7,0-0.9,0c-0.2,0,0.2,0,0,0c-0.5,0-0.8,0-1.3,0
			c-0.1,0-0.3,0-0.3,0c-0.1,0,0,0-0.1,0c-0.2,0,0.1,0,0.1,0c-0.2,0-0.2,0-0.3,0c-0.3,0-0.5,0-0.8,0c-0.4,0-0.6,0-0.9,0
			c-0.2,0-0.4,0-0.6,0c-0.2,0-0.5,0-0.7,0c-0.1,0,0.1,0-0.1,0c-0.8,0-1.5,0-2.4,0c1.3,0,1.5,0,2.6,0c0.1,0,0.4,0,0.5,0
			c0.1,0-0.1,0,0.1,0c0.1,0,0.1,0,0.2,0c-0.1,0,0.1,0,0.1,0c0.7,0,1.3,0,2,0c0.1,0-0.1,0,0.1,0c0.3,0,0.4,0,0.7,0c0.1,0,0.3,0,0.2,0
			c-0.8,0-2.1,0-3.1,0c-0.3,0-0.6,0-0.8,0c0.4,0,0.9,0,1.2,0c0.5,0,1.1,0,1.6,0c0.1,0,0.2,0,0.3,0c0.1,0,0.3,0,0.4,0
			c0.1,0,0.2,0,0.2,0c0.2,0,0.4,0,0.6,0c0.4,0,0.8,0,1.2,0c0.1,0,0,0-0.1,0c-0.5,0-0.6,0-1.2,0c0.1,0,0.1,0,0.1,0
			c-0.2,0-0.2,0-0.3,0c0.4,0,0.4,0,0.2,0c-1,0-2.2-0.1-3-0.1c-0.1,0-0.2,0-0.3,0c-1,0-1.9,0-2.9-0.1c1.3,0,2.3,0.1,3.6,0.1
			c0.1,0,0,0,0.1,0c0.6,0,1.2,0,1.6,0c0.2,0,0.4,0,0.6,0c1.3,0,2.5,0.1,3.7,0.1c0,0,0.1,0,0.1,0c-0.1,0-0.2,0-0.3,0
			c-0.2,0-0.3,0-0.6,0c-1.5,0-2.6,0-4.1-0.1c-0.2,0,0,0,0.1,0c0.7,0,1,0,2,0.1c0.3,0,0,0.1-0.6,0c-0.9,0-2.4-0.1-3-0.1
			C9.2,59,8,59,6.7,59c-1.3,0-2.7,0-4.1-0.3c1.5,0.4,3,0.3,4.3,0.3c0,0,0,0,0.1,0c1.3,0,2.7,0.1,4,0.1c0.9,0,1,0,1.9,0.1
			c-0.1,0-0.5,0-1,0c0.5,0,1,0,1.4,0c0.3,0,0.8,0,1.2,0c0,0,0,0,0,0c-0.1,0,0.3,0,0.3,0c0.2,0,0.2,0,0.4,0c0.2,0,0.2,0,0.5,0
			c1,0,2,0,3,0.1c0.1,0,0.3,0,0.3,0c0.1,0,0,0,0.1,0c0,0,0.1,0,0.1,0c0.4,0,0.9,0,1.3,0c1,0,2.2,0.1,3,0.1c0.2,0-0.1,0,0.2,0
			c1.4,0,2.9,0.1,4.4,0.1c0.1,0,0,0,0.2,0c0.2,0,0.2,0,0.3,0c0.1,0,0.2,0,0.3,0c1.7-0.1,3.5-0.2,5.3-0.6c1.6-0.4,3.3-1,4.6-1.8
			c1.1-0.7,2-1.5,2.8-2.3c1-1.1,1.7-2.3,2.4-3.5c0.5-0.9,0.9-1.9,1.3-2.7c0-0.1,0.1-0.3,0.2-0.5c0.1-0.2,0.2-0.5,0.3-0.7
			c0.2-0.6,0.5-1.3,0.7-1.9c0.3-0.7,0.5-1.4,0.8-2.1c0.2-0.4,0.3-0.8,0.5-1.2c0.1-0.2,0.2-0.5,0.4-0.8c0.3-0.7,0.7-1.5,1.1-2.1
			c0.5-0.9,1.1-1.7,1.7-2.6c0.7-0.9,1.6-2,2.3-2.7c0.6-0.6,1.3-1.2,2.1-1.9c0.1,0,0.2-0.1,0.2-0.2c1.2-0.9,2.6-1.8,3.7-2.4
			c0.4-0.2,0.8-0.4,1.1-0.6c0.4-0.2,0.8-0.4,1.2-0.6c0.1-0.1,0.3-0.1,0.4-0.2c0.4-0.2,0.8-0.4,1.3-0.6c0.7-0.3,1.4-0.7,2.2-1.1
			c0.6-0.3,1.5-0.8,2.1-1.3c1.1-0.8,2-1.7,2.8-2.8c0.3-0.4,0.5-0.7,0.7-1.1c0.3-0.4,0.5-0.9,0.7-1.5c0.2-0.5,0.4-1.1,0.5-1.7
			c0.2-0.8,0.3-1.9,0.4-2.5c0.1-0.3,0-0.9,0-1.5c0-0.4,0-0.3,0-0.5c0-0.3,0-0.6-0.1-0.9C72.7,12.1,72.6,11.6,72.6,11.3z M14.1,58.7
			C14.1,58.7,14.1,58.7,14.1,58.7C14.2,58.7,14.4,58.7,14.1,58.7z M14,58.7c-0.4,0-0.8,0-1.3,0c-0.1,0,0.1,0-0.1,0
			c-0.3,0-0.4,0-0.7,0c0,0,0.6,0,0.6,0c0.2,0,0.3,0,0.4,0C13.6,58.7,13.6,58.7,14,58.7C13.9,58.7,14.1,58.7,14,58.7z"/>
	</g>
	<g>
		<path fill="#FFFFFF" d="M66.6,24.8c0.1-0.4,0-0.1,0-0.2l0,0l0,0l0,0L66.6,24.8L66.6,24.8l-0.2,0.3l-0.2,0.5l-0.4,1.1L65,28.9
			c-0.5,1.4-1.1,2.9-1.6,4.3c-1,2.9-2,5.8-2.8,8.8c-0.8,3-1.5,6-1.9,9.1c-0.2,1.5-0.4,3.1-0.5,4.6l0,0.6c0,0,0,0,0,0l-0.9,0.1
			l-1.1,0.1l-0.1,0l0,0l0,0l0,0c2.2-9.1,3.7-18.4,4.4-27.7l-1.1-0.1c-0.7,9.3-2.2,18.5-4.4,27.6c-0.1,0.4,0,0.8,0.3,1
			c0.1,0.1,0.3,0.2,0.5,0.3c0.1,0,0.2,0,0.3,0l0.2,0l1.1-0.1l0.6,0l0.3,0c0.1,0,0.4,0,0.5-0.1c0.3-0.2,0.6-0.6,0.6-0.9l0-0.6
			c0.1-1.5,0.3-3,0.5-4.5c0.4-3,1.1-6,1.9-8.9c0.8-2.9,1.7-5.9,2.7-8.7c0.5-1.4,1-2.9,1.6-4.3l0.8-2.1l0.4-1.1l0.2-0.5l0.1-0.3
			l0.1-0.1l0-0.1l0,0l0,0l0,0c0-0.1,0,0.2,0-0.2L66.6,24.8z"/>
		<path fill-rule="evenodd" clip-rule="evenodd" fill="#FFFFFF" d="M57.9,41.8c0-0.1,0-0.1,0-0.2C57.9,41.6,57.9,41.7,57.9,41.8z"/>
		<path fill-rule="evenodd" clip-rule="evenodd" fill="#FFFFFF" d="M59,39.3c0-0.1,0-0.2,0-0.2C59,39.2,59,39.3,59,39.3z"/>
		<path fill-rule="evenodd" clip-rule="evenodd" fill="#FFFFFF" d="M59,39c0,0,0-0.1,0-0.2C59.1,38.8,59,39,59,39z"/>
		<path fill-rule="evenodd" clip-rule="evenodd" fill="#FFFFFF" d="M59,38.2c0,0,0-0.1,0-0.2C59.1,38.1,59,38.2,59,38.2z"/>
		<path fill-rule="evenodd" clip-rule="evenodd" fill="#FFFFFF" d="M59.2,37.9c0-0.1,0-0.2,0-0.3C59.2,37.6,59.2,37.8,59.2,37.9z"/>
		<path fill-rule="evenodd" clip-rule="evenodd" fill="#FFFFFF" d="M58.7,36.8c0-0.2,0.1-0.5,0.1-0.6C58.8,36.6,58.8,36.5,58.7,36.8
			z"/>
		<path fill-rule="evenodd" clip-rule="evenodd" fill="#FFFFFF" d="M59,36.4c0-0.2,0.1-0.6,0.1-0.9c0,0,0,0.4,0,0.5c0,0,0,0.1,0,0.2
			C59.1,36.3,59.1,36.3,59,36.4z"/>
		<path fill-rule="evenodd" clip-rule="evenodd" fill="#FFFFFF" d="M59.4,33.8C59.4,33.8,59.4,33.8,59.4,33.8c0-0.1,0-0.1,0-0.1
			L59.4,33.8z"/>
		<path fill-rule="evenodd" clip-rule="evenodd" fill="#FFFFFF" d="M59.4,32.7c0-0.2,0-0.6,0.1-0.8c0,0,0,0,0-0.1c0-0.1,0-0.4,0-0.1
			C59.4,32.2,59.4,32.3,59.4,32.7z"/>
		<path fill-rule="evenodd" clip-rule="evenodd" fill="#FFFFFF" d="M59.5,32.6c0-0.1,0-0.1,0-0.2C59.6,32.4,59.6,32.5,59.5,32.6z"/>
		<path fill-rule="evenodd" clip-rule="evenodd" fill="#FFFFFF" d="M59.2,32.3c0,0,0-0.2,0-0.3C59.2,32.1,59.2,32.2,59.2,32.3z"/>
		<path fill-rule="evenodd" clip-rule="evenodd" fill="#FFFFFF" d="M59.5,32.4c0-0.2,0-0.2,0-0.3C59.6,32,59.5,32.3,59.5,32.4z"/>
		<path fill-rule="evenodd" clip-rule="evenodd" fill="#FFFFFF" d="M59.6,32.2c0-0.1,0-0.2,0-0.3C59.6,32,59.6,32.1,59.6,32.2z"/>
		<path fill-rule="evenodd" clip-rule="evenodd" fill="#FFFFFF" d="M59.2,32c0,0,0-0.1,0-0.2C59.2,31.8,59.2,31.9,59.2,32z"/>
		<path fill-rule="evenodd" clip-rule="evenodd" fill="#FFFFFF" d="M59.3,31.9c0-0.1,0-0.4,0-0.6C59.3,31.6,59.3,31.7,59.3,31.9z"/>
		<path fill-rule="evenodd" clip-rule="evenodd" fill="#FFFFFF" d="M59.6,31.8c0-0.1,0-0.4,0-0.5C59.6,31.6,59.6,31.6,59.6,31.8z"/>
		<path fill-rule="evenodd" clip-rule="evenodd" fill="#FFFFFF" d="M59.5,31.5c0-0.1,0-0.2,0-0.2C59.5,31.2,59.5,31.4,59.5,31.5z"/>
		<path fill-rule="evenodd" clip-rule="evenodd" fill="#FFFFFF" d="M59.6,31.2c0-0.1,0-0.1,0-0.2C59.6,31,59.6,31.1,59.6,31.2z"/>
		<path fill-rule="evenodd" clip-rule="evenodd" fill="#FFFFFF" d="M59.6,31c0,0,0-0.2,0-0.2c0,0.1,0,0.1,0,0.1
			C59.6,30.9,59.6,30.9,59.6,31z"/>
		<path fill-rule="evenodd" clip-rule="evenodd" fill="#FFFFFF" d="M59.5,30.4C59.5,30.5,59.4,30.7,59.5,30.4L59.5,30.4z"/>
		<path fill-rule="evenodd" clip-rule="evenodd" fill="#FFFFFF" d="M59.4,30.1c0-0.2,0-0.2,0-0.4C59.4,29.8,59.4,29.9,59.4,30.1z"/>
		<path fill-rule="evenodd" clip-rule="evenodd" fill="#FFFFFF" d="M59.4,30c0,0,0-0.2,0-0.1L59.4,30z"/>
		<path fill-rule="evenodd" clip-rule="evenodd" fill="#FFFFFF" d="M59.3,29.7c0,0,0-0.1,0-0.2C59.3,29.5,59.3,29.7,59.3,29.7z"/>
		<path fill-rule="evenodd" clip-rule="evenodd" fill="#FFFFFF" d="M59.3,28.9C59.3,28.7,59.4,28.6,59.3,28.9L59.3,28.9z"/>
		<path fill-rule="evenodd" clip-rule="evenodd" fill="#FFFFFF" d="M58.7,35.2c0,0,0-0.1,0-0.1c0-0.1,0-0.2,0-0.4
			C58.8,34.8,58.8,35,58.7,35.2z"/>
		<path fill-rule="evenodd" clip-rule="evenodd" fill="#FFFFFF" d="M59.3,32.1c0,0,0-0.1,0-0.1c0,0,0,0,0,0c0-0.2,0-0.2,0-0.3
			c0,0,0,0,0,0c0-0.2,0-0.3,0.1-0.7c0,0.3-0.1,1-0.1,1.3c0,0,0-0.3,0-0.3C59.3,32,59.3,32.1,59.3,32.1z"/>
		<path fill-rule="evenodd" clip-rule="evenodd" fill="#FFFFFF" d="M59.6,31.8C59.6,31.8,59.6,31.8,59.6,31.8c0,0,0-0.1,0-0.1
			C59.6,31.7,59.5,32.1,59.6,31.8z"/>
		<path fill-rule="evenodd" clip-rule="evenodd" fill="#FFFFFF" d="M59.7,29.7L59.7,29.7c0-0.2,0-0.5,0.1-0.6c0,0.2-0.1,0.7-0.1,0.8
			c0,0.1,0,0.1,0,0.1c0,0.5-0.1,1-0.1,1.5c0-0.2,0.1-0.8,0.1-1c0,0,0,0,0,0C59.7,30.4,59.7,30,59.7,29.7z"/>
		<path fill-rule="evenodd" clip-rule="evenodd" fill="#FFFFFF" d="M59.4,29.9c0-0.1,0-0.1,0-0.2C59.4,29.7,59.4,29.8,59.4,29.9z"/>
		<path fill-rule="evenodd" clip-rule="evenodd" fill="#FFFFFF" d="M65.1,31.7c0-0.1,0.1-0.3,0.1-0.4c0.1-0.3,0.2-0.5,0.3-0.8
			c0.1-0.2,0.2-0.6,0.3-0.8c0.1-0.2,0.1-0.3,0.1-0.4c0.1-0.4,0.3-0.7,0.3-0.9c0.1-0.3,0.2-0.6,0.3-0.9c0-0.1,0-0.1,0-0.1
			c0.2-0.6,0.3-1,0.5-1.7c0-0.1,0-0.1,0-0.2c0-0.1,0-0.1,0.1-0.2c0-0.2-0.1,0,0-0.3c0-0.1,0,0,0,0c0,0,0,0,0,0l0,0c0,0,0,0,0,0
			c-0.1,0-0.2,0.1-0.2,0c-0.1,0.2-0.1,0.1-0.2,0.3c-0.1,0.1-0.1,0.2-0.2,0.4c-0.1,0.1-0.1,0.2-0.2,0.4c0,0-0.1,0.2-0.1,0.2
			c-0.1,0.2-0.2,0.4-0.3,0.6c0,0,0,0.1,0,0.1c-0.2,0.4-0.4,0.9-0.6,1.4c0,0.1-0.1,0.2-0.1,0.2c-0.2,0.4-0.4,1.1-0.5,1.4
			c0,0.1,0,0.1-0.1,0.2c0,0-0.1,0.3-0.2,0.5c0,0-0.1,0.3-0.1,0.4c-0.1,0.2-0.2,0.5-0.3,0.7c0,0-0.1,0.2-0.1,0.3
			c-0.1,0.4-0.3,0.7-0.4,1c-0.1,0.2-0.1,0.2-0.1,0.4c0,0.1-0.1,0.2,0,0.2c-0.1,0.4-0.4,1.2-0.6,1.8c-0.1,0.4-0.2,0.8-0.4,1.1
			c0,0.1-0.1,0.2-0.1,0.2c0,0.1-0.1,0.3-0.1,0.5c-0.1,0.3-0.1,0.4-0.2,0.8c-0.1,0.3-0.2,0.6-0.3,0.9c0,0.1-0.1,0.3-0.1,0.3
			c0,0.1-0.1,0.2-0.1,0.3c0,0.1-0.1,0.3-0.1,0.3c0,0.1,0,0.2-0.1,0.2c0,0.1-0.1,0.2-0.1,0.2c0,0.1-0.1,0.3-0.1,0.3
			c-0.1,0.4-0.2,0.8-0.3,1.1c-0.2,0.6-0.3,1.2-0.5,1.9c0,0.2-0.1,0.3-0.1,0.5c0,0,0,0,0,0.1c-0.1,0.5-0.2,0.7-0.3,1.2c0,0,0,0,0,0.1
			c-0.1,0.6-0.3,1.3-0.4,1.7c-0.1,0.3-0.2,0.7-0.2,1.2c0,0.2-0.1,0.4-0.1,0.6c-0.1,0.4-0.1,0.8-0.2,1.2c0,0.1,0,0.2,0,0.3
			c0,0.2-0.1,0.3-0.1,0.6c-0.1,1-0.2,1.7-0.3,2.3c0,0.2,0,0.4-0.1,0.6c0,0.4-0.1,0.8-0.1,1.2c0,0.1,0,0.2,0,0.3c0,0.3,0,0.5-0.1,0.7
			c0,0.1,0,0.2,0,0.4c0,0,0,0.1-0.1,0.1c0,0,0,0-0.1,0l-0.2,0c-0.1,0-0.3,0-0.4,0c-0.5,0-0.8,0.1-1.2,0.1l-0.3,0c0,0-0.1,0-0.1,0
			c-0.1,0-0.1-0.1-0.1-0.2l0,0c0-0.2,0.1-0.4,0.1-0.6c0.1-0.6,0.3-1.2,0.4-2c0.6-2.6,1.1-5.3,1.6-7.9c0-0.2,0.1-0.5,0.1-0.7
			c0,0,0-0.2,0.1-0.2c0-0.3,0.1-0.7,0.2-1.1c0-0.1,0.1-0.4,0.1-0.5c0-0.1,0,0.1,0,0c0-0.3,0.2-1.2,0.2-1.6c0,0,0,0,0,0
			c0-0.1,0-0.1,0-0.3c0.1-0.7,0.2-1.3,0.2-1.9c0-0.1,0.1-0.3,0.1-0.4c0,0.1,0,0.3,0,0.2c0-0.2,0.1-0.4,0.1-0.6
			c0-0.2,0.1-0.4,0.1-0.6c0-0.1,0,0,0-0.1c0.1-0.4,0.1-0.4,0.1-0.8c0-0.1,0-0.4,0.1-0.5c0-0.1,0,0.1,0,0c0-0.3,0.1-0.5,0.1-0.8
			c0-0.1,0-0.1,0-0.2c0-0.1,0,0,0-0.1c0-0.1,0,0.1,0,0c0-0.1,0-0.1,0-0.2c0-0.2,0-0.3,0-0.5c0-0.2,0-0.3,0.1-0.5c0-0.1,0-0.3,0-0.4
			c0-0.1,0-0.3,0.1-0.4c0-0.1,0,0.1,0-0.1c0.1-0.5,0.1-1,0.1-1.4c-0.1,0.9-0.1,0.7-0.1,1.5c0,0.1,0,0.2,0,0.3c0,0,0-0.1,0,0
			c0,0,0,0.1,0,0.1c0-0.1,0,0,0,0.1c0,0.4-0.1,0.8-0.1,1.2c0,0.1,0,0,0,0c0,0.2,0,0.2,0,0.4c0,0,0,0.2,0,0.1c0-0.4,0.1-1.3,0.2-1.8
			c0-0.2,0.1-0.4,0-0.5c0,0.3-0.1,0.5-0.1,0.7c0,0.3-0.1,0.6-0.1,0.9c0,0.1,0,0.1,0,0.2c0,0,0,0.2,0,0.2c0,0,0,0.1,0,0.1
			c0,0.1,0,0.3,0,0.4c0,0.2-0.1,0.5-0.1,0.7c0,0,0,0,0,0c0-0.3,0-0.4,0.1-0.7c0,0,0,0.1,0,0.1c0-0.1,0-0.1,0-0.2c0,0.2,0,0.2,0,0.1
			c0.1-0.6,0.1-1.2,0.2-1.8c0-0.1,0-0.1,0-0.2c0.1-0.6,0.1-1.1,0.2-1.7c-0.1,0.9-0.1,1.4-0.2,2.1c0,0,0,0,0,0.1c0,0.4-0.1,0.7-0.1,1
			c0,0.1,0,0.2-0.1,0.3c-0.1,0.8-0.2,1.4-0.3,2.1c0,0,0,0.1,0,0.1c0-0.1,0-0.1,0-0.2c0-0.1,0-0.1,0-0.4c0.1-1.1,0.2-1.5,0.3-2.4
			c0-0.1,0,0,0,0c-0.1,0.4-0.1,0.7-0.1,1.1c0,0.1-0.1,0,0-0.3c0.1-0.5,0.2-1.4,0.2-1.8c0.2-1.5,0.3-3.1,0.4-4.6
			c-0.1,0.9-0.1,1.7-0.2,2.5c0,0,0,0,0,0.1c-0.1,0.8-0.2,1.5-0.2,2.3c0,0.3-0.1,0.8-0.1,1.1c0-0.1,0-0.3,0-0.6
			c0,0.3-0.1,0.6-0.1,0.8c0,0.2,0,0.4-0.1,0.7c0,0,0,0,0,0c0-0.1,0,0.2,0,0.2c0,0.1,0,0.1,0,0.2c0,0.2,0,0.2,0,0.3
			c-0.1,0.6-0.2,1.1-0.2,1.8c0,0.1,0,0.2,0,0.2c0,0.1,0,0,0,0.1c0,0,0,0.1,0,0.1c0,0.2-0.1,0.5-0.1,0.7c-0.1,0.6-0.2,1.3-0.3,1.7
			c0,0.1,0,0,0,0.1c-0.1,0.8-0.3,1.7-0.4,2.5c0,0.1,0,0,0,0.1c0,0.1,0,0.1,0,0.2c0,0.1,0,0.1,0,0.2c-0.2,1.1-0.4,2-0.6,3
			c-0.2,1-0.4,1.9-0.6,2.8c-0.1,0.7-0.3,1.3-0.4,2c-0.2,0.9-0.4,1.6-0.5,2.4c-0.1,0.2-0.1,0.4-0.2,0.6c-0.1,0.3,0,0.7,0.3,0.9
			c0.2,0.2,0.6,0.3,0.8,0.2c0.1,0,0.2,0,0.3,0c0.1,0,0.3,0,0.4,0c0.4,0,0.8-0.1,1.2-0.1l0.2,0c0.1,0,0.2,0,0.3,0
			c0.2-0.1,0.3-0.2,0.5-0.3c0.1-0.1,0.2-0.3,0.2-0.5l0-0.3c0-0.2,0-0.5,0-0.7c0-0.1,0-0.4,0-0.5c0-0.4,0.1-1,0.1-1.4
			c0.1-0.6,0.1-1,0.2-1.8c0.1-0.7,0.2-1.4,0.3-2.1c0.2-0.9,0.2-1.1,0.3-1.6c0,0,0-0.1,0-0.2c0.2-0.9,0.4-1.8,0.6-2.5
			c0-0.3,0.1-0.5,0.2-0.7c0.1-0.3,0.1-0.5,0.2-0.8c0-0.1,0-0.2,0.1-0.2c0.1-0.2,0.1-0.5,0.2-0.8c0.1-0.4,0.2-0.7,0.4-1.4
			c0.1-0.4,0.3-0.9,0.4-1.3c0.3-1,0.4-1.4,0.7-2.2c0.1-0.2,0.2-0.5,0.2-0.7c0.1-0.3,0.2-0.6,0.3-0.9c0.1-0.3,0.2-0.7,0.3-1
			c0.2-0.5,0.3-1,0.5-1.4c0.1-0.1,0.1-0.5,0.3-0.8c0.1-0.2,0.1-0.2,0.1-0.2c0.1-0.2,0.1-0.3,0.2-0.5C64.9,32.1,65,32,65.1,31.7z
			 M59.1,37C59.1,37,59.1,37,59.1,37C59.1,37,59.1,37.1,59.1,37z M59.1,36.9c0-0.2,0.1-0.6,0.1-0.7c0,0,0,0,0,0c0-0.1,0-0.2,0.1-0.4
			c0,0,0,0.3,0,0.3c0,0.1,0,0.2,0,0.3C59.2,36.7,59.2,36.6,59.1,36.9C59.1,36.8,59.1,36.9,59.1,36.9z"/>
	</g>
	<g>
		<polygon fill="#FFFFFF" points="55.8,55.8 58.8,55.5 58.8,54.4 55.6,54.7 		"/>
		<path fill-rule="evenodd" clip-rule="evenodd" fill="#FFFFFF" d="M58.1,54.5L58.1,54.5C58.1,54.5,58.1,54.6,58.1,54.5z"/>
		<path fill-rule="evenodd" clip-rule="evenodd" fill="#FFFFFF" d="M58.3,55.3C58.3,55.3,58.3,55.3,58.3,55.3L58.3,55.3z"/>
		<path fill-rule="evenodd" clip-rule="evenodd" fill="#FFFFFF" d="M58.3,55.3C58.3,55.3,58.3,55.3,58.3,55.3
			C58.4,55.3,58.3,55.3,58.3,55.3z"/>
		<path fill-rule="evenodd" clip-rule="evenodd" fill="#FFFFFF" d="M58.4,55.2C58.4,55.2,58.4,55.2,58.4,55.2
			C58.4,55.2,58.4,55.2,58.4,55.2z"/>
		<path fill-rule="evenodd" clip-rule="evenodd" fill="#FFFFFF" d="M58.4,55.3C58.4,55.3,58.4,55.3,58.4,55.3
			C58.4,55.3,58.4,55.3,58.4,55.3z"/>
		<path fill-rule="evenodd" clip-rule="evenodd" fill="#FFFFFF" d="M58.4,54.7C58.4,54.7,58.4,54.7,58.4,54.7
			C58.4,54.7,58.4,54.7,58.4,54.7z"/>
		<path fill-rule="evenodd" clip-rule="evenodd" fill="#FFFFFF" d="M58.4,55C58.5,54.9,58.5,54.9,58.4,55C58.5,55,58.5,54.9,58.4,55
			L58.4,55C58.5,54.9,58.4,55,58.4,55z"/>
		<path fill-rule="evenodd" clip-rule="evenodd" fill="#FFFFFF" d="M58.6,55C58.6,55,58.6,55,58.6,55L58.6,55L58.6,55z"/>
		<path fill-rule="evenodd" clip-rule="evenodd" fill="#FFFFFF" d="M58.6,54.9C58.6,54.9,58.6,54.9,58.6,54.9L58.6,54.9
			C58.7,54.9,58.7,54.9,58.6,54.9C58.7,54.9,58.6,54.9,58.6,54.9z"/>
		<path fill-rule="evenodd" clip-rule="evenodd" fill="#FFFFFF" d="M58.6,55L58.6,55C58.6,55,58.6,55,58.6,55z"/>
		<path fill-rule="evenodd" clip-rule="evenodd" fill="#FFFFFF" d="M58.6,54.7C58.6,54.7,58.6,54.7,58.6,54.7
			C58.6,54.7,58.6,54.7,58.6,54.7z"/>
		<path fill-rule="evenodd" clip-rule="evenodd" fill="#FFFFFF" d="M58.6,55C58.6,55,58.7,55,58.6,55C58.7,55,58.6,55,58.6,55z"/>
		<path fill-rule="evenodd" clip-rule="evenodd" fill="#FFFFFF" d="M58.6,55C58.7,55,58.7,55,58.6,55C58.7,55,58.7,55,58.6,55z"/>
		<path fill-rule="evenodd" clip-rule="evenodd" fill="#FFFFFF" d="M58.6,54.6C58.6,54.6,58.6,54.6,58.6,54.6
			C58.6,54.6,58.6,54.6,58.6,54.6z"/>
		<path fill-rule="evenodd" clip-rule="evenodd" fill="#FFFFFF" d="M58.6,54.7C58.6,54.7,58.7,54.7,58.6,54.7
			C58.7,54.7,58.7,54.7,58.6,54.7z"/>
		<path fill-rule="evenodd" clip-rule="evenodd" fill="#FFFFFF" d="M58.7,55C58.7,55,58.7,55,58.7,55C58.7,55,58.7,55,58.7,55z"/>
		<path fill-rule="evenodd" clip-rule="evenodd" fill="#FFFFFF" d="M58.7,54.9C58.7,54.9,58.7,54.9,58.7,54.9
			C58.7,54.9,58.7,54.9,58.7,54.9z"/>
		<path fill-rule="evenodd" clip-rule="evenodd" fill="#FFFFFF" d="M58.7,54.9C58.7,54.9,58.7,54.9,58.7,54.9
			C58.7,54.9,58.7,54.9,58.7,54.9z"/>
		<path fill-rule="evenodd" clip-rule="evenodd" fill="#FFFFFF" d="M58.7,54.9C58.7,54.9,58.7,54.9,58.7,54.9L58.7,54.9L58.7,54.9z"
			/>
		<path fill-rule="evenodd" clip-rule="evenodd" fill="#FFFFFF" d="M58.7,54.7C58.7,54.7,58.7,54.7,58.7,54.7L58.7,54.7z"/>
		<path fill-rule="evenodd" clip-rule="evenodd" fill="#FFFFFF" d="M58.7,54.6C58.7,54.6,58.7,54.6,58.7,54.6
			C58.7,54.6,58.7,54.6,58.7,54.6z"/>
		<path fill-rule="evenodd" clip-rule="evenodd" fill="#FFFFFF" d="M58.7,54.6C58.7,54.6,58.7,54.6,58.7,54.6L58.7,54.6z"/>
		<path fill-rule="evenodd" clip-rule="evenodd" fill="#FFFFFF" d="M58.7,54.5C58.7,54.5,58.7,54.5,58.7,54.5
			C58.7,54.5,58.7,54.5,58.7,54.5z"/>
		<path fill-rule="evenodd" clip-rule="evenodd" fill="#FFFFFF" d="M58.8,54.5C58.8,54.5,58.8,54.5,58.8,54.5L58.8,54.5z"/>
		<path fill-rule="evenodd" clip-rule="evenodd" fill="#FFFFFF" d="M58.5,54.5C58.5,54.5,58.5,54.5,58.5,54.5
			C58.5,54.5,58.5,54.5,58.5,54.5C58.5,54.5,58.5,54.5,58.5,54.5z"/>
		<path fill-rule="evenodd" clip-rule="evenodd" fill="#FFFFFF" d="M58.6,54.7L58.6,54.7L58.6,54.7C58.6,54.7,58.7,54.7,58.6,54.7
			L58.6,54.7C58.7,54.7,58.7,54.7,58.6,54.7C58.7,54.7,58.6,54.7,58.6,54.7C58.6,54.7,58.6,54.7,58.6,54.7
			C58.6,54.7,58.6,54.7,58.6,54.7z"/>
		<path fill-rule="evenodd" clip-rule="evenodd" fill="#FFFFFF" d="M58.7,55L58.7,55C58.7,55,58.7,55,58.7,55
			C58.7,55,58.7,55,58.7,55z"/>
		<path fill-rule="evenodd" clip-rule="evenodd" fill="#FFFFFF" d="M58.8,54.9L58.8,54.9C58.8,54.9,58.8,54.9,58.8,54.9
			C58.8,54.9,58.8,54.9,58.8,54.9L58.8,54.9C58.7,55,58.7,54.9,58.8,54.9C58.7,54.9,58.7,55,58.8,54.9L58.8,54.9
			C58.7,54.9,58.8,54.9,58.8,54.9z"/>
		<path fill-rule="evenodd" clip-rule="evenodd" fill="#FFFFFF" d="M58.7,54.6L58.7,54.6C58.7,54.6,58.7,54.6,58.7,54.6z"/>
		<path fill-rule="evenodd" clip-rule="evenodd" fill="#FFFFFF" d="M56,54.7C56,54.7,55.9,54.7,56,54.7C55.9,54.7,55.9,54.7,56,54.7
			c-0.1,0-0.1,0-0.1,0c0,0,0,0,0,0c0,0,0,0,0,0c0,0,0,0,0,0l0,0c0,0,0,0.1-0.1,0.1c0,0,0,0,0,0.1c0,0,0,0,0,0c0,0,0,0.1,0,0.1
			c0,0,0,0,0,0c0,0.1,0,0.1,0,0.2c0,0,0,0.1,0,0.1l0,0l0,0.1c0,0,0,0,0,0l0,0c0,0,0,0,0,0c0,0,0.1,0.1,0.1,0.1l0,0c0,0,0.1,0,0.1,0
			l0,0c0,0,0,0,0,0c0,0,0,0,0,0c0,0,0,0,0,0c0,0,0,0,0,0c0,0,0,0,0.1,0c0,0,0,0,0,0c0,0,0,0,0,0c0,0,0.1,0,0.1,0c0,0,0,0,0.1,0l0,0
			c0,0,0,0,0,0c0,0,0,0,0,0c0,0,0,0,0,0c0,0,0,0,0,0c0,0,0,0,0,0c0,0,0,0,0,0l0,0l0,0c0,0,0,0,0,0c0,0,0,0,0.1,0c0,0,0.1,0,0.1,0
			c0,0,0,0,0,0l0,0c0,0,0,0,0.1,0l0,0c0,0,0.1,0,0.1,0c0,0,0,0,0.1,0c0,0,0,0,0,0c0,0,0,0,0.1,0c0,0,0,0,0,0c0,0,0,0,0,0
			c0,0,0.1,0,0.1,0c0,0,0,0,0,0c0,0,0,0,0.1,0l0,0c0,0,0,0,0,0c0,0,0.1,0,0.1,0c0,0,0.1,0,0.1,0c0,0,0,0,0,0c0,0,0.1,0,0.1,0
			c0.1,0,0.3,0,0.4-0.1c0,0,0,0,0,0c0,0,0,0,0,0c0,0,0,0,0.1,0c0,0,0,0,0,0c0,0,0,0,0,0c0,0,0.1,0,0.1,0l0,0c0,0,0,0,0,0
			c0,0,0.1,0,0.1-0.1c0,0,0,0,0,0c0,0,0,0,0,0c0,0,0,0,0,0c0,0,0,0,0,0c0,0,0,0,0,0c0,0,0,0,0,0c0,0,0,0,0,0c0,0,0,0,0,0
			c0,0,0,0,0,0c0,0,0,0,0,0c0,0,0,0,0,0c0,0,0,0,0,0c0,0,0,0,0,0c0,0,0,0,0,0c0,0,0,0,0,0c0,0,0,0,0,0c0,0,0,0,0,0c0,0,0,0,0,0
			c0,0,0,0,0.1,0c0,0,0,0-0.1,0c0,0,0,0,0,0c0,0,0,0,0,0l0,0c0,0,0,0,0,0c0,0-0.1,0-0.1,0l0,0c0,0,0,0,0,0c0,0,0,0,0,0
			c0,0,0.1,0,0.1,0c0,0,0,0,0,0c0,0,0,0,0,0c0,0,0,0,0,0l0,0l0,0l0,0c0,0,0,0,0,0c0,0,0,0,0,0c0,0,0,0,0,0c0,0,0,0,0,0l0,0
			c0,0,0,0,0,0c0,0,0,0,0,0c0,0,0.1,0,0.1,0c0,0,0,0,0,0c0,0,0.1,0,0.1,0c0,0-0.1,0-0.1,0l0,0c0,0,0,0,0,0l0,0c0,0-0.1,0-0.1,0
			c0,0,0,0,0,0l0,0c0,0,0,0,0,0c0,0,0.1,0,0.1,0c0,0,0,0,0,0c0,0,0,0-0.1,0c0,0,0-0.1,0-0.1c0,0,0.1,0,0.1,0c0.1,0,0.1,0,0.2-0.1
			c0,0-0.1,0-0.1,0c0,0,0,0,0,0c0,0-0.1,0-0.1,0c0,0,0,0-0.1,0c0,0,0,0,0-0.1c0,0,0,0,0,0c0,0,0,0,0,0l0,0l0,0c0,0,0,0,0,0
			c0,0,0,0,0,0c0,0-0.1,0-0.1,0c0,0,0,0,0,0l0,0l0,0c0,0,0,0,0,0c0,0-0.1,0-0.1,0c0,0,0,0,0,0c-0.1,0-0.1,0-0.1,0c0,0,0,0,0,0
			c0,0,0,0,0,0c0,0,0,0,0,0c0,0-0.1,0-0.1,0c-0.1,0-0.1,0-0.1,0c0,0-0.1,0-0.1,0c0,0-0.1,0-0.1,0c0,0-0.1,0-0.1,0l0,0c0,0,0,0,0,0
			c0,0,0,0-0.1,0c0,0,0,0-0.1,0c0,0,0,0,0,0c0,0,0,0,0,0c0,0,0,0-0.1,0c0,0-0.1,0-0.1,0c0,0-0.1,0-0.1,0c0,0-0.1,0-0.1,0l0,0
			c0,0-0.1,0-0.1,0c0,0,0,0,0,0c0,0,0,0,0,0l0,0c0,0,0,0,0,0c0,0,0,0-0.1,0c0,0,0,0-0.1,0c0,0-0.1,0-0.1,0c0,0,0,0,0,0c0,0,0,0,0,0
			c0,0,0,0-0.1,0c0,0-0.1,0-0.1,0C56.1,54.7,56.1,54.8,56,54.7C56,54.8,56,54.7,56,54.7C56,54.7,56,54.7,56,54.7
			C56,54.7,56,54.7,56,54.7z M58.4,55.1L58.4,55.1C58.4,55.1,58.4,55.1,58.4,55.1z M58.4,55.1C58.4,55.1,58.5,55.1,58.4,55.1
			C58.5,55.1,58.5,55,58.4,55.1C58.5,55.1,58.5,55.1,58.4,55.1C58.5,55.1,58.5,55.1,58.4,55.1C58.5,55.1,58.5,55.1,58.4,55.1
			C58.4,55.1,58.4,55.1,58.4,55.1C58.4,55.1,58.4,55.1,58.4,55.1z"/>
	</g>
	<g>
		<path fill="#FFFFFF" d="M64.1,9c0,0-0.9,0.1-2.4,0.3c-1.5,0.3-3.6,0.9-5.9,2.1c-2.3,1.2-4.8,3.1-6.9,5.5c-2.1,2.4-4,5.4-5.6,8.4
			c-1.6,3-3.1,6.1-4.7,8.8c-1.5,2.8-3.2,5.2-4.9,7c-1.7,1.9-3.3,3.2-4.5,3.9c-1.2,0.8-2,1.1-2,1.1l0.5,1c0,0,0.8-0.4,2.1-1.2
			c1.3-0.8,3-2.2,4.7-4.1c1.7-1.9,3.4-4.4,5-7.2c1.6-2.8,3.1-5.9,4.7-8.8c1.6-3,3.4-5.8,5.4-8.2c2-2.4,4.4-4.2,6.6-5.3
			c2.2-1.1,4.2-1.7,5.6-2c1.4-0.3,2.3-0.3,2.3-0.3L64.1,9z"/>
		<path fill-rule="evenodd" clip-rule="evenodd" fill="#FFFFFF" d="M36.2,39.8c0,0,0,0.1-0.1,0.1C36.1,39.9,36.2,39.9,36.2,39.8z"/>
		<path fill-rule="evenodd" clip-rule="evenodd" fill="#FFFFFF" d="M34.3,41c0,0-0.1,0.1-0.1,0.1C34.2,41.1,34.2,41.1,34.3,41z"/>
		<path fill-rule="evenodd" clip-rule="evenodd" fill="#FFFFFF" d="M34.1,41.2c0,0-0.1,0.1-0.1,0.1C34,41.3,34.1,41.2,34.1,41.2z"/>
		<path fill-rule="evenodd" clip-rule="evenodd" fill="#FFFFFF" d="M33.7,41.8c0,0-0.1,0.1-0.1,0.1C33.6,41.9,33.7,41.8,33.7,41.8z"
			/>
		<path fill-rule="evenodd" clip-rule="evenodd" fill="#FFFFFF" d="M33.5,41.9c0,0-0.1,0.1-0.2,0.2C33.3,42.1,33.4,42,33.5,41.9z"/>
		<path fill-rule="evenodd" clip-rule="evenodd" fill="#FFFFFF" d="M33.3,42.9c-0.1,0.1-0.3,0.3-0.4,0.4
			C33.1,43.1,33.1,43.1,33.3,42.9z"/>
		<path fill-rule="evenodd" clip-rule="evenodd" fill="#FFFFFF" d="M32.8,43c-0.1,0.1-0.4,0.3-0.5,0.5c0,0,0.2-0.2,0.3-0.3
			c0,0,0.1-0.1,0.1-0.1C32.7,43.1,32.8,43,32.8,43z"/>
		<path fill-rule="evenodd" clip-rule="evenodd" fill="#FFFFFF" d="M31.1,44.4C31.1,44.4,31.1,44.4,31.1,44.4
			C31.1,44.5,31.1,44.5,31.1,44.4L31.1,44.4z"/>
		<path fill-rule="evenodd" clip-rule="evenodd" fill="#FFFFFF" d="M30.5,45.1c-0.1,0.1-0.4,0.3-0.5,0.4c0,0,0,0-0.1,0
			c-0.1,0.1-0.3,0.2-0.1,0.1C30,45.4,30.2,45.3,30.5,45.1z"/>
		<path fill-rule="evenodd" clip-rule="evenodd" fill="#FFFFFF" d="M30.3,45c0,0-0.1,0.1-0.1,0.1C30.2,45.1,30.3,45,30.3,45z"/>
		<path fill-rule="evenodd" clip-rule="evenodd" fill="#FFFFFF" d="M30.3,45.4c0,0-0.1,0.1-0.2,0.1C30.2,45.5,30.3,45.4,30.3,45.4z"
			/>
		<path fill-rule="evenodd" clip-rule="evenodd" fill="#FFFFFF" d="M30.2,45.1c-0.1,0.1-0.1,0.1-0.2,0.2
			C29.9,45.3,30.1,45.2,30.2,45.1z"/>
		<path fill-rule="evenodd" clip-rule="evenodd" fill="#FFFFFF" d="M30.1,45.2c0,0-0.1,0.1-0.2,0.2C30,45.2,30,45.2,30.1,45.2z"/>
		<path fill-rule="evenodd" clip-rule="evenodd" fill="#FFFFFF" d="M30.2,45.6c0,0-0.1,0.1-0.1,0.1C30,45.7,30.1,45.6,30.2,45.6z"/>
		<path fill-rule="evenodd" clip-rule="evenodd" fill="#FFFFFF" d="M30,45.6c-0.1,0.1-0.3,0.2-0.4,0.3C29.9,45.7,29.9,45.7,30,45.6z
			"/>
		<path fill-rule="evenodd" clip-rule="evenodd" fill="#FFFFFF" d="M29.8,45.4c-0.1,0.1-0.2,0.2-0.3,0.2
			C29.6,45.5,29.7,45.5,29.8,45.4z"/>
		<path fill-rule="evenodd" clip-rule="evenodd" fill="#FFFFFF" d="M29.6,45.7c-0.1,0.1-0.1,0.1-0.2,0.1
			C29.4,45.8,29.5,45.7,29.6,45.7z"/>
		<path fill-rule="evenodd" clip-rule="evenodd" fill="#FFFFFF" d="M29.4,45.7c0,0-0.1,0.1-0.2,0.1C29.3,45.8,29.4,45.8,29.4,45.7z"
			/>
		<path fill-rule="evenodd" clip-rule="evenodd" fill="#FFFFFF" d="M29.2,45.8c0,0-0.2,0.1-0.1,0.1C29.1,45.9,29.1,45.9,29.2,45.8
			C29.2,45.9,29.2,45.9,29.2,45.8z"/>
		<path fill-rule="evenodd" clip-rule="evenodd" fill="#FFFFFF" d="M28.9,46.3C29,46.2,29.2,46.1,28.9,46.3L28.9,46.3z"/>
		<path fill-rule="evenodd" clip-rule="evenodd" fill="#FFFFFF" d="M28.7,46.5c-0.1,0.1-0.2,0.1-0.3,0.2
			C28.6,46.6,28.6,46.5,28.7,46.5z"/>
		<path fill-rule="evenodd" clip-rule="evenodd" fill="#FFFFFF" d="M28.7,46.5c0,0-0.1,0.1-0.1,0.1L28.7,46.5z"/>
		<path fill-rule="evenodd" clip-rule="evenodd" fill="#FFFFFF" d="M28.5,46.8c0,0-0.1,0.1-0.1,0.1C28.4,46.8,28.5,46.8,28.5,46.8z"
			/>
		<path fill-rule="evenodd" clip-rule="evenodd" fill="#FFFFFF" d="M27.9,47.1C27.8,47.2,27.7,47.2,27.9,47.1L27.9,47.1z"/>
		<path fill-rule="evenodd" clip-rule="evenodd" fill="#FFFFFF" d="M32.4,44C32.4,44,32.4,44,32.4,44c-0.1,0.1-0.2,0.2-0.3,0.3
			C32.2,44.2,32.3,44.1,32.4,44z"/>
		<path fill-rule="evenodd" clip-rule="evenodd" fill="#FFFFFF" d="M30.2,45.5C30.1,45.5,30.1,45.5,30.2,45.5
			C30.1,45.5,30.1,45.5,30.2,45.5c-0.2,0.1-0.2,0.2-0.3,0.2c0,0,0,0,0,0c-0.1,0.1-0.2,0.2-0.5,0.3c0.5-0.4,0.7-0.5,0.9-0.6
			C30.3,45.4,30.1,45.5,30.2,45.5C30.1,45.5,30.2,45.4,30.2,45.5z"/>
		<path fill-rule="evenodd" clip-rule="evenodd" fill="#FFFFFF" d="M29.8,45.4C29.8,45.4,29.8,45.4,29.8,45.4
			C29.8,45.4,29.7,45.5,29.8,45.4C29.7,45.5,30,45.3,29.8,45.4z"/>
		<path fill-rule="evenodd" clip-rule="evenodd" fill="#FFFFFF" d="M28.3,46.4L28.3,46.4c-0.1,0.1-0.3,0.2-0.4,0.2
			c0.2-0.1,0.5-0.3,0.6-0.3c0,0,0.1,0,0.1-0.1c0.4-0.2,0.7-0.4,1.1-0.7c-0.1,0.1-0.5,0.3-0.7,0.5c0,0,0,0,0,0
			C28.9,46,28.8,46.1,28.3,46.4z"/>
		<path fill-rule="evenodd" clip-rule="evenodd" fill="#FFFFFF" d="M28.6,46.6c-0.1,0-0.1,0-0.1,0.1C28.5,46.7,28.6,46.6,28.6,46.6z
			"/>
		<path fill-rule="evenodd" clip-rule="evenodd" fill="#FFFFFF" d="M58.6,11.4c0.1,0,0.2-0.1,0.3-0.1c0.2-0.1,0.5-0.1,0.7-0.2
			c0.2-0.1,0.4-0.2,0.6-0.2c0.1,0,0.2-0.1,0.3-0.1c0.3-0.1,0.6-0.2,0.7-0.2c0.3-0.1,0.5-0.1,0.7-0.2c0.1,0,0.1,0,0.1,0
			c0.5-0.1,0.8-0.3,1.5-0.4c0.1,0,0.1,0,0.2-0.1c0.1,0,0.1,0,0.2,0c0.1,0,0-0.1,0.2-0.1c0,0,0,0,0,0c0-0.1-0.1-0.1,0-0.2
			c-0.2,0-0.1-0.1-0.3-0.1c-0.1,0-0.2,0-0.3,0c-0.1,0-0.2,0-0.3,0c0,0-0.2,0-0.2,0c-0.2,0-0.3,0-0.5,0c0,0-0.1,0-0.1,0
			c-0.4,0-0.8,0.1-1.3,0.2c-0.1,0-0.2,0-0.2,0c-0.4,0.1-1,0.3-1.2,0.3c-0.1,0-0.1,0-0.1,0c0,0-0.3,0-0.4,0.1c0,0-0.2,0.1-0.3,0.1
			c-0.2,0.1-0.4,0.1-0.6,0.2c-0.1,0-0.2,0.1-0.2,0.1c-0.4,0.2-0.6,0.3-0.8,0.4c-0.1,0.1-0.2,0.1-0.3,0.1c-0.1,0-0.2,0.1-0.1,0.1
			c-0.3,0.2-1,0.5-1.4,0.7c-0.3,0.2-0.6,0.3-0.9,0.5c0,0-0.1,0.1-0.2,0.1c-0.1,0-0.2,0.2-0.3,0.2c-0.2,0.2-0.3,0.2-0.6,0.4
			c-0.3,0.2-0.4,0.3-0.7,0.5c0,0-0.2,0.1-0.2,0.2c0,0-0.2,0.1-0.2,0.2c-0.1,0-0.2,0.2-0.2,0.2c0,0-0.1,0.1-0.1,0.1
			c0,0-0.1,0.1-0.2,0.1c0,0-0.2,0.2-0.2,0.2c-0.2,0.2-0.5,0.5-0.7,0.7c-0.4,0.4-0.7,0.7-1.2,1.2c-0.1,0.1-0.2,0.2-0.3,0.3
			c0,0,0,0-0.1,0.1c-0.2,0.2-0.4,0.5-0.7,0.8c0,0,0,0,0,0c-0.3,0.4-0.7,0.9-0.9,1.2c-0.2,0.2-0.4,0.5-0.6,0.8
			c-0.1,0.1-0.2,0.3-0.3,0.4c-0.2,0.3-0.4,0.6-0.6,0.9c0,0-0.1,0.2-0.1,0.2c-0.1,0.1-0.1,0.2-0.3,0.4c-0.5,0.8-0.7,1.2-1,1.7
			c-0.1,0.1-0.2,0.3-0.3,0.5c-0.2,0.3-0.3,0.6-0.5,0.9c0,0-0.1,0.2-0.1,0.2c-0.1,0.2-0.2,0.3-0.3,0.5c-0.2,0.4-0.4,0.7-0.7,1.3
			c-0.4,0.8-0.7,1.4-1,2c-0.1,0.1-0.1,0.3-0.2,0.4c-0.2,0.5-0.5,1-0.8,1.5c-1,2-2.1,4-3.2,5.9c-0.1,0.1-0.2,0.4-0.3,0.5
			c0,0-0.1,0.1-0.1,0.2c-0.1,0.2-0.3,0.5-0.5,0.8c0,0.1-0.2,0.2-0.2,0.4c0,0,0-0.1,0,0c-0.1,0.2-0.6,0.8-0.8,1.1c0,0,0,0,0,0
			c-0.1,0.1-0.1,0.1-0.1,0.2c-0.4,0.5-0.6,0.9-1,1.3c0,0-0.2,0.2-0.2,0.2c0.1-0.1,0.1-0.2,0.1-0.1c-0.1,0.1-0.2,0.3-0.3,0.4
			c-0.1,0.1-0.2,0.2-0.3,0.4c0,0,0,0,0,0c-0.3,0.3-0.2,0.2-0.5,0.5c0,0.1-0.2,0.3-0.3,0.3c-0.1,0.1,0.1-0.1,0,0
			c-0.2,0.2-0.3,0.3-0.5,0.4c0,0-0.1,0.1-0.1,0.1c0,0,0,0-0.1,0c-0.1,0.1,0.1,0,0,0c-0.1,0.1-0.1,0.1-0.1,0.1
			c-0.1,0.1-0.2,0.2-0.3,0.3c-0.2,0.1-0.2,0.2-0.3,0.3c-0.1,0.1-0.1,0.1-0.2,0.2c-0.1,0-0.2,0.2-0.3,0.2c0,0,0,0,0,0
			c-0.3,0.2-0.5,0.4-0.9,0.7c0.4-0.3,0.7-0.5,1-0.8c0.1,0,0.1-0.1,0.2-0.2c0,0-0.1,0,0,0c0,0,0,0,0.1-0.1c0,0,0,0,0.1,0
			c0.3-0.2,0.5-0.4,0.7-0.6c0,0,0,0,0,0c0.1-0.1,0.1-0.1,0.3-0.2c0,0,0.1-0.1,0.1,0c-0.3,0.3-0.7,0.7-1.1,1
			c-0.1,0.1-0.2,0.2-0.3,0.3c0.2-0.1,0.4-0.3,0.5-0.4c0.2-0.1,0.4-0.4,0.6-0.5c0,0,0.1-0.1,0.1-0.1c0,0,0.1-0.1,0.1-0.1
			c0,0,0.1-0.1,0.1-0.1c0,0,0.2-0.2,0.2-0.2c0.1-0.1,0.3-0.3,0.4-0.4c0,0,0,0,0,0c-0.2,0.2-0.2,0.2-0.4,0.4c0,0,0,0,0,0
			c-0.1,0.1-0.1,0.1-0.1,0.1c0.1-0.1,0.1-0.1,0.1-0.1c-0.4,0.3-0.8,0.8-1.1,1c0,0,0,0.1-0.1,0.1c-0.3,0.3-0.7,0.6-1.1,0.9
			c0.5-0.3,0.9-0.7,1.4-1.1c0,0,0,0,0.1,0c0.3-0.3,0.4-0.4,0.6-0.5c0.1-0.1,0.1-0.1,0.2-0.2c0.5-0.5,0.9-0.8,1.3-1.3c0,0,0,0,0.1,0
			c0,0-0.1,0.1-0.1,0.1c-0.1,0.1-0.1,0.2-0.2,0.2c-0.4,0.4-0.9,1-1.4,1.4c-0.1,0.1,0,0,0.1,0c0.2-0.2,0.5-0.4,0.7-0.7
			c0.1-0.1,0,0-0.2,0.2c-0.3,0.3-0.9,0.8-1.1,1c-1,0.9-2,1.6-3.2,2.3c0.7-0.4,1.2-0.8,1.8-1.2c0,0,0,0,0.1,0
			c0.5-0.4,1.1-0.8,1.5-1.2c0.2-0.1,0.5-0.5,0.7-0.6c0,0.1-0.2,0.2-0.3,0.4c0.2-0.1,0.4-0.4,0.5-0.5c0.1-0.1,0.2-0.2,0.4-0.4
			c0,0,0,0,0,0c-0.1,0.1,0.1-0.1,0.1-0.1c0.1-0.1,0.1-0.1,0.1-0.1c0.1-0.1,0.1-0.1,0.2-0.2c0.4-0.4,0.7-0.7,1-1.1
			c0,0,0.1-0.1,0.1-0.1c0,0,0,0,0.1,0c0,0,0,0,0-0.1c0.1-0.2,0.3-0.3,0.4-0.5c0.3-0.4,0.7-0.8,0.9-1.2c0.1-0.1,0,0,0.1-0.1
			c0.4-0.6,0.8-1.2,1.2-1.8c0,0,0,0,0.1-0.1c0.1-0.1,0-0.1,0.1-0.1c0,0,0.1-0.1,0.1-0.1c0.5-0.7,0.9-1.5,1.3-2.2
			c0.4-0.7,0.8-1.4,1.2-2.1c0.3-0.5,0.5-1,0.8-1.5c0.4-0.7,0.6-1.2,0.9-1.8c0.2-0.4,0.4-0.8,0.7-1.3c0,0,0.1-0.2,0.1-0.2
			c0-0.1,0.1-0.3,0.2-0.3c0.1-0.3,0.3-0.6,0.5-0.9c0.2-0.3,0.4-0.6,0.5-1c0.1-0.2,0.2-0.4,0.3-0.5c0.1-0.1,0.2-0.3,0.2-0.4
			c0.2-0.3,0.4-0.7,0.6-1c0.2-0.4,0.4-0.7,0.8-1.3c0.3-0.5,0.7-1,1-1.5c0.5-0.7,0.5-0.8,0.8-1.1c0,0,0.1-0.1,0.1-0.1
			c0.5-0.6,0.9-1.3,1.3-1.7c0.1-0.2,0.3-0.3,0.4-0.5c0.2-0.2,0.3-0.3,0.4-0.5c0,0,0.1-0.1,0.1-0.2c0.1-0.1,0.3-0.3,0.5-0.5
			c0.2-0.3,0.5-0.5,0.8-0.8c0.2-0.2,0.6-0.5,0.9-0.8c0.5-0.4,1-0.8,1.5-1.1c0.2-0.1,0.3-0.2,0.5-0.3c0.2-0.1,0.4-0.3,0.6-0.4
			c0.2-0.1,0.5-0.3,0.7-0.4c0.4-0.2,0.8-0.4,1.1-0.5c0.1,0,0.3-0.2,0.6-0.3c0.2-0.1,0.1,0,0.2,0c0.1-0.1,0.3-0.1,0.4-0.2
			C58.2,11.5,58.5,11.4,58.6,11.4z M33.1,42.6C33.1,42.6,33.1,42.6,33.1,42.6C33.1,42.6,33.2,42.5,33.1,42.6z M33,42.6
			c-0.1,0.1-0.3,0.3-0.4,0.4c0,0,0,0,0,0c-0.1,0.1-0.1,0.1-0.2,0.2c0,0,0.2-0.2,0.2-0.2c0.1-0.1,0.1-0.1,0.1-0.2
			C32.9,42.7,32.8,42.8,33,42.6C33,42.7,33,42.6,33,42.6z"/>
	</g>
</g>
</svg>
