<?xml version="1.0" encoding="utf-8"?>
<!-- Generator: Adobe Illustrator 18.1.1, SVG Export Plug-In . SVG Version: 6.00 Build 0)  -->
<svg version="1.1" id="Layer_1" xmlns="http://www.w3.org/2000/svg" xmlns:xlink="http://www.w3.org/1999/xlink" x="0px" y="0px"
	 viewBox="0 0 599.8 85.6" enable-background="new 0 0 599.8 85.6" xml:space="preserve">
<g>
	<g>
		<g>
			<path fill="#EC2130" d="M78.2,59.5c0,12.6-11.8,24.3-32.9,24.3H0L14.2,3.5h41.7C71,3.5,81,12.2,81,22.8c0,8-5.8,17.7-14.9,20.4
				C73.6,45.2,78.2,51.6,78.2,59.5z M42,62.7c6.6,0,9.8-2.2,9.8-6.3c0-2.6-2-4.5-6.1-4.5H33.3l-1.9,10.7H42z M44.6,35
				c5.2,0,8.5-2.6,8.5-6.4c0-2.8-2.2-4.4-5.9-4.4h-9.1L36.2,35H44.6z"/>
			<path fill="#EC2130" d="M106.9,83.8H80.3L95.2,0h26.6L106.9,83.8z"/>
			<path fill="#EC2130" d="M180.3,83.8h-26.6l0.6-3c-5.1,3.2-9.8,4.7-15.4,4.7c-13.5,0-22-8.1-19.1-24l6.5-36.8h26.6l-5.3,29.8
				c-1.1,6,2,7.3,4.6,7.3c2.1,0,3.8-0.6,5.8-2.1l6.3-35h26.6L180.3,83.8z"/>
			<path fill="#EC2130" d="M260.5,47L254,83.8h-26.6l5.2-29.8c1.1-6-2-7.3-4.6-7.3c-2,0-3.8,0.6-5.8,2.1l-6.1,35h-26.6l10.4-59h26.6
				l-0.5,3c5-3.2,9.7-4.7,15.2-4.7C254.7,23,263.2,31.2,260.5,47z"/>
			<path fill="#EC2130" d="M299.6,54.7c-0.7,4,0.5,6.6,5.2,6.6c1.8,0,4.6-0.4,11.9-1.1L315,82.1c-9.7,3-16.8,3.5-23.4,3.5
				c-14.4,0-22-11.7-18.9-29.3l1.5-8.5h-9.4l4-23h9.4l3.1-17.7H308l-3.1,17.7H322l-4,23h-17.2L299.6,54.7z"/>
		</g>
	</g>
	<g>
		<path fill="#EC2130" d="M396.6,27.2l-10,56.7h-27.6l10-56.7h-22.3l4.3-23.6h72l-4.3,23.6H396.6z"/>
		<path fill="#EC2130" d="M473.6,83.8H447l0.5-2.6c-4.6,2.2-9,3.7-15.2,3.7c-13.6,0-24.2-10.4-24.2-25.9c0-21.3,17.9-36,35.2-36
			c6.1,0,10,1.4,13.8,3.7l0.4-1.9H484L473.6,83.8z M450.8,62.1l3-16.3c-2.5-2.1-5-2.6-7.3-2.6c-6.4,0-12.8,4.7-12.8,12.6
			c0,5.5,3.9,8.9,9,8.9C445,64.7,447.6,64.2,450.8,62.1z"/>
		<path fill="#EC2130" d="M509.3,83.8h-26.6L497.6,0h26.6L509.3,83.8z"/>
		<path fill="#EC2130" d="M589.4,83.8h-28.8L553.4,68l-6,5.5l-1.8,10.3h-26.6L533.9,0h26.6l-7.2,40.4l17.2-15.6h29.3l-25.4,23.6
			L589.4,83.8z"/>
	</g>
</g>
</svg>
