<?xml version="1.0" encoding="utf-8"?>
<!-- Generator: Adobe Illustrator 18.1.1, SVG Export Plug-In . SVG Version: 6.00 Build 0)  -->
<svg version="1.1" id="Layer_1" xmlns="http://www.w3.org/2000/svg" xmlns:xlink="http://www.w3.org/1999/xlink" x="0px" y="0px"
	 viewBox="0 0 141.7 73.8" enable-background="new 0 0 141.7 73.8" xml:space="preserve">
<g>
	<g>
		<path fill="#FFFFFF" d="M139.2,69.9c-1.5-10.9,0.3-22,1.1-33c0.4-5.5,0.8-11.1,1-16.6c0.1-2.8,0.2-5.5,0.3-8.3l0.1-4.2l0-4.7
			l-5.9-0.5c-1.8-0.2-3.6-0.3-5.4-0.5c-3.6-0.3-7.2-0.6-10.7-0.8c-7.2-0.5-14.3-0.8-21.5-1C83.9-0.1,69.5-0.1,55.1,0.4
			C40.8,1,26.5,2,12.2,3.6C10.4,3.7,8.6,4,6.8,4.2L4.2,4.5L2.8,4.6L2.1,4.7l-0.3,0c-0.1,0-0.3,0-0.2,0.1L2,6.1
			C3.1,9.4,3,13,2.6,16.5c-0.4,3.5-0.9,7.1-1.2,10.7C1,30.8,0.7,34.4,0.5,38C0.1,45.1-0.1,52.3,0,59.5c0.1,3.6,0.2,7.2,0.4,10.8
			l0.1,1.3l0.1,1.1c0.3,0.1,1,0.1,1.1,0.2l2.7,0.3c1.8,0.2,3.6,0.3,5.4,0.4c14.4,0.7,28.7-1.4,43-2.8c14.3-1.4,28.6-2.1,42.9-2.1
			c7.2,0,14.3,0.3,21.5,0.7c3.6,0.2,7.2,0.5,10.7,0.8c1.8,0.1,3.6,0.3,5.4,0.5l1.3,0.1c0.5,0,0.9,0.1,1.4,0.1c0.9,0,1.9-0.1,2.8-0.3
			l-0.2-1.1c-0.8,0.2-1.7,0.3-2.6,0.3c-0.4,0-0.9,0-1.3-0.1l-1.3-0.1c-1.8-0.2-3.6-0.3-5.4-0.5c-3.6-0.3-7.2-0.6-10.7-0.8
			c-7.2-0.4-14.4-0.6-21.5-0.7c-14.4-0.1-28.7,0.6-43,2.1c-14.3,1.4-28.5,3.5-42.8,2.8c-1.8-0.1-3.6-0.2-5.3-0.4l-2.7-0.3l-0.2,0
			l0-0.2l-0.1-1.3c-0.2-3.6-0.4-7.2-0.4-10.7C1,52.3,1.1,45.2,1.6,38c0.2-3.6,0.5-7.1,0.9-10.7c0.4-3.6,0.8-7.1,1.2-10.7
			C4.1,13.1,4.2,9.3,3,5.8l0-0.1l0,0l1.3-0.1L7,5.2c1.8-0.2,3.6-0.4,5.3-0.6c14.3-1.5,28.6-2.6,42.9-3.1c14.3-0.5,28.7-0.6,43-0.2
			c7.2,0.3,14.3,0.6,21.5,1c3.6,0.2,7.2,0.5,10.7,0.8c1.8,0.1,3.6,0.3,5.4,0.5l4.9,0.5l0,3.7l-0.1,4.1c-0.1,2.8-0.2,5.5-0.3,8.3
			c-0.2,5.5-0.6,11-1,16.6c-0.4,5.5-1,11-1.4,16.6c-0.4,5.5-0.4,11.1,0.3,16.7L139.2,69.9z"/>
		<path fill-rule="evenodd" clip-rule="evenodd" fill="#FFFFFF" d="M55.2,69.6c0.3,0,0.6-0.1,1.1-0.1C56,69.5,55.6,69.5,55.2,69.6z"
			/>
		<path fill-rule="evenodd" clip-rule="evenodd" fill="#FFFFFF" d="M71.6,69.1c0.3,0,1.4-0.1,1.2-0.1C72.2,69,72,69.1,71.6,69.1z"/>
		<path fill-rule="evenodd" clip-rule="evenodd" fill="#FFFFFF" d="M73.3,69c0.3,0,0.9,0,1.3-0.1C74.2,68.9,73.6,69,73.3,69z"/>
		<path fill-rule="evenodd" clip-rule="evenodd" fill="#FFFFFF" d="M78.3,68.7c0.3,0,0.9,0,1.3-0.1C79.3,68.6,78.7,68.7,78.3,68.7z"
			/>
		<path fill-rule="evenodd" clip-rule="evenodd" fill="#FFFFFF" d="M80.6,68.7c0.5,0,1.2,0,2.2-0.1C82.3,68.6,81.4,68.7,80.6,68.7z"
			/>
		<path fill-rule="evenodd" clip-rule="evenodd" fill="#FFFFFF" d="M86.8,68c1.1,0,3.3-0.1,4.1,0C89.6,67.9,88.1,68,86.8,68z"/>
		<path fill-rule="evenodd" clip-rule="evenodd" fill="#FFFFFF" d="M89.8,68.2c1.5,0,3.8,0,5.6,0c-0.6,0-2.4,0-3.1,0
			c-0.4,0-0.7,0-1.1,0C90.8,68.2,90.4,68.2,89.8,68.2z"/>
		<path fill-rule="evenodd" clip-rule="evenodd" fill="#FFFFFF" d="M106.5,68.4c0,0,0.1,0,0.6,0c0.1,0,0.2,0,0.2,0L106.5,68.4z"/>
		<path fill-rule="evenodd" clip-rule="evenodd" fill="#FFFFFF" d="M113.5,68.6c1.1,0,3.6,0.2,5,0.3c0.2,0,0.2,0,0.5,0
			c0.8,0,2.7,0.2,0.9,0.1C117.7,68.8,115.9,68.7,113.5,68.6z"/>
		<path fill-rule="evenodd" clip-rule="evenodd" fill="#FFFFFF" d="M114.3,68.8c0.3,0,0.7,0,1.3,0.1
			C115.3,68.8,114.5,68.8,114.3,68.8z"/>
		<path fill-rule="evenodd" clip-rule="evenodd" fill="#FFFFFF" d="M116,68.5c0.3,0,1.1,0.1,1.6,0.1C117.3,68.6,116.5,68.5,116,68.5
			z"/>
		<path fill-rule="evenodd" clip-rule="evenodd" fill="#FFFFFF" d="M115.6,68.8c0.5,0,1.4,0.1,2,0.1
			C118.1,68.9,116.3,68.8,115.6,68.8z"/>
		<path fill-rule="evenodd" clip-rule="evenodd" fill="#FFFFFF" d="M116.5,68.9c0.5,0,1.4,0.1,2.2,0.1
			C118.1,69,117.2,68.9,116.5,68.9z"/>
		<path fill-rule="evenodd" clip-rule="evenodd" fill="#FFFFFF" d="M117.8,68.5c0.1,0,0.8,0,1.3,0.1
			C118.7,68.6,118.2,68.6,117.8,68.5z"/>
		<path fill-rule="evenodd" clip-rule="evenodd" fill="#FFFFFF" d="M118.5,68.6c0.6,0,2.6,0.2,3.6,0.2
			C120.8,68.8,119.9,68.7,118.5,68.6z"/>
		<path fill-rule="evenodd" clip-rule="evenodd" fill="#FFFFFF" d="M119,69c0.9,0,2.3,0.1,3,0.2C121.2,69.2,119.9,69,119,69z"/>
		<path fill-rule="evenodd" clip-rule="evenodd" fill="#FFFFFF" d="M121.4,69c0.4,0,0.9,0.1,1.4,0.1C122.9,69.1,122,69.1,121.4,69z"
			/>
		<path fill-rule="evenodd" clip-rule="evenodd" fill="#FFFFFF" d="M122.9,69.2c0.5,0,0.8,0.1,1.4,0.1
			C124,69.3,123.3,69.2,122.9,69.2z"/>
		<path fill-rule="evenodd" clip-rule="evenodd" fill="#FFFFFF" d="M124.5,69.3c0.2,0,1.5,0.1,1.2,0.1c-0.4,0-0.3,0-0.3,0
			C124.9,69.3,125,69.4,124.5,69.3z"/>
		<path fill-rule="evenodd" clip-rule="evenodd" fill="#FFFFFF" d="M128.2,69.4C127.3,69.4,125.8,69.2,128.2,69.4L128.2,69.4z"/>
		<path fill-rule="evenodd" clip-rule="evenodd" fill="#FFFFFF" d="M130.2,69.5c0.8,0.1,1.5,0.1,2.3,0.2
			C131.9,69.7,130.6,69.5,130.2,69.5z"/>
		<path fill-rule="evenodd" clip-rule="evenodd" fill="#FFFFFF" d="M130.8,69.5c-0.3,0,1.2,0.1,0.9,0.1
			C131.3,69.6,131.1,69.6,130.8,69.5z"/>
		<path fill-rule="evenodd" clip-rule="evenodd" fill="#FFFFFF" d="M132.4,69.5c0.3,0,0.8,0.1,1.3,0.1
			C133.4,69.6,132.7,69.6,132.4,69.5z"/>
		<path fill-rule="evenodd" clip-rule="evenodd" fill="#FFFFFF" d="M137.3,69.7c0.7-0.1,1.2-0.2,1.3-0.2
			C138.6,69.5,138.3,69.6,137.3,69.7z"/>
		<path fill-rule="evenodd" clip-rule="evenodd" fill="#FFFFFF" d="M97.2,67.7c0.3,0,0.6,0,0.9,0c0.7,0,1.6,0,2.3,0
			C99.4,67.8,98.6,67.7,97.2,67.7z"/>
		<path fill-rule="evenodd" clip-rule="evenodd" fill="#FFFFFF" d="M117.2,68.6c0.4,0,0.4,0,0.9,0.1c0,0-0.2,0-0.2,0
			c0.9,0.1,1.4,0.1,2.1,0.1c-0.1,0-0.2,0-0.2,0c1.2,0.1,2.2,0.2,4.3,0.3c-2-0.1-6.5-0.4-8.2-0.5c0.5,0,1.5,0.1,2,0.1
			C117.9,68.7,116.9,68.6,117.2,68.6z"/>
		<path fill-rule="evenodd" clip-rule="evenodd" fill="#FFFFFF" d="M119,69C119.2,69,119.1,69,119,69c0.3,0,0.8,0,0.9,0.1
			C119.7,69,117.4,68.9,119,69z"/>
		<path fill-rule="evenodd" clip-rule="evenodd" fill="#FFFFFF" d="M132.3,70L132.3,70c1.1,0.1,2.9,0.3,3.7,0.3
			c-0.7,0-1.7-0.1-2.7-0.2c-1-0.1-1.8-0.2-2.4-0.2c-0.3,0-0.6-0.1-0.9-0.1c-3.1-0.3-6.6-0.5-9.8-0.7c1.5,0.1,4.8,0.3,6.5,0.5
			c0.3,0,0,0-0.2,0C127.8,69.6,130.3,69.8,132.3,70z"/>
		<path fill-rule="evenodd" clip-rule="evenodd" fill="#FFFFFF" d="M131.1,69.5c0.3,0,0.8,0.1,1.1,0.1
			C132.4,69.6,131.5,69.6,131.1,69.5z"/>
		<path fill-rule="evenodd" clip-rule="evenodd" fill="#FFFFFF" d="M140,24.7c0,0.8-0.1,1.7-0.1,2.5c-0.1,2-0.2,3.7-0.4,5.7
			c-0.1,1.7-0.2,3.4-0.4,5.2c-0.1,1.3-0.1,1.8-0.2,2.7c-0.2,2.6-0.4,4.3-0.5,5.9c-0.2,1.8-0.3,4.2-0.4,5.8c0,0.3-0.1,0.8-0.1,0.9
			c-0.2,4.1-0.3,6.7,0,11.6c0,0.4,0.1,0.9,0.2,1.5c0,0.4,0.1,1.2,0.2,1.5c0.1,1,0.1,0.1,0.3,1.9c0,0.1,0-0.2,0-0.3
			c0.1,0,0-0.7,0.1-0.2c-0.1-1.3-0.1-1-0.1-2c0-0.6-0.1-1.8-0.1-2.6c0-0.9,0-1.8,0-2.6c0,0,0-0.3,0-0.6c0-0.3,0-0.5,0-0.8
			c0-1.4,0-2.4,0.1-3.8c0-0.1,0-0.5,0-0.5c0.2-3,0.4-5.9,0.8-10c0-0.4,0.1-1.1,0.1-1.6c0.3-2.9,0.6-7.3,0.8-9.2c0-0.5,0-0.5,0.1-1.1
			c0-0.3,0.2-1.9,0.3-3.3c0-0.4,0.1-1.4,0.1-2.4c0.1-1.5,0.2-3.1,0.3-4.4c0-0.6,0.1-1.4,0.1-2c0.1-1.8,0.2-5.3,0.3-6.8
			c0-1.1,0.1-1.6,0.1-2.5c0-0.8,0-1.4,0-1.3c0-1,0-2.2,0-3.6c0-1.6,0-3.4,0-5.2c-1.4-0.1-2.6-0.2-3.8-0.3c-2.6-0.2-5-0.5-7.5-0.7
			c-0.5,0-1.1-0.1-1.6-0.1c-0.8-0.1-2-0.1-3.1-0.2c-1.9-0.2-3.5-0.2-5-0.3c-2.4-0.2-4.1-0.3-6.1-0.4c-0.7,0-1.5-0.1-2.3-0.1
			c-0.7,0-1.4-0.1-2.2-0.1c-0.8,0-1.6-0.1-2.3-0.1c-0.5,0-1,0-1.4-0.1c-0.6,0-1,0-1.6-0.1c-0.6,0-1.3,0-2-0.1
			c-2.4-0.1-5.1-0.2-7.4-0.2c-2.1,0-4-0.1-6.1-0.1c-2,0-4.1,0-6.6-0.1c-1.2,0-2.1,0-3.4,0c-0.3,0-0.3,0-0.7,0c-2.6,0-5.2,0-7.9,0.1
			c-0.1,0-0.2,0-0.4,0c-3.6,0.1-8.2,0.1-11.1,0.3c-2.2,0.1-4.8,0.1-7.5,0.3c-1.3,0.1-2.5,0.1-3.7,0.2c-2.4,0.1-5.4,0.3-7.7,0.4
			c-0.7,0-1.3,0.1-2,0.1c-1.2,0.1-2.5,0.2-3.7,0.3c-4.9,0.3-10.5,0.8-14.8,1.2c-1.3,0.1-2.5,0.3-3.9,0.4c-2.5,0.3-5,0.5-7.5,0.8
			C7.8,4.2,7.1,4.3,6.6,4.3C5.8,4.4,5.1,4.5,4.4,4.6C4,4.6,3.7,4.7,3.3,4.7c-0.2,0-0.5,0.1-0.7,0.1L2.1,4.9l-0.2,0c0,0-0.1,0-0.1,0
			l0,0.1l0.4,1.1c0.1,0.2,0.1,0.4,0.2,0.7c0.1,0.4,0.2,0.9,0.3,1.4C2.9,9.1,3,10,3,10.9c0.1,1.9,0,3.7-0.2,5.5
			c-0.2,2.3-0.6,5.1-0.9,8C1.5,27.3,1.3,30.3,1,33c-0.1,1.3-0.2,2.4-0.3,3.6c-0.3,3.8-0.5,8.7-0.5,12.7C0.2,53.5,0.2,57.8,0.3,62
			c0.1,2.1,0.2,4.3,0.3,6.4l0.2,3.2l0,0.5l0,0.3c0,0.1,0.1,0.1,0.1,0.1l0.2,0l1,0.1l1.6,0.2c8.6,0.9,17.2,0.7,25.5,0
			c1.3-0.1,3.3-0.3,4.5-0.4c0.4,0,1-0.1,1.6-0.1c2.2-0.2,4.7-0.5,7.3-0.8c1-0.1,2.1-0.2,3.2-0.4c0.4,0-0.6,0.1,0.2,0
			c1.7-0.2,7.4-0.8,10-1.1c-0.2,0-0.2,0,0,0c0.7-0.1,1-0.1,1.6-0.2c4.7-0.4,8-0.7,12-0.9c0.5,0,1.6-0.1,2.3-0.1
			c-0.7,0-1.6,0.1-1.6,0.1c1.2-0.1,2.7-0.2,3.6-0.2c1.5-0.1,2.2-0.1,3.6-0.2c0.3,0-0.3,0,0.4,0c2.1-0.1,3.1-0.1,5-0.2
			c0.5,0,2.7-0.1,3.4-0.1c0.6,0-0.7,0-0.2,0c1.7,0,3.3-0.1,4.8-0.1c0.4,0,0.7,0,1.3,0c0.4,0-0.1,0,0.5,0c0.6,0-0.5,0-0.3,0
			c0.7,0,0.7,0,1.1,0c1.2,0,2,0,3.1,0c1.1,0,2.3,0,3.4,0c0.9,0,1.3,0,2.3,0c0.8,0,1.6,0,2.5,0.1c0.5,0-0.3,0,0.4,0
			c3.3,0.1,6.6,0.2,9,0.3c-3.7-0.2-6.4-0.3-9.7-0.4c-0.7,0-1.1,0-2,0c-0.2,0,0.5,0-0.2,0c-0.2,0-0.3,0-0.7,0c0.5,0-0.2,0-0.5,0
			c-2.8-0.1-4.9-0.1-7.3-0.1c-0.4,0,0.3,0-0.2,0c-0.9,0-1.6,0-2.7,0c-0.3,0-1,0-0.7,0c3.2,0,7.6,0,11.5,0c1.1,0,2.1,0,3.1,0.1
			c-1.7,0-3.1-0.1-4.6-0.1c-1.9,0-4,0-5.9,0c-0.5,0-0.8,0-1.2,0c-0.4,0-1,0-1.4,0c-0.4,0-0.5,0-0.9,0c-0.8,0-1.5,0-2.3,0
			c-1.5,0-3,0-4.6,0.1c-0.3,0-0.2,0,0.2,0c2,0,2.3,0,4.3-0.1c-0.2,0-0.4,0-0.3,0c0.6,0,0.8,0,1.3,0c-1.5,0-1.4,0-0.8,0
			c3.7-0.1,8.2,0,11.3,0c0.4,0,0.6,0,1.1,0c3.4,0.1,7.3,0.2,10.9,0.3c-4.2-0.2-8.6-0.3-13.4-0.4c-0.2,0,0,0-0.5,0
			c-2.1,0-4.5,0-6.1,0c-0.7,0-1.4,0-2.1,0c-5.1,0.1-8.8,0.1-13.7,0.3c0,0-0.4,0-0.5,0c0.4,0,0.7,0,1.1-0.1c0.8,0,1.6-0.1,2.3-0.1
			c4.1-0.2,10-0.3,15.1-0.3c0.6,0,0.1,0-0.3,0c-2.5,0-4.7,0-7.3,0.1c-0.9,0,0-0.1,2.1-0.1c3.3-0.1,9.1,0,11.3,0
			c9.8,0.1,19.5,0.6,29.5,1.4c-5.6-0.5-10.7-0.8-15.7-1c0,0-0.2,0-0.6,0c-4.9-0.2-10.4-0.4-14.7-0.4c-1.8,0-5.3,0-7.1,0
			c0.5,0,2-0.1,3.9-0.1c-1.9,0-3.7,0-5.4,0c-1.3,0-3.6,0.1-4.3,0.1c-0.2,0,0.1,0-0.2,0c0.5,0-1,0-1.1,0c-0.7,0-0.6,0-1.4,0
			c-1.1,0-1,0-1.8,0c-3.8,0.1-7.5,0.3-11.3,0.5c-0.4,0-1.2,0.1-1.2,0.1c-0.3,0-0.2,0-0.5,0c-0.2,0-0.2,0-0.5,0
			c-1.5,0.1-3.2,0.2-4.6,0.3c-3.7,0.3-8,0.7-11,1c-0.7,0.1,0.2,0-0.7,0.1c-5.2,0.5-10.6,1.2-16.2,1.7c-0.3,0-0.2,0-0.7,0.1
			c-0.7,0.1-0.6,0.1-1.3,0.1c-0.4,0-0.7,0.1-1,0.1c-6.3,0.5-12.9,0.9-19.4,0.7C9,72.7,6,72.5,3,72.1L1.9,72l-0.3,0c0,0,0-0.1,0-0.1
			c0-0.7-0.1-1.5-0.1-2.2c-0.1-1.5-0.1-3-0.2-4.4C1,60.6,0.9,56.2,1,52.1c0-5.5,0.2-10.2,0.6-15.4c0.2-3.7,0.6-7.8,0.9-10.9
			c0.1-0.5,0.1-1.2,0.2-1.8c0.1-0.9,0.2-1.9,0.3-2.8c0.3-2.5,0.7-5.1,0.8-7.7c0.1-1.4,0-2.9-0.1-4.3C3.6,8.6,3.5,7.9,3.3,7.2
			C3.2,6.9,3.1,6.5,3,6.2C3,6,2.9,5.8,2.9,5.7l0-0.1c0.1,0,0.1,0,0.6-0.1l1.2-0.1c0.8-0.1,1.5-0.2,2.3-0.3C7.9,5,9,4.9,10.1,4.7
			c3-0.3,6.1-0.6,8.9-0.9c3.8-0.3,7.7-0.7,11.6-1c2.1-0.2,4.5-0.3,6.8-0.5C39.7,2.2,42,2,44.1,1.9c3.4-0.2,6.8-0.3,10.5-0.5
			c0.4,0,0.7,0,1.1,0C61.4,1.2,67.7,1,72.3,1c1.8,0,3.2,0,4.8,0c1.7,0,3.3,0,5,0c0.5,0,1.1,0,1.6,0c1.7,0,3.3,0,5.2,0
			c2.8,0.1,5.7,0.1,8.9,0.2c2.5,0.1,6.1,0.2,8.9,0.3c4.8,0.3,9.6,0.5,14.4,0.8c1.6,0.1,3.1,0.2,4.8,0.3c1.8,0.1,3.8,0.3,5.9,0.5
			c2.1,0.2,4.2,0.4,6.4,0.6c0.8,0.1,1.6,0.2,2.5,0.2c0,1,0,2.1,0,3c0,1.1,0,2-0.1,2.9c-0.1,1.1,0,3.1-0.1,5.6
			c-0.1,1.3-0.1,1.1-0.1,1.7c0,1.2-0.1,2.3-0.1,3.4C140.2,21.9,140.1,23.1,140,24.7z M86.3,68.4c0,0,0,0,0.2,0
			C86.1,68.4,85.3,68.4,86.3,68.4z M86.7,68.3c1.5,0,3.6-0.1,4.7-0.1c0.3,0-0.3,0,0.2,0c0.7,0,1.4,0,2.5,0c0.1,0-2.1,0-2.2,0
			c-0.8,0-1.1,0-1.6,0c-1.7,0-2.1,0-3.4,0C87.2,68.4,86.6,68.4,86.7,68.3z"/>
	</g>
	<g>
		<path fill="#FFFFFF" d="M61.1,37.2c-1.5-1.3-3.6-1.7-5.4-1.1c-1.9,0.6-3.2,1.9-4.5,2.9c-1.3,1.1-2.7,2.1-4.2,2.4
			c-0.4,0-0.7,0-0.9-0.1c-0.2-0.1-0.3-0.3-0.3-0.6c0-0.3,0.1-0.7,0.2-1.2c0.1-0.4,0.2-1.1-0.1-1.6l-0.8-1.7l-0.2,1.9
			c-0.2,2.3-1,4.5-2.3,6.3c-0.6,0.9-1.4,1.8-2.2,2.6c-0.4,0.4-0.9,0.7-1.3,1c-0.5,0.3-0.9,0.6-1.4,0.8c-0.5,0.2-0.9,0.1-1.3-0.1
			c-0.4-0.2-0.7-0.6-0.8-1.1c-0.3-0.9-0.1-2,0.4-3c1-2,3-3.6,3.7-6.1l0.9-3.3l-1.9,2.9c-1.4,2.2-3.2,4.2-5.1,6c-1,0.9-2,1.8-3,2.7
			c-1,0.9-2,1.8-3.1,1.7c-0.5,0-0.9-0.3-1.2-0.7c-0.2-0.5-0.3-1.1-0.2-1.7c0.1-1.3,0.5-2.5,1-3.6c0.3-0.6,0.7-1.2,0.9-1.8
			c0.3-0.7,0.5-1.4,0.4-2.2c-0.1-0.8-0.5-1.7-1.4-2C26.5,36,26.1,36,25.6,36c-0.4,0.1-0.9,0.3-1.2,0.8l0.9,0.6
			c0.2-0.3,0.7-0.4,1.1-0.2c0.4,0.2,0.7,0.6,0.7,1.2c0.1,1.1-0.6,2.2-1.2,3.4c-0.6,1.3-1,2.6-1.2,4.1c0,0.7,0,1.5,0.4,2.3
			c0.4,0.8,1.3,1.3,2.1,1.3c0.8,0,1.6-0.3,2.2-0.7c0.6-0.4,1.1-0.9,1.6-1.3c1-0.9,2-1.8,3-2.7c2-1.9,3.8-3.9,5.3-6.2l-1-0.4
			c-0.5,2.1-2.4,3.7-3.6,5.9c-0.3,0.6-0.5,1.2-0.6,1.8c-0.1,0.6-0.1,1.4,0.1,2c0.2,0.6,0.6,1.3,1.3,1.7c0.7,0.4,1.5,0.4,2.1,0.1
			c0.6-0.2,1.2-0.5,1.7-0.9c0.5-0.3,1-0.7,1.5-1.1c0.9-0.8,1.7-1.7,2.4-2.8c1.4-2,2.2-4.4,2.5-6.8l-1,0.2c0.1,0.2,0.1,0.5,0,0.9
			c-0.1,0.4-0.2,0.8-0.3,1.4c0,0.5,0.2,1.3,0.8,1.6c0.5,0.3,1.1,0.3,1.6,0.3c2-0.3,3.5-1.5,4.8-2.6c1.3-1.1,2.6-2.3,4.2-2.7
			c1.5-0.5,3.2-0.1,4.4,0.9L61.1,37.2z"/>
		<path fill-rule="evenodd" clip-rule="evenodd" fill="#FFFFFF" d="M27.8,49.3c-0.1,0-0.1,0-0.2,0C27.6,49.3,27.8,49.3,27.8,49.3z"
			/>
		<path fill-rule="evenodd" clip-rule="evenodd" fill="#FFFFFF" d="M25.7,47.1c0-0.1-0.1-0.2,0-0.2C25.7,46.9,25.7,47,25.7,47.1z"/>
		<path fill-rule="evenodd" clip-rule="evenodd" fill="#FFFFFF" d="M25.7,46.8c0,0,0-0.2,0-0.2C25.7,46.5,25.7,46.7,25.7,46.8z"/>
		<path fill-rule="evenodd" clip-rule="evenodd" fill="#FFFFFF" d="M25.6,45.8c0,0,0-0.2,0-0.2C25.6,45.6,25.6,45.7,25.6,45.8z"/>
		<path fill-rule="evenodd" clip-rule="evenodd" fill="#FFFFFF" d="M25.8,45.4c0-0.1,0-0.2,0.1-0.4C25.8,45.2,25.8,45.3,25.8,45.4z"
			/>
		<path fill-rule="evenodd" clip-rule="evenodd" fill="#FFFFFF" d="M25.4,44.1c0.1-0.2,0.2-0.7,0.2-0.8
			C25.6,43.5,25.5,43.8,25.4,44.1z"/>
		<path fill-rule="evenodd" clip-rule="evenodd" fill="#FFFFFF" d="M25.8,43.6c0.1-0.3,0.3-0.7,0.4-1c0,0-0.2,0.5-0.2,0.6
			c0,0.1,0,0.1-0.1,0.2C25.9,43.4,25.9,43.5,25.8,43.6z"/>
		<path fill-rule="evenodd" clip-rule="evenodd" fill="#FFFFFF" d="M27.3,40.6c0,0,0,0,0-0.1c0,0,0,0,0,0L27.3,40.6z"/>
		<path fill-rule="evenodd" clip-rule="evenodd" fill="#FFFFFF" d="M27.7,39.3c0-0.2,0.1-0.7,0-1c0,0,0,0,0-0.1c0-0.2-0.1-0.5,0-0.2
			C27.8,38.4,27.7,38.8,27.7,39.3z"/>
		<path fill-rule="evenodd" clip-rule="evenodd" fill="#FFFFFF" d="M27.8,39.1c0-0.1,0-0.2,0-0.3C27.9,38.9,27.8,39.1,27.8,39.1z"/>
		<path fill-rule="evenodd" clip-rule="evenodd" fill="#FFFFFF" d="M27.5,38.8c0,0,0-0.2,0-0.3C27.5,38.5,27.5,38.7,27.5,38.8z"/>
		<path fill-rule="evenodd" clip-rule="evenodd" fill="#FFFFFF" d="M27.8,38.8c0-0.1,0-0.3,0-0.4C27.8,38.4,27.8,38.7,27.8,38.8z"/>
		<path fill-rule="evenodd" clip-rule="evenodd" fill="#FFFFFF" d="M27.9,38.7c0-0.1,0-0.3,0-0.4C27.9,38.3,27.9,38.5,27.9,38.7z"/>
		<path fill-rule="evenodd" clip-rule="evenodd" fill="#FFFFFF" d="M27.5,38.5c0,0,0-0.1,0-0.2C27.4,38.3,27.4,38.4,27.5,38.5z"/>
		<path fill-rule="evenodd" clip-rule="evenodd" fill="#FFFFFF" d="M27.5,38.3c0-0.1-0.1-0.5-0.2-0.6C27.4,37.9,27.5,38.1,27.5,38.3
			z"/>
		<path fill-rule="evenodd" clip-rule="evenodd" fill="#FFFFFF" d="M27.8,38.2c0-0.2-0.1-0.4-0.2-0.6C27.7,37.7,27.8,38,27.8,38.2z"
			/>
		<path fill-rule="evenodd" clip-rule="evenodd" fill="#FFFFFF" d="M27.6,37.8c0-0.1-0.1-0.2-0.1-0.3C27.5,37.5,27.5,37.6,27.6,37.8
			z"/>
		<path fill-rule="evenodd" clip-rule="evenodd" fill="#FFFFFF" d="M27.5,37.5c-0.1-0.2-0.1-0.2-0.1-0.2
			C27.4,37.3,27.5,37.4,27.5,37.5z"/>
		<path fill-rule="evenodd" clip-rule="evenodd" fill="#FFFFFF" d="M27.4,37.2c0,0-0.2-0.2-0.2-0.2c0.1,0.1,0,0.1,0,0.1
			C27.3,37.1,27.3,37.1,27.4,37.2z"/>
		<path fill-rule="evenodd" clip-rule="evenodd" fill="#FFFFFF" d="M26.7,36.9C26.8,37,27.1,37.1,26.7,36.9L26.7,36.9z"/>
		<path fill-rule="evenodd" clip-rule="evenodd" fill="#FFFFFF" d="M26.4,36.9c-0.1,0-0.2,0-0.4,0C26.1,36.8,26.3,36.9,26.4,36.9z"
			/>
		<path fill-rule="evenodd" clip-rule="evenodd" fill="#FFFFFF" d="M26.3,36.9c0,0-0.2,0-0.1,0C26.2,36.9,26.2,36.9,26.3,36.9z"/>
		<path fill-rule="evenodd" clip-rule="evenodd" fill="#FFFFFF" d="M26,37c-0.1,0-0.1,0-0.2,0C25.8,37,26,37,26,37z"/>
		<path fill-rule="evenodd" clip-rule="evenodd" fill="#FFFFFF" d="M25.4,37.2C25.3,37.4,25.3,37.4,25.4,37.2L25.4,37.2z"/>
		<path fill-rule="evenodd" clip-rule="evenodd" fill="#FFFFFF" d="M26,42c0-0.1,0-0.1,0.1-0.2c0.2-0.3,0.1-0.2,0.2-0.4
			C26.2,41.6,26.1,41.7,26,42z"/>
		<path fill-rule="evenodd" clip-rule="evenodd" fill="#FFFFFF" d="M27.6,38.5c0-0.1,0-0.1,0-0.2c0,0,0,0,0,0c0-0.2,0-0.3-0.1-0.4
			c0,0,0,0,0,0c-0.1-0.2-0.1-0.4-0.3-0.7c0.1,0.1,0.2,0.4,0.3,0.7c0.1,0.3,0.1,0.6,0.1,0.7c0,0,0-0.3,0-0.4
			C27.6,38.4,27.6,38.6,27.6,38.5z"/>
		<path fill-rule="evenodd" clip-rule="evenodd" fill="#FFFFFF" d="M27.8,38.2C27.8,38.1,27.8,38.1,27.8,38.2c0,0,0-0.2,0-0.2
			C27.8,38,27.8,38.5,27.8,38.2z"/>
		<path fill-rule="evenodd" clip-rule="evenodd" fill="#FFFFFF" d="M26,36.6L26,36.6c-0.2,0-0.6,0.1-0.7,0.2c0.2-0.2,0.8-0.2,1-0.2
			c0,0,0.1,0,0.2,0c0.6,0.1,1.1,0.7,1.3,1.4c-0.1-0.3-0.4-0.9-0.7-1.1c0,0,0,0,0,0C26.9,36.7,26.4,36.5,26,36.6z"/>
		<path fill-rule="evenodd" clip-rule="evenodd" fill="#FFFFFF" d="M26.2,36.9c0,0-0.1,0-0.2,0C26,36.9,26.1,36.9,26.2,36.9z"/>
		<path fill-rule="evenodd" clip-rule="evenodd" fill="#FFFFFF" d="M53,38.9c0.1-0.1,0.3-0.2,0.4-0.3c0.3-0.2,0.6-0.4,0.9-0.6
			c0.3-0.2,0.5-0.4,0.8-0.5c0.2-0.1,0.3-0.2,0.4-0.2c0.4-0.2,0.8-0.3,1-0.3c0.3-0.1,0.7-0.1,1-0.1c0,0,0.1,0,0.2,0
			c0.7,0,1.2,0.1,2.1,0.5c0.1,0,0.1,0,0.3,0.1c0.1,0,0.2,0.1,0.2,0.1c0.2,0.1,0.1,0,0.4,0.2c0,0,0,0,0-0.1c0.1,0,0-0.2,0.1-0.2
			c-0.2-0.2-0.1-0.2-0.3-0.3c-0.1-0.1-0.3-0.2-0.4-0.3c-0.2-0.1-0.3-0.2-0.5-0.3c0,0-0.2-0.1-0.2-0.1c-0.3-0.1-0.5-0.2-0.8-0.3
			c0,0-0.1,0-0.1,0c-0.6-0.2-1.3-0.3-2.1-0.1C56.2,36,56.1,36,56,36c-0.6,0.1-1.5,0.6-1.8,0.7c-0.1,0.1-0.1,0.1-0.2,0.1
			c-0.1,0-0.4,0.2-0.6,0.3c-0.1,0.1-0.2,0.2-0.4,0.3c-0.3,0.2-0.5,0.4-0.7,0.5c0,0-0.2,0.2-0.3,0.3c-0.3,0.2-0.8,0.7-1,0.9
			c-0.1,0.1-0.3,0.2-0.4,0.3c-0.1,0.1-0.2,0.2-0.2,0.2c-0.3,0.3-1.3,0.9-1.8,1.2c-0.4,0.2-0.9,0.4-1.3,0.5c-0.1,0-0.2,0-0.3,0
			c-0.1,0-0.3,0-0.5,0c-0.3,0-0.5-0.1-0.7-0.2c-0.2-0.2-0.2-0.4-0.2-0.7c0-0.1,0-0.2,0.1-0.4c0-0.1,0.1-0.3,0.1-0.4
			c0-0.1,0.1-0.3,0.1-0.5c0-0.1,0-0.2,0-0.3c0-0.1,0-0.2,0-0.4c0-0.2-0.1-0.3-0.1-0.5l-0.1-0.2l-0.6-1.5l-0.2,1.6
			c0,0.4-0.1,0.9-0.2,1.3c-0.2,0.8-0.3,1.5-0.7,2.3c-0.1,0.2-0.1,0.4-0.2,0.6c0,0.1,0,0.1,0,0.1c-0.2,0.4-0.4,0.9-0.7,1.3
			c0,0,0,0,0,0.1c-0.4,0.6-0.9,1.3-1.2,1.7c-0.3,0.3-0.6,0.7-1,1.1c-0.2,0.2-0.4,0.3-0.5,0.5c-0.3,0.3-0.8,0.7-1.2,0.9
			c-0.1,0.1-0.2,0.2-0.3,0.2c-0.2,0.1-0.4,0.2-0.6,0.4c-0.4,0.2-0.8,0.4-1.3,0.4c-0.4,0-0.8-0.2-1-0.4c-0.2-0.1-0.3-0.3-0.4-0.5
			c-0.2-0.4-0.3-0.8-0.4-1.2c0-0.1,0-0.2,0-0.3c0-0.3,0.1-0.5,0.1-0.8c0.2-0.7,0.5-1.3,0.9-1.9c0.5-0.8,1.3-1.8,1.9-2.7
			c0.3-0.5,0.3-0.4,0.4-0.6c0.4-0.6,0.7-1.4,0.9-2.1l0.5-1.9l-1.1,1.6c-0.1,0.1-0.1,0.2-0.2,0.3c-1.8,2.8-4.2,5.3-6.7,7.4
			c-0.2,0.2-0.5,0.4-0.7,0.6c0,0-0.2,0.1-0.2,0.2c-0.3,0.3-0.7,0.6-1.1,0.9c-0.1,0.1-0.3,0.3-0.5,0.4c-0.1,0,0.1-0.1,0,0
			c-0.1,0.1-0.4,0.3-0.7,0.5c-0.3,0.2-0.7,0.2-0.9,0.3c0,0,0,0,0,0c-0.1,0-0.2,0-0.3,0c-0.8,0-1.3-0.5-1.6-1.2c0-0.1,0-0.2-0.1-0.4
			c0,0.1,0.1,0.3,0.1,0.3c-0.1-0.2-0.1-0.5-0.1-0.7c0-0.3,0-0.4,0-0.7c0-0.1,0,0.1,0-0.1c0-0.4,0.1-0.6,0.1-1c0-0.1,0.1-0.5,0.1-0.7
			c0-0.1,0,0.1,0,0c0.1-0.3,0.2-0.6,0.3-0.9c0-0.1,0-0.1,0.1-0.2c0-0.1,0,0,0-0.1c0-0.1,0,0.1,0,0.1c0.1-0.2,0-0.1,0.1-0.2
			c0.1-0.2,0.2-0.4,0.2-0.6c0.1-0.2,0.2-0.4,0.3-0.6c0.1-0.1,0.2-0.3,0.2-0.4c0.1-0.1,0.2-0.3,0.2-0.4c0-0.1,0,0.1,0-0.1
			c0.3-0.6,0.5-1.2,0.6-1.7c-0.1,0.7-0.4,1.2-0.7,1.8c-0.1,0.1-0.1,0.3-0.2,0.3c0,0,0.1-0.1,0,0c0,0,0,0.1-0.1,0.1
			c0-0.1,0,0-0.1,0.1c-0.3,0.5-0.5,0.9-0.6,1.3c0,0.1,0-0.1,0,0c-0.1,0.2-0.1,0.3-0.2,0.5c0,0.1-0.1,0.2-0.1,0.1
			c0.2-0.6,0.5-1.4,0.9-2.1c0.1-0.2,0.2-0.4,0.3-0.5c-0.2,0.3-0.3,0.5-0.5,0.8c-0.2,0.3-0.4,0.7-0.5,1.1c0,0.1-0.1,0.2-0.1,0.2
			c0,0-0.1,0.2-0.1,0.3c0,0,0,0.1-0.1,0.2c0,0.1-0.1,0.3-0.1,0.4c-0.1,0.3-0.2,0.6-0.2,0.9c0,0.1,0,0,0,0c0.1-0.4,0.1-0.4,0.2-0.8
			c0,0,0,0.1,0,0.1c0-0.1,0.1-0.2,0.1-0.2c-0.1,0.3-0.1,0.3-0.1,0.2c0.2-0.7,0.6-1.5,0.9-2.1c0-0.1,0-0.1,0.1-0.2
			c0.3-0.6,0.7-1.3,0.9-1.9c-0.2,0.8-0.7,1.5-1.1,2.4c0,0,0,0-0.1,0.1c-0.2,0.4-0.4,0.8-0.5,1.1c-0.1,0.1-0.1,0.3-0.2,0.4
			c-0.3,1-0.5,1.7-0.5,2.7c0,0,0,0.1,0,0.1c0-0.1,0-0.1,0-0.2c0-0.2,0-0.3,0-0.5c0-0.8,0.3-2,0.7-2.9c0-0.1,0,0-0.1,0
			c-0.2,0.5-0.3,0.9-0.5,1.4c-0.1,0.2-0.1,0,0.1-0.4c0.2-0.7,0.6-1.7,0.9-2.1c0.5-0.9,1-1.7,1.1-2.6c0.2-0.9-0.1-1.9-0.9-2.2
			c0.4,0.2,0.7,0.5,0.8,1c0.1,0.4,0.1,0.9,0,1.3c0,0,0,0,0,0.1c-0.2,0.9-0.8,1.8-1.2,2.6c-0.2,0.3-0.4,1-0.6,1.3
			c0-0.1,0.1-0.4,0.2-0.8c-0.2,0.4-0.3,0.7-0.4,1c-0.1,0.3-0.2,0.7-0.2,0.9c0,0,0,0,0,0c0-0.1,0,0.2,0,0.2c0,0.2,0,0.2,0,0.3
			c0,0.1,0,0.1-0.1,0.4c-0.1,0.8-0.1,1.6,0.1,2.4c0,0.1,0.1,0.3,0.1,0.3c0,0.1,0,0,0,0.1c0,0,0,0.1,0.1,0.1c0.2,0.3,0.5,0.6,0.8,0.8
			c0.8,0.5,1.9,0.3,2.5,0.1c0.1-0.1,0,0,0.1-0.1c1.1-0.5,1.8-1.3,2.7-2c0.1-0.1,0,0,0.1-0.1c0.1-0.1,0.1-0.1,0.2-0.2
			c0,0,0.1-0.1,0.2-0.1c1-0.8,1.9-1.7,2.9-2.7c0.9-0.9,1.7-1.8,2.4-2.7c0.6-0.7,1.1-1.4,1.6-2.1c0.2-0.3,0.3-0.5,0.5-0.7l-0.8-0.3
			c-0.2,0.7-0.5,1.3-0.8,1.9c-0.4,0.6-0.9,1.2-1.2,1.7c-0.1,0.1-0.2,0.2-0.2,0.3c-0.1,0.1-0.3,0.3-0.3,0.5c-0.3,0.4-0.6,0.9-0.9,1.3
			c-0.3,0.5-0.5,1-0.7,1.6c-0.1,0.3-0.1,0.7-0.1,1c0,0.2,0,0.5,0,0.7c0.1,0.7,0.4,1.3,0.9,1.8c0.3,0.3,0.7,0.6,1.2,0.7
			c0.5,0.1,0.9,0,1.3-0.1c0.9-0.3,1.8-0.9,2.4-1.4c0.6-0.4,1.1-0.9,1.6-1.4c0,0,0.1-0.1,0.2-0.2c0.8-0.8,1.5-1.9,2-2.7
			c0.3-0.5,0.3-0.6,0.5-0.9c0.2-0.3,0.3-0.6,0.4-0.9c0-0.1,0.1-0.2,0.1-0.3c0.1-0.3,0.2-0.6,0.3-1c0.2-0.5,0.3-1.1,0.4-1.8
			c0-0.3,0.1-0.6,0.1-0.9l-0.8,0.2c0.1,0.2,0.1,0.4,0.1,0.7c-0.1,0.4-0.2,0.9-0.3,1.4c-0.1,0.5,0,1.3,0.6,1.7
			c0.4,0.3,0.7,0.4,1.1,0.4c0.4,0,0.9,0,1.3-0.2c0.2,0,0.4-0.1,0.6-0.2c0.2-0.1,0.4-0.2,0.6-0.3c0.6-0.3,1.2-0.7,1.6-1
			c0.2-0.1,0.5-0.4,0.9-0.7c0.2-0.2,0.2-0.1,0.3-0.2c0.2-0.1,0.4-0.3,0.5-0.4C52.5,39.3,52.8,39,53,38.9z M25.8,44.3
			C25.8,44.3,25.8,44.2,25.8,44.3C25.8,44.3,25.7,44.5,25.8,44.3z M25.8,44.2c0.1-0.3,0.2-0.7,0.3-0.9c0-0.1,0,0,0,0
			c0.1-0.2,0.1-0.3,0.2-0.5c0,0-0.1,0.4-0.1,0.4c-0.1,0.2-0.1,0.2-0.1,0.3C25.9,43.8,25.9,43.9,25.8,44.2
			C25.8,44.1,25.8,44.2,25.8,44.2z"/>
	</g>
	<g>
		<path fill="#FFFFFF" d="M51.8,38.4c0,0-0.1,0.1-0.3,0.3c-0.2,0.2-0.5,0.5-0.9,1c-0.7,0.9-1.9,2.4-2.2,4.6
			c-0.1,0.6-0.1,1.2,0.2,1.9c0.2,0.7,0.8,1.3,1.6,1.5c0.8,0.2,1.6,0.1,2.3-0.2c0.7-0.3,1.3-0.7,1.9-1.2c1.2-0.9,2.4-2,3.5-3.3
			c0.5-0.6,1.1-1.3,1.6-2c0.5-0.7,1.1-1.3,1.6-2c0.3-0.4,0.6-0.7,0.9-1.2l0.1-0.2c0.1-0.1,0.1-0.3,0-0.5c-0.1-0.3-0.4-0.6-0.8-0.6
			c-0.1,0-0.2,0-0.3,0.1c0,0-0.1,0.1-0.1,0.1l-0.1,0.1l-0.2,0.2c-0.1,0.1-0.2,0.2-0.3,0.3c-0.6,0.8-1,1.7-1.5,2.6
			c-0.4,0.9-0.8,1.9-0.9,2.9c-0.2,1-0.2,2.5,1,3.3c1.1,0.7,2.4,0.6,3.5,0.3c1.1-0.3,2.1-0.7,3.1-1.2c2-1.1,3.8-2.5,5.4-4.1
			c3.4-3,6.5-6.7,9-10.7c2.5-4,5.1-8.3,5.9-13.2c0.1-0.6,0.2-1.2,0.2-1.9c0-0.4,0-0.8-0.3-1.2c-0.3-0.4-1-0.8-1.4-0.6
			c-0.1,0.1-0.2,0.1-0.3,0.3L84,14.2l-0.2,0.4l-0.5,0.8l-1,1.5c-1.3,2.1-2.4,4.2-3.5,6.3c-2.2,4.2-4.1,8.5-5.7,12.7
			c-0.8,2.1-1.7,4.2-1.9,6.5c-0.2,2.3,0.3,4.7,1.9,6.3c0.8,0.8,1.9,1.4,2.9,1.6c1.1,0.2,2.2,0.2,3.2,0c2.1-0.4,3.8-1.8,4.9-3.2
			c1.2-1.5,1.9-3.2,2.4-4.8c0.5-1.6,0.8-3.2,1-4.6c0.4-2.9,0.9-5.4,1.4-7.4c0.5-2,1-3.6,1.3-4.7c0.4-1.1,0.5-1.6,0.5-1.6l-1-0.4
			c0,0-0.2,0.6-0.6,1.7c-0.3,1.1-0.8,2.7-1.3,4.7c-0.5,2.1-1,4.6-1.4,7.5c-0.5,2.8-1.1,6.2-3.2,8.9c-1.1,1.3-2.5,2.5-4.3,2.9
			c-1.7,0.4-3.8,0.1-5.1-1.3c-1.3-1.3-1.8-3.4-1.6-5.5c0.2-2.1,1-4.1,1.8-6.2c1.6-4.2,3.5-8.4,5.7-12.6c1.1-2.1,2.3-4.2,3.5-6.2
			l0.9-1.5l0.8-1.2l0,0c0.1,0.1,0.1,0.3,0.1,0.6c0,0.5-0.1,1.1-0.2,1.7c-0.8,4.6-3.2,8.9-5.8,12.8c-2.5,4-5.5,7.6-8.8,10.5
			c-1.6,1.5-3.4,2.9-5.2,3.9c-0.9,0.5-1.9,0.9-2.9,1.1c-0.9,0.2-2,0.3-2.6-0.2c-0.3-0.2-0.5-0.5-0.6-0.9c-0.1-0.4-0.1-0.8,0-1.3
			c0.2-0.9,0.5-1.8,0.9-2.7c0.4-0.9,0.8-1.7,1.3-2.4c0.1-0.1,0.1-0.1,0.2-0.2l0.1-0.1c-0.3-0.4-0.1-0.1-0.2-0.2c0,0,0,0,0,0
			c0,0,0,0,0,0c0,0,0,0.1,0,0c0,0,0,0,0,0c-0.4-0.2-0.1,0-0.2-0.1l0,0l0,0.1c-0.2,0.3-0.5,0.7-0.7,1c-0.6,0.7-1.2,1.4-1.7,2.1
			c-0.5,0.7-1,1.3-1.5,1.9c-1.1,1.2-2.2,2.3-3.3,3.1c-1.1,0.9-2.3,1.5-3.3,1.2c-0.9-0.3-1.2-1.3-1-2.3c0.3-1.9,1.3-3.3,2-4.1
			c0.3-0.4,0.7-0.7,0.9-0.9c0.2-0.2,0.3-0.3,0.3-0.3L51.8,38.4z"/>
		<path fill-rule="evenodd" clip-rule="evenodd" fill="#FFFFFF" d="M77.5,49.5c0.1,0,0.2,0,0.4,0C77.8,49.4,77.6,49.5,77.5,49.5z"/>
		<path fill-rule="evenodd" clip-rule="evenodd" fill="#FFFFFF" d="M83.1,47.7c0.1-0.1,0.4-0.4,0.3-0.3
			C83.3,47.6,83.2,47.6,83.1,47.7z"/>
		<path fill-rule="evenodd" clip-rule="evenodd" fill="#FFFFFF" d="M83.6,47.2c0.1-0.2,0.2-0.3,0.3-0.4
			C83.9,46.9,83.7,47.2,83.6,47.2z"/>
		<path fill-rule="evenodd" clip-rule="evenodd" fill="#FFFFFF" d="M84.6,45.6c0.1-0.1,0.1-0.2,0.2-0.4
			C84.9,45.2,84.7,45.5,84.6,45.6z"/>
		<path fill-rule="evenodd" clip-rule="evenodd" fill="#FFFFFF" d="M85.2,44.9c0.1-0.3,0.2-0.4,0.4-0.7
			C85.5,44.3,85.3,44.6,85.2,44.9z"/>
		<path fill-rule="evenodd" clip-rule="evenodd" fill="#FFFFFF" d="M85.6,42.5c0.1-0.4,0.4-1.2,0.4-1.5
			C85.9,41.6,85.7,42.1,85.6,42.5z"/>
		<path fill-rule="evenodd" clip-rule="evenodd" fill="#FFFFFF" d="M86.1,41.6c0.1-0.5,0.4-1.4,0.5-2c0-0.1-0.2,0.9-0.2,1.1
			c0,0.1-0.1,0.3-0.1,0.4C86.2,41.2,86.2,41.4,86.1,41.6z"/>
		<path fill-rule="evenodd" clip-rule="evenodd" fill="#FFFFFF" d="M87.3,35.4c0,0,0,0,0-0.2c0,0,0-0.1,0-0.1L87.3,35.4z"/>
		<path fill-rule="evenodd" clip-rule="evenodd" fill="#FFFFFF" d="M87.7,32.8c0.1-0.4,0.3-1.3,0.4-1.8c0-0.1,0-0.1,0-0.2
			c0.1-0.3,0.2-1,0.1-0.3C88.1,31.3,87.9,31.9,87.7,32.8z"/>
		<path fill-rule="evenodd" clip-rule="evenodd" fill="#FFFFFF" d="M87.9,32.6c0-0.2,0.1-0.3,0.1-0.5C88,32.1,87.9,32.5,87.9,32.6z"
			/>
		<path fill-rule="evenodd" clip-rule="evenodd" fill="#FFFFFF" d="M87.7,31.9c0.1-0.2,0.1-0.4,0.1-0.6
			C87.8,31.4,87.8,31.6,87.7,31.9z"/>
		<path fill-rule="evenodd" clip-rule="evenodd" fill="#FFFFFF" d="M88,32.1c0.1-0.3,0.1-0.5,0.2-0.7C88.2,31.1,88,31.8,88,32.1z"/>
		<path fill-rule="evenodd" clip-rule="evenodd" fill="#FFFFFF" d="M88.1,31.8c0-0.1,0.1-0.5,0.2-0.8C88.2,31.3,88.1,31.5,88.1,31.8
			z"/>
		<path fill-rule="evenodd" clip-rule="evenodd" fill="#FFFFFF" d="M87.8,31.2c0,0,0.1-0.3,0.1-0.5C87.9,30.8,87.8,31,87.8,31.2z"/>
		<path fill-rule="evenodd" clip-rule="evenodd" fill="#FFFFFF" d="M87.9,30.9c0-0.2,0.2-1,0.3-1.3C88.1,30.1,88,30.4,87.9,30.9z"/>
		<path fill-rule="evenodd" clip-rule="evenodd" fill="#FFFFFF" d="M88.3,30.8c0.1-0.3,0.2-0.8,0.3-1.1
			C88.4,30.1,88.4,30.4,88.3,30.8z"/>
		<path fill-rule="evenodd" clip-rule="evenodd" fill="#FFFFFF" d="M88.4,29.9c0-0.2,0.1-0.4,0.1-0.5C88.5,29.4,88.4,29.7,88.4,29.9
			z"/>
		<path fill-rule="evenodd" clip-rule="evenodd" fill="#FFFFFF" d="M88.5,29.4c0-0.2,0.1-0.3,0.1-0.5C88.6,29.1,88.6,29.2,88.5,29.4
			z"/>
		<path fill-rule="evenodd" clip-rule="evenodd" fill="#FFFFFF" d="M88.7,28.8c0-0.1,0.1-0.6,0.1-0.4c0,0.1,0,0.1,0,0.1
			C88.8,28.7,88.8,28.6,88.7,28.8z"/>
		<path fill-rule="evenodd" clip-rule="evenodd" fill="#FFFFFF" d="M88.9,27.4C88.8,27.7,88.6,28.3,88.9,27.4L88.9,27.4z"/>
		<path fill-rule="evenodd" clip-rule="evenodd" fill="#FFFFFF" d="M89,26.7c0.1-0.3,0.2-0.5,0.3-0.8C89.2,26.1,89.1,26.5,89,26.7z"
			/>
		<path fill-rule="evenodd" clip-rule="evenodd" fill="#FFFFFF" d="M89.1,26.5c0,0.1,0.1-0.4,0.1-0.3L89.1,26.5z"/>
		<path fill-rule="evenodd" clip-rule="evenodd" fill="#FFFFFF" d="M89.1,25.8c0-0.1,0.1-0.3,0.1-0.5C89.2,25.4,89.1,25.7,89.1,25.8
			z"/>
		<path fill-rule="evenodd" clip-rule="evenodd" fill="#FFFFFF" d="M89.7,24C89.9,23.5,89.9,23.3,89.7,24L89.7,24z"/>
		<path fill-rule="evenodd" clip-rule="evenodd" fill="#FFFFFF" d="M86.3,38.8c0-0.1,0-0.2,0.1-0.3c0-0.2,0.1-0.6,0.2-0.8
			C86.5,37.9,86.4,38.3,86.3,38.8z"/>
		<path fill-rule="evenodd" clip-rule="evenodd" fill="#FFFFFF" d="M87.8,31.4c0-0.1,0-0.1,0.1-0.3c0,0,0,0.1,0,0.1
			c0.1-0.3,0.1-0.5,0.2-0.8c0,0,0,0.1,0,0.1c0.1-0.4,0.2-0.8,0.4-1.6c-0.2,0.7-0.6,2.4-0.7,3c0.1-0.3,0.1-0.4,0.1-0.7
			C87.9,31.2,87.8,31.6,87.8,31.4z"/>
		<path fill-rule="evenodd" clip-rule="evenodd" fill="#FFFFFF" d="M88.2,30.8C88.3,30.7,88.3,30.8,88.2,30.8c0,0,0.1-0.3,0.1-0.3
			C88.3,30.6,88.1,31.4,88.2,30.8z"/>
		<path fill-rule="evenodd" clip-rule="evenodd" fill="#FFFFFF" d="M89.5,26L89.5,26c0.1-0.4,0.3-1.1,0.4-1.3
			c-0.2,0.5-0.5,1.5-0.6,1.9c0,0.1-0.1,0.2-0.1,0.3c-0.3,1.1-0.7,2.4-0.9,3.6c0.1-0.5,0.4-1.7,0.6-2.4c0-0.1,0,0,0,0.1
			C89.1,27.6,89.3,26.9,89.5,26z"/>
		<path fill-rule="evenodd" clip-rule="evenodd" fill="#FFFFFF" d="M89.1,26.3c0-0.2,0.1-0.3,0.1-0.4C89.2,25.9,89.1,26.2,89.1,26.3
			z"/>
		<path fill-rule="evenodd" clip-rule="evenodd" fill="#FFFFFF" d="M55.8,43.8c-0.2,0.2-0.4,0.4-0.7,0.6c-0.5,0.5-1,0.9-1.6,1.3
			c-0.5,0.4-1,0.7-1.6,0.9c-0.4,0.2-0.5,0.2-0.8,0.2c-0.9,0.1-1.3-0.4-1.5-0.7c-0.3-0.4-0.4-1.3-0.3-1.8c0-0.1,0-0.3,0-0.3
			c0.3-1.4,0.6-2.3,1.7-3.7c0.1-0.1,0.1-0.2,0.3-0.5c0.1-0.1,0.2-0.3,0.4-0.4c0.2-0.3,0-0.1,0.5-0.6c0,0-0.1,0.1-0.1,0.1
			c0-0.1-0.3,0.1-0.2-0.1c-0.4,0.3-0.3,0.2-0.6,0.4c-0.2,0.2-0.5,0.5-0.7,0.7c-0.2,0.2-0.5,0.5-0.6,0.8c0,0-0.3,0.4-0.3,0.4
			c-0.3,0.5-0.5,0.8-0.7,1.3c0,0-0.1,0.2-0.1,0.2c-0.2,0.5-0.4,1.1-0.5,1.8c-0.1,0.6-0.1,1.4,0.4,2.3c0.1,0.2,0.3,0.4,0.5,0.5
			c0.6,0.5,1.5,0.6,2.2,0.5c0.7-0.1,1.3-0.5,1.6-0.6c0.2-0.1,0.2-0.1,0.4-0.2c0.1-0.1,0.6-0.4,1.1-0.7c0.1-0.1,0.4-0.3,0.7-0.6
			c0.5-0.4,0.9-0.8,1.3-1.1c0.2-0.2,0.3-0.4,0.5-0.6c0.5-0.5,1.3-1.5,1.7-2c0.3-0.3,0.4-0.5,0.6-0.7c0.2-0.2,0.3-0.4,0.3-0.4
			c0.2-0.3,0.7-0.9,1.2-1.5c0.3-0.3,0.5-0.7,0.8-1c0.1-0.1,0.1-0.2,0.2-0.3c0-0.1,0.1-0.1,0.1-0.1c0,0,0-0.1,0.1-0.2
			c0.2-0.6-0.3-1-0.8-0.9c-0.2,0-0.4,0.2-0.4,0.2c-0.1,0-0.1,0.1-0.2,0.2c-0.1,0.1-0.2,0.2-0.3,0.3c-0.2,0.2-0.3,0.4-0.4,0.6
			c-0.3,0.4-0.5,0.9-0.7,1.3c-0.1,0.2-0.2,0.4-0.3,0.6c-0.1,0.3-0.3,0.7-0.4,1.1c-0.2,0.7-0.4,1.3-0.5,1.9c-0.2,0.9-0.2,1.7,0.3,2.5
			c0.2,0.3,0.4,0.6,0.7,0.8c0.3,0.2,0.6,0.3,0.9,0.4c0.3,0.1,0.7,0.1,1,0.1c0.2,0,0.4,0,0.6,0c0.2,0,0.4,0,0.6-0.1
			c0.3-0.1,0.5-0.1,0.8-0.2c0.9-0.3,1.9-0.7,2.6-1.1c1.4-0.7,2.5-1.6,4-2.8c0.4-0.3,0.6-0.5,1-0.9c0.1-0.1,0.1-0.1,0.2-0.2
			c0.7-0.7,1.4-1.3,2.2-2c0,0,0.1-0.1,0.1-0.1c1-1,2.1-2.3,2.8-3.1c0.5-0.6,1.1-1.4,1.8-2.2c0.3-0.4,0.6-0.8,0.8-1.1
			c0.5-0.7,1.2-1.7,1.6-2.4c0.1-0.2,0.3-0.5,0.4-0.6c0.2-0.4,0.5-0.8,0.7-1.2c0.9-1.6,2-3.4,2.7-4.9c0.2-0.5,0.4-0.9,0.6-1.4
			c0.3-0.9,0.7-1.8,0.9-2.7c0.1-0.2,0.1-0.5,0.2-0.7c0.1-0.6,0.3-1.1,0.3-1.7c0.1-0.4,0.1-0.7,0.1-1.1c0-0.4,0.1-0.7,0-1.2
			c0-0.2-0.1-0.4-0.3-0.6c-0.2-0.2-0.4-0.4-0.7-0.5c-0.1,0-0.3,0-0.4,0c-0.1,0.1-0.2,0.2-0.3,0.3c-0.1,0.2-0.2,0.3-0.3,0.5
			c-0.9,1.5-2.2,3.6-3.2,5.4c-0.4,0.6-0.4,0.8-0.7,1.2c-0.7,1.3-1.5,2.9-2.2,4.2c-1.4,2.8-2.7,5.8-3.9,8.8c-0.6,1.5-1.2,3-1.7,4.5
			c-0.5,1.5-0.9,3.1-0.9,4.7c0,0.5,0.1,1.3,0.2,1.7c0,0.1,0.1,0.4,0.1,0.6c0.2,0.8,0.6,1.7,1.3,2.5c0.2,0.2,0.6,0.7,1,0.9
			c0.1,0.1-0.2-0.1,0,0c0.3,0.2,0.9,0.6,1.7,0.8c0.7,0.2,1.6,0.3,2.1,0.3c-0.1,0-0.1,0,0,0c0.2,0,0.4,0,0.6,0c1.8-0.2,3-0.9,4.2-1.9
			c0.2-0.1,0.5-0.5,0.6-0.6C83,47.8,82.7,48,82.7,48c0.4-0.3,0.8-0.8,0.9-1c0.4-0.4,0.5-0.7,0.8-1.1c0.1-0.1-0.1,0.1,0.1-0.1
			c0.4-0.7,0.6-1,0.9-1.7c0.1-0.2,0.4-1,0.5-1.2c0.1-0.2-0.1,0.2,0,0.1c0.2-0.6,0.4-1.2,0.5-1.7c0-0.2,0.1-0.3,0.1-0.5
			c0-0.2,0,0,0.1-0.2c0-0.2-0.1,0.2,0,0.1c0.1-0.3,0-0.3,0.1-0.4c0.1-0.4,0.1-0.7,0.2-1.1c0.1-0.4,0.1-0.8,0.2-1.3
			c0-0.3,0.1-0.6,0.1-0.9c0-0.3,0.1-0.6,0.2-0.9c0-0.2,0,0.1,0-0.1c0.2-1.2,0.4-2.4,0.6-3.3c-0.3,1.4-0.5,2.4-0.6,3.6
			c0,0.2-0.1,0.5-0.1,0.7c0,0.1,0-0.2,0,0.1c0,0.1,0,0.1,0,0.3c0-0.2,0,0.1-0.1,0.2c-0.2,1-0.3,1.8-0.5,2.7c0,0.2,0-0.1,0,0.1
			c-0.1,0.3-0.1,0.6-0.2,1c0,0.1-0.1,0.4-0.1,0.2c0.3-1.2,0.6-2.8,0.8-4.2c0.1-0.4,0.2-0.9,0.2-1.1c-0.1,0.6-0.2,1.2-0.3,1.7
			c-0.1,0.7-0.2,1.5-0.4,2.2c0,0.2-0.1,0.3-0.1,0.5c0,0.1-0.1,0.4-0.1,0.5c0,0.1-0.1,0.2-0.1,0.3c-0.1,0.3-0.1,0.5-0.2,0.8
			c-0.2,0.5-0.4,1.1-0.6,1.6c0,0.1,0,0.1,0-0.1c0.3-0.7,0.3-0.8,0.5-1.5c0,0.1,0,0.1,0,0.1C86,42.1,86,42,86,41.8
			c-0.2,0.5-0.2,0.5-0.1,0.3c0.4-1.3,0.7-3,0.9-4.1c0-0.1,0-0.3,0.1-0.4c0.2-1.3,0.4-2.7,0.7-4c-0.3,1.5-0.5,3.2-0.8,5
			c0,0.1,0,0,0,0.2c-0.1,0.8-0.3,1.6-0.5,2.2c-0.1,0.2-0.2,0.5-0.2,0.7c-0.5,1.8-1.1,3.1-2.2,4.6c0,0-0.1,0.1-0.1,0.1
			c0.1-0.1,0.2-0.2,0.2-0.3c0.2-0.2,0.3-0.5,0.5-0.7c0.8-1.3,1.5-3.4,1.9-5.2c0-0.2,0-0.1-0.1,0.1c-0.2,0.9-0.4,1.7-0.7,2.6
			c-0.2,0.3,0,0,0.2-0.7c0.4-1.2,0.8-3.3,0.9-4.1c0.5-3.6,1.2-7.2,2.3-10.9c-0.6,2-1,3.9-1.4,5.8c0,0,0,0.1,0,0.2
			c-0.4,1.8-0.6,3.8-0.9,5.4c-0.1,0.7-0.4,1.9-0.6,2.6c0-0.2,0.1-0.7,0.3-1.4c-0.1,0.7-0.3,1.3-0.5,1.9c-0.1,0.5-0.4,1.3-0.5,1.5
			c0,0.1,0-0.1,0,0.1c0.1-0.2-0.1,0.3-0.1,0.4C85,43.8,85,43.7,84.8,44c-0.2,0.4-0.2,0.4-0.3,0.6c-0.6,1.2-1.4,2.3-2.5,3.2
			c-0.1,0.1-0.3,0.3-0.3,0.3c-0.1,0.1,0,0-0.2,0.1c0,0-0.1,0.1-0.2,0.1c-0.4,0.3-1,0.6-1.5,0.8c-1.2,0.5-2.8,0.6-3.8,0.3
			c-0.2-0.1,0.1,0-0.2-0.1c-0.9-0.2-1.7-0.7-2.3-1.4c-0.6-0.7-1-1.6-1.3-2.6c0-0.1,0,0,0-0.2c-0.1-0.3,0-0.2-0.1-0.4
			c0-0.1,0-0.2,0-0.4c-0.2-2.3,0.6-4.6,1.4-6.9c0.8-2.1,1.7-4.3,2.5-6.3c0.7-1.6,1.4-3.1,2-4.4c0.9-1.9,1.7-3.4,2.6-5.1
			c0.7-1.2,1.4-2.5,2-3.5c0.1-0.2,0.2-0.4,0.3-0.6c0.2-0.3,0.4-0.6,0.6-0.9c0.2-0.4,0.5-0.8,0.8-1.2c0.1-0.2,0.3-0.4,0.4-0.6
			c0-0.1,0.1-0.1,0.1-0.1c0,0,0.1,0,0.1,0.1c0,0,0.1,0.1,0.1,0.2c0.1,0.2,0.1,0.4,0.1,0.6c0,0.5-0.1,1-0.2,1.5
			c-0.1,0.6-0.2,1.1-0.3,1.7c-0.1,0.4-0.2,0.8-0.3,1.1c-0.3,1.1-0.7,2.1-1.2,3.1c-0.6,1.3-1.3,2.6-2,3.8c-0.8,1.4-1.8,3-2.7,4.3
			c-0.7,1-1.4,2.1-2.3,3.2c-0.1,0.1-0.2,0.2-0.2,0.3c-1.3,1.6-2.9,3.4-4.2,4.6c-0.5,0.4-0.9,0.8-1.3,1.2c-0.5,0.4-0.9,0.8-1.4,1.3
			c-0.1,0.1-0.3,0.3-0.5,0.4c-0.5,0.4-1,0.8-1.5,1.2c-0.8,0.6-1.8,1.2-2.8,1.7c-0.8,0.4-2.1,0.8-3.1,0.9c-0.8,0.1-1.7-0.1-2.1-0.7
			c-0.2-0.3-0.3-0.6-0.4-1c0-0.4,0-0.8,0.1-1.2c0.1-0.6,0.3-1.1,0.5-1.7c0.2-0.6,0.5-1.3,0.9-2c0.2-0.3,0.4-0.7,0.6-1
			c0.1-0.2,0.2-0.3,0.3-0.4c0,0,0.1-0.1,0.1-0.1l0,0l0,0l0,0l0,0l0,0l0,0c-0.2-0.2-0.1-0.1-0.1-0.1l0,0l0,0c0-0.1,0,0,0,0
			c0,0,0,0,0,0c0,0,0,0,0,0l0,0l0,0l-0.1-0.1l0,0.1c-0.1,0.2-0.1,0.2-0.2,0.3c-0.2,0.2-0.4,0.5-0.5,0.7c-0.4,0.5-0.8,0.9-1.1,1.2
			c-0.1,0.1-0.3,0.4-0.5,0.7c-0.2,0.3-0.4,0.6-0.7,1c-0.3,0.4-0.3,0.3-0.4,0.5c-0.3,0.4-0.5,0.6-0.8,1
			C56.5,43.1,56.2,43.3,55.8,43.8z M85.8,42.8C85.8,42.8,85.9,42.8,85.8,42.8C85.8,42.9,85.7,43.2,85.8,42.8z M85.9,42.7
			c0.2-0.5,0.4-1.3,0.5-1.7c0-0.1,0,0.1,0-0.1c0.1-0.2,0.1-0.5,0.2-0.9c0,0-0.2,0.8-0.2,0.8c-0.1,0.2-0.1,0.3-0.1,0.6
			C86.1,42.1,86.1,42.2,85.9,42.7C86,42.5,85.9,42.7,85.9,42.7z"/>
	</g>
	<g>
		<path fill="#FFFFFF" d="M97.3,26c0,0-0.4,0.1-1,0.3c-0.7,0.2-1.6,0.4-2.8,0.6c-2.4,0.4-5.6,0.5-8.9,0.5c-3.3,0-6.6-0.2-9.1,0.2
			c-1.3,0.2-2.3,0.6-3,0.9c-0.2,0.1-0.4,0.2-0.6,0.6c0,0,0,0.1,0,0.2c0,0.1,0,0,0,0.1c0,0.1,0,0.3,0.1,0.4c0.1,0.2,0.2,0.3,0.3,0.3
			c0.2,0.1,0.6,0.1,0.8-0.1c0.1-0.1,0.2-0.3,0.2-0.3c0,0,0,0,0,0l-0.7-0.3c0,0,0,0.1,0,0c0,0,0-0.2,0-0.2c0,0,0,0-0.1,0.1
			c0,0,0,0,0,0c0.3,0.1,0.1,0,0.1,0l0,0l0,0l0,0c0,0,0,0,0,0c0,0,0,0,0,0c0,0,0.1,0,0.1,0.1c0.1,0.1,0.1,0.1,0.1,0
			c0,0,0.1,0,0.1-0.1c0.6-0.3,1.5-0.6,2.7-0.8c2.3-0.4,5.6-0.2,8.9-0.2c3.3,0.1,6.6-0.1,9.1-0.5c1.2-0.2,2.3-0.5,3-0.7
			c0.7-0.2,1.1-0.4,1.1-0.4L97.3,26z"/>
		<path fill-rule="evenodd" clip-rule="evenodd" fill="#FFFFFF" d="M76.8,28.6C76.8,28.6,76.8,28.6,76.8,28.6
			C76.7,28.6,76.8,28.6,76.8,28.6z"/>
		<path fill-rule="evenodd" clip-rule="evenodd" fill="#FFFFFF" d="M75.7,27.9C75.7,27.9,75.6,28,75.7,27.9
			C75.6,27.9,75.7,27.9,75.7,27.9z"/>
		<path fill-rule="evenodd" clip-rule="evenodd" fill="#FFFFFF" d="M75.6,27.9C75.6,27.9,75.5,28,75.6,27.9
			C75.5,27.9,75.6,27.9,75.6,27.9z"/>
		<path fill-rule="evenodd" clip-rule="evenodd" fill="#FFFFFF" d="M75.3,28.1C75.3,28.1,75.2,28.1,75.3,28.1
			C75.2,28.1,75.2,28.1,75.3,28.1z"/>
		<path fill-rule="evenodd" clip-rule="evenodd" fill="#FFFFFF" d="M75.1,28c0,0-0.1,0-0.1,0C75,28,75.1,28,75.1,28z"/>
		<path fill-rule="evenodd" clip-rule="evenodd" fill="#FFFFFF" d="M74.8,28.7c-0.1,0-0.2,0.1-0.2,0.1
			C74.7,28.7,74.8,28.7,74.8,28.7z"/>
		<path fill-rule="evenodd" clip-rule="evenodd" fill="#FFFFFF" d="M74.6,28.5c-0.1,0-0.2,0.1-0.3,0.1c0,0,0.2,0,0.2-0.1
			C74.5,28.5,74.5,28.5,74.6,28.5C74.5,28.5,74.6,28.5,74.6,28.5z"/>
		<path fill-rule="evenodd" clip-rule="evenodd" fill="#FFFFFF" d="M73.6,28.7C73.6,28.7,73.6,28.8,73.6,28.7
			C73.5,28.8,73.5,28.8,73.6,28.7L73.6,28.7z"/>
		<path fill-rule="evenodd" clip-rule="evenodd" fill="#FFFFFF" d="M73.2,29c-0.1,0-0.2,0.1-0.3,0.1c0,0,0,0,0,0c0,0-0.2,0.1-0.1,0
			C72.9,29.1,73,29.1,73.2,29z"/>
		<path fill-rule="evenodd" clip-rule="evenodd" fill="#FFFFFF" d="M73.1,28.9C73.1,28.9,73,28.9,73.1,28.9
			C73,28.9,73.1,28.9,73.1,28.9z"/>
		<path fill-rule="evenodd" clip-rule="evenodd" fill="#FFFFFF" d="M73.1,29.3C73.1,29.3,73.1,29.3,73.1,29.3
			C73.1,29.3,73.1,29.3,73.1,29.3z"/>
		<path fill-rule="evenodd" clip-rule="evenodd" fill="#FFFFFF" d="M73,29c0,0-0.1,0-0.1,0.1C72.9,29,73,29,73,29z"/>
		<path fill-rule="evenodd" clip-rule="evenodd" fill="#FFFFFF" d="M73,29c0,0-0.1,0-0.1,0.1C72.9,29,72.9,29,73,29z"/>
		<path fill-rule="evenodd" clip-rule="evenodd" fill="#FFFFFF" d="M73.1,29.4C73.1,29.4,73,29.4,73.1,29.4
			C73,29.4,73,29.4,73.1,29.4z"/>
		<path fill-rule="evenodd" clip-rule="evenodd" fill="#FFFFFF" d="M73,29.3c0,0-0.1,0.1-0.2,0.1C72.9,29.4,72.9,29.4,73,29.3z"/>
		<path fill-rule="evenodd" clip-rule="evenodd" fill="#FFFFFF" d="M72.8,29c0,0-0.1,0.1-0.2,0.1C72.7,29.1,72.8,29.1,72.8,29z"/>
		<path fill-rule="evenodd" clip-rule="evenodd" fill="#FFFFFF" d="M72.7,29.2C72.7,29.2,72.7,29.2,72.7,29.2
			C72.7,29.3,72.7,29.2,72.7,29.2z"/>
		<path fill-rule="evenodd" clip-rule="evenodd" fill="#FFFFFF" d="M72.6,29.2C72.6,29.3,72.6,29.3,72.6,29.2
			C72.6,29.3,72.6,29.2,72.6,29.2z"/>
		<path fill-rule="evenodd" clip-rule="evenodd" fill="#FFFFFF" d="M72.5,29.3C72.5,29.3,72.5,29.3,72.5,29.3
			C72.5,29.3,72.5,29.3,72.5,29.3C72.5,29.3,72.5,29.3,72.5,29.3z"/>
		<path fill-rule="evenodd" clip-rule="evenodd" fill="#FFFFFF" d="M72.6,29.5C72.6,29.5,72.6,29.5,72.6,29.5L72.6,29.5z"/>
		<path fill-rule="evenodd" clip-rule="evenodd" fill="#FFFFFF" d="M72.5,29.6C72.5,29.6,72.5,29.6,72.5,29.6
			C72.6,29.6,72.5,29.6,72.5,29.6z"/>
		<path fill-rule="evenodd" clip-rule="evenodd" fill="#FFFFFF" d="M72.5,29.6C72.5,29.6,72.6,29.5,72.5,29.6
			C72.5,29.6,72.5,29.6,72.5,29.6z"/>
		<path fill-rule="evenodd" clip-rule="evenodd" fill="#FFFFFF" d="M72.6,29.5C72.6,29.5,72.6,29.5,72.6,29.5
			C72.6,29.5,72.6,29.5,72.6,29.5z"/>
		<path fill-rule="evenodd" clip-rule="evenodd" fill="#FFFFFF" d="M72.6,29.7C72.6,29.7,72.6,29.6,72.6,29.7
			C72.6,29.6,72.6,29.7,72.6,29.7z"/>
		<path fill-rule="evenodd" clip-rule="evenodd" fill="#FFFFFF" d="M74.3,29C74.2,29,74.2,29,74.3,29c-0.1,0-0.1,0.1-0.2,0.1
			C74.1,29,74.2,29,74.3,29z"/>
		<path fill-rule="evenodd" clip-rule="evenodd" fill="#FFFFFF" d="M73,29.2C73,29.3,73,29.2,73,29.2C73,29.3,73,29.2,73,29.2
			c-0.1,0-0.1,0.1-0.2,0.1c0,0,0,0,0,0c-0.1,0-0.1,0-0.2,0.1C72.7,29.3,73,29.2,73,29.2C73.1,29.2,73,29.2,73,29.2
			C73,29.3,73.1,29.2,73,29.2z"/>
		<path fill-rule="evenodd" clip-rule="evenodd" fill="#FFFFFF" d="M72.8,29.1C72.8,29.1,72.8,29.1,72.8,29.1
			C72.8,29.1,72.8,29.1,72.8,29.1C72.8,29.1,72.9,29,72.8,29.1z"/>
		<path fill-rule="evenodd" clip-rule="evenodd" fill="#FFFFFF" d="M72.4,29.7L72.4,29.7c0,0.1,0.1,0.1,0.2,0.1
			C72.5,29.8,72.3,29.7,72.4,29.7c-0.1-0.1-0.1-0.1-0.1-0.1c0-0.2,0.2-0.3,0.4-0.4c-0.1,0.1-0.3,0.1-0.3,0.3c0,0,0,0,0,0
			C72.4,29.4,72.3,29.6,72.4,29.7z"/>
		<path fill-rule="evenodd" clip-rule="evenodd" fill="#FFFFFF" d="M72.5,29.6C72.5,29.6,72.6,29.5,72.5,29.6
			C72.6,29.5,72.5,29.6,72.5,29.6z"/>
		<path fill-rule="evenodd" clip-rule="evenodd" fill="#FFFFFF" d="M94.9,27.9c0,0,0.1,0,0.2,0c0.1,0,0.2,0,0.4-0.1
			c0.1,0,0.3-0.1,0.3-0.1c0,0,0.1,0,0.2-0.1c0.2-0.1,0.3-0.1,0.4-0.1c0.1-0.1,0.3-0.1,0.4-0.1c0.1,0,0,0,0.1,0
			c0.2-0.1,0.4-0.2,0.7-0.4c0,0,0-0.1,0.1-0.1c0,0,0.1,0,0.1-0.1c0-0.1,0-0.1,0.1-0.1c0,0,0,0,0,0c0-0.1-0.1-0.1-0.1-0.2
			c-0.1,0-0.1,0-0.1,0c0,0-0.1,0-0.2,0c-0.1,0-0.1,0-0.2,0c0,0-0.1,0-0.1,0c-0.1,0-0.2,0-0.2,0c0,0,0,0,0,0c-0.2,0-0.4,0-0.6,0.1
			c0,0-0.1,0-0.1,0c-0.2,0.1-0.5,0.1-0.6,0.1c0,0,0,0-0.1,0c0,0-0.1,0-0.2,0c0,0-0.1,0-0.1,0.1c-0.1,0-0.2,0-0.3,0c0,0-0.1,0-0.1,0
			c-0.1,0-0.3,0.1-0.4,0.1c-0.1,0-0.1,0-0.2,0c0,0-0.1,0-0.1,0.1c-0.1,0.1-0.5,0.1-0.7,0.2c-0.2,0-0.3,0.1-0.5,0.1c0,0-0.1,0-0.1,0
			c0,0-0.1,0-0.2,0c-0.1,0-0.1,0-0.3,0.1c-0.2,0-0.3,0-0.4,0c0,0-0.1,0-0.1,0c0,0-0.1,0-0.1,0c0,0-0.1,0-0.1,0c0,0-0.1,0-0.1,0
			c0,0-0.1,0-0.1,0c0,0-0.1,0-0.1,0c-0.2,0-0.3,0-0.5,0.1c-0.3,0-0.5,0-0.8,0c-0.1,0-0.1,0-0.2,0c0,0,0,0,0,0c-0.2,0-0.3,0-0.5,0
			c0,0,0,0,0,0c-0.2,0-0.5,0-0.7,0c-0.1,0-0.3,0-0.5,0c-0.1,0-0.1,0-0.2,0c-0.3,0-0.3,0-0.5,0c0,0-0.1,0-0.1,0c-0.1,0-0.1,0-0.2,0
			c-0.3,0-0.7,0-0.9,0c0,0-0.2,0-0.3,0c-0.2,0-0.3,0-0.5,0c0,0-0.1,0-0.1,0c-0.1,0-0.2,0-0.3,0c-0.2,0-0.5,0-0.7,0
			c-0.3,0-0.7,0-1.1,0c-0.1,0-0.1,0-0.2,0c-0.2,0-0.6,0-0.8,0c-1.1,0-2.2,0-3.3,0.1c-0.1,0-0.2,0-0.3,0c0,0-0.1,0-0.1,0
			c-0.1,0-0.3,0-0.5,0c0,0-0.1,0-0.2,0c0,0,0,0,0,0c-0.1,0-0.5,0-0.6,0.1c0,0,0,0,0,0c0,0-0.1,0-0.1,0c-0.3,0-0.5,0.1-0.8,0.1
			c0,0-0.1,0-0.1,0c0,0,0.1,0,0.1,0c-0.1,0-0.2,0-0.2,0c-0.1,0-0.1,0-0.2,0c0,0,0,0,0,0c-0.1,0-0.2,0-0.3,0.1c0,0-0.2,0.1-0.2,0.1
			c0,0,0,0,0,0c-0.1,0-0.2,0.1-0.3,0.1c0,0,0,0-0.1,0c0,0,0,0,0,0c0,0,0,0,0,0c-0.1,0,0,0-0.1,0c-0.1,0-0.1,0-0.2,0.1
			c-0.1,0-0.1,0-0.2,0.1c-0.1,0-0.1,0-0.1,0.1c-0.1,0-0.1,0-0.2,0c0,0,0,0,0,0c-0.2,0.1-0.4,0.2-0.5,0.2c0.2-0.1,0.4-0.2,0.6-0.2
			c0,0,0.1,0,0.1,0c0,0,0,0,0,0c0,0,0,0,0,0c0,0,0,0,0,0c0.2-0.1,0.3-0.1,0.4-0.1c0,0,0,0,0,0c0.1,0,0,0,0.2,0c0,0,0.1,0,0,0
			c-0.2,0-0.5,0.1-0.7,0.2c-0.1,0-0.1,0-0.2,0.1c0.1,0,0.2-0.1,0.3-0.1c0.1,0,0.2-0.1,0.4-0.1c0,0,0.1,0,0.1,0c0,0,0.1,0,0.1,0
			c0,0,0,0,0.1,0c0,0,0.1,0,0.1,0c0.1,0,0.2,0,0.3-0.1c0,0,0,0,0,0c-0.1,0-0.1,0-0.3,0.1c0,0,0,0,0,0c0,0-0.1,0-0.1,0
			c0.1,0,0.1,0,0.1,0c-0.2,0.1-0.5,0.1-0.7,0.2c0,0,0,0-0.1,0c-0.2,0.1-0.4,0.2-0.6,0.2c0.5-0.2,0.5-0.2,0.8-0.3c0,0,0,0,0,0
			c0.2-0.1,0.3-0.1,0.4-0.1l0.1,0c0.3-0.1,0.6-0.1,0.9-0.1c0,0,0,0,0,0c0,0,0,0-0.1,0c0,0-0.1,0-0.1,0c-0.3,0.1-0.6,0.1-0.9,0.2
			c0,0,0,0,0,0c0.2,0,0.3-0.1,0.4-0.1c0.1,0,0,0-0.1,0.1c-0.2,0.1-0.5,0.1-0.7,0.2c-0.3,0.1-0.6,0.2-0.8,0.3
			c-0.3,0.1-0.6,0.3-0.6,0.3c0,0,0.4-0.3,0.6-0.4c0,0,0,0,0,0c0.3-0.1,0.6-0.2,0.8-0.3c0.1,0,0.3-0.1,0.4-0.1c0,0-0.1,0.1-0.2,0.1
			c0.1,0,0.2-0.1,0.3-0.1c0.1,0,0.2-0.1,0.3-0.1c0,0,0,0,0,0c0,0,0.1,0,0.1,0c0,0,0,0,0.1,0c0.1,0,0.1,0,0.1,0
			c0.2,0,0.5-0.1,0.7-0.1c0,0,0.1,0,0.1,0c0,0,0,0,0,0c0,0,0,0,0,0c0.1,0,0.2,0,0.3,0c0.2,0,0.5,0,0.7-0.1c0,0,0,0,0,0
			c0.4,0,0.7,0,1,0c0,0,0,0,0,0c0,0,0,0,0.1,0c0,0,0.1,0,0.1,0c0.5,0,0.8,0,1.2,0c0.4,0,0.8,0,1.2,0c0.3,0,0.6,0,0.8,0
			c0.5,0,0.7,0,1,0c0.2,0,0.4,0,0.7,0c0,0,0.1,0,0.1,0c0,0,0.2,0,0.2,0c0.1,0,0.4,0,0.5,0l0.5,0c0.1,0,0.2,0,0.3,0c0,0,0.2,0,0.2,0
			c0.1,0,0.4,0,0.6,0c0.2,0,0.5,0,0.7,0c0.3,0,0.6,0,0.9,0c0.2,0,0.4,0,0.7,0c0,0,0.1,0,0.1,0c0.4,0,0.8,0,1.1,0c0.1,0,0.2,0,0.3,0
			c0.1,0,0.2,0,0.3,0c0,0,0.1,0,0.1,0c0.1,0,0.2,0,0.3,0c0.2,0,0.4,0,0.6,0c0.2,0,0.4,0,0.6,0c0.3,0,0.6-0.1,0.9-0.1
			c0.1,0,0.2,0,0.3,0c0.1,0,0.2,0,0.4,0c0.1,0,0.3,0,0.4-0.1c0.2,0,0.4-0.1,0.6-0.1c0.1,0,0.2-0.1,0.4-0.1c0.1,0,0.1,0,0.1,0
			c0.1,0,0.1,0,0.2,0C94.7,27.9,94.7,27.9,94.9,27.9z M74.8,28.3C74.8,28.3,74.8,28.3,74.8,28.3C74.8,28.3,74.8,28.3,74.8,28.3z
			 M74.8,28.3c-0.1,0-0.2,0.1-0.3,0.1c0,0,0,0,0,0c0,0-0.1,0-0.2,0c0,0,0.1,0,0.1-0.1c0.1,0,0.1,0,0.1,0
			C74.6,28.3,74.7,28.3,74.8,28.3C74.7,28.3,74.8,28.3,74.8,28.3z"/>
	</g>
	<g>
		<path fill="#FFFFFF" d="M121.2,40.1c0,0-0.2,0.4-0.6,1c-0.4,0.7-1.1,1.6-2.1,2.8c-1,1.1-2.3,2.4-4,3.7c-0.4,0.3-0.8,0.6-1.3,0.9
			c-0.4,0.2-0.9,0.3-1.5,0.3c-0.3,0-0.5,0-0.6-0.1c-0.1,0-0.1-0.1-0.1-0.3c0-0.4,0.2-1,0.4-1.6c0.2-0.6,0.5-1.2,0.8-1.8
			c0.3-0.6,0.7-1.2,1-1.8c0.3-0.7,0.6-1.4,0.8-2.2c0.1-0.8,0-1.7-0.4-2.5c-0.4-0.8-1.2-1.5-2.1-1.6c-0.9-0.1-1.6-0.1-1.9-0.5
			c-0.4-0.4-0.6-1.1-0.4-1.6c0.1-0.2,0.3-0.5,0.5-0.6c0.2-0.1,0.3,0,0.5,0.1c0.3,0.4,0.2,1-0.3,1.7c-0.4,0.7-0.9,1.4-1.4,2
			c-1,1.3-2.1,2.6-3.4,3.7c-1.3,1.1-2.7,2.1-4.2,2.8c-0.8,0.3-1.6,0.6-2.4,0.8c-0.8,0.2-1.6,0.3-2.4,0.2c-0.8-0.1-1.5-0.4-2-0.9
			c-0.5-0.5-0.6-1.3-0.5-2c0.1-0.8,0.4-1.6,0.7-2.3c0.3-0.8,0.8-1.5,1.3-2.1c0.4-0.6,1.2-1.5,1.3-1.3c0.1,0,0.2,0.2,0.3,0.6
			c0.1,0.3,0,0.7,0,1.1c-0.2,1.6-0.8,3.1-1.6,4.4c-0.8,1.3-1.9,2.5-3.2,3.3c-1.2,0.9-2.6,1.5-3.9,1.3c-0.6-0.1-1.2-0.4-1.6-0.8
			c-0.4-0.4-0.6-1-0.6-1.7c-0.1-1.3,0.3-2.6,0.6-3.9c2.3-10.3,3.8-17.1,3.8-17.1l-1.1-0.2c0,0-1.5,6.8-3.8,17.1
			c-0.3,1.3-0.7,2.6-0.6,4.2c0.1,0.8,0.3,1.6,0.9,2.3c0.6,0.7,1.4,1.1,2.3,1.2c1.8,0.2,3.4-0.6,4.7-1.5c1.4-0.9,2.5-2.2,3.5-3.6
			c0.9-1.4,1.5-3.1,1.8-4.9c0.1-0.4,0.1-0.9,0-1.4c0-0.3-0.1-0.5-0.3-0.8c-0.1-0.3-0.4-0.5-0.8-0.6c-0.4-0.1-0.8,0-1,0.1
			c-0.3,0.2-0.5,0.3-0.6,0.5c-0.3,0.3-0.6,0.7-0.9,1c-0.5,0.7-1,1.5-1.4,2.3c-0.4,0.8-0.7,1.7-0.8,2.6c-0.1,0.9,0.1,2.1,0.8,2.9
			c0.7,0.8,1.7,1.2,2.7,1.3c1,0.1,1.9,0,2.8-0.3c0.9-0.2,1.7-0.5,2.6-0.9c1.6-0.8,3.1-1.8,4.5-2.9c1.3-1.2,2.5-2.5,3.5-3.8
			c0.5-0.7,1-1.4,1.5-2.1c0.2-0.4,0.5-0.8,0.6-1.3c0.1-0.5,0-1.2-0.4-1.6c-0.2-0.2-0.4-0.4-0.8-0.5c-0.3-0.1-0.7-0.1-0.9,0.1
			c-0.6,0.2-0.9,0.7-1.1,1.2c-0.4,1-0.1,2.1,0.6,2.8c0.4,0.4,0.9,0.6,1.3,0.6c0.4,0.1,0.8,0.1,1.2,0.1c0.6,0.1,1.1,0.5,1.4,1
			c0.6,1.1,0.2,2.5-0.4,3.7c-0.3,0.6-0.7,1.2-1,1.8c-0.4,0.6-0.6,1.3-0.9,1.9c-0.3,0.6-0.5,1.3-0.5,2.1c0,0.2,0.1,0.4,0.2,0.7
			c0.1,0.2,0.3,0.4,0.5,0.6c0.4,0.2,0.9,0.2,1.2,0.2c0.6,0,1.3-0.2,1.9-0.5c0.6-0.3,1-0.7,1.4-1c1.7-1.3,3.1-2.6,4.1-3.8
			c1-1.2,1.8-2.2,2.2-2.9c0.5-0.7,0.7-1.1,0.7-1.1L121.2,40.1z"/>
		<path fill-rule="evenodd" clip-rule="evenodd" fill="#FFFFFF" d="M85.6,46.4c0-0.1-0.1-0.2-0.1-0.3C85.5,46.3,85.5,46.3,85.6,46.4
			z"/>
		<path fill-rule="evenodd" clip-rule="evenodd" fill="#FFFFFF" d="M86.4,41.9c0-0.1,0.1-0.4,0.1-0.3C86.4,41.7,86.4,41.8,86.4,41.9
			z"/>
		<path fill-rule="evenodd" clip-rule="evenodd" fill="#FFFFFF" d="M86.5,41.4c0,0,0.1-0.2,0.1-0.3C86.6,41.1,86.5,41.4,86.5,41.4z"
			/>
		<path fill-rule="evenodd" clip-rule="evenodd" fill="#FFFFFF" d="M86.7,40.1c0-0.1,0-0.3,0.1-0.3C86.8,39.8,86.7,40,86.7,40.1z"/>
		<path fill-rule="evenodd" clip-rule="evenodd" fill="#FFFFFF" d="M86.9,39.5c0-0.1,0.1-0.3,0.1-0.6C87.1,39,87,39.3,86.9,39.5z"/>
		<path fill-rule="evenodd" clip-rule="evenodd" fill="#FFFFFF" d="M86.8,37.7c0.1-0.3,0.2-0.9,0.2-1.1
			C86.9,37.1,86.8,37.3,86.8,37.7z"/>
		<path fill-rule="evenodd" clip-rule="evenodd" fill="#FFFFFF" d="M87.2,37c0.2-0.7,0.2-0.9,0.3-1.5c0-0.1-0.2,0.7-0.2,0.8
			c0,0.1,0,0.2-0.1,0.3C87.2,36.7,87.2,36.9,87.2,37z"/>
		<path fill-rule="evenodd" clip-rule="evenodd" fill="#FFFFFF" d="M88.2,32.5c0,0,0,0,0-0.2c0,0,0,0,0,0L88.2,32.5z"/>
		<path fill-rule="evenodd" clip-rule="evenodd" fill="#FFFFFF" d="M88.5,30.7c0.1-0.3,0.2-1,0.3-1.3c0,0,0-0.1,0-0.1
			c0-0.2,0.2-0.7,0.1-0.2C88.8,29.6,88.7,30,88.5,30.7z"/>
		<path fill-rule="evenodd" clip-rule="evenodd" fill="#FFFFFF" d="M88.7,30.5c0-0.1,0-0.2,0.1-0.3C88.8,30.2,88.7,30.4,88.7,30.5z"
			/>
		<path fill-rule="evenodd" clip-rule="evenodd" fill="#FFFFFF" d="M88.5,29.9c0.1-0.2,0.1-0.3,0.1-0.4
			C88.6,29.6,88.5,29.8,88.5,29.9z"/>
		<path fill-rule="evenodd" clip-rule="evenodd" fill="#FFFFFF" d="M88.8,30.1c0-0.2,0.1-0.3,0.1-0.5C88.9,29.5,88.8,29.9,88.8,30.1
			z"/>
		<path fill-rule="evenodd" clip-rule="evenodd" fill="#FFFFFF" d="M88.8,29.9c0-0.1,0.1-0.4,0.1-0.6C88.9,29.6,88.9,29.7,88.8,29.9
			z"/>
		<path fill-rule="evenodd" clip-rule="evenodd" fill="#FFFFFF" d="M88.5,29.5c0,0,0-0.2,0.1-0.3C88.6,29.2,88.6,29.4,88.5,29.5z"/>
		<path fill-rule="evenodd" clip-rule="evenodd" fill="#FFFFFF" d="M88.6,29.3c0.1-0.3,0.2-0.7,0.2-1C88.8,28.7,88.7,28.9,88.6,29.3
			z"/>
		<path fill-rule="evenodd" clip-rule="evenodd" fill="#FFFFFF" d="M89,29.2c0-0.2,0.1-0.6,0.2-0.8C89.1,28.8,89.1,28.9,89,29.2z"/>
		<path fill-rule="evenodd" clip-rule="evenodd" fill="#FFFFFF" d="M89,28.6c0-0.2,0.1-0.3,0.1-0.4C89.1,28.2,89,28.4,89,28.6z"/>
		<path fill-rule="evenodd" clip-rule="evenodd" fill="#FFFFFF" d="M89.1,28.2c0-0.1,0-0.2,0.1-0.4C89.2,27.8,89.2,28,89.1,28.2z"/>
		<path fill-rule="evenodd" clip-rule="evenodd" fill="#FFFFFF" d="M89.3,27.8c0-0.1,0.1-0.4,0.1-0.3c0,0.1,0,0.1,0,0.1
			C89.3,27.6,89.3,27.6,89.3,27.8z"/>
		<path fill-rule="evenodd" clip-rule="evenodd" fill="#FFFFFF" d="M89.3,26.7C89.2,26.9,89.1,27.3,89.3,26.7L89.3,26.7z"/>
		<path fill-rule="evenodd" clip-rule="evenodd" fill="#FFFFFF" d="M89.3,26.2c0.1-0.3,0.1-0.4,0.1-0.6C89.4,25.7,89.3,26,89.3,26.2
			z"/>
		<path fill-rule="evenodd" clip-rule="evenodd" fill="#FFFFFF" d="M89.3,26c0,0.1,0.1-0.3,0.1-0.2L89.3,26z"/>
		<path fill-rule="evenodd" clip-rule="evenodd" fill="#FFFFFF" d="M89.3,25.5c0-0.1,0-0.2,0.1-0.3C89.4,25.2,89.3,25.5,89.3,25.5z"
			/>
		<path fill-rule="evenodd" clip-rule="evenodd" fill="#FFFFFF" d="M89.6,24.2C89.7,23.8,89.7,23.7,89.6,24.2L89.6,24.2z"/>
		<path fill-rule="evenodd" clip-rule="evenodd" fill="#FFFFFF" d="M87.2,34.9c0-0.1,0-0.1,0-0.2c0-0.1,0.1-0.4,0.1-0.6
			C87.3,34.5,87.3,34.5,87.2,34.9z"/>
		<path fill-rule="evenodd" clip-rule="evenodd" fill="#FFFFFF" d="M88.6,29.6c0-0.1,0-0.1,0.1-0.2c0,0,0,0,0,0.1
			c0.1-0.2,0.1-0.4,0.1-0.6c0,0,0,0.1,0,0.1c0-0.3,0.1-0.6,0.3-1.1c-0.2,0.8-0.4,1.7-0.5,2.2c0-0.1,0.1-0.5,0.1-0.5
			C88.7,29.5,88.6,29.7,88.6,29.6z"/>
		<path fill-rule="evenodd" clip-rule="evenodd" fill="#FFFFFF" d="M89,29.2C89,29.2,89,29.2,89,29.2c0,0,0-0.2,0.1-0.2
			C89,29,88.9,29.7,89,29.2z"/>
		<path fill-rule="evenodd" clip-rule="evenodd" fill="#FFFFFF" d="M89.7,25.7L89.7,25.7c0.1-0.3,0.1-0.6,0.2-1
			c-0.1,0.4-0.3,1.1-0.3,1.4c0,0.1,0,0.1-0.1,0.2c-0.2,1.1-0.4,1.7-0.6,2.6c0.1-0.4,0.3-1.3,0.4-1.7c0-0.1,0,0,0,0
			C89.5,26.9,89.6,26.2,89.7,25.7z"/>
		<path fill-rule="evenodd" clip-rule="evenodd" fill="#FFFFFF" d="M89.3,25.9c0-0.1,0-0.2,0.1-0.3C89.4,25.6,89.4,25.8,89.3,25.9z"
			/>
		<path fill-rule="evenodd" clip-rule="evenodd" fill="#FFFFFF" d="M113.3,49.6c0.2-0.1,0.5-0.2,0.7-0.4c0.5-0.3,0.9-0.6,1.3-0.9
			c0.4-0.3,0.7-0.6,1.1-0.9c0.2-0.2,0.4-0.3,0.6-0.5c0.5-0.5,1-0.9,1.2-1.2c0.4-0.4,0.8-0.9,1.1-1.2c0.1-0.1,0.1-0.2,0.2-0.2
			c0.7-0.9,1.1-1.5,1.8-2.6c0.1-0.1,0.1-0.2,0.2-0.4c0-0.1,0.2-0.3,0.2-0.4c0.1-0.3,0-0.1,0.2-0.5c0,0,0,0.1-0.1,0.1
			c-0.1,0-0.2,0.1-0.2,0c-0.2,0.3-0.2,0.2-0.3,0.4c-0.1,0.2-0.3,0.4-0.4,0.6c-0.2,0.2-0.3,0.4-0.4,0.5c0,0-0.2,0.2-0.2,0.3
			c-0.2,0.3-0.4,0.5-0.7,0.8c0,0-0.1,0.1-0.1,0.1c-0.5,0.6-1.1,1.2-1.9,1.9c-0.1,0.1-0.2,0.2-0.3,0.3c-0.6,0.6-1.5,1.4-1.9,1.6
			c-0.1,0.1-0.1,0.1-0.2,0.2c-0.1,0-0.4,0.3-0.7,0.5c-0.1,0.1-0.3,0.2-0.5,0.4c-0.3,0.2-0.6,0.4-0.9,0.5c-0.1,0.1-0.3,0.1-0.4,0.1
			c-0.2,0-0.5,0.1-0.9,0.1c-0.3,0-0.5-0.1-0.5-0.1c-0.1-0.1-0.1-0.1-0.1-0.3c0-0.1,0-0.3,0-0.3c-0.1-0.5,0.6-2,1-2.8
			c0.5-0.8,0.7-1.2,1-1.8c0.1-0.1,0.2-0.3,0.2-0.4c0.1-0.2,0.2-0.5,0.4-0.8c0.2-0.5,0.3-1,0.4-1.4c0.1-0.7,0.1-1.3-0.1-1.8
			c-0.1-0.2-0.1-0.4-0.3-0.7c-0.1-0.2-0.2-0.4-0.4-0.6c-0.2-0.2-0.3-0.4-0.5-0.5c-0.1-0.1-0.3-0.2-0.4-0.2c-0.2-0.1-0.3-0.1-0.5-0.2
			c-0.2,0-0.4-0.1-0.6-0.1c-0.7-0.1-1.3-0.1-1.6-0.4c-0.6-0.6-0.7-1.8,0.1-2.3c0.2-0.1,0.3-0.1,0.5,0c0,0,0,0,0.1,0.1
			c0.2,0.1,0.3,0.4,0.3,0.6c0,0.2-0.1,0.6-0.2,0.8c0,0,0,0,0,0.1c-0.5,0.8-1.2,1.8-1.7,2.4c-0.4,0.5-0.8,1-1.3,1.6
			c-0.2,0.3-0.5,0.5-0.7,0.7c-0.4,0.5-1,1-1.5,1.4c-0.1,0.1-0.3,0.2-0.4,0.4c-0.3,0.2-0.5,0.4-0.8,0.6c-1,0.8-2.4,1.5-3.4,2
			c-0.3,0.1-0.6,0.3-1,0.4c-0.6,0.2-1.3,0.4-1.9,0.5c-0.1,0-0.3,0-0.5,0.1c-0.4,0-0.7,0-1.1,0c-0.9-0.1-1.9-0.6-2.3-1.3
			c-0.3-0.5-0.4-1.2-0.3-1.9c0.1-0.7,0.4-1.5,0.7-2.1c0.1-0.3,0.3-0.6,0.4-0.9c0.5-0.9,1.2-2,2-2.7c0.4-0.3,0.7-0.2,0.9,0.2
			c0.2,0.4,0.1,1,0.1,1.5c-0.2,1.1-0.5,2.2-1,3.2c-1,2.1-2.5,3.8-4.4,5c-0.3,0.2-0.8,0.4-1,0.6c-0.2,0.1-0.3,0.1-0.4,0.1
			c-0.5,0.2-1.2,0.4-1.8,0.3c-0.2,0-0.6-0.1-0.8-0.1c-0.1,0,0.1,0,0,0c-0.2,0-0.6-0.2-1-0.6c-0.4-0.3-0.6-0.8-0.7-1.1c0,0,0,0.1,0,0
			c0-0.2-0.1-0.2-0.1-0.4c-0.2-1.2-0.1-2.1,0.1-3.2c0-0.1,0.1-0.5,0.1-0.6c0,0.2-0.1,0.4-0.1,0.4c0.1-0.3,0.2-0.7,0.2-1
			c0.1-0.4,0.1-0.4,0.2-1c0-0.1,0,0.1,0-0.1c0.1-0.6,0.2-0.8,0.3-1.3c0-0.1,0.1-0.7,0.2-0.9c0-0.2-0.1,0.2,0,0
			c0.1-0.5,0.2-0.8,0.3-1.3c0-0.1,0-0.3,0.1-0.3c0-0.1,0,0,0-0.1c0-0.2,0,0.1,0,0.1c0-0.2,0-0.2,0-0.3c0.1-0.3,0.1-0.5,0.2-0.8
			c0.1-0.3,0.1-0.6,0.2-0.9c0-0.2,0.1-0.4,0.1-0.6c0-0.2,0.1-0.4,0.2-0.7c0-0.1,0,0.1,0-0.1c0.2-0.8,0.3-1.5,0.5-2.4
			c-0.3,1.2-0.3,1.5-0.6,2.6c0,0.1-0.1,0.4-0.1,0.5c0,0.1,0-0.1,0,0.1c0,0.1,0,0.1,0,0.2c0-0.1,0,0.1-0.1,0.1
			c-0.2,0.7-0.3,1.3-0.4,2c0,0.1,0-0.1,0,0.1c-0.1,0.3-0.1,0.4-0.2,0.7c0,0.1-0.1,0.3-0.1,0.2c0.2-0.8,0.5-2.1,0.7-3.1
			c0.1-0.3,0.2-0.6,0.2-0.8c-0.1,0.4-0.2,0.9-0.3,1.2c-0.1,0.5-0.2,1.1-0.3,1.6c0,0.1-0.1,0.2-0.1,0.3c0,0.1-0.1,0.3-0.1,0.4
			c0,0.1,0,0.2-0.1,0.2c0,0.2-0.1,0.4-0.1,0.6c-0.1,0.4-0.2,0.8-0.3,1.2c0,0.1,0,0,0-0.1c0.1-0.5,0.1-0.6,0.3-1.1c0,0.1,0,0.1,0,0.1
			c0-0.2,0.1-0.2,0.1-0.3c-0.1,0.4-0.1,0.4-0.1,0.2c0.2-1,0.5-2.1,0.7-3c0-0.1,0-0.2,0.1-0.3c0.2-1,0.4-1.9,0.6-2.9
			c-0.3,1.3-0.5,2.3-0.8,3.6c0,0,0,0,0,0.1c-0.1,0.6-0.3,1.2-0.4,1.6c-0.1,0.2-0.1,0.4-0.2,0.5c-0.3,1.3-0.6,2.5-0.9,3.6
			c0,0,0,0.1,0,0.1c0-0.1,0-0.2,0-0.3c0-0.2,0.1-0.3,0.1-0.6c0.3-1.5,0.6-2.6,0.9-4c0-0.2,0,0-0.1,0.1c-0.2,0.7-0.2,1-0.4,1.9
			c-0.1,0.2,0,0,0.1-0.6c0.2-0.9,0.5-2.4,0.7-3c0.6-2.7,1.1-5.2,1.7-7.9c-0.3,1.5-0.6,2.8-0.9,4.2c0,0,0,0,0,0.1
			c-0.3,1.3-0.6,2.7-0.9,3.9c-0.2,0.8-0.2,1-0.4,1.9c0-0.1,0.1-0.5,0.2-1c-0.1,0.5-0.2,1-0.3,1.4c-0.1,0.3-0.2,0.8-0.3,1.1
			c0,0,0,0,0,0c0-0.1-0.1,0.3-0.1,0.3c0,0.2,0,0.2-0.1,0.4c-0.1,0.2,0,0.2-0.1,0.5c-0.2,1-0.4,2-0.7,3c0,0.1-0.1,0.3-0.1,0.3
			c0,0.1,0,0,0,0.1c0,0,0,0.1,0,0.2c-0.1,0.4-0.1,0.9-0.2,1.3c0,0.5,0,1.1,0.1,1.7c0.1,0.6,0.4,1.1,0.8,1.4c0.1,0.2-0.1,0,0.1,0.2
			c1.2,1.2,3.1,1.2,4.6,0.6c0.1,0,0,0,0.2-0.1c0.2-0.1,0.1-0.1,0.3-0.2c0.1,0,0.2-0.1,0.3-0.1c1.6-0.8,3-2.1,4.1-3.6
			c1-1.4,1.7-3,2.1-4.6c0.1-0.7,0.2-1.2,0.2-1.9c0-0.3-0.1-0.7-0.2-1c-0.1-0.3-0.5-0.7-1-0.7c-0.6-0.1-1,0.3-1.3,0.6
			c-0.3,0.3-0.5,0.5-0.7,0.8c-0.4,0.6-0.8,1.1-1.2,1.8c-0.5,0.9-0.9,2-1.1,2.9c0,0.2-0.1,0.3-0.1,0.5c0,0.3-0.1,0.6,0,0.8
			c0,0.8,0.4,1.6,1,2.1c0.6,0.6,1.5,0.9,2.3,1c0.5,0.1,0.9,0,1.4,0c0.3,0,0.6-0.1,0.9-0.1c0.8-0.2,1.7-0.4,2.4-0.7
			c1-0.4,2-0.9,2.9-1.5c1-0.6,2.1-1.6,3-2.3c0.7-0.6,1.3-1.3,2-2.1c0.1-0.1,0.1-0.2,0.2-0.2c0.5-0.6,1-1.3,1.5-1.9
			c0.4-0.7,0.9-1.2,1.1-2c0.2-0.5,0.2-1.1-0.1-1.6c-0.2-0.3-0.4-0.5-0.7-0.6c-0.3-0.1-0.7-0.1-1,0c-0.2,0.1-0.3,0.2-0.5,0.3
			c-0.5,0.4-0.7,0.9-0.7,1.5c0,0.9,0.4,1.9,1.4,2.4c0.8,0.3,1.8,0.2,2.3,0.5c0.9,0.5,1.4,1.8,1.1,3c-0.1,0.4-0.2,0.8-0.4,1.2
			c-0.2,0.4-0.4,0.9-0.7,1.4c-0.3,0.5-0.6,1-0.9,1.5c-0.4,0.8-0.8,1.7-1,2.4c-0.1,0.1-0.1,0.4-0.1,0.7c0,0.3,0,0.8,0.4,1.2
			c0.4,0.4,0.4,0.3,0.6,0.4c0.5,0.1,0.8,0.1,1.1,0C112.4,49.8,112.7,49.8,113.3,49.6z M87.1,37.9C87.1,37.9,87.1,37.9,87.1,37.9
			C87.1,38,87,38.2,87.1,37.9z M87.1,37.8c0.1-0.4,0.2-0.8,0.3-1.2c0-0.1,0,0.1,0-0.1c0.1-0.3,0.1-0.4,0.2-0.7c0,0-0.1,0.6-0.1,0.6
			c-0.1,0.2-0.1,0.3-0.1,0.4C87.2,37.4,87.2,37.4,87.1,37.8C87.1,37.7,87.1,37.9,87.1,37.8z"/>
	</g>
</g>
</svg>
